/* XPM */
static char *big_statue_nb1663135314[] = {
/* columns rows colors chars-per-pixel */
"100 100 4 1 ",
"  c None",
". c black",
"X c #3F3F3F",
"o c gray50",
/* pixels */
"                                                                                                    ",
"                                            XXXXXX......                                            ",
"                                           Xoooooooooooo..                                          ",
"                                         XXXoooooooooooo..                                          ",
"                                         XXXoooooooooooo..                                          ",
"                                       XXooooooooooooooooo..                                        ",
"                                      Xooooooooooooooooooooo..                                      ",
"                                     .oooooooooooooooooooooooo.                                     ",
"                                     Xoooooooooooooooooooooooo.                                     ",
"                                    .oooooooooooooooooooooooooX.                                    ",
"                                    .oooooooooooooooooooooooooX.                                    ",
"                                    .oooooooooooooooooooooooXXX.                                    ",
"                                    .ooooooooXXXXX.....oooXXXXX.                                    ",
"                                    .ooooooooXXXXX.....oooXXXXX.                                    ",
"                                  ..ooooooo..XXXXXXXXXX..oXXXXXX.                                   ",
"                                  ..ooooo..XXXXXXXXXXXXXX.ooXXXX.                                   ",
"                                  ..ooo..XXXXoooo.ooooooXX..XXXX.                                   ",
"                                  ..ooo..XXXXoooo.ooooooXX..XXXX.                                   ",
"                                  ..oo.XXXXXoooo.X..oooooXXX..oX.                                   ",
"                                  ..o.XXXoooo...XXXX...oooXXXX.X.                                   ",
"                                  ..o.Xoooo..XXXXoooXXX...XXXX.X.                                   ",
"                                  ..o.Xoo..XXXoooooooooXX.ooXX.X.                                   ",
"                                  ..o.Xoo..XXXoooooooooXX.ooXX.X.                                   ",
"                                  ..o.Xoo..Xooooooooooooo.ooXX.X.                                   ",
"                                  ..o.Xoo..Xooooooooooooo.ooXX.X.                                   ",
"                                  ..o.Xoo..Xooooooooooooo.ooXX.X.                                   ",
"                                  ..o.XXX..X....oooo....o.XXXX.X.                                   ",
"                                  ..o.XXX..Xooooooooooooo.XXXX.X.                                   ",
"                                  ..o.XXX..Xooooooooooooo.XXXX.X.                                   ",
"                                  ..o.XXX..Xooooooooooooo.XXXX.X.                                   ",
"                                  ..o.XXXXX.Xooooooooooo.XXXXX.X.                                   ",
"                                 .ooo.XXXXXX............XXXXXX.XX..                                 ",
"                                 .ooo.XXXXX.XXXXXXXXXXXo.XXXXX.XX..                                 ",
"                                 .ooo.XXX..XoXXXXXXXXoooX.XXXX.XX..                                 ",
"                                 .ooo.XXX..XoXXXXXXXXoooX.XXXX.XX..                                 ",
"                                 .ooo.XXX..XoXXXXXXXXoooX.XXXX.XX..                                 ",
"                                 .ooo.X..XXooooooooooooooX..XX.XX..                                 ",
"                                 .ooo..XXooooooo....ooooooXX...XX..                                 ",
"                                 .ooo.XXXooooo..oooo.oooooXXXX.XX..                                 ",
"                                 .ooo.XXXooooo..oooo.oooooXXXX.XX..                                 ",
"                                .oooo.XXXoooXX..o.oo.XXXooXXoo.XXXX.                                ",
"                                .oooo.XXXoooXX..o.oo.XXXooXXoo.XXXX.                                ",
"                                .ooo.XXXXXXXXXXXo.oo.XXXXXXXooo.XXX.                                ",
"                                .ooo.XXoo.....ooo.ooo..X..ooooo.XXX.                                ",
"                                .ooo.XXoo.....ooo.ooo..X..ooooo.XXX.                                ",
"                                .ooo.Xooooooo.oo.X..o..oooooooo.XXX.                                ",
"                                .ooo.Xoooooooo..XXXX.oooooooooo.XXX.                                ",
"                                .ooo.Xoooooooo..XXXX.oooooooooo.XXX.                                ",
"                                .ooo.Xoooooooo..XXXX.oooooooooo.XXX.                                ",
"                               .oooo.Xoooooooo..XXXX.oooooooooo.XXXX.                               ",
"                               .oooo.Xoooooooo..XXoo.oooooooooo.XXXX.                               ",
"                               .oooo.Xoooooooo..Xooo.oooooooooo.XXXX.                               ",
"                               .oooo.Xoooooooo..Xooo.oooooooooX.XXXX.                               ",
"                               .oooo.Xoooooooo..Xooo.oooooooooX.XXXX.                               ",
"                            ...ooooo.XXooooooo..Xooo.oooooooXXX.XXXXX.                              ",
"                            ...ooooo.XXooooooo..Xooo.oooooooXXX.XXXXX.                              ",
"                            ...ooooo..XXXXXooo..Xooo.ooooXXXXX..XXXXX.                              ",
"                            ...ooooo.X.XXXXXXX..Xooo.ooXXXXX..X.XXXXX.                              ",
"                               .oooo.XX..XXXXX..Xooo.ooXXX..XXX.XXXX.                               ",
"                                .....XXXX.....XXXoooX.....XXXXX.....                                ",
"                                .....XXXX.....XXXoooX.....XXXXX.....                                ",
"                                    .oXXXXXXXXooooooXXXXXXXXXXX.                                    ",
"                                    .oXXXXXXooooooooXXXXXXXXXXX.                                    ",
"                                  ..oooooXXXooooooooXXXXXXXXXXXX.                                   ",
"                               XXX..oooooXXXoooooooooooXXXXXXXXX.....                               ",
"                               XXX..oooooXXXoooooooooooXXXXXXXXX.....                               ",
"                               XXX..oooooXXXoooooooooooXXXXXXXXX.....                               ",
"                            ...ooo..oooooooooooooooooooXXXXXXXXX.XXXX.                              ",
"                           .oooooo..oooooooooooooooooooXXXXXXXXX.XXXXo.                             ",
"                          .ooooooooo..oooooXoooooooooooo.XXXXX..XXXXXoo...                          ",
"                         .ooooooooooXX.....Xoooooooooooo......X.XXXXXooooo.                         ",
"                         .oooooooooooXXXXXXXoooooooooooo.XXXXXX.XXXXXooooo.                         ",
"                         .oooooooooooXXXXXXXoooooooooooo.XXXXXX.XXXXXooooo.                         ",
"                         .ooooooooooXoXXXXXXXXXXX.......XXXXXXX.XXXXXooooo.                         ",
"                         .oooooooo..oooooXXXXXXXXXXXXXXXXXXXXXXX.XXXoooooo.                         ",
"                         .oooooooo..oooooXXXXXXXXXXXXXXXXXXXXXXX.XXXoooooo.                         ",
"                         .oooooooo..oooooooXXXXXXXXXXXXXXXXXXXXX.XXXoooooo.                         ",
"                         .ooooooooXXooooooooooooooXXXXXXXXXXXXXX.XXXoooooo.                         ",
"                         .ooooooooXXooooooooooooooXXXXXXXXXXXXXX.XXXoooooo.                         ",
"                         .ooooooooXXooooooooooooooXXXXXXXXXXXXXX.XXooooooo.                         ",
"                         .oooooooooo.XoooXXooooooooooXXXX.XXXX..XXXooooooo.                         ",
"                         .ooooooooooooXXXXXooooooooooXXXX.....XXoooooooooo.                         ",
"                         .oooooooooooooooooXXXXX.........ooooooooooooooooo.                         ",
"                         .XooooooooooooooooooooooooooooooooooooooooooooXXX.                         ",
"                         .XooooooooooooooooooooooooooooooooooooooooooooXXX.                         ",
"                         .XXooooooooooooooooooooooooooooooooooooooooooXXXX.                         ",
"                         .XXooooooooooooooooooooooooooooooooooooooooooXXXX.                         ",
"                          .oXXXooooooooooooooooooooooooooooooooooooooXX...                          ",
"                          ..ooooooooooooooooooooooooooooooooooooooooXX....                          ",
"                          .o...ooXXXXXXXXXXXXXXXXXXXXXXXXXXXXXXXXXXXX.X...                          ",
"                          .o...ooXXXXXXXXXXXXXXXXXXXXXXXXXXXXXXXXXXXX.X...                          ",
"                          .oooo.oXXXXXXXXXXXXXXXXXXXXXXXXXXXXXXXXXXX.XX...                          ",
"                          .ooooo....................................XXX...                          ",
"                           .ooooooXXXXXXXXXXXXXXXXXXXXXXXXXXXXXXXooXXX.                             ",
"                            ...XooXXXXXXXXXXXXXXXXXXXXXXXXXXXXXXXooXX.                              ",
"                               .ooXXXXXXXXXXXXXXXXXXXXXXXXXXXXXXXooX.                               ",
"                               .ooXXXXXXXXXXXXXXXXXXXXXXXXXXXXXXXooX.                               ",
"                               .ooXXXXXXXXXXXXXXXXXXXXXXXXXXXXXXXooX.                               ",
"                               .ooXXXXXXXXXXXXXXXXXXXXXXXXXXXXXXXooX.                               ",
"                                ....................................                                "
};
