/* XPM */
static char *chest_open_small_copiz1663135576[] = {
/* columns rows colors chars-per-pixel */
"100 100 4 1 ",
"  c None",
". c black",
"X c #3F3F3F",
"o c gray50",
/* pixels */
"                                                                                                    ",
"                                                                                                    ",
"                                                                                                    ",
"                                                                                                    ",
"                                                                                                    ",
"                                                                                                    ",
"                                                                                                    ",
"                                                                                                    ",
"                                                                                                    ",
"                                                                                                    ",
"                                                                                                    ",
"                                                                                                    ",
"                                                                                                    ",
"                                                                                                    ",
"                                                                                                    ",
"                                                                                                    ",
"                                                                                                    ",
"                                                                                                    ",
"                             .....                              ......                              ",
"                            Xoooo................................oooooX                             ",
"                            Xoooo.XXXXXXXXXooooooXXXXXXXXXXXXXXX.oooooX                             ",
"                            Xoooo.XXXXooooooo........ooooooXXXXX.oooooX                             ",
"                            .XXXX.XXXXXXXXXXX.ooXooo.XXXXXXXXXXX.XXXXX.                             ",
"                            .XXXX.XXXXXXXXXXX.ooXooo.XXXXXXXXXXX.XXXXX.                             ",
"                            .XXXX.............oooXXo.............XXXXX.                             ",
"                            .XXXX.............oooooo.............XXXXX.                             ",
"                            .XXXX.............oooooo.............XXXXX.                             ",
"                            .XXXX.............XXXXXX.............XXXXX.                             ",
"                            .XXXX................................XXXXX.                             ",
"                            .XXXX................................XXXXX.                             ",
"                            .XXXX................................XXXXX.                             ",
"                            .XXXX................................XXXXX.                             ",
"                            .XXXX.....XXXXXXXXXXXXXXXXXXXXXXXX...XXXXX.                             ",
"                            .XXXX.....XXXXXXXXXXXXXXXXXXXXXXXX...XXXXX.                             ",
"                            .XXXX.....XXXXXXXXXXXXXXXXXXXXXXXX...XXXXX.                             ",
"                            .XXXX..XXXXXXXXXXXXXXXXXXXXXXXXXXX...XXXXX.                             ",
"                            .XXXX..XXXXXXXXXXXXXXXXXXXXXXXXXXX...XXXXX.                             ",
"                            .XXXX..XXXXXXXXXXXXXXXXXXXXXXXXXXX...XXXXX.                             ",
"                            .XXXX.XXXXXXXXXXXXXXXXXXXXXXXXXXXXXX.XXXXX.                             ",
"                            .XXXX.XXXXXXXXXXXXXXXXXXXXXXXXXXXXXX.XXXXX.                             ",
"                            .XXXX.XXXXXXXXXXXXXXXXXXXXXXXXXXXXXX.XXXXX.                             ",
"                            .XXXX.XXXXXXXXXXXXXXXXXXXXXXXXXXXXXX.XXXXX.                             ",
"                            .XXXX.XXXXXXXXXXXXXXXXXXXXXXXXXXXXXX.XXXXX.                             ",
"                            ......XXXXXXXXXXXXXXXXXXXXXXXXXXXXXX.......                             ",
"                            .oooo................................ooooo.                             ",
"                            .XXXX................................XXXXX.                             ",
"                            .XXXX................................XXXXX.                             ",
"                            ......XXXXXXXXXXXXXXXXXXXXXXXXXXXXXX.......                             ",
"                            ......XXXXXXXXXXXXXXXXXXXXXXXXXXXXXX.......                             ",
"                            .oXXX.XXXX..XX...XXXXXXXXXXXXXXXXXXX.XXXoo.                             ",
"                            .oXXX.XXXX..XX...XXXXXXXXXXXXXXXXXXX.XXXoo.                             ",
"                            .oXXX................................XXooo.                             ",
"                            .oooo................................ooooo.                             ",
"                            .oooo................................ooooo.                             ",
"                            .oooo................................ooooo.                             ",
"                            .oooo................................ooooo.                             ",
"                            .oooo................................ooooo.                             ",
"                            .oooo................................ooooo.                             ",
"                            Xoooo................................ooooo.                             ",
"                            Xoooo................................ooooo.                             ",
"                            Xoooo................................ooooo.                             ",
"                            Xoooo................................ooooo.                             ",
"                            Xoooo................................ooooo.                             ",
"                            Xoooo................................oooooX                             ",
"                            Xoooo................................oooooX                             ",
"                            Xoooo.XXXXXXXXX.XXXXXXXXXXX.XXXXXXXX.ooooo.                             ",
"                            .oXXX.XXXXXXXXX.XXXXXXXXXXX.XXXXXXXX.XXXoo.                             ",
"                            .oXXX.XXXXXXXXX.XXXXXXXXXXX.XXXXXXXX.XXXoo.                             ",
"                            .oXXX.XXXXXXXXX.XXXXXXXXXXX.XXXXXXXX.XXXoo.                             ",
"                            .oXXX.XXXXXXXXX.XXXXXXXXXXX.XXXXXXXX.XXXoo.                             ",
"                            .XXXX.XXXXXXXXX.XXXXXXXXXXX.XXXXXXXX.XXXXX.                             ",
"                            .XXXX.XXXXXXXXX.XXXXXXXXXXX.XXXXXXXX.XXXXX.                             ",
"                            .XXXX..XXXXXXXX.XXXXXXXXXXX.XXXXXXXX.XXXXX.                             ",
"                            .XXXX..XXXXXXXX.XXXXXXXXXXX.XXXXXXXX.XXXXX.                             ",
"                            .XXXX..XXXXXXXX.XXXXXXXXXXX.XXXXXXXX.XXXXX.                             ",
"                            .XXXX..XXXXXXXX.XXXXXXXXXXX.XXXXXXXX.XXXXX.                             ",
"                            .XXXX..XXXXXXXX.XXXXXXXXXXX.XXXXXXXX.XXXXX.                             ",
"                            ............XXX.X.XXXXXXXXX.X..............                             ",
"                            .ooooo..............................oooooo.                             ",
"                            .XXXXX.XXXXXooooooooooooooooooooXX..XXXXXX.                             ",
"                            .XXXXX.XXXXXooooooooooooooooooooXX..XXXXXX.                             ",
"                            .XXXXX.XXXXXXXXXXXXXXXXXXXXXXXXXXX..XXXXXX.                             ",
"                            ...........................................                             ",
"                                                                                                    ",
"                                                                                                    ",
"                                                                                                    ",
"                                                                                                    ",
"                                                                                                    ",
"                                                                                                    ",
"                                                                                                    ",
"                                                                                                    ",
"                                                                                                    ",
"                                                                                                    ",
"                                                                                                    ",
"                                                                                                    ",
"                                                                                                    ",
"                                                                                                    ",
"                                                                                                    ",
"                                                                                                    ",
"                                                                                                    "
};
