/* XPM */
static char *chest_small_copie1663135576[] = {
/* columns rows colors chars-per-pixel */
"100 100 4 1 ",
"  c None",
". c black",
"X c #3F3F3F",
"o c gray50",
/* pixels */
"                                                                                                    ",
"                                                                                                    ",
"                                                                                                    ",
"                                                                                                    ",
"                                                                                                    ",
"                                                                                                    ",
"                                                                                                    ",
"                                                                                                    ",
"                                                                                                    ",
"                                                                                                    ",
"                                                                                                    ",
"                                                                                                    ",
"                                                                                                    ",
"                                                                                                    ",
"                                                                                                    ",
"                                                                                                    ",
"                                                                                                    ",
"                                                                                                    ",
"                                                                                                    ",
"                                                                                                    ",
"                                                                                                    ",
"                                                                                                    ",
"                                                                                                    ",
"                                                                                                    ",
"                                                                                                    ",
"                                                                                                    ",
"                                                                                                    ",
"                                                                                                    ",
"                                                                                                    ",
"                                                                                                    ",
"                                                                                                    ",
"                                                                                                    ",
"                                                                                                    ",
"                                                                                                    ",
"                                                                                                    ",
"                                                                                                    ",
"                                                                                                    ",
"                                                                                                    ",
"                                                                                                    ",
"                                                                                                    ",
"                                                                                                    ",
"                             .....                              ......                              ",
"                            .XXXX.......... ........... .........XXXXX.                             ",
"                            XoXXX.XXXXXXXXX.XXXXXXXXXXX.XXXXXXXX.XXXoo.                             ",
"                            XoXXX.XXXXXXXXX.XXXXXXXXXXX.XXXXXXXX.XXXoo.                             ",
"                            Xoooo.XXXXXXXXXXoXXXXXXXXXX.XXXXXXXX.ooooo.                             ",
"                            Xoooo.XXXXXXXXoXoXXXXXXXXooXXXXXXXXXXoooooX                             ",
"                            Xoooo.XXXXXXXXoXoXXXXXXXXooXXXXXXXXXXoooooX                             ",
"                            Xoooo.XXXooooooXoXoooooooooXXXXoooooXoooooX                             ",
"                            Xoooo.XooooooooXoooooooooooXooooooooXoooooX                             ",
"                            Xoooo.XooooooooXoooooooooooXooooooooXoooooX                             ",
"                            Xoooo.XooooooooXoooooooooooXooooooooXoooooX                             ",
"                            Xoooo.XooooooooXoooooooooooXooooooooXoooooX                             ",
"                            Xoooo.XooooooooXoooooooooooXooooooooXoooooX                             ",
"                            .oooo.XooooooooXoooooooooooXooooooooXoooooX                             ",
"                            .oooo.XooooooooXoooooooooooXooooooooXoooooX                             ",
"                            .oooo.XooooooooXoooooooooooXooooooooXoooooX                             ",
"                            .oooo.XooooooooXooooooooooo.oooooooo.oooooX                             ",
"                            .oooo.XXXXXXXXXXXXXXXXXXXXX.XXXXXXXX.oooooX                             ",
"                            .oooo.XXXXXXXXXXXXXXXXXXXXX.XXXXXXXX.oooooX                             ",
"                            .oooo.XXXXXXXXX.XXXXXXXXXXX.XXXXXXXX.ooooo.                             ",
"                            .oooo.XXXXXXXXX.XXXXXXXXXXX.XXXXXXXX.ooooo.                             ",
"                            ......XXXXXXXXX.X........XX.XXXXXXXX.......                             ",
"                            ......XXXXXXXXX.X........XX.XXXXXXXX.......                             ",
"                            .oooo.............oooooo.............ooooo.                             ",
"                            .oXXX.............XX...X....XXXXXXXX.XXXoo.                             ",
"                            .oXXX.............XX...X....XXXXXXXX.XXXoo.                             ",
"                            .oXXX.XXXXXXXXX.X.XXX..X....XXXXXXXX.XXXoo.                             ",
"                            .oXXX.XXXXXXXXX.X.XXX..X....XXXXXXXX.XXXoo.                             ",
"                            .XXXX..XXXXXXXX.X.XXXXXX....XXXXXXXX.XXXXX.                             ",
"                            .XXXX..XXXXXXXX.X........XX.XXXXXXXX.XXXXX.                             ",
"                            .XXXX..XXXXXXXX.XX......XXX.XXXXXXXX.XXXXX.                             ",
"                            .XXXX..XXXXXXXX.XX......XXX.XXXXXXXX.XXXXX.                             ",
"                            .XXXX..XXXXXXXX.XXXXXXXXXXX.XXXXXXXX.XXXXX.                             ",
"                            .XXXX..XXXXXXXX.XXXXXXXXXXX.XXXXXXXX.XXXXX.                             ",
"                            .XXXX..XXXXXXXX.XXXXXXXXXXX.XXXXXXXX.XXXXX.                             ",
"                            ..............X.............X..............                             ",
"                            ..............X.............X..............                             ",
"                            .XXXXX.XXXXXXXoooooooooooooooooXXX..XXXXXX.                             ",
"                            .XXXXX.XXXXXXXoooooooooooooooooXXX..XXXXXX.                             ",
"                            .XXXXX.XXXXXXXXXXXXXXXXXXXXXXXXXXX..XXXXXX.                             ",
"                            ...........................................                             ",
"                            ...........................................                             ",
"                                                                                                    ",
"                                                                                                    ",
"                                                                                                    ",
"                                                                                                    ",
"                                                                                                    ",
"                                                                                                    ",
"                                                                                                    ",
"                                                                                                    ",
"                                                                                                    ",
"                                                                                                    ",
"                                                                                                    ",
"                                                                                                    ",
"                                                                                                    ",
"                                                                                                    ",
"                                                                                                    ",
"                                                                                                    ",
"                                                                                                    "
};
