/* XPM */
static char *ce8432659db443b7f74a142b878366ad6SpO431MuGyH0moT[] = {
/* columns rows colors chars-per-pixel */
"100 100 8 1 ",
"  c None",
". c #371515",
"X c #491E1D",
"o c #622020",
"O c #762727",
"+ c #772828",
"@ c #FFAEAE",
"# c #F6D7D7",
/* pixels */
"                                                                                                    ",
"                                                                                                    ",
"                                                                                                    ",
"                                                                                                    ",
"                                                                                                    ",
"                                                                                                    ",
"                                                                                                    ",
"                                                                                                    ",
"                                                                                                    ",
"                                                                                                    ",
"                                                                                                    ",
"                                                                                                    ",
"                                                                                                    ",
"                                                                                                    ",
"                                                                                                    ",
"                                                                                                    ",
"                                                                                                    ",
"                                                                                                    ",
"                                                                                                    ",
"                             ...                                                         ....       ",
"                             ...                                                         ....       ",
"                             ...                                                         ....       ",
"                          ......                                                   ...   ....       ",
"                          ......                                                   ...   ....       ",
"                          ......                                                   ...   ....       ",
"                          ......                                                   ...   ....       ",
"                             ...                                                   ..........       ",
"                             ...                                                   ..........       ",
"                             ...                                                   ..........       ",
"                             ...                          ######                ......              ",
"                             ...                          ######                ......              ",
"                             ...                          ######                ......              ",
"                          ......   ####OOOOOO          ###   ######                ...              ",
"                          ......   ####OOOOOO          ###   ######                ...              ",
"                          ......   ####OOOOOO          ###   ######                ...              ",
"                          ...   #######...@@@OOOOOO####   OOOOOOOOOOOO             ...              ",
"                          ...   #######...@@@OOOOOO####   OOOOOOOOOOOO             ...              ",
"                          ...   #######...@@@OOOOOO####   OOOOOOOOOOOO             ...              ",
"                          .............###......OOO####OOOOOO...@@@@@@OOOO         ...              ",
"                          .............###......OOO####OOOOOO...@@@@@@OOOO         ...              ",
"                          .............###......OOO####OOOOOO...@@@@@@OOOO         ...              ",
"                          .............###......OOO####OOOOOO...@@@@@@OOOO         ...              ",
"                             ###OOO.............+++++++###............................              ",
"                             ###OOO.............+++++++###............................              ",
"                             ###OOO.............+++++++###............................              ",
"                             ###OOOoooo......ooo++++++++++......###.......###                       ",
"                             ###OOOoooo......ooo++++++++++......###.......###                       ",
"                             ###OOOoooo......ooo++++++++++......###.......###                       ",
"                          ###      OOOOooooooOOOOOOOOOOOOO...###...#######                          ",
"                          ###      OOOOooooooOOOOOOOOOOOOO...###...#######                          ",
"                          ###      OOOOooooooOOOOOOOOOOOOO...###...#######                          ",
"                             ###       oooooooooOOOOOOOOOOooo.........oooo                          ",
"                             ###       oooooooooOOOOOOOOOOooo.........oooo                          ",
"                             ###       oooooooooOOOOOOOOOOooo.........oooo                          ",
"                                #######ooo......oooOOOOOOOOOOoooooooooOOOOOOO                       ",
"                                #######ooo......oooOOOOOOOOOOoooooooooOOOOOOO                       ",
"                                #######ooo......oooOOOOOOOOOOoooooooooOOOOOOO                       ",
"                                       ................ooooooOOOOOOOOO####OOO   ###                 ",
"                                       ................ooooooOOOOOOOOO####OOO   ###                 ",
"                                       ................ooooooOOOOOOOOO####OOO   ###                 ",
"                                       ................ooooooOOOOOOOOO####OOO   ###                 ",
"                                   .............................######OOOO######   ###              ",
"                                   .............................######OOOO######   ###              ",
"                                   .............................######OOOO######   ###              ",
"                                #######......................###...OOOOOOOOOOOOO   ###              ",
"                                #######......................###...OOOOOOOOOOOOO   ###              ",
"                                #######......................###...OOOOOOOOOOOOO   ###              ",
"                                   #######.............######......OOOOOOOOOO######                 ",
"                                   #######.............######......OOOOOOOOOO######                 ",
"                                   #######.............######......OOOOOOOOOO######                 ",
"                                ###OOOO.........#######............oooOOOOOOOOOO                    ",
"                                ###OOOO.........#######............oooOOOOOOOOOO                    ",
"                                ###OOOO.........#######............oooOOOOOOOOOO                    ",
"                @@@@@@@@@@   ###XXXXXXX...............................OOOOOOOOOO                    ",
"                @@@@@@@@@@   ###XXXXXXX...............................OOOOOOOOOO                    ",
"                @@@@@@@@@@   ###XXXXXXX...............................OOOOOOOOOO                    ",
"                @@@@@@@@@@   ###XXXXXXX...............................OOOOOOOOOO                    ",
"       ###   @@@@@@@@@@@@@@@@###XXXXXXXXXX.........................XXXXXXXOOOOOO                    ",
"       ###   @@@@@@@@@@@@@@@@###XXXXXXXXXX.........................XXXXXXXOOOOOO                    ",
"       ###   @@@@@@@@@@@@@@@@###XXXXXXXXXX.........................XXXXXXXOOOOOO                    ",
"       #########@@@@@@@@@@@@@XXXXXXXXXXXXX......................@@@XXXXXXXXXX                       ",
"       #########@@@@@@@@@@@@@XXXXXXXXXXXXX......................@@@XXXXXXXXXX                       ",
"       #########@@@@@@@@@@@@@XXXXXXXXXXXXX......................@@@XXXXXXXXXX                       ",
"    ###      @@@@@@@@@@@@@@@@@@@XXXXXXX@@@@@@@@@@@@@@@@@@@@@@@@@XXXXXXXXXXXXX                       ",
"    ###      @@@@@@@@@@@@@@@@@@@XXXXXXX@@@@@@@@@@@@@@@@@@@@@@@@@XXXXXXXXXXXXX                       ",
"    ###      @@@@@@@@@@@@@@@@@@@XXXXXXX@@@@@@@@@@@@@@@@@@@@@@@@@XXXXXXXXXXXXX                       ",
"                                                                                                    ",
"                                                                                                    ",
"                                                                                                    ",
"                                                                                                    ",
"                                                                                                    ",
"                                                                                                    ",
"                                                                                                    ",
"                                                                                                    ",
"                                                                                                    ",
"                                                                                                    ",
"                                                                                                    ",
"                                                                                                    ",
"                                                                                                    ",
"                                                                                                    "
};
