/* XPM */
static char *_de6106e07a44eb8bcb256021fb68afflC9dxeBmUQ2bcM00[] = {
/* columns rows colors chars-per-pixel */
"100 100 9 1 ",
"  c None",
". c #371515",
"X c #491E1D",
"o c #622020",
"O c #632121",
"+ c #762727",
"@ c #772828",
"# c #FFAEAE",
"$ c #F6D7D7",
/* pixels */
"                                                                                                    ",
"                                                                                                    ",
"                                                                                                    ",
"                                                                                                    ",
"                                                                                                    ",
"                                                                                                    ",
"                                                                                                    ",
"                                                                                                    ",
"                                                                                                    ",
"                                                                                                    ",
"                                                                                                    ",
"                                                                                                    ",
"                                                                                                    ",
"                                                                                                    ",
"                                                                                                    ",
"                                                                                                    ",
"                                                                $$$                                 ",
"                                                                $$$                                 ",
"                                                                $$$                                 ",
"                                   $$$$                      $$$   $$$                              ",
"                                   $$$$                      $$$   $$$                              ",
"                                   $$$$                      $$$   $$$                              ",
"                                $$$                $$$$                                             ",
"                                $$$                $$$$                                             ",
"                                $$$                $$$$                                             ",
"                                $$$                $$$$                                             ",
"                                                                                                    ",
"                                                                                                    ",
"                                                                                                    ",
"                                                                                                    ",
"                                                                                                    ",
"                                                                                                    ",
"                                                                                                    ",
"                                                                                                    ",
"                                                                                                    ",
"                          ...                                                         ...           ",
"                          ...                                                         ...           ",
"                          ...                                                         ...           ",
"                       ......                                                   ...   ...           ",
"                       ......                                                   ...   ...           ",
"                       ......                                                   ...   ...           ",
"                       ......                                                   ...   ...           ",
"                          ...                                                   .........           ",
"                          ...                                                   .........           ",
"                          ...                                                   .........           ",
"             $$$          ...                                                ......                 ",
"             $$$          ...                                                ......                 ",
"             $$$          ...                                                ......                 ",
"                       ......      +++++++                                      ...                 ",
"                       ......      +++++++                                      ...                 ",
"                       ......      +++++++                                      ...                 ",
"                $$$$   ...      +++.......++++++       ++++++++++++             ...$$$              ",
"                $$$$   ...      +++.......++++++       ++++++++++++             ...$$$              ",
"                $$$$   ...      +++.......++++++       ++++++++++++             ...$$$              ",
"                       ......................+++@@@+++++++.........+++$$$$      ...      $$$$       ",
"                       ......................+++@@@+++++++.........+++$$$$      ...      $$$$       ",
"                       ......................+++@@@+++++++.........+++$$$$      ...      $$$$       ",
"                             +++.............@@@@@@@@@@............$$$.............                 ",
"                             +++.............@@@@@@@@@@............$$$.............                 ",
"                             +++.............@@@@@@@@@@............$$$.............                 ",
"                             +++.............@@@@@@@@@@............$$$.............                 ",
"                             $$$ooo.......OOO@@@@@@@@@@.........$$$...                          $$$ ",
"                             $$$ooo.......OOO@@@@@@@@@@.........$$$...                          $$$ ",
"                             $$$ooO.......OOO@@@@@@@@@@.........$$$...                          $$$ ",
"                                +++ooooooo+++++++++++++...............                              ",
"                                +++Ooooooo+++++++++++++...............                              ",
"                                +++ooooooo+++++++++++++...............                              ",
"$$$$$$$                $$$         oooooooooo++++++++++ooo.........ooO@@@@@@@                   $$$ ",
"$$$$$$$                $$$         oooooooooo++++++++++ooo.........ooo+@@@@@@                   $$$ ",
"$$$$$$$                $$$         Oooooooooo++++++++++ooo.........ooo@@@@@@@                   $$$ ",
"                                   oooo......ooooooooooooooooooooooooo@@@@@@@@@@                    ",
"                                   oooo......ooooooooooooooooooooooooO@@@@@@@@@@                    ",
"                                   Oooo......ooOoooooooooooooooooooooo++@+@@@@@@                    ",
"          ##########            XXXXXXX...............................OoOo@@@@@@@@@                 ",
"          ##########            XXXXXXX...............................oooo@@@@@@@@@                 ",
"          ##########            XXXXXXX...............................oooO@@@@@@@@@                 ",
"          ##########            XXXXXXX...............................oooo+@@@@@@@@                 ",
"       ################      XXXXXXXXXXXXX.........................XXXXXXXooO@@@@@@                 ",
"       ################      XXXXXXXXXXXXX.........................XXXXXXXooo@@@@@@                 ",
"       ################      XXXXXXXXXXXXX.........................XXXXXXXooo+@@@@@                 ",
"       ################      XXXXXXXXXXXXX......................###XXXXXXXXXX@@@@@@                 ",
"       ################      XXXXXXXXXXXXX......................###XXXXXXXXXX@@@@@@                 ",
"       ################      XXXXXXXXXXXXX......................###XXXXXXXXXX@@@@@@                 ",
"       ################   ######XXXXXXX#########################XXXXXXXXXXXXXOOO                    ",
"       ################   ######XXXXXXX#########################XXXXXXXXXXXXXOOO                    ",
"       ################   ######XXXXXXX#########################XXXXXXXXXXXXXOOO                    ",
"                                                                                                    ",
"                                                                                                    ",
"                                                                                                    ",
"                                                                                                    ",
"                                                                                                    ",
"                                                                                                    ",
"                                                                                                    ",
"                                                                                                    ",
"                                                                                                    ",
"                                                                                                    ",
"                                                                                                    ",
"                                                                                                    ",
"                                                                                                    ",
"                                                                                                    "
};
