/* XPM */
static char *ef3f1da8b7be4998ed51bb0a63d24102mANyWHqTFp3lQ5uw[] = {
/* columns rows colors chars-per-pixel */
"100 100 8 1 ",
"  c None",
". c #371515",
"X c #491E1D",
"o c #622020",
"O c #762727",
"+ c #772828",
"@ c #FFAEAE",
"# c #F6D7D7",
/* pixels */
"                                                                                                    ",
"                                                                                                    ",
"                                                                                                    ",
"                                                                                                    ",
"                                                                                                    ",
"                                                                                                    ",
"                                                                                                    ",
"                                                                                                    ",
"                                                                                                    ",
"                                                                                                    ",
"                                                                                                    ",
"                                                                                                    ",
"                                                                                                    ",
"                                                                                                    ",
"                                                                                                    ",
"                                                                                                    ",
"                                ###                                ###                              ",
"                                ###                                ###                              ",
"                                ###                                ###                              ",
"                                                                                                    ",
"                                                                                                    ",
"                                                                                                    ",
"                                                                                                    ",
"                                                                                                    ",
"                                                                                                    ",
"                                                                                                    ",
"                                                                                                    ",
"                                                                                                    ",
"                                                                                                    ",
"                                                                                                    ",
"                                                                                                    ",
"                                                                                                    ",
"                                                                                                    ",
"                                                                                                    ",
"                                                                                                    ",
"                                                                                                    ",
"                                                                                                    ",
"                                                                                                    ",
"                                                                                                    ",
"                                                                                                    ",
"                                                                                                    ",
"                                                                                                    ",
"             ###                                                                                    ",
"             ###                                                                                    ",
"             ###                                                                                    ",
"                          ...                                                         ...           ",
"                          ...                                                         ...           ",
"                          ...                                                         ...           ",
"                       ......                                                   ...   ...           ",
"                       ......                                                   ...   ...           ",
"                       ......                                                   ...   ...           ",
"                          ...                                                   .........    ###    ",
"                          ...                                                   .........    ###    ",
"                          ...                                                   .........    ###    ",
"                          ...                                                ......                 ",
"                          ...                                                ......                 ",
"                          ...                                                ......                 ",
"                       ......   ###OOOOOOO                                      ...                 ",
"                       ......   ###OOOOOOO                                      ...                 ",
"                       ......   ###OOOOOOO                                      ...                 ",
"                       ......   ###OOOOOOO                                      ...                 ",
"                       ...      OOO.......OOOOOO       OOOOOOOOOOOO             ...                #",
"                       ...      OOO.......OOOOOO       OOOOOOOOOOOO             ...                #",
"                       ...      OOO.......OOOOOO       OOOOOOOOOOOO             ...                #",
"                    ###......................OOO+++OOOOOOO.........OOO          ...                 ",
"                    ###......................OOO+++OOOOOOO.........OOO          ...                 ",
"                    ###......................OOO+++OOOOOOO.........OOO          ...                 ",
"                             OOO.............++++++++++............................                 ",
"                             OOO.............++++++++++............................                 ",
"                             OOO.............++++++++++............................                 ",
"       @@@@@@@@@             OOOooo.......ooo++++++++++...............                             #",
"       @@@@@@@@@             OOOooo.......ooo++++++++++...............                             #",
"       @@@@@@@@@             OOOooo.......ooo++++++++++...............                             #",
"    @@@@@@@@@@@@@@@@      +++oooXXXXXXXooo+++++++++++++ooo............oooo+++                       ",
"    @@@@@@@@@@@@@@@@      +++oooXXXXXXXooo+++++++++++++ooo............oooo+++                       ",
"    @@@@@@@@@@@@@@@@      +++oooXXXXXXXooo+++++++++++++ooo............oooo+++                       ",
"    @@@@@@@@@@@@@@@@      +++oooXXXXXXXooo+++++++++++++ooo............oooo+++                       ",
"    @@@@@@@@@@@@@@@@   +++oooXXXXXXXXXXXXX++++++++++++++++oooooo...XXXXXXXooo+++                    ",
"    @@@@@@@@@@@@@@@@   +++oooXXXXXXXXXXXXX++++++++++++++++oooooo...XXXXXXXooo+++                    ",
"    @@@@@@@@@@@@@@@@   +++oooXXXXXXXXXXXXX++++++++++++++++oooooo...XXXXXXXooo+++                    ",
"    @@@@@@@@@@@@@@@@      oooXXXXXXXXXXXXXoooooooooooooooooooooo@@@XXXXXXXXXXooo+++                 ",
"    @@@@@@@@@@@@@@@@      oooXXXXXXXXXXXXXoooooooooooooooooooooo@@@XXXXXXXXXXooo+++                 ",
"    @@@@@@@@@@@@@@@@      oooXXXXXXXXXXXXXoooooooooooooooooooooo@@@XXXXXXXXXXooo+++                 ",
"       @@@@@@@@@       ooo@@@@@@XXXXXXX@@@@@@@@@@@@@@@@@@@@@@@@@XXXXXXXXXXXXXoooooo                 ",
"       @@@@@@@@@       ooo@@@@@@XXXXXXX@@@@@@@@@@@@@@@@@@@@@@@@@XXXXXXXXXXXXXoooooo                 ",
"       @@@@@@@@@       ooo@@@@@@XXXXXXX@@@@@@@@@@@@@@@@@@@@@@@@@XXXXXXXXXXXXXoooooo                 ",
"                                                                                                    ",
"                                                                                                    ",
"                                                                                                    ",
"                                                                                                    ",
"                                                                                                    ",
"                                                                                                    ",
"                                                                                                    ",
"                                                                                                    ",
"                                                                                                    ",
"                                                                                                    ",
"                                                                                                    ",
"                                                                                                    ",
"                                                                                                    ",
"                                                                                                    "
};
