/* XPM */
static char *aa5b0819134f41889b79d72744685a6bjOXAzBywlppCDQMV[] = {
/* columns rows colors chars-per-pixel */
"100 100 10 1 ",
"  c None",
". c #371515",
"X c #491E1D",
"o c #622020",
"O c #632121",
"+ c #762727",
"@ c #772828",
"# c #782929",
"$ c #FFAEAE",
"% c #F6D7D7",
/* pixels */
"                                                                                                    ",
"                                                                                                    ",
"                                                                                                    ",
"                                                                                                    ",
"                                                                                                    ",
"                                                                                                    ",
"                                                                                                    ",
"                                                                                                    ",
"                                                                                                    ",
"                                                                                                    ",
"                                                                                                    ",
"                                                                                                    ",
"                                                                                                    ",
"                                                                                                    ",
"                                                                                                    ",
"                                                                                                    ",
"                                                                                                    ",
"                                                                                                    ",
"                                                                                                    ",
"                                                                %%%                                 ",
"                                                                %%%                                 ",
"                                                                %%%                                 ",
"                          ...      %%%%                %%%%%%%%%   %%%%%%%            ...           ",
"                          ...      %%%%                %%%%%%%%%   %%%%%%%            ...           ",
"                          ...      %%%%                %%%%%%%%%   %%%%%%%            ...           ",
"                          ...      %%%%                %%%%%%%%%   %%%%%%%            ...           ",
"                       ......   %%%                %%%%                         ...   ...           ",
"                       ......   %%%                %%%%                         ...   ...           ",
"                       ......   %%%                %%%%                         ...   ...           ",
"                          ...   %%%                %%%%                         .........           ",
"                          ...   %%%                %%%%                         .........           ",
"                          ...   %%%                %%%%                         .........           ",
"                          ...                                                ......                 ",
"                          ...                                                ......                 ",
"                          ...                                                ......                 ",
"                       ......      +++++++                                      ...                 ",
"                       ......      +++++++                                      ...                 ",
"                       ......      +++++++                                      ...                 ",
"                       ...      +++....$$$++++++       ++++++++++++             ...                 ",
"                       ...      +++....$$$++++++       ++++++++++++             ...                 ",
"                       ...      +++....$$$++++++       ++++++++++++             ...                 ",
"                       ...      +++....$$$++++++       ++++++++++++             ...                 ",
"                       ......................+++@@@+++++++...$$$$$$+++          ...                 ",
"                       ......................+++@@@+++++++...$$$$$$+++          ...                 ",
"                       ......................+++@@@+++++++...$$$$$$+++          ...                 ",
"                %%%%         +++.............@@@@@@@@@@............................                 ",
"                %%%%         +++.............@@@@@@@@@@............................                 ",
"                %%%%         +++.............@@@@@@@@@@............................                 ",
"                %%%%         +++ooo.......OOo@@@@@@@@@@...............                              ",
"                %%%%         +++ooo.......OOO@@@@@@@@@@...............                              ",
"                %%%%         +++ooo.......oOO#@@@@@@@@@...............                              ",
"                    %%%         +++ooooooo+++++++++++++...............       %%%%%%%%%%%%           ",
"                    %%%         +++ooooooo@++++++++++++...............       %%%%%%%%%%%%           ",
"                    %%%         +++ooooooo+++++++++++++...............       %%%%%%%%%%%%           ",
"                       %%%         oooooooooo++++++++++ooo.........%%%    %%%                       ",
"                       %%%         oooooooooo++++++++++ooo.........%%%    %%%                       ",
"                       %%%         oooooooooo++++++++++ooo.........%%%    %%%                       ",
"                       %%%         oooo......ooo++++++++++oooooo%%%+++%%%%@@@                       ",
"                       %%%         oooo......ooo++++++++++oooooo%%%+++%%%%@@@                       ",
"                       %%%         oooo......ooo++++++++++oooooo%%%+++%%%%@@@                       ",
"                       %%%         oooo......ooo++++++++++oooooo%%%+++%%%%@@@                       ",
"                                %%%................ooooooo+++%%%+++@@@@@@@@@@@@@             %%%    ",
"                                %%%................ooooooo+++%%%+++@@@@@@@@@@@@@             %%%    ",
"                                %%%................ooooooo+++%%%+++@@@@@@@@@@@@@             %%%    ",
"             $$$$$$$         %%%...%%%%......................ooo+++@@@@@@@@@@@@@@@@             %%% ",
"             $$$$$$$         %%%...%%%%......................ooo+++@@@@@@@@@@@@@@@@             %%% ",
"             $$$$$$$         %%%...%%%%......................ooo+++@@@@@@@@@@@@@@@@             %%% ",
"          $$$$$$$$$$$$$   %%%   ................................ooo+++@@@@@@@@@@@@@          %%%    ",
"          $$$$$$$$$$$$$   %%%   ................................ooo+++@@@@@@@@@@@@@          %%%    ",
"          $$$$$$$$$$$$$   %%%   ................................ooo@++@@@@@@@@@@@@@          %%%    ",
"          $$$$$$$$$$$$$%%%      ...................................OOO#############      %%%%       ",
"          $$$$$$$$$$$$$%%%      ...................................OOo#############      %%%%       ",
"          $$$$$$$$$$$$$%%%      ...................................oOO#############      %%%%       ",
"%%%%%%%%%%$$$$$$$$$$$$$   %%%   XXXXXXX................%%%............oooo@#@@@@                    ",
"%%%%%%%%%%$$$$$$$$$$$$$   %%%   XXXXXXX................%%%............oooo@@@@@@                    ",
"%%%%%%%%%%$$$$$$$$$$$$$   %%%   XXXXXXX................%%%............oooo@@@@@@                    ",
"%%%%%%%%%%$$$$$$$$$$$$$   %%%   XXXXXXX................%%%............oooo@@@@@@                    ",
"          $$$$$$$$$$$$$      XXXXXXXXXXXXX.........................XXXXXXX++++++                    ",
"          $$$$$$$$$$$$$      XXXXXXXXXXXXX.........................XXXXXXX++++++                    ",
"          $$$$$$$$$$$$$      XXXXXXXXXXXXX.........................XXXXXXX++++++                    ",
"%%%%         $$$$$$$         XXXXXXXXXXXXX......................$$$XXXXXXXXXX                       ",
"%%%%         $$$$$$$         XXXXXXXXXXXXX......................$$$XXXXXXXXXX                       ",
"%%%%         $$$$$$$         XXXXXXXXXXXXX......................$$$XXXXXXXXXX                       ",
"%%%%                      $$$$$$XXXXXXX$$$$$$$$$$$$$$$$$$$$$$$$$XXXXXXXXXXXXX                       ",
"%%%%                      $$$$$$XXXXXXX$$$$$$$$$$$$$$$$$$$$$$$$$XXXXXXXXXXXXX                       ",
"%%%%                      $$$$$$XXXXXXX$$$$$$$$$$$$$$$$$$$$$$$$$XXXXXXXXXXXXX                       ",
"                                                                                                    ",
"                                                                                                    ",
"                                                                                                    ",
"                                                                                                    ",
"                                                                                                    ",
"                                                                                                    ",
"                                                                                                    ",
"                                                                                                    ",
"                                                                                                    ",
"                                                                                                    ",
"                                                                                                    ",
"                                                                                                    ",
"                                                                                                    ",
"                                                                                                    "
};
