/* XPM */
static char *door_stairs_nb1663091531[] = {
/* columns rows colors chars-per-pixel */
"100 100 12 1 ",
"  c None",
". c #090909",
"X c #161616",
"o c gray13",
"O c gray14",
"+ c #2C2C2C",
"@ c #2F2F2F",
"# c #393939",
"$ c #3C3C3C",
"% c gray30",
"& c gray37",
"* c #717171",
/* pixels */
"                        OOOOOOOO$$$$$$$$$$OOOOOOOOOOO$$$$$$%%%%$$$$$OOOOOOOOO                       ",
"                      OO$$$OO$$$$$$$$%%%%%%%%%%%%%%%%%%%%%%%%%%%%%%%%%%%%$$$$O                      ",
"                    OO$$$$$OO$$$$$$$$$$$$$%%%%%%%%%$$$$$$$$$$$$$$$$$$$$$$$$$$$%%                    ",
"                   $$$$$$$$OO%$$$$$$$$$$$$$$$$$$$$$$$$$$$$$$$$$$$$$$$$$$$$$$$$$$%                   ",
"                   $$$$$$$$OO%$$$$$$$$$$$$$$$$$$$$$$$$$$$$$$$$$$$$$$$$$$$$$$$$$$%                   ",
"               %%%$$$$$$$$$OO%$$$$$$$$$$$$$$$$$$$$$$$$$$$$$$$$$$$$$$$$$$$$$$$$$$$$$OO               ",
"              O$$$$$$$$$$$$OO%$$$$$$$$$%%%%%%%$$$$$$$$$$$$$$$%%%%%%%%%%%$$$$$$$$$$$$$O              ",
"             O$$$$$$$$&&&%%OO%%%%&&&&&&&&&&&&&&&&%%%%%%%%%%%%%&&&&&&&&&&%%%&&&$$$$$$$$O             ",
"             O$$$$$$$$&&&%%OO%%%%&&&&&&&&&&&&&&&&%%%%%%%%%%%%%&&&&&&&&&&%%%&&&$$$$$$$$O             ",
"            O%$$$$$$%%#####OO############################@@@@@@@@@############%%$$$$$$%OOO          ",
"          OO%$$$$$$%#######OO################################@@@@@@@############%$$$$$$%%%O         ",
"         O%%$$$$$$$O#######OO#######################********************########O$$$$$$$$$%         ",
"        O%$$$$$$$$##OO#####OO######################@&%%%%%%%%%%%%%%%%%%&@#####OO###$$$$$$$$O        ",
"        O%$$$$$$$$##OO#####OO######################@&%%%%%%%%%%%%%%%%%%&@#####OO###$$$$$$$$O        ",
"        o%$$$$$#######OO#@@OO####@@@#######@#######@&%%%%%%%%%%%%%%%%%%&@@@##O#######$$$$$$o        ",
"        o&$$&############ooOO#@@@@@@@@@@@@@@@@@@####@@@@@@@@@@@@@@@@@@@@#oo@###########&&&$o        ",
"        o&&&############@oooooooo@@@@@@@@@@@@@@@oooo@@@@@@@@@@@@@@@ooooo@ooo@#############&o        ",
"        o&&&############@oooooooo@@@@@@@@@@@@@@@oooo@@@@@@@@@@@@@@@ooooo@ooo@#############&o        ",
"        o@@@###@@@@@@@@@o@@..............................................@@%o@@@@@@@@#####@o        ",
"        o@###@########@@o@@..............................................@@%o@########@####o        ",
"       %o####@########@@o@@..............................................@@%o@########@####o%%      ",
"       %o@@@@@@####@@@@@o@@..............................................@@&o@@@@####@@@@@@o%%      ",
"       %o@@@@@@####@@@@@o@@..............................................@@&o@@@@####@@@@@@o%%      ",
"       %o#########@###@@o@@..............................................@@&o@###@@########o%%      ",
"       %o@############@@o@@..............................................@@&o@#############o%%      ",
"       %o@@@@#########@@o@@..............................................@@&o@#########@@@@o%%      ",
"       &&&&&&&&&&&&&&&&&&@@..............................................@@&&&&&&&&&&&&&&&&&&&      ",
"       %%%%%%%%%%%%%%%%%%@@..............................................@@%%%%%%%%%%%%%%%%%%%      ",
"       @%%%%%%%%%%%%%%%%%@@..............................................@@@%%%%%%%%%%%%%%%%@@      ",
"       @@@@@@@@@@@@@@@@@@@@...............XXXXXXXXXXXXXX.................@@@@@@@@@@@@@@@@@@@@@      ",
"        ooooooooooooooooo...............................XXX................oooooooooooooooooX       ",
"        ooooooooooooooooo...............................XXX................oooooooooooooooooX       ",
"        oo@@@@@@@@@@@@ooo...................................................oo@@@@@@@@@@@@@oX       ",
"        oo####@@@@@@@@@@o........XXXXXXXXXXXXXXXXXXXXXXXXXXXX...............o@@@@@@@@@#####oX       ",
"        oo############@@o.................XXXXXXXXXXXXXXXXXXXXXX............o@#############oX       ",
"        oo############@@o.................XXXXXXXXXXXXXXXXXXXX..............o@#############oX       ",
"        o###############o...................................................o##############oX       ",
"        o###@******@####o...................................................o###@******@@@#oX       ",
"        oo##@&%%%%&@####o.......................XXXXXXXXXXXXXXX.............o###@&&%%%&@@@#oX       ",
"        o###@&%%%%&@####o..............XXXXXXXXXXXXXXXXXXXXXXXX.............o###@&&%%%&@@@#oX       ",
"        o###@&%%%%&@####@............XXXXXXXXXXXXXXXXXXXXXXXXXX.............@###@&&%%%&@@@#oX       ",
"        o###@&%%%%&@####@............XXXXXXXXXXXXXXXXXXXXXXXXXX.............@###@&&%%%&@@@#oX       ",
"        oo@@@&%%%%&@####@...........XXXXXXXXXXXXOOOOOXXXXXXXXXXX............@###@&&%%%&@@@@oX       ",
"        oo##@&%%%%&@@@@@@...................................................@@@@@&&%%%&@@@#oX       ",
"        oo##@&%%%%&@####@...................................................@###@&&%%%&@@@#oX       ",
"        oo##@&%%%%&@####@...................................................@###@&&%%%&@@@#oX       ",
"        oo##@&%%%%&@####@...................................................@###@&&%%%&@@@#oX       ",
"        o@##@&%%%%&@##@@o........XXXXXXXXXXXXXXXXXXXXXXXXXXXXXXXXX..........o@##@&&%%%&@@@#oX       ",
"        o@##@&%%%%&@##@@o.......XXXXXXXXXXXXXXXXXXXXXXXXXXXXXXXXXXX.........o@##@&&%%%&@@@#oX       ",
"        o@##@&%%%%&@##@@o.......XXXXXXXXXXXXXXXXXXXXXXXXXXXXXXXXXXX.........o@##@&&%%%&@@@#oX       ",
"        o@##@&%%%%&@##@@o.......XXXXXXXXXXXXXXXXXXXXXXXXXXXXXXXXXXX.........o@##@&&%%%&@@@#oX       ",
"        o@##@&%%%%&@##@@o.......XXXXXXXXXXOOOOOOOOOOOOOOOOOXXXXXXXX.........o@##@&&%%%&@@@#oX       ",
"        oo##@&%%%%&@##ooo...................................................oo##@&&%%%&@@@#oX       ",
"        oo##@&%%%%&@####o...................................................o###@&&%%%&@@@#oX       ",
"        o###@&%%%%&@##@@o...................................................o@##@&&%%%&@@@#oX       ",
"        o###@&%%%%&@##@@o...................................................o@##@&&%%%&@@@#oX       ",
"        o###@&%%%%&@##@@o...................................................o@##@&&%%%&@@@#oX       ",
"        o@@@@&%%%%&@##@@o.....OOOOOOOOOOOOOOOOOOOOOOOOOOOOOOOOOOOOOO........o@##@&&%%%&@@@@oX       ",
"        o@@@@&%%%%&@@@@@o.....OOOOOOOOOOOOOOOOOOOOOOOOOOOOOOOOOOOOOO........o@@@@&&%%%&@@@@oX       ",
"        o@@@@&%%%%&@@@@@o.....OOOOOOOOOOOOOoOOOOOOOOOOOoOOOOOOOOOOOO........o@@@@&&%%%&@@@@oX       ",
"        oo##@&%%%%&@##@@o.....OOOOOOOOOOoO@+++++@+++++++@OOOOOOOOOOO........o@##@&&%%%&@@@#oX       ",
"        o###@&%%%%&@##oo@.....XXXXXXXXXXXXXXXXXXXXXXXXXXXXXXXX..............@o##@&&%%%&@@@#oX       ",
"        oo##@&%%%%&@##oo@.....XXXXXXXXXXXXXXXXXXXXXXXXXXXXXXXXXXXXX.........@o##@&&%%%&@@@#oX       ",
"        o###@&%%%%&@##oo@.......XXXXXXXXXXXXXXXXXXXXXXXXXXXXXXXXXXX.........@o##@&&%%%&@@@#oX       ",
"        o###@&%%%%&@##oo@...........XXXXXXXXXXXXXXXXXXXXXXXXXXXX............@o##@&&%%%&@@@#oX       ",
"        o###@&%%%%&@##oo@...........XXXXXXXXXXXXXXXXXXXXXXXXXXXX............@o##@&&%%%&@@@#oX       ",
"        o###@&%%%%&@##oo@........OOOOOOoOoOOOOOOOOOOOoOOoOOoOoOoOOOOOOO.....@o##@&&%%%&@@@#oX       ",
"        o###@&%%%%%@@@@@o.....XXXOOOOOO@@++@OOOoOOOOO++@++@+@+@+OOOOOOOO....o@@@@%%%%%&@@@#oX       ",
"        oo##@&%%%%%@@@@@o.....XXOOOO++++++++++++++++@+++++++++++++OOOOOO....X@@@@%%%%%&@@@#oX       ",
"        oo##@&%%%%%@@@@@o.....XXOoOO+++++++++++++++++++++++++++++@OOOOOO....O@@@@%%%%%&@@@#oX       ",
"        oo##@&%%%%%@##@@o........XXXXXXXXXXXXXXXXXXXXXXXXXXXXXXXXXXXXXXX....O@##@%%%%%&@@@#oX       ",
"        oo##@&%%%%%@##@@o....XXXXXXXXXXXXXXXXXXXXXXXXXXXXXXXXXXXXXXXXXXXX...o@##@%%%%%&@@@#oX       ",
"        o###@&%%%%%@####X....XXXXXXXXXXXXXXXXXXXXXXXXXXXXXXXXXXXXXXXXXXX....X###@%%%%%&@@@#oX       ",
"        o###@&%%%%%@####X....XXXXXXXXXXXXXXXXXXXXXXXXXXXXXXXXXXXXXXXXXXX....X###@%%%%%&@@@#oX       ",
"        o###@&%%%%%@####X....XXXXXXXXXXXXXXXXXXXXXXXXXXXXXXXXXXXXXXXXXXX....X###@%%%%%&@@@#oX       ",
"        oo##@&%%%%&@####X....++@++++++++++++++++++++++++++++++++++++++++....X###@&&%%%&@@@#oX       ",
"        o###@&%%%%&@####X..+++++++++++++++++++++++++++++++++++++++++++++....X###@&&%%%&@@@#oX       ",
"        o###@&%%%%&@@@@@X..++++++++++++@+++++@+++++@+++@++++++++++++++++....X@@@@&&%%%&@@@#oX       ",
"        oo##@&%%%%&@####X..++++++++@++@#$$#$$$$$#$$$#$$$#@+@+@+@+++++++++...X###@&&%%%&@@@#oX       ",
"        oo##@&%%%%&@####X..XXXXXXXXXXoOOOOOOOOOOOOOOOOOOOOoOoOoXXXXXXXXXX...X###@&&%%%&@@@#oX       ",
"        oo##@&%%%%&@####X....XXXXXXXoOOOOOOOOOOOOOOOOOOOOOOOOOOOOOOXXXXXX...o###@&&%%%&@@@#oX       ",
"        oo##@&%%%%&@##@@O....XXXXXXXOOOOOOOOOOOOOOOOOOOOOOOOOOOOOOOOXXXXX...o@##@&&%%%&@@@#oX       ",
"        o###@&%%%%&@##@@O........XXXXXOOOOOOOOOOOOOOOOOOOOOOOOOOOOOOXXXX....o@##@&&%%%&@@@#oX       ",
"        o###@&%%%%&@##@@o........XXXXXOOOOOOOOOoOOOOOOOoOOOOOOOoOOOoXXXX....o@##@&&%%%&@@@#oX       ",
"        o###@&%%%%&@##@@o....++++++++++@@+@+++++@++++++@@@++@+#@@@++++++....o@##@&&%%%&@@@#oX       ",
"        o###@%%%%%&@##@@o..+@++++++++@#$$#$$+++@++++@$#$#$$#$$$$#$+++++++...o@##@&&%%%%@@@#oX       ",
"        o###@%%%%%&@##@@o..++++++++++#$$$$$$#$$$$$#$$$$$$$$$$$$$$$#@+++++...o@##@&&%%%%@@@#oX       ",
"        o###@%%%%%%@####o..+++++++++@$$$$$$$$$$$%%%%%%%%%%%%%$$$$$$#+++++...o###@%%%%%%@@@#oX       ",
"        oo###@@@@@@#@@ooo..OOOOOOOOOOOOOOOOOOOOOOOOOOOOOOOOOOOOOOOOOOOOOO...oo@@#@@@@@@$###oX       ",
"      XXXXooooooooooooXXXoOXXOOOOOOOOOOOOOOOOOOOOOOOOOOOOOOOOOOOOOOOOOOOXXXXXXooooooooOXoooXX       ",
"    ++@+@++@+@+@++@+++@+@OOXXOOOOOOOOOOOOOOOOOOOOOOOOOOOOOOOOOOOOOOOOOOXXOO&@+++++@+@+@+@@+@+@      ",
"    %%%%%%#$#$%#$##%%%%%%oOXXXXXOOOOOOOOOOOOOOOOOOOOOOOOOOOOOOOOOOOXXXXXXOO&%%%%%#$$#%$$#$#%%%%%    ",
"    %%%%%%$$$$%$$$$%%%%%%OoXXXXXoOOoOoOoOoOOoOOoOOOoOoOOoOOoOoOoOooXXXXXXoO&%%%%%$$$$%$$$$$%%%%%    ",
"    %%%%%%%%%%%%%%%%%%%%%OOXXX+@++@+@+@@@++@+@@+$$$@@++@++@+@+@@@+@+@+++@OO&%%%%%%%%%%%%%%%%%%%%    ",
"    &&&&&&***************OO@++++++++++$$$$#$$$$$$$$$$$++@++@+#$$#$$@+@+++oO****************&&&&&    ",
"    $$$#$$$$$$$$$$$$$$$$$Oo++++++++@$#$$$$$$$$$$$$$$$$$#$$#$$$$$$$$$#$#+@OO$$$$$$$$$$$$$$$$$$$$#    ",
"    $$$$$@$$$#$$#$$#$$$$$OO@++#$$$$$$$$$$$$$$$$$$$$$$$$$$$$$$$$$$$$$$$$$$OO$$$$$#$$#$$#$$#$$$$$$    ",
"    $#$$#+$#@++@++@++@$#$Oo+@$$$$$$$$%%%%%%%%%%%%%%%%%%%%%%%%%%%%%%%%%%%$OO#$$+@++@++@++@+$$$#$$    ",
"    @++@@@+@+@++@++@+@+@@OOOOOOOOOOOOOOOOOOOOOOOOOOOOOOOOOOOOOOOOOOOOOOOOOO@+@++@++@+@+@+@@+@++@    ",
"    OOoOoOoOoOOoOOoOoOoOoOOOOOOOOOOOOOOOOOOOOOOOOOOOOOOOOOOOOOOOOOOOOOOOOOOOoOOoOOoOoOoOoOOoOOoO    "
};
