/* XPM */
static char *g1663738448[] = {
/* columns rows colors chars-per-pixel */
"100 100 2 1 ",
"  c None",
". c #772828",
/* pixels */
"                                                                                                    ",
"                                                                                                    ",
"                                                                                                    ",
"                                                                                                    ",
"                                                                                                    ",
"                                                                                                    ",
"                                                                                                    ",
"                                                                                                    ",
"                                                                                                    ",
"                                                                                                    ",
"                                                                                                    ",
"                                                                                                    ",
"                                                                                                    ",
"                             ..........................................                             ",
"                             ..........................................                             ",
"                             ..........................................                             ",
"                             ..........................................                             ",
"                     ..........................................................                     ",
"                     ..........................................................                     ",
"                     ..........................................................                     ",
"                     ..........................................................                     ",
"                 ..................................................................                 ",
"                 ..................................................................                 ",
"                 ..................................................................                 ",
"                 ..................................................................                 ",
"                 .........................                ..............................            ",
"                 .........................                ..............................            ",
"                 .........................                ..............................            ",
"                 .........................                ..............................            ",
"            .........................                         ..........................            ",
"            .........................                         ..........................            ",
"            .........................                         ..........................            ",
"            .........................                         ..........................            ",
"            .........................                         ..........................            ",
"            .........................                         ..........................            ",
"            .........................                         ..........................            ",
"            .........................                         ..........................            ",
"            .........................                                                               ",
"            .........................                                                               ",
"            .........................                                                               ",
"            .........................                                                               ",
"            .........................                                                               ",
"            .........................                                                               ",
"            .........................                                                               ",
"            .........................                                                               ",
"            .........................                                                               ",
"            .........................                                                               ",
"            .........................                                                               ",
"            .........................                                                               ",
"            .........................                                                               ",
"            .........................             ......................................            ",
"            .........................             ......................................            ",
"            .........................             ......................................            ",
"            .........................             ......................................            ",
"            .........................             ......................................            ",
"            .........................             ......................................            ",
"            .........................             ......................................            ",
"            .........................             ......................................            ",
"            .........................             ......................................            ",
"            .........................             ......................................            ",
"            .........................             ......................................            ",
"            .........................             ......................................            ",
"            .........................                         ..........................            ",
"            .........................                         ..........................            ",
"            .........................                         ..........................            ",
"            .........................                         ..........................            ",
"            .........................                         ..........................            ",
"            .........................                         ..........................            ",
"            .........................                         ..........................            ",
"            .........................                         ..........................            ",
"            .........................                         ..........................            ",
"                 .........................                ..............................            ",
"                 .........................                ..............................            ",
"                 .........................                ..............................            ",
"                 .........................                ..............................            ",
"                 ..................................................................                 ",
"                 ..................................................................                 ",
"                 ..................................................................                 ",
"                 ..................................................................                 ",
"                     ..........................................................                     ",
"                     ..........................................................                     ",
"                     ..........................................................                     ",
"                     ..........................................................                     ",
"                             ..........................................                             ",
"                             ..........................................                             ",
"                             ..........................................                             ",
"                             ..........................................                             ",
"                             ..........................................                             ",
"                                                                                                    ",
"                                                                                                    ",
"                                                                                                    ",
"                                                                                                    ",
"                                                                                                    ",
"                                                                                                    ",
"                                                                                                    ",
"                                                                                                    ",
"                                                                                                    ",
"                                                                                                    ",
"                                                                                                    ",
"                                                                                                    "
};
