/* XPM */
static char *grid_nb1663091532[] = {
/* columns rows colors chars-per-pixel */
"100 100 12 1 ",
"  c None",
". c #101010",
"X c gray9",
"o c gray11",
"O c #202020",
"+ c gray17",
"@ c #2C2C2C",
"# c gray20",
"$ c #353535",
"% c #3F3F3F",
"& c #494949",
"* c #5B5B5B",
/* pixels */
"                                                                                                    ",
"                                                                                                    ",
"                                                                                                    ",
"   XXXXXXXXXOOOOOOOOOOOOOOOOOOOOOOOOOOOOOOOOOOOOOXXOOOO&&&********&OOXOOOOOOOOOOOOOOOOOOXXXXXXXX    ",
"  X&&&&&&&$X&&&&*************&&&OOOO**********&&$XX$$$$$$$$$$$$$$$$OOX*******&&&&&&&&$$$$&&&&&&&X   ",
"  X&$$$$$$$X&&$$$$$$$$$$$$$$$$$$&&&&$$$$$$$$$$$$$XX$$$$$$$$$$$$$$$$OOX&$$$$$$$$$$$$$$$$$$$$$$$$&X   ",
"  X&$$$$$$$X&&$$$$$$$$$$$$$$$$$$$$$$$$$$$$$$$$$$@XX@$$$$$$$$$$$$$$$&&X$$$$$$$$$$$$$$$@@@$$$$$$$&X   ",
"  X&$$$$$$$X&&$$$$$$$$$$$$$$$$$$$$$$$@@@@@@@@@@@@XX@@@@@@@@@$$$$$$$&&X$$$$$$$$$@@@@@@@@@$$$$$$$&X   ",
"  X&$$$$$$$X&&&&&&&&&&&&&&&@@@@@@@@@@&&&&&&&&&&&&XX@&&&&&&&&&&&&&&&&&X$@@@@@@@@@@@@@@@@@$$$$$$$&X   ",
"  X&$$$$$$$X&&&&&&&&&&&&&&&@@@@@@@@@@&&&&&&&&&&&&XX@&&&&&&&&&&&&&&&&&X$@@@@@@@@@@@@@@@@@$$$$$$$&X   ",
" X&$$$$$$$$ooooooooooooooooooooooooooooooooooooooooooooooooooooooooooooooooooooooooooooo$$$$$$$$&X  ",
" X&$$$$$$$@oOOOO++++++++++++++OOO+++OOO+++++++++++++++OOOOOoooooO+++++OOOOOooooOO++++++o@$$$$$$$&X  ",
" X*$$$$$$$@oOO++##############+++###+++###############O#########+++++#O########++++++++o@$$$$$$$*X  ",
" X*$$$@@$$@oOOOoo#++oooo+++OooOOoo#+Oooo#+ooooo++OOooo+++oooo+++oooooo++ooooo++ooooo+##o@$$@@$$$*X  ",
" X*$$$@@@$@o##+++###+##+++++++++++##++++##+###++++++++++++++++++###++++++++++++####++##o@$@@@$$$*X  ",
" X*$$$@@@$@o##+++###+##+++++++++++##++++##+###++++++++++++++++++###++++++++++++####++##o@$@@@$$$*X  ",
" X*$$$$$@@@o##Ooo+++OooO+++oooooo++OOooo++OoooO++oooooo++oooO+++Ooooooo+ooooO++OOooo+##o@@@$$$$$*X  ",
" X*$$$$$$@@o++OOo+##oOOO+++OOOOOo+#oOOOo+#oOOOO++OOOOOo++oOOO++#OOOOOOo+oOOOO+#OOOOO###o@@$$$$$$*X  ",
" X*$$$$$$@@o++OOo+##OOOO+++OOOOOo+#OOOOo+#OOOOO++OOOOO#++oOOO++#OOOOOO#+oOOOO+#OOOOO###o@@$$$$$$*X  ",
" X&$$$@@@@@o++O+#+####++++++++++#+###++#+####++++++++##++########++++##+#########++++++o@@@@@$$$&X  ",
" X&$$$$$@@@o+++%%###+%%%+++%%+%%%##+%%%%##+%%%%++%%%++++++%%%+++OOO++++++%%%%++OOOO++++o@@@$$$$$&X  ",
" X&$$$$$@@@o+++%%###+%%%+++%%+%%%##+%%%%##+%%%%++%%%++++++%%%+++OOO++++++%%%%++OOOO++++o@@@$$$$$&X  ",
" X&$$$$$@@Xo++OOO+++OOOO+++OOOOOO++OOOOO++OOOOO++OOOOOO++OOOO+++O.OOOOO+OOOOO++OO.OOO++oX@@$$$$$&X  ",
" X&$$$$$$XXo++O..+++O...++#OO....++O....++O....+#OOO..O++....++%..OOO.O+.....+%...OO%++oXX$$$$$$&X  ",
" X&$$$$$$XXo++O..+++....++#......++.....++.....+#.....O%%....++%...OO.O%.....+%....O#++oXX$$$$$$&X  ",
" X&$$$$$$@Xo+++++#+++%%%++####+++#++%+++#++%%%%+######+%%%%%+++%%#+++#+%%%%%++%%%#++#++oX@$$$$$$&X  ",
" X$$$$$$@@Xo+++#######++++++++###############++++++++++++++++##++++++++++++++#++++++#++oX@@$$$$$$X  ",
" X$$$$$$@@Xo+++#######++++++++###############++++++++++++++++##++++++++++++++#++++++#++oX@@$$$$$$X  ",
" X$$$$@@@@Xo++O..+++....+++......++.....++.....++.....+++....##+...OO.++.....#+....O#++oX@@@@$$$$X  ",
"  XXXXXXXXXo++O..+++....++#......++.....++.....+#.....+##....##+...OO.+#.....#+....O#++oXXXXXXXXX   ",
"  X&&&&&$$Xo++O..+++....++#......++.....++.....+#.....+##....##+...OO.+#.....#+....O#++oX$$&&&&&X   ",
"  X*$$$$$$Xo++++#####+++###+%%++####+++####++++##++%%%+####%%##++++++%+####%%#++++++#++oX$$$$$$*X   ",
"  X*$$$$$$Xo+++%%%++%%%+++++++%%%%+%%%%%%+%%%%+++++++++++++++##++++++++++++++#++++++O++oX$$$$$$*X   ",
"  X*$$$$$$Xo+++%%%++%%%+++++++%%%%+%%%%%%+%%%%+++++++++++++++##++++++++++++++#++++++O++oX$$$$$$*X   ",
"  X*$$$$$$Xo++O..%++....+++ooooo.%+ooooo%+.....++.....+++....##+......++.....#+.....O++oX$$$$$$*X   ",
"  X*$$$$$@Xo++O..%##....+++o.....%#....o%#.....++++++++%%....++++.....+%.....++.....O++oX@$$$$$*X   ",
"  X*$$$$$@@o++O..+##....%%%......+#.....+#+++++%%++O..+%%....++%+++++++%.....+%.....%##o@@$$$$$*X   ",
"  X*$$$$$@@o++++++##++%%%%+......+#.....+#+++%%%+OOO..+%%%%%+###......+%%%%%+##%%%+++##o@@$$$$$*X   ",
"  X*$$$$$@@o++######+++++++......##.....##.....++.....+%%%+++###......+%%++++##########o@@$$$$$*X   ",
"  X*$$$$$@@o++######+++++++......##.....##.....++.....+%%%+++###......+%%++++##########o@@$$$$$*X   ",
"  X*$$$$$$@o++OO.+++....+++......++.....++.....++.....+%%....+++......+%.....++....O+##o@$$$$$$*X   ",
"  X&$$$$$$$o++O++#+++%%%++####+++#++%%%%+#####++#+++%%%++######+%%%%%++%%##+++%%%#+O+##o$$$$$$$&X   ",
"  X&$$$$$@@o++O#######++++++++#######+++++++++#######+++++++++++++++++#++++++#+++++O%++o@@$$$$$&X   ",
"  X&$$$$$@@oOO#..+++....+++......++.....++......+++.OOO+++.....++.....#+ooooo#+....%%++o@@$$$$$&X   ",
"  X&$$$$$@@oOOO..+++....++#......++.....+#......+++..OO++#.....+#.....#+....O#+....##++o@@$$$$$&X   ",
"  X&$$$$$@@oOOO..+++....++#......++.....+#......+++..OO++#.....+#.....#+....O#+....##++o@@$$$$$&X   ",
"  X$$$$$@@Xo+++..+++....++#......++.....+#......+++....++#.....+#.....#+....O#+....++++oX@@$$$$$X   ",
"  X@@@@@@XXo++++#####+++###+%%++####++++##+%%%+#####+++###+%%%%+###%%%#++++++#+++++++++oXX@@@@@@X   ",
"  XXXXXXXXXo+++%%%++%%%+++++++%%%%+%%%%+++++++%%%++%%%++++++++++++++++#++++++#+++++++++oXXXXXXXXX   ",
" X&&&&&&$$@oOO+..%++....+++......%+.....++......%++..O.+++OO...++.....#+.....#+ooooo+++o@$$&&&&&&X  ",
" X*$$$$$$$@oOO+..%##....+++......%#.....++......%##....+++.....+%.....++.....++....o+++o@$$$$$$$*X  ",
" X*$$$$$$$@oOO+..%##....+++......%#.....++......%##....+++.....+%.....++.....++....o+++o@$$$$$$$*X  ",
" X*$$$$$$$@oOO+..+##....%%%......+#.....%%......+##....%%%.....+%.....+%.....+%....o+##o@$$$$$$$*X  ",
" X*$$$$$$$@o##++++##++%%%%+%%+++++#++%%%%+%%%++++##++%%%%+%%+##+%%%%%+##%%%++##%%%+++##o@$$$$$$$*X  ",
" X*$$$$$$@@o##O#####++++++++#######++++++++########++++++++####+%%++++#############o+##o@@$$$$$$*X  ",
" X*$$$$$@@@o++OO.+++....+++...OO.++.....++....O.+++....+++.....+%.....++....O++....O###o@@@$$$$$*X  ",
" X*$$$$$@@@o++O..%##....++#......%#.....+#......%##....++#.....++.....O%....OO%....O###o@@@$$$$$*X  ",
" X*$$$$$@@@o++O..%##....++#......%#.....+#......%##....++#.....++.....O%....OO%....O###o@@@$$$$$*X  ",
" X&$$$@@@@@o++O%%%##....%%#...%%%%#.....%#....%%%##....%%#.....%+.....+%....O+%....++++o@@@@@$$$&X  ",
" X&$$$$$@@@o+++%%###+%%%+++%%+%%%##+%%%%++%%%+%%###+%%%+++%%++++++%%%%++OOOO+++OOOO++++o@@@$$$$$&X  ",
" X&$$$$$@@@o++OOO+++OOOO+++OOOOOO++OOOOO++OOOOOO+++OOOO+++OOOOOO+OOOOO++O..OO++OO.OOO++o@@@$$$$$&X  ",
" X&$$$$$$@@o++O..+++O...++#OO....++O....+#OOO...+++O...++#OO...O+.....+%...OO+%...OO%++o@@$$$$$$&X  ",
" X&$$$$$$@@o++O..+++....++#......++.....+#......+++....++#.....O%.....+%....O+%....O#++o@@$$$$$$&X  ",
" X&$$$$$$@@o++O..+++....++#......++.....+#......+++....++#.....O%.....+%....O+%....O#++o@@$$$$$$&X  ",
" X&$$$$$$$@o+++++#+++%%%++####+++#++%%%%+#####++#+++%%%++######+%%%%%++%....++%%%#++#++o@$$$$$$$&X  ",
" X&$$$$$$$@o+++#######++++++++#######+++++++++#######+++++++++++++++++#+.....#++++++#++o@$$$$$$$&X  ",
" X&&&&&&&&@o++O..+++....+++......++.....++......+++....+++OO...++.....#+....O#+....O#++o@&&&&&&&&X  ",
" XXXXXXXXXXo++O..+++....++#......++.....+#......+++....++#.....+#.....#+....O#+....O#++oXXXXXXXXXX  ",
" X&&&&&&$$@o++O..+++....++#......++.....+#......+++++++++#.....+#.....#+....O#+....O#++o@$$&&&&&&X  ",
" X&&&&&&$$@o++O..+++....++#......++.....+#......+++++++++#.....+#.....#+....O#+....O#++o@$$&&&&&&X  ",
" X*$$$$$$$@o++++#####+++###+%%++####++++##+%%%+####.OOO###+%%%%+###%%%#++++++#++++++#++o@$$$$$$$*X  ",
" X*$$$$$$$@o+++%%%++%%%+++++++%%%%+%%%%+++++++%%%++...O+++++++++++++++#++++++#++++++O++o@$$$$$$$*X  ",
" X*$$$$$$$@o++O..%++....+++......%+.....++......%++...O+++.....++.....#+.....#+.....O++o@$$$$$$$*X  ",
" X*$$$$$$@@o++O..%##....+++......%#.....++......%##....+++.....+%.....++.....++.....O++o@@$$$$$$*X  ",
" X*$$$$$$@@o++O..+##....%%%......+#.....%%......+##....%%%.....+%.....+%.....+%.....%##o@@$$$$$$*X  ",
" X*$$$$$$@@o++O..+##....%%%......+#.....%%......+##....%%%.....+%.....+%.....+%.....%##o@@$$$$$$*X  ",
" X*$$$$$$@@o++++++##++%%%%+%%+++++#++%%%%+%%%++++##++%%%%+%%+##+%%%%%+##%%%++##%%%+++##o@@$$$$$$*X  ",
" X&$$$@@@@@o++######++++++++#######++++++++########++++++++####+%%++++#################o@@@@@$$$&X  ",
" X&$$$$$@@@o++OO.+++....+++...OO.++.....++....O.+++....+++.....+%.....++....O++....O+##o@@@$$$$$&X  ",
" X&$$$$$@@@o++O..%##....++#......%#.....+#......%##....++#.....++.....O%....OO%....O+##o@@@$$$$$&X  ",
" X&$$$$$$@@o++O%%%##....%%#...%%%%#.....%#....%%%##....%%#.....%+.....+%....O+%....O%++o@@$$$$$$&X  ",
" X&$$$$$$@@o++O%%%##....%%#...%%%%#.....%#....%%%##....%%#.....%+.....+%....O+%....O%++o@@$$$$$$&X  ",
" X&$$$$$$@@oOO######+##############+###############+###########%++++++#####%%#####%%%++o@@$$$$$$&X  ",
" X&$$$$$$@@oOOO#######++++++OO#######++++++OOO#######++++++OOOOOOOO++##++++###++++###++o@@$$$$$$&X  ",
" X$$$$$$@@@o++++++++++++++OO+++++++++++++OO++++++++++++++OO++++++++++++++++++++++++++++o@@@$$$$$$X  ",
" X$$$$@@@@@ooooooooooooooooooooooooooooooooooooooooooooooooooooooooooooooooooooooooooooo@@@@@$$$$X  ",
" X$$$@@@@@@@@@@@@@@@@@@@@@@@$X@@@@@@@@@@@@@@@@@@X@@@@@@@@@@@@@@@@@@@@@@@@@@@@@@@@@@@@@@X@@@@@@$$$X  ",
" X$$$@@@@@@@@@@@@@@@@@@@@@@@$X@@@@@@@@@@@@@@@@@@X@@@@@@@@@@@@@@@@@@@@@@@@@@@@@@@@@@@@@@X@@@@@@$$$X  ",
" X$$$@@@@@@@@@@@@@@@$$$$$$$$$X@@@@@@@@@@@@@@@@@@X@@@@@@@@@@@@$$$$$$$$$$$@@@@@@@@@@@$@@@X@@@@@@$$$X  ",
" X$$$@@@@$$@@@$$$$$$$$$$$$$$$X@@@$$$$$$$$$$$$$@@X@@$$$$$$$$$$$$$$$$$$$$$$$$$$$$$$$$$$@@X$$@@@@$$$X  ",
" X&$$$$$@$$$$$$$$$$$$$$$$$$$&X@@$$$$$$$$$$$$$$$$X$$$$$$$$$$$$$$&&&&$$$$$$$$$$$$$$$$$$&&X$$@$$$$$&X  ",
" X&&$$$$$$$$$$&&&&&&&&*******X$$$$$$$$$$$$$$$$$$X$$&&**********OOOO&&&*************&&&&X$$$$$$$&&X  ",
" XOO&&&&&&&OOOOOOOOOOOOOOOOOOX&&&********&&$$$$$XOOOOOOOOOOOOOOOOOOOOOOOOOOOOOOOOOOOOOOX&&&&&&&OOX  ",
" XOO&&&&&&&OOOOOOOOOOOOOOOOOOX&&&********&&$$$$$XOOOOOOOOOOOOOOOOOOOOOOOOOOOOOOOOOOOOOOX&&&&&&&OOX  ",
" XOOOOOOOOXOOOOOOOOOOOOOOOOOXXOOOOOOOOOOOOOOOOOOXOOOOOOOOOOOOOOOOXXXXXOOOOOOOOOOOOOOOXXXXOOOOOOOOX  ",
"  XXOOOOOOXXXXXXXXXXXXXXXXXXX OOOOOOOOOOOOOOOOOOXXXXXXXXXXXXXXXXX     XXXXXXXXXXXXXXXXX XOOOOOOXX   ",
"    XXXXXX                    XXXXXXXXXXXXXXXXXX                                         XXXXXX     ",
"                                                                                                    ",
"                                                                                                    ",
"                                                                                                    "
};
