/* XPM */
static char *heart_01663091760[] = {
/* columns rows colors chars-per-pixel */
"100 100 5 1 ",
"  c None",
". c #181818",
"X c #3C3C3C",
"o c gray40",
"O c white",
/* pixels */
"                                                                                                    ",
"                                                                                                    ",
"                                                                                                    ",
"                                                                                                    ",
"                                                                                                    ",
"                                                                                                    ",
"                                                                                                    ",
"                                                                                                    ",
"                                                                                                    ",
"                                                                                                    ",
"                                                                                                    ",
"                                                                                                    ",
"                                                                                                    ",
"                                                                                                    ",
"                                                                                                    ",
"                                                                                                    ",
"                                                                                                    ",
"                                                                                                    ",
"                                                                                                    ",
"                                                                                                    ",
"                                                                                                    ",
"                                                                                                    ",
"                                                                                                    ",
"                                                                                                    ",
"                                                                                                    ",
"                                                                                                    ",
"                                                                                                    ",
"                                                                                                    ",
"                                                                                                    ",
"                                                                                                    ",
"                                                                                                    ",
"                                                                                                    ",
"                                                                                                    ",
"                                                                                                    ",
"                                                                                                    ",
"                                                                                                    ",
"                                                                                                    ",
"                                                                                                    ",
"                                                                                                    ",
"                                                                                                    ",
"    ........................          ........................          ........................    ",
"    ........................          ........................          ........................    ",
"  ..ooOOOOOOOOooooOOOOOOOOoo..      ..ooOOOOOOOOooooOOOOOOOOoo..      ..ooOOOOOOOOooooOOOOOOOOoo..  ",
"  ..ooOOOOOOOOooooOOOOOOOOoo..      ..ooOOOOOOOOooooOOOOOOOOoo..      ..ooOOOOOOOOooooOOOOOOOOoo..  ",
"..ooOO........OOOO........OOoo..  ..ooOO........OOOO........OOoo..  ..ooOO........OOOO........OOoo..",
"..ooOO........OOOO........OOoo..  ..ooOO........OOOO........OOoo..  ..ooOO........OOOO........OOoo..",
"..OO..XXXXXXXX....XXXXXXXXXXOO..  ..OO..XXXXXXXX....XXXXXXXXXXOO..  ..OO..XXXXXXXX....XXXXXXXXXXOO..",
"..OO..XXXXXXXX....XXXXXXXXXXOO..  ..OO..XXXXXXXX....XXXXXXXXXXOO..  ..OO..XXXXXXXX....XXXXXXXXXXOO..",
"..OO..XXXXXXXXXXXXXXXXXXXXXXOO..  ..OO..XXXXXXXXXXXXXXXXXXXXXXOO..  ..OO..XXXXXXXXXXXXXXXXXXXXXXOO..",
"..OO..XXXXXXXXXXXXXXXXXXXXXXOO..  ..OO..XXXXXXXXXXXXXXXXXXXXXXOO..  ..OO..XXXXXXXXXXXXXXXXXXXXXXOO..",
"..OO..XXXXXXXXXXXXXXXXXXXXXXOO..  ..OO..XXXXXXXXXXXXXXXXXXXXXXOO..  ..OO..XXXXXXXXXXXXXXXXXXXXXXOO..",
"..OO..XXXXXXXXXXXXXXXXXXXXXXOO..  ..OO..XXXXXXXXXXXXXXXXXXXXXXOO..  ..OO..XXXXXXXXXXXXXXXXXXXXXXOO..",
"..OO..XXXXXXXXXXXXXXXXXXXXOOoo..  ..OO..XXXXXXXXXXXXXXXXXXXXOOoo..  ..OO..XXXXXXXXXXXXXXXXXXXXOOoo..",
"..ooOOXXXXXXXXXXXXXXXXXXXXOO..    ..ooOOXXXXXXXXXXXXXXXXXXXXOO..    ..ooOOXXXXXXXXXXXXXXXXXXXXOO..  ",
"..ooOOXXXXXXXXXXXXXXXXXXXXOO..    ..ooOOXXXXXXXXXXXXXXXXXXXXOO..    ..ooOOXXXXXXXXXXXXXXXXXXXXOO..  ",
"  ..ooOOXXXXXXXXXXXXXXXXOOoo..      ..ooOOXXXXXXXXXXXXXXXXOOoo..      ..ooOOXXXXXXXXXXXXXXXXOOoo..  ",
"  ..ooOOXXXXXXXXXXXXXXXXOOoo..      ..ooOOXXXXXXXXXXXXXXXXOOoo..      ..ooOOXXXXXXXXXXXXXXXXOOoo..  ",
"    ..ooOOXXXXXXXXXXXXOOoo..          ..ooOOXXXXXXXXXXXXOOoo..          ..ooOOXXXXXXXXXXXXOOoo..    ",
"    ..ooOOXXXXXXXXXXXXOOoo..          ..ooOOXXXXXXXXXXXXOOoo..          ..ooOOXXXXXXXXXXXXOOoo..    ",
"      ..ooOOOOXXXXOOOOoo..              ..ooOOOOXXXXOOOOoo..              ..ooOOOOXXXXOOOOoo..      ",
"      ..ooOOOOXXXXOOOOoo..              ..ooOOOOXXXXOOOOoo..              ..ooOOOOXXXXOOOOoo..      ",
"        ....ooOOOOoo....                  ....ooOOOOoo....                  ....ooOOOOoo....        ",
"        ....ooOOOOoo....                  ....ooOOOOoo....                  ....ooOOOOoo....        ",
"            ........                          ........                          ........            ",
"            ........                          ........                          ........            ",
"                                                                                                    ",
"                                                                                                    ",
"                                                                                                    ",
"                                                                                                    ",
"                                                                                                    ",
"                                                                                                    ",
"                                                                                                    ",
"                                                                                                    ",
"                                                                                                    ",
"                                                                                                    ",
"                                                                                                    ",
"                                                                                                    ",
"                                                                                                    ",
"                                                                                                    ",
"                                                                                                    ",
"                                                                                                    ",
"                                                                                                    ",
"                                                                                                    ",
"                                                                                                    ",
"                                                                                                    ",
"                                                                                                    ",
"                                                                                                    ",
"                                                                                                    ",
"                                                                                                    ",
"                                                                                                    ",
"                                                                                                    ",
"                                                                                                    ",
"                                                                                                    ",
"                                                                                                    ",
"                                                                                                    ",
"                                                                                                    ",
"                                                                                                    ",
"                                                                                                    ",
"                                                                                                    ",
"                                                                                                    "
};
