/* XPM */
static char *heart_31663091760[] = {
/* columns rows colors chars-per-pixel */
"100 100 7 1 ",
"  c None",
". c #141B1B",
"X c #E46D3A",
"o c #E0394C",
"O c #965340",
"+ c #FE9D80",
"@ c white",
/* pixels */
"                                                                                                    ",
"                                                                                                    ",
"                                                                                                    ",
"                                                                                                    ",
"                                                                                                    ",
"                                                                                                    ",
"                                                                                                    ",
"                                                                                                    ",
"                                                                                                    ",
"                                                                                                    ",
"                                                                                                    ",
"                                                                                                    ",
"                                                                                                    ",
"                                                                                                    ",
"                                                                                                    ",
"                                                                                                    ",
"                                                                                                    ",
"                                                                                                    ",
"                                                                                                    ",
"                                                                                                    ",
"                                                                                                    ",
"                                                                                                    ",
"                                                                                                    ",
"                                                                                                    ",
"                                                                                                    ",
"                                                                                                    ",
"                                                                                                    ",
"                                                                                                    ",
"                                                                                                    ",
"                                                                                                    ",
"                                                                                                    ",
"                                                                                                    ",
"                                                                                                    ",
"                                                                                                    ",
"                                                                                                    ",
"                                                                                                    ",
"                                                                                                    ",
"                                                                                                    ",
"                                                                                                    ",
"                                                                                                    ",
"    ........................          ........................          ........................    ",
"    ........................          ........................          ........................    ",
"  ..OO@@@@@@@@OOOO@@@@@@@@OO..      ..OO@@@@@@@@OOOO@@@@@@@@OO..      ..OO@@@@@@@@OOOO@@@@@@@@OO..  ",
"  ..OO@@@@@@@@OOOO@@@@@@@@OO..      ..OO@@@@@@@@OOOO@@@@@@@@OO..      ..OO@@@@@@@@OOOO@@@@@@@@OO..  ",
"..OO@@oooooooo@@@@oooooooo@@OO..  ..OO@@oooooooo@@@@oooooooo@@OO..  ..OO@@oooooooo@@@@oooooooo@@OO..",
"..OO@@oooooooo@@@@oooooooo@@OO..  ..OO@@oooooooo@@@@oooooooo@@OO..  ..OO@@oooooooo@@@@oooooooo@@OO..",
"..@@ooXX++++XXooooXXXXXXoooo@@..  ..@@ooXX++++XXooooXXXXXXoooo@@..  ..@@ooXX++++XXooooXXXXXXoooo@@..",
"..@@ooXX++++XXooooXXXXXXoooo@@..  ..@@ooXX++++XXooooXXXXXXoooo@@..  ..@@ooXX++++XXooooXXXXXXoooo@@..",
"..@@ooXX++++XXXXXXXXXXXXoooo@@..  ..@@ooXX++++XXXXXXXXXXXXoooo@@..  ..@@ooXX++++XXXXXXXXXXXXoooo@@..",
"..@@ooXX++++XXXXXXXXXXXXoooo@@..  ..@@ooXX++++XXXXXXXXXXXXoooo@@..  ..@@ooXX++++XXXXXXXXXXXXoooo@@..",
"..@@ooXXXXXXXXXXXXXXXXXXoooo@@..  ..@@ooXXXXXXXXXXXXXXXXXXoooo@@..  ..@@ooXXXXXXXXXXXXXXXXXXoooo@@..",
"..@@ooXXXXXXXXXXXXXXXXXXoooo@@..  ..@@ooXXXXXXXXXXXXXXXXXXoooo@@..  ..@@ooXXXXXXXXXXXXXXXXXXoooo@@..",
"..@@ooooXXXXXXXXXXXXXXoooo@@OO..  ..@@ooooXXXXXXXXXXXXXXoooo@@OO..  ..@@ooooXXXXXXXXXXXXXXoooo@@OO..",
"..OO@@ooooXXXXXXXXXXoooooo@@..    ..OO@@ooooXXXXXXXXXXoooooo@@..    ..OO@@ooooXXXXXXXXXXoooooo@@..  ",
"..OO@@ooooXXXXXXXXXXoooooo@@..    ..OO@@ooooXXXXXXXXXXoooooo@@..    ..OO@@ooooXXXXXXXXXXoooooo@@..  ",
"  ..OO@@ooooXXXXXXoooooo@@OO..      ..OO@@ooooXXXXXXoooooo@@OO..      ..OO@@ooooXXXXXXoooooo@@OO..  ",
"  ..OO@@ooooXXXXXXoooooo@@OO..      ..OO@@ooooXXXXXXoooooo@@OO..      ..OO@@ooooXXXXXXoooooo@@OO..  ",
"    ..OO@@oooooooooooo@@OO..          ..OO@@oooooooooooo@@OO..          ..OO@@oooooooooooo@@OO..    ",
"    ..OO@@oooooooooooo@@OO..          ..OO@@oooooooooooo@@OO..          ..OO@@oooooooooooo@@OO..    ",
"      ..OO@@@@oooo@@@@OO..              ..OO@@@@oooo@@@@OO..              ..OO@@@@oooo@@@@OO..      ",
"      ..OO@@@@oooo@@@@OO..              ..OO@@@@oooo@@@@OO..              ..OO@@@@oooo@@@@OO..      ",
"        ....OO@@@@OO....                  ....OO@@@@OO....                  ....OO@@@@OO....        ",
"        ....OO@@@@OO....                  ....OO@@@@OO....                  ....OO@@@@OO....        ",
"            ........                          ........                          ........            ",
"            ........                          ........                          ........            ",
"                                                                                                    ",
"                                                                                                    ",
"                                                                                                    ",
"                                                                                                    ",
"                                                                                                    ",
"                                                                                                    ",
"                                                                                                    ",
"                                                                                                    ",
"                                                                                                    ",
"                                                                                                    ",
"                                                                                                    ",
"                                                                                                    ",
"                                                                                                    ",
"                                                                                                    ",
"                                                                                                    ",
"                                                                                                    ",
"                                                                                                    ",
"                                                                                                    ",
"                                                                                                    ",
"                                                                                                    ",
"                                                                                                    ",
"                                                                                                    ",
"                                                                                                    ",
"                                                                                                    ",
"                                                                                                    ",
"                                                                                                    ",
"                                                                                                    ",
"                                                                                                    ",
"                                                                                                    ",
"                                                                                                    ",
"                                                                                                    ",
"                                                                                                    ",
"                                                                                                    ",
"                                                                                                    ",
"                                                                                                    "
};
