/* XPM */
static char *heart_11663091760[] = {
/* columns rows colors chars-per-pixel */
"100 100 10 1 ",
"  c None",
". c #141B1B",
"X c #181818",
"o c #3C3C3C",
"O c gray40",
"+ c #E46D3A",
"@ c #E0394C",
"# c #965340",
"$ c #FE9D80",
"% c white",
/* pixels */
"                                                                                                    ",
"                                                                                                    ",
"                                                                                                    ",
"                                                                                                    ",
"                                                                                                    ",
"                                                                                                    ",
"                                                                                                    ",
"                                                                                                    ",
"                                                                                                    ",
"                                                                                                    ",
"                                                                                                    ",
"                                                                                                    ",
"                                                                                                    ",
"                                                                                                    ",
"                                                                                                    ",
"                                                                                                    ",
"                                                                                                    ",
"                                                                                                    ",
"                                                                                                    ",
"                                                                                                    ",
"                                                                                                    ",
"                                                                                                    ",
"                                                                                                    ",
"                                                                                                    ",
"                                                                                                    ",
"                                                                                                    ",
"                                                                                                    ",
"                                                                                                    ",
"                                                                                                    ",
"                                                                                                    ",
"                                                                                                    ",
"                                                                                                    ",
"                                                                                                    ",
"                                                                                                    ",
"                                                                                                    ",
"                                                                                                    ",
"                                                                                                    ",
"                                                                                                    ",
"                                                                                                    ",
"                                                                                                    ",
"    ........................          XXXXXXXXXXXXXXXXXXXXXXXX          XXXXXXXXXXXXXXXXXXXXXXXX    ",
"    ........................          XXXXXXXXXXXXXXXXXXXXXXXX          XXXXXXXXXXXXXXXXXXXXXXXX    ",
"  ..##%%%%%%%%####%%%%%%%%##..      XXOO%%%%%%%%OOOO%%%%%%%%OOXX      XXOO%%%%%%%%OOOO%%%%%%%%OOXX  ",
"  ..##%%%%%%%%####%%%%%%%%##..      XXOO%%%%%%%%OOOO%%%%%%%%OOXX      XXOO%%%%%%%%OOOO%%%%%%%%OOXX  ",
"..##%%@@@@@@@@%%%%@@@@@@@@%%##..  XXOO%%XXXXXXXX%%%%XXXXXXXX%%OOXX  XXOO%%XXXXXXXX%%%%XXXXXXXX%%OOXX",
"..##%%@@@@@@@@%%%%@@@@@@@@%%##..  XXOO%%XXXXXXXX%%%%XXXXXXXX%%OOXX  XXOO%%XXXXXXXX%%%%XXXXXXXX%%OOXX",
"..%%@@++$$$$++@@@@++++++@@@@%%..  XX%%XXooooooooXXXXoooooooooo%%XX  XX%%XXooooooooXXXXoooooooooo%%XX",
"..%%@@++$$$$++@@@@++++++@@@@%%..  XX%%XXooooooooXXXXoooooooooo%%XX  XX%%XXooooooooXXXXoooooooooo%%XX",
"..%%@@++$$$$++++++++++++@@@@%%..  XX%%XXoooooooooooooooooooooo%%XX  XX%%XXoooooooooooooooooooooo%%XX",
"..%%@@++$$$$++++++++++++@@@@%%..  XX%%XXoooooooooooooooooooooo%%XX  XX%%XXoooooooooooooooooooooo%%XX",
"..%%@@++++++++++++++++++@@@@%%..  XX%%XXoooooooooooooooooooooo%%XX  XX%%XXoooooooooooooooooooooo%%XX",
"..%%@@++++++++++++++++++@@@@%%..  XX%%XXoooooooooooooooooooooo%%XX  XX%%XXoooooooooooooooooooooo%%XX",
"..%%@@@@++++++++++++++@@@@%%##..  XX%%XXoooooooooooooooooooo%%OOXX  XX%%XXoooooooooooooooooooo%%OOXX",
"..##%%@@@@++++++++++@@@@@@%%..    XXOO%%oooooooooooooooooooo%%XX    XXOO%%oooooooooooooooooooo%%XX  ",
"..##%%@@@@++++++++++@@@@@@%%..    XXOO%%oooooooooooooooooooo%%XX    XXOO%%oooooooooooooooooooo%%XX  ",
"  ..##%%@@@@++++++@@@@@@%%##..      XXOO%%oooooooooooooooo%%OOXX      XXOO%%oooooooooooooooo%%OOXX  ",
"  ..##%%@@@@++++++@@@@@@%%##..      XXOO%%oooooooooooooooo%%OOXX      XXOO%%oooooooooooooooo%%OOXX  ",
"    ..##%%@@@@@@@@@@@@%%##..          XXOO%%oooooooooooo%%OOXX          XXOO%%oooooooooooo%%OOXX    ",
"    ..##%%@@@@@@@@@@@@%%##..          XXOO%%oooooooooooo%%OOXX          XXOO%%oooooooooooo%%OOXX    ",
"      ..##%%%%@@@@%%%%##..              XXOO%%%%oooo%%%%OOXX              XXOO%%%%oooo%%%%OOXX      ",
"      ..##%%%%@@@@%%%%##..              XXOO%%%%oooo%%%%OOXX              XXOO%%%%oooo%%%%OOXX      ",
"        ....##%%%%##....                  XXXXOO%%%%OOXXXX                  XXXXOO%%%%OOXXXX        ",
"        ....##%%%%##....                  XXXXOO%%%%OOXXXX                  XXXXOO%%%%OOXXXX        ",
"            ........                          XXXXXXXX                          XXXXXXXX            ",
"            ........                          XXXXXXXX                          XXXXXXXX            ",
"                                                                                                    ",
"                                                                                                    ",
"                                                                                                    ",
"                                                                                                    ",
"                                                                                                    ",
"                                                                                                    ",
"                                                                                                    ",
"                                                                                                    ",
"                                                                                                    ",
"                                                                                                    ",
"                                                                                                    ",
"                                                                                                    ",
"                                                                                                    ",
"                                                                                                    ",
"                                                                                                    ",
"                                                                                                    ",
"                                                                                                    ",
"                                                                                                    ",
"                                                                                                    ",
"                                                                                                    ",
"                                                                                                    ",
"                                                                                                    ",
"                                                                                                    ",
"                                                                                                    ",
"                                                                                                    ",
"                                                                                                    ",
"                                                                                                    ",
"                                                                                                    ",
"                                                                                                    ",
"                                                                                                    ",
"                                                                                                    ",
"                                                                                                    ",
"                                                                                                    ",
"                                                                                                    ",
"                                                                                                    "
};
