/* XPM */
static char *_72d0cea74e6447bf478cf4a94305a35MpRv7VKaLdX820y7[] = {
/* columns rows colors chars-per-pixel */
"100 100 2 1 ",
"  c None",
". c #F6D7D7",
/* pixels */
"                                                                                                    ",
"                                                                                                    ",
"                                                                                                    ",
"                                                                                                    ",
"                                                                                                    ",
"                                                                                                    ",
"                                                                                                    ",
"                                                                                                    ",
"                     ....                                                           ....            ",
"                     ....                                                           ....            ",
"                     ....                                                           ....            ",
"                     ....                                                           ....            ",
"                  .......                                                     ...   ....            ",
"                  .......                                                     ...   ....            ",
"                  .......                                                     ...   ....            ",
"                     ....                                                     ..........            ",
"                     ....                                                     ..........            ",
"                     ....                                                     ..........            ",
"                     ....                                                 .......                   ",
"                     ....                                                 .......                   ",
"                     ....                                                 .......                   ",
"                     ....                                                 .......                   ",
"                  .......      .......                                        ...                   ",
"                  .......      .......                                        ...                   ",
"                  .......      .......                                        ...                   ",
"                  ...       ................       .............              ...                   ",
"                  ...       ................       .............              ...                   ",
"                  ...       ................       .............              ...                   ",
"                  ..................................................          ...                   ",
"                  ..................................................          ...                   ",
"                  ..................................................          ...                   ",
"                  ..................................................          ...                   ",
"                         ........................................................                   ",
"                         ........................................................                   ",
"                         ........................................................                   ",
"                         ...........................................                                ",
"                         ...........................................                                ",
"                         ...........................................                                ",
"                     ...............................................                                ",
"                     ...............................................                                ",
"                     ...............................................                                ",
"                     ...............................................                                ",
"                     ...............................................                                ",
"                     ...............................................                                ",
"                     ...............................................                                ",
"                     ..................................................                             ",
"                     ..................................................                             ",
"                     ..................................................                             ",
"                     ....      ........................................                             ",
"                     ....      ........................................                             ",
"                     ....      ........................................                             ",
"                     ....      ........................................                             ",
"                  ...       ..............................................                          ",
"                  ...       ..............................................                          ",
"                  ...       ..............................................                          ",
"           ..........       ..............................................                          ",
"           ..........       ..............................................                          ",
"           ..........       ..............................................                          ",
"        .................   ..............................................                          ",
"        .................   ..............................................                          ",
"        .................   ..............................................                          ",
"        .................   ..............................................                          ",
"        .................   ..............................................                          ",
"        .................   ..............................................                          ",
"        .................   ..............................................                          ",
"        .................   ..............................................                          ",
"        .................   ..............................................                          ",
"        .................   ..............................................                          ",
"           ..........    .................................................                          ",
"           ..........    .................................................                          ",
"           ..........    .................................................                          ",
"           ..........    .................................................                          ",
"                               ........................................                             ",
"                               ........................................                             ",
"                               ........................................                             ",
"                                   .................................                                ",
"                                   .................................                                ",
"                                   .................................                                ",
"                                      ...             ..........                                    ",
"                                      ...             ..........                                    ",
"                                      ...             ..........                                    ",
"                                      ...             ..........                                    ",
"                                         ...              ...                                       ",
"                                         ...              ...                                       ",
"                                         ...              ...                                       ",
"                                                                                                    ",
"                                                                                                    ",
"                                                                                                    ",
"                                                                                                    ",
"                                                                                                    ",
"                                                                                                    ",
"                                                                                                    ",
"                                                                                                    ",
"                                                                                                    ",
"                                                                                                    ",
"                                                                                                    ",
"                                                                                                    ",
"                                                                                                    ",
"                                                                                                    ",
"                                                                                                    "
};
