/* XPM */
static char *_074a6693eef490188e0d5572a353593xDJ1Ak12wlIb57kP[] = {
/* columns rows colors chars-per-pixel */
"100 100 7 1 ",
"  c None",
". c #371515",
"X c #491E1D",
"o c #622020",
"O c #762727",
"+ c #772828",
"@ c #FFAEAE",
/* pixels */
"                                                                                                    ",
"                                                                                                    ",
"                                                                                                    ",
"                                                                                                    ",
"                                                                                                    ",
"                         ....                                                         ...           ",
"                         ....                                                         ...           ",
"                         ....                                                         ...           ",
"                      .......                                                   ...   ...           ",
"                      .......                                                   ...   ...           ",
"                      .......                                                   ...   ...           ",
"                         ....                                                   .........           ",
"                         ....                                                   .........           ",
"                         ....                                                   .........           ",
"                         ....                                                ......                 ",
"                         ....                                                ......                 ",
"                         ....                                                ......                 ",
"                         ....                                                ......                 ",
"                      .......      OOOOOO                                       ...                 ",
"                      .......      OOOOOO                                       ...                 ",
"                      .......      OOOOOO                                       ...                 ",
"                      ...       OOO......OOOOOOO      OOOOOOOOOOOOO             ...                 ",
"                      ...       OOO......OOOOOOO      OOOOOOOOOOOOO             ...                 ",
"                      ...       OOO......OOOOOOO      OOOOOOOOOOOOO             ...                 ",
"                      ................@@@....OOO+++OOOOOO..........OOO          ...                 ",
"                      ................@@@....OOO+++OOOOOO..........OOO          ...                 ",
"                      ................@@@....OOO+++OOOOOO..........OOO          ...                 ",
"                             OOO.............+++++++++.......@@@@@@................                 ",
"                             OOO.............+++++++++.......@@@@@@................                 ",
"                             OOO.............+++++++++.......@@@@@@................                 ",
"                             OOOooo......oooo+++++++++................                              ",
"                             OOOooo......oooo+++++++++................                              ",
"                             OOOooo......oooo+++++++++................                              ",
"                             OOOooo......oooo+++++++++................                              ",
"                             XXXXXXooooooOOOOOOOOOOOOO................                              ",
"                             XXXXXXooooooOOOOOOOOOOOOO................                              ",
"                             XXXXXXooooooOOOOOOOOOOOOO................                              ",
"                         XXXXXXXXXXXXXoooOOOOOOOOOOOOOooo..........ooo                              ",
"                         XXXXXXXXXXXXXoooOOOOOOOOOOOOOooo..........ooo                              ",
"                         XXXXXXXXXXXXXoooOOOOOOOOOOOOOooo..........ooo                              ",
"                         XXXXXXXXXXXXX.......oooOOOOOOOOOooooooooooOOO                              ",
"                         XXXXXXXXXXXXX.......oooOOOOOOOOOooooooooooOOO                              ",
"                         XXXXXXXXXXXXX.......oooOOOOOOOOOooooooooooOOO                              ",
"                         @@@@XXXXXX@@@.............ooooooOOOOOOOOOOOOOOOO                           ",
"                         @@@@XXXXXX@@@.............ooooooOOOOOOOOOOOOOOOO                           ",
"                         @@@@XXXXXX@@@.............ooooooOOOOOOOOOOOOOOOO                           ",
"                         @@@@   ...@@@.......................oooOOOOOOOOO                           ",
"                         @@@@   ...@@@.......................oooOOOOOOOOO                           ",
"                         @@@@   ...@@@.......................oooOOOOOOOOO                           ",
"                         @@@@   ...@@@.......................oooOOOOOOOOO                           ",
"                         @@@@   ...@@@..........................OOOOOOOOO                           ",
"                         @@@@   ...@@@..........................OOOOOOOOO                           ",
"                         @@@@   ...@@@..........................OOOOOOOOO                           ",
"                      @@@       ...@@@..........................OOOOOOOOO                           ",
"                      @@@       ...@@@..........................OOOOOOOOO                           ",
"                      @@@       ...@@@..........................OOOOOOOOO                           ",
"                      @@@       ooo@@@..........................oooOOOOOO                           ",
"                      @@@       ooo@@@..........................oooOOOOOO                           ",
"                      @@@       ooo@@@..........................oooOOOOOO                           ",
"                   @@@@@@@@@@   ooo......@@@@......................OOOOOO                           ",
"                   @@@@@@@@@@   ooo......@@@@......................OOOOOO                           ",
"                   @@@@@@@@@@   ooo......@@@@......................OOOOOO                           ",
"                @@@@@@@@@@@@@@@@ooo..........@@@.............XXXXXXOOOOOO                           ",
"                @@@@@@@@@@@@@@@@ooo..........@@@.............XXXXXXOOOOOO                           ",
"                @@@@@@@@@@@@@@@@ooo..........@@@.............XXXXXXOOOOOO                           ",
"                @@@@@@@@@@@@@@@@ooo..........@@@.............XXXXXXOOOOOO                           ",
"                @@@@@@@@@@@@@@@@   .............@@@@@@@@@@@@@XXXXXXXXXOOO                           ",
"                @@@@@@@@@@@@@@@@   .............@@@@@@@@@@@@@XXXXXXXXXOOO                           ",
"                @@@@@@@@@@@@@@@@   .............@@@@@@@@@@@@@XXXXXXXXXOOO                           ",
"                @@@@@@@@@@@@@@@@   ......................XXXXXXXXXXXXXOOO                           ",
"                @@@@@@@@@@@@@@@@   ......................XXXXXXXXXXXXXOOO                           ",
"                @@@@@@@@@@@@@@@@   ......................XXXXXXXXXXXXXOOO                           ",
"                   @@@@@@@@@@         .......................XXXXXXooo                              ",
"                   @@@@@@@@@@         .......................XXXXXXooo                              ",
"                   @@@@@@@@@@         .......................XXXXXXooo                              ",
"                                         ....................ooo                                    ",
"                                         ....................ooo                                    ",
"                                         ....................ooo                                    ",
"                                         ....            ....                                       ",
"                                         ....            ....                                       ",
"                                         ....            ....                                       ",
"                                         ....            ....                                       ",
"                                         ....            ....                                       ",
"                                         ....            ....                                       ",
"                                         ....            ....                                       ",
"                                                                                                    ",
"                                                                                                    ",
"                                                                                                    ",
"                                                                                                    ",
"                                                                                                    ",
"                                                                                                    ",
"                                                                                                    ",
"                                                                                                    ",
"                                                                                                    ",
"                                                                                                    ",
"                                                                                                    ",
"                                                                                                    ",
"                                                                                                    ",
"                                                                                                    ",
"                                                                                                    "
};
