/* XPM */
static char *_1da171a89cd4b3e889a910fea4276e1QfgrCWzEPbjd2L90[] = {
/* columns rows colors chars-per-pixel */
"100 100 7 1 ",
"  c None",
". c #371515",
"X c #491E1D",
"o c #622020",
"O c #762727",
"+ c #772828",
"@ c #FFAEAE",
/* pixels */
"                                                                                                    ",
"                                                                                                    ",
"                                                                                                    ",
"                                                                                                    ",
"                                                                                                    ",
"             ...                                                         ....                       ",
"             ...                                                         ....                       ",
"             ...                                                         ....                       ",
"             ...   ...                                                   .......                    ",
"             ...   ...                                                   .......                    ",
"             ...   ...                                                   .......                    ",
"             .........                                                   ....                       ",
"             .........                                                   ....                       ",
"             .........                                                   ....                       ",
"                   ......                                                ....                       ",
"                   ......                                                ....                       ",
"                   ......                                                ....                       ",
"                   ......                                                ....                       ",
"                   ...                                       OOOOOO      .......                    ",
"                   ...                                       OOOOOO      .......                    ",
"                   ...                                       OOOOOO      .......                    ",
"                   ...             OOOOOOOOOOOOO      OOOOOOO......OOO       ...                    ",
"                   ...             OOOOOOOOOOOOO      OOOOOOO......OOO       ...                    ",
"                   ...             OOOOOOOOOOOOO      OOOOOOO......OOO       ...                    ",
"                   ...          OOO..........OOOOOO+++OOO....@@@................                    ",
"                   ...          OOO..........OOOOOO+++OOO....@@@................                    ",
"                   ...          OOO..........OOOOOO+++OOO....@@@................                    ",
"                   ................@@@@@@.......+++++++++.............OOO                           ",
"                   ................@@@@@@.......+++++++++.............OOO                           ",
"                   ................@@@@@@.......+++++++++.............OOO                           ",
"                                ................+++++++++oooo......oooOOO                           ",
"                                ................+++++++++oooo......oooOOO                           ",
"                                ................+++++++++oooo......oooOOO                           ",
"                                ................+++++++++oooo......oooOOO                           ",
"                                ................OOOOOOOOOOOOOooooooXXXXXX                           ",
"                                ................OOOOOOOOOOOOOooooooXXXXXX                           ",
"                                ................OOOOOOOOOOOOOooooooXXXXXX                           ",
"                                ooo..........oooOOOOOOOOOOOOOoooXXXXXXXXXXXXX                       ",
"                                ooo..........oooOOOOOOOOOOOOOoooXXXXXXXXXXXXX                       ",
"                                ooo..........oooOOOOOOOOOOOOOoooXXXXXXXXXXXXX                       ",
"                                OOOooooooooooOOOOOOOOOooo.......XXXXXXXXXXXXX                       ",
"                                OOOooooooooooOOOOOOOOOooo.......XXXXXXXXXXXXX                       ",
"                                OOOooooooooooOOOOOOOOOooo.......XXXXXXXXXXXXX                       ",
"                             OOOOOOOOOOOOOOOOoooooo.............@@@XXXXXX@@@@                       ",
"                             OOOOOOOOOOOOOOOOoooooo.............@@@XXXXXX@@@@                       ",
"                             OOOOOOOOOOOOOOOOoooooo.............@@@XXXXXX@@@@                       ",
"                             OOOOOOOOOooo.......................@@@...   @@@@                       ",
"                             OOOOOOOOOooo.......................@@@...   @@@@                       ",
"                             OOOOOOOOOooo.......................@@@...   @@@@                       ",
"                             OOOOOOOOOooo.......................@@@...   @@@@                       ",
"                             OOOOOOOOO..........................@@@...   @@@@                       ",
"                             OOOOOOOOO..........................@@@...   @@@@                       ",
"                             OOOOOOOOO..........................@@@...   @@@@                       ",
"                             OOOOOOOOO..........................@@@...       @@@                    ",
"                             OOOOOOOOO..........................@@@...       @@@                    ",
"                             OOOOOOOOO..........................@@@...       @@@                    ",
"                             OOOOOOooo..........................@@@ooo       @@@                    ",
"                             OOOOOOooo..........................@@@ooo       @@@                    ",
"                             OOOOOOooo..........................@@@ooo       @@@                    ",
"                             OOOOOO......................@@@@......ooo   @@@@@@@@@@                 ",
"                             OOOOOO......................@@@@......ooo   @@@@@@@@@@                 ",
"                             OOOOOO......................@@@@......ooo   @@@@@@@@@@                 ",
"                             OOOOOOXXXXXX.............@@@..........ooo@@@@@@@@@@@@@@@@              ",
"                             OOOOOOXXXXXX.............@@@..........ooo@@@@@@@@@@@@@@@@              ",
"                             OOOOOOXXXXXX.............@@@..........ooo@@@@@@@@@@@@@@@@              ",
"                             OOOOOOXXXXXX.............@@@..........ooo@@@@@@@@@@@@@@@@              ",
"                             OOOXXXXXXXXX@@@@@@@@@@@@@.............   @@@@@@@@@@@@@@@@              ",
"                             OOOXXXXXXXXX@@@@@@@@@@@@@.............   @@@@@@@@@@@@@@@@              ",
"                             OOOXXXXXXXXX@@@@@@@@@@@@@.............   @@@@@@@@@@@@@@@@              ",
"                             OOOXXXXXXXXXXXXX......................   @@@@@@@@@@@@@@@@              ",
"                             OOOXXXXXXXXXXXXX......................   @@@@@@@@@@@@@@@@              ",
"                             OOOXXXXXXXXXXXXX......................   @@@@@@@@@@@@@@@@              ",
"                                oooXXXXXX.......................         @@@@@@@@@@                 ",
"                                oooXXXXXX.......................         @@@@@@@@@@                 ",
"                                oooXXXXXX.......................         @@@@@@@@@@                 ",
"                                      ooo....................                                       ",
"                                      ooo....................                                       ",
"                                      ooo....................                                       ",
"                                         ....            ....                                       ",
"                                         ....            ....                                       ",
"                                         ....            ....                                       ",
"                                         ....            ....                                       ",
"                                         ....            ....                                       ",
"                                         ....            ....                                       ",
"                                         ....            ....                                       ",
"                                                                                                    ",
"                                                                                                    ",
"                                                                                                    ",
"                                                                                                    ",
"                                                                                                    ",
"                                                                                                    ",
"                                                                                                    ",
"                                                                                                    ",
"                                                                                                    ",
"                                                                                                    ",
"                                                                                                    ",
"                                                                                                    ",
"                                                                                                    ",
"                                                                                                    ",
"                                                                                                    "
};
