/* XPM */
static char *cfd08939468c4253a19d80eed3eb9a76kOynYAbXO0MCuy91[] = {
/* columns rows colors chars-per-pixel */
"100 100 2 1 ",
"  c None",
". c #F6D7D7",
/* pixels */
"                                                                                                    ",
"                                                                                                    ",
"                                                                                                    ",
"                                                                                                    ",
"                                                                                                    ",
"                                                                                                    ",
"                                                                                                    ",
"                                                                                                    ",
"              ....                                                           ....                   ",
"              ....                                                           ....                   ",
"              ....                                                           ....                   ",
"              ....                                                           ....                   ",
"              ....   ...                                                     .......                ",
"              ....   ...                                                     .......                ",
"              ....   ...                                                     .......                ",
"              ..........                                                     ....                   ",
"              ..........                                                     ....                   ",
"              ..........                                                     ....                   ",
"                     .......                                                 ....                   ",
"                     .......                                                 ....                   ",
"                     .......                                                 ....                   ",
"                     .......                                                 ....                   ",
"                     ...                                        .......      .......                ",
"                     ...                                        .......      .......                ",
"                     ...                                        .......      .......                ",
"                     ...              .............       ................       ...                ",
"                     ...              .............       ................       ...                ",
"                     ...              .............       ................       ...                ",
"                     ...          ..................................................                ",
"                     ...          ..................................................                ",
"                     ...          ..................................................                ",
"                     ...          ..................................................                ",
"                     ........................................................                       ",
"                     ........................................................                       ",
"                     ........................................................                       ",
"                                  ...........................................                       ",
"                                  ...........................................                       ",
"                                  ...........................................                       ",
"                                  ...............................................                   ",
"                                  ...............................................                   ",
"                                  ...............................................                   ",
"                                  ...............................................                   ",
"                                  ...............................................                   ",
"                                  ...............................................                   ",
"                                  ...............................................                   ",
"                               ..................................................                   ",
"                               ..................................................                   ",
"                               ..................................................                   ",
"                               ........................................      ....                   ",
"                               ........................................      ....                   ",
"                               ........................................      ....                   ",
"                               ........................................      ....                   ",
"                            ..............................................       ...                ",
"                            ..............................................       ...                ",
"                            ..............................................       ...                ",
"                            ..............................................       ..........         ",
"                            ..............................................       ..........         ",
"                            ..............................................       ..........         ",
"                            ..............................................   .................      ",
"                            ..............................................   .................      ",
"                            ..............................................   .................      ",
"                            ..............................................   .................      ",
"                            ..............................................   .................      ",
"                            ..............................................   .................      ",
"                            ..............................................   .................      ",
"                            ..............................................   .................      ",
"                            ..............................................   .................      ",
"                            ..............................................   .................      ",
"                            .................................................    ..........         ",
"                            .................................................    ..........         ",
"                            .................................................    ..........         ",
"                            .................................................    ..........         ",
"                               ........................................                             ",
"                               ........................................                             ",
"                               ........................................                             ",
"                                  .................................                                 ",
"                                  .................................                                 ",
"                                  .................................                                 ",
"                                      ..........             ...                                    ",
"                                      ..........             ...                                    ",
"                                      ..........             ...                                    ",
"                                      ..........             ...                                    ",
"                                         ...              ...                                       ",
"                                         ...              ...                                       ",
"                                         ...              ...                                       ",
"                                                                                                    ",
"                                                                                                    ",
"                                                                                                    ",
"                                                                                                    ",
"                                                                                                    ",
"                                                                                                    ",
"                                                                                                    ",
"                                                                                                    ",
"                                                                                                    ",
"                                                                                                    ",
"                                                                                                    ",
"                                                                                                    ",
"                                                                                                    ",
"                                                                                                    ",
"                                                                                                    "
};
