/* XPM */
static char *Lstill_31663092029[] = {
/* columns rows colors chars-per-pixel */
"100 100 9 1 ",
"  c None",
". c #371515",
"X c #491E1D",
"o c #622020",
"O c #632121",
"+ c #762727",
"@ c #772828",
"# c #E49696",
"$ c #FFAEAE",
/* pixels */
"                                                                                                    ",
"                                                                                                    ",
"                                                                                                    ",
"                                                                                                    ",
"                                                                                                    ",
"                                                                                                    ",
"                                                                                                    ",
"                                                                                                    ",
"                                                                                                    ",
"                                                                                                    ",
"                                                                                                    ",
"                                                                                                    ",
"           ...                                                          ....                        ",
"           ...                                                          ....                        ",
"           ...                                                          ....                        ",
"           ...    ...                                                   .......                     ",
"           ...    ...                                                   .......                     ",
"           ...    ...                                                   .......                     ",
"           ..........                                                   ....                        ",
"           ..........                                                   ....                        ",
"           ..........                                                   ....                        ",
"                  ......                                                ....                        ",
"                  ......                                                ....                        ",
"                  ......                                                ....                        ",
"                  ......                                                ....                        ",
"                  ...                                      +++++++      .......                     ",
"                  ...                                      +++++++      .......                     ",
"                  ...                                      +++++++      .......                     ",
"                  ...             +++++++++++++      ++++++.......+++       ...                     ",
"                  ...             +++++++++++++      ++++++.......+++       ...                     ",
"                  ...             +++++++++++++      ++++++.......+++       ...                     ",
"                  ...         ++++.........+++++++@@@+++...$$$$................                     ",
"                  ...         ++++.........+++++++@@@+++...$$$$................                     ",
"                  ...         ++++.........+++++++@@@+++...$$$$................                     ",
"                  ................$$$$$$.......@@@@@@@@@.............+++                            ",
"                  ................$$$$$$.......@@@@@@@@@.............+++                            ",
"                  ................$$$$$$.......@@@@@@@@@.............+++                            ",
"                              .................@@@@@@@@@OOO.......XXXXXX                            ",
"                              .................@@@@@@@@@OOO.......XXXXXX                            ",
"                              .................@@@@@@@@@OOo.......XXXXXX                            ",
"                              .................@@@@@@@@@OOo.......XXXXXX                            ",
"                              .................++++++++++@+ooooXXXXXXXXXXXXX                        ",
"                              .................++++++++++++ooooXXXXXXXXXXXXX                        ",
"                              .................++++++++++++ooooXXXXXXXXXXXXX                        ",
"                              oooo.........oooo+++++++++oooooooXXXXXXXXXXXXX                        ",
"                              oooo.........oooo+++++++++oooooooXXXXXXXXXXXXX                        ",
"                              oooo.........oooo++++++++@oooooooXXXXXXXXXXXXX                        ",
"                           +++++++ooooooooo++++++++++ooo.......###XXXXXX$$$$                        ",
"                           +++++++ooooooooo++++++++++ooo.......###XXXXXX$$$$                        ",
"                           +++++++ooooooooo++++++++++ooo.......###XXXXXX$$$$                        ",
"                           ++++++++++++++++ooooooo......$$$####...      $$$$                        ",
"                           ++++++++++++++++ooooooo......$$$####...      $$$$                        ",
"                           ++++++++++++++++ooooooo......$$$####...      $$$$                        ",
"                           ++++++++++++++++ooooooo......$$$####...      $$$$                        ",
"                        +++++++++++++ooo.............$$$.............       $$$                     ",
"                        +++++++++++++ooo.............$$$.............       $$$                     ",
"                        +++++++++++++ooo.............$$$.............       $$$                     ",
"                        +++++++++++++.............###................       $$$$$$$$$               ",
"                        +++++++++++++.............###................       $$$$$$$$$               ",
"                        +++++++++++++.............###................       $$$$$$$$$               ",
"                        +++++++++++++..........$$$...................   $$$$$$$$$$$$$$$$            ",
"                        +++++++++++++..........$$$...................   $$$$$$$$$$$$$$$$            ",
"                        +++++++++++++..........$$$...................   $$$$$$$$$$$$$$$$            ",
"                        +++++++++++++......$$$$...................ooo   $$$$$$$$$$$$$###            ",
"                        +++++++++++++......$$$$...................ooo   $$$$$$$$$$$$$###            ",
"                        +++++++++++++......$$$$...................ooo   $$$$$$$$$$$$$###            ",
"                        ++++++++++XXXXXX...####...................ooo   $$$$$$$#########            ",
"                        ++++++++++XXXXXX...####...................ooo   $$$$$$$#########            ",
"                        ++++++++++XXXXXX...####...................ooo   $$$$$$$#########            ",
"                        ++++++++++XXXXXX...####...................ooo   $$$$$$$#########            ",
"                        ++++++XXXXXXXXXX###.......................oooooo    #########               ",
"                        ++++++XXXXXXXXXX###.......................oooooo    #########               ",
"                        ++++++XXXXXXXXXX###.......................oooooo    #########               ",
"                           +++XXXXXXXXXXXXX....................ooo                                  ",
"                           +++XXXXXXXXXXXXX....................ooo                                  ",
"                           +++XXXXXXXXXXXXX....................ooo                                  ",
"                              ooooXXXXXX...................oooo                                     ",
"                              ooooXXXXXX...................oooo                                     ",
"                              ooooXXXXXX...................oooo                                     ",
"                                  oooooo...             ...                                         ",
"                                  oooooo...             ...                                         ",
"                                  oooooo...             ...                                         ",
"                                  oooooo...             ...                                         ",
"                                        ...             ...                                         ",
"                                        ...             ...                                         ",
"                                        ...             ...                                         ",
"                                                                                                    ",
"                                                                                                    ",
"                                                                                                    ",
"                                                                                                    ",
"                                                                                                    ",
"                                                                                                    ",
"                                                                                                    ",
"                                                                                                    ",
"                                                                                                    ",
"                                                                                                    ",
"                                                                                                    ",
"                                                                                                    ",
"                                                                                                    ",
"                                                                                                    "
};
