/* XPM */
static char *Lstill_11663092028[] = {
/* columns rows colors chars-per-pixel */
"100 100 9 1 ",
"  c None",
". c #371515",
"X c #491E1D",
"o c #622020",
"O c #632121",
"+ c #762727",
"@ c #772828",
"# c #E49696",
"$ c #FFAEAE",
/* pixels */
"                                                                                                    ",
"                                                                                                    ",
"                                                                                                    ",
"                                                                                                    ",
"                                                                                                    ",
"                                                                                                    ",
"           ...                                                          ....                        ",
"           ...                                                          ....                        ",
"           ...                                                          ....                        ",
"           ...    ...                                                   .......                     ",
"           ...    ...                                                   .......                     ",
"           ...    ...                                                   .......                     ",
"           ..........                                                   ....                        ",
"           ..........                                                   ....                        ",
"           ..........                                                   ....                        ",
"                  ......                                                ....                        ",
"                  ......                                                ....                        ",
"                  ......                                                ....                        ",
"                  ......                                                ....                        ",
"                  ...                                      +++++++      .......                     ",
"                  ...                                      +++++++      .......                     ",
"                  ...                                      +++++++      .......                     ",
"                  ...             +++++++++++++      ++++++.......+++       ...                     ",
"                  ...             +++++++++++++      ++++++.......+++       ...                     ",
"                  ...             +++++++++++++      ++++++.......+++       ...                     ",
"                  ...         ++++.........+++++++@@@+++...$$$$................                     ",
"                  ...         ++++.........+++++++@@@+++...$$$$................                     ",
"                  ...         ++++.........+++++++@@@+++...$$$$................                     ",
"                  ................$$$$$$.......@@@@@@@@@.............+++                            ",
"                  ................$$$$$$.......@@@@@@@@@.............+++                            ",
"                  ................$$$$$$.......@@@@@@@@@.............+++                            ",
"                              .................@@@@@@@@@OOO.......ooO+++                            ",
"                              .................@@@@@@@@@OOO.......ooo+++                            ",
"                              .................@@@@@@@@@OOO.......ooo+++                            ",
"                              .................+@@@@@@@@OOO.......ooo+++                            ",
"                              .................++++++++++++Ooooooo+++                               ",
"                              .................++++++++++++ooooooo+++                               ",
"                              .................++++++++++++ooooooo+++                               ",
"                              ooOo.........oooo+++++++++ooooooooooXXXXXX                            ",
"                              oooo.........oooo+++++++++oooooooooOXXXXXX                            ",
"                              Oooo.........oooo+++++++++ooooooooOoXXXXXX                            ",
"                              ++++ooooooooo++++++++++ooo.......XXXXXXXXXXXXX                        ",
"                              ++++ooooooooo++++++++++ooo.......XXXXXXXXXXXXX                        ",
"                              ++++ooooooooo++++++++++ooo.......XXXXXXXXXXXXX                        ",
"                           ++++++++++++++++ooooooo.............XXXXXXXXXXXXX                        ",
"                           ++++++++++++++++ooooooo.............XXXXXXXXXXXXX                        ",
"                           ++++++++++++++++ooooooo.............XXXXXXXXXXXXX                        ",
"                           ++++++++++++++++ooooooo.............XXXXXXXXXXXXX                        ",
"                           ++++++++++ooo.......................###XXXXXX$$$$                        ",
"                           ++++++++++ooo.......................###XXXXXX$$$$                        ",
"                           ++++++++++ooo.......................###XXXXXX$$$$                        ",
"                           ++++++++++..........................$$$...   $$$$                        ",
"                           ++++++++++..........................$$$...   $$$$                        ",
"                           ++++++++++..........................$$$...   $$$$                        ",
"                           ++++++++++......................$$$$......   $$$$                        ",
"                           ++++++++++......................$$$$......   $$$$                        ",
"                           ++++++++++......................$$$$......   $$$$                        ",
"                           +++++++ooo...................###.......ooO   $$$$                        ",
"                           +++++++ooo...................###.......ooo   $$$$                        ",
"                           +++++++ooo...................###.......ooo   $$$$                        ",
"                           +++++++...................$$$..........ooO$$$                            ",
"                           +++++++...................$$$..........ooo$$$                            ",
"                           +++++++...................$$$..........ooo$$$                            ",
"                           +++++++...................$$$..........ooo$$$                            ",
"                           +++++++................$$$..........$$$$$$$$$                            ",
"                           +++++++................$$$..........$$$$$$$$$                            ",
"                           +++++++................$$$..........$$$$$$$$$                            ",
"                           +++++++XXXXXX.......$$$.........$$$$$$$$$$$$$$$$$                        ",
"                           +++++++XXXXXX.......$$$.........$$$$$$$$$$$$$$$$$                        ",
"                           +++++++XXXXXX.......$$$.........$$$$$$$$$$$$$$$$$                        ",
"                           +++XXXXXXXXXX###$$$$............$$$$$$$$$$$$$####                        ",
"                           +++XXXXXXXXXX###$$$$............$$$$$$$$$$$$$####                        ",
"                           +++XXXXXXXXXX###$$$$............$$$$$$$$$$$$$####                        ",
"                              XXXXXXXXXXXXX................####$$$##########                        ",
"                              XXXXXXXXXXXXX................####$$$##########                        ",
"                              XXXXXXXXXXXXX................####$$$##########                        ",
"                              XXXXXXXXXXXXX................####$$$##########                        ",
"                                  XXXXXX...................    #########                            ",
"                                  XXXXXX...................    #########                            ",
"                                  XXXXXX...................    #########                            ",
"                                        ...             ...                                         ",
"                                        ...             ...                                         ",
"                                        ...             ...                                         ",
"                                        ...             ...                                         ",
"                                        ...             ...                                         ",
"                                        ...             ...                                         ",
"                                                                                                    ",
"                                                                                                    ",
"                                                                                                    ",
"                                                                                                    ",
"                                                                                                    ",
"                                                                                                    ",
"                                                                                                    ",
"                                                                                                    ",
"                                                                                                    ",
"                                                                                                    ",
"                                                                                                    ",
"                                                                                                    ",
"                                                                                                    ",
"                                                                                                    "
};
