/* XPM */
static char *Lstill_21663092029[] = {
/* columns rows colors chars-per-pixel */
"100 100 9 1 ",
"  c None",
". c #371515",
"X c #491E1D",
"o c #622020",
"O c #632121",
"+ c #762727",
"@ c #772828",
"# c #E49696",
"$ c #FFAEAE",
/* pixels */
"                                                                                                    ",
"                                                                                                    ",
"                                                                                                    ",
"                                                                                                    ",
"                                                                                                    ",
"                                                                                                    ",
"           ...                                                          ....                        ",
"           ...                                                          ....                        ",
"           ...                                                          ....                        ",
"           ...    ...                                                   .......                     ",
"           ...    ...                                                   .......                     ",
"           ...    ...                                                   .......                     ",
"           ..........                                                   ....                        ",
"           ..........                                                   ....                        ",
"           ..........                                                   ....                        ",
"                  ......                                                ....                        ",
"                  ......                                                ....                        ",
"                  ......                                                ....                        ",
"                  ......                                                ....                        ",
"                  ...                                      +++++++      .......                     ",
"                  ...                                      +++++++      .......                     ",
"                  ...                                      +++++++      .......                     ",
"                  ...             +++++++++++++      ++++++.......+++       ...                     ",
"                  ...             +++++++++++++      ++++++.......+++       ...                     ",
"                  ...             +++++++++++++      ++++++.......+++       ...                     ",
"                  ...         ++++.........+++++++@@@+++...$$$$................                     ",
"                  ...         ++++.........+++++++@@@+++...$$$$................                     ",
"                  ...         ++++.........+++++++@@@+++...$$$$................                     ",
"                  ................$$$$$$.......@@@@@@@@@.............+++                            ",
"                  ................$$$$$$.......@@@@@@@@@.............+++                            ",
"                  ................$$$$$$.......@@@@@@@@@.............+++                            ",
"                              .................@@@@@@@@@OOO.......ooO+++                            ",
"                              .................@@@@@@@@@OOO.......ooo+++                            ",
"                              .................@@@@@@@@@OOO.......ooo+++                            ",
"                              .................+@@@@@@@@OOO.......ooo+++                            ",
"                              .................++++++++++++OooooooXXXXXX                            ",
"                              .................++++++++++++oooooooXXXXXX                            ",
"                              .................++++++++++++ooooooOXXXXXX                            ",
"                              ooOo.........oooo+++++++++oooooooXXXXXXXXXXXXX                        ",
"                              oooo.........oooo+++++++++oooooooXXXXXXXXXXXXX                        ",
"                              Oooo.........oooo+++++++++oooooooXXXXXXXXXXXXX                        ",
"                              ++++ooooooooo++++++++++ooo.......XXXXXXXXXXXXX                        ",
"                              ++++ooooooooo++++++++++ooo.......XXXXXXXXXXXXX                        ",
"                              ++++ooooooooo++++++++++ooo.......XXXXXXXXXXXXX                        ",
"                           ++++++++++++++++ooooooo.............###XXXXXX$$$$                        ",
"                           ++++++++++++++++ooooooo.............###XXXXXX$$$$                        ",
"                           ++++++++++++++++ooooooo.............###XXXXXX$$$$                        ",
"                           ++++++++++++++++ooooooo.............###XXXXXX$$$$                        ",
"                           ++++++++++ooo.......................###...   $$$$                        ",
"                           ++++++++++ooo.......................###...   $$$$                        ",
"                           ++++++++++ooo.......................###...   $$$$                        ",
"                           ++++++++++..........................$$$...   $$$$                        ",
"                           ++++++++++..........................$$$...   $$$$                        ",
"                           ++++++++++..........................$$$...   $$$$                        ",
"                           ++++++++++..........................$$$...       $$$                     ",
"                           ++++++++++..........................$$$...       $$$                     ",
"                           ++++++++++..........................$$$...       $$$                     ",
"                           +++++++ooo......................####...ooO       $$$                     ",
"                           +++++++ooo......................####...ooo       $$$                     ",
"                           +++++++ooo......................####...ooo       $$$                     ",
"                           +++++++......................$$$.......ooO   $$$$$$$$$$                  ",
"                           +++++++......................$$$.......ooo   $$$$$$$$$$                  ",
"                           +++++++......................$$$.......ooo   $$$$$$$$$$                  ",
"                           +++++++......................$$$.......ooO   $$$$$$$$$$                  ",
"                           +++++++XXXXXX.............$$$..........ooo$$$$$$$$$$$$$$$$               ",
"                           +++++++XXXXXX.............$$$..........ooo$$$$$$$$$$$$$$$$               ",
"                           +++++++XXXXXX.............$$$..........OOo$$$$$$$$$$$$$$$$               ",
"                           +++XXXXXXXXXX#######$$$$$$.............   $$$$$$$$$$$$$###               ",
"                           +++XXXXXXXXXX#######$$$$$$.............   $$$$$$$$$$$$$###               ",
"                           +++XXXXXXXXXX#######$$$$$$.............   $$$$$$$$$$$$$###               ",
"                           +++XXXXXXXXXXXXX.......................   ################               ",
"                           +++XXXXXXXXXXXXX.......................   ################               ",
"                           +++XXXXXXXXXXXXX.......................   ################               ",
"                              oOooXXXXXX.......................         ##########                  ",
"                              ooooXXXXXX.......................         ##########                  ",
"                              oooOXXXXXX.......................         ##########                  ",
"                              OoOoXXXXXX.......................         ##########                  ",
"                                     ooo...................                                         ",
"                                     Ooo...................                                         ",
"                                     ooO...................                                         ",
"                                        ...             ...                                         ",
"                                        ...             ...                                         ",
"                                        ...             ...                                         ",
"                                        ...             ...                                         ",
"                                        ...             ...                                         ",
"                                        ...             ...                                         ",
"                                                                                                    ",
"                                                                                                    ",
"                                                                                                    ",
"                                                                                                    ",
"                                                                                                    ",
"                                                                                                    ",
"                                                                                                    ",
"                                                                                                    ",
"                                                                                                    ",
"                                                                                                    ",
"                                                                                                    ",
"                                                                                                    ",
"                                                                                                    ",
"                                                                                                    "
};
