/* XPM */
static char *Lstill_41663092029[] = {
/* columns rows colors chars-per-pixel */
"100 100 9 1 ",
"  c None",
". c #371515",
"X c #491E1D",
"o c #622020",
"O c #632121",
"+ c #762727",
"@ c #772828",
"# c #E49696",
"$ c #FFAEAE",
/* pixels */
"                                                                                                    ",
"                                                                                                    ",
"                                                                                                    ",
"                                                                                                    ",
"                                                                                                    ",
"                                                                                                    ",
"                                                                                                    ",
"                                                                                                    ",
"                                                                                                    ",
"                                                                                                    ",
"                                                                                                    ",
"                                                                                                    ",
"           ...                                                          ....                        ",
"           ...                                                          ....                        ",
"           ...                                                          ....                        ",
"           ...    ...                                                   .......                     ",
"           ...    ...                                                   .......                     ",
"           ...    ...                                                   .......                     ",
"           ..........                                                   ....                        ",
"           ..........                                                   ....                        ",
"           ..........                                                   ....                        ",
"                  ......                                                ....                        ",
"                  ......                                                ....                        ",
"                  ......                                                ....                        ",
"                  ......                                                ....                        ",
"                  ...                                      +++++++      .......                     ",
"                  ...                                      +++++++      .......                     ",
"                  ...                                      +++++++      .......                     ",
"                  ...             +++++++++++++      ++++++.......+++       ...                     ",
"                  ...             +++++++++++++      ++++++.......+++       ...                     ",
"                  ...             +++++++++++++      ++++++.......+++       ...                     ",
"                  ...         ++++.........+++++++@@@+++...$$$$................                     ",
"                  ...         ++++.........+++++++@@@+++...$$$$................                     ",
"                  ...         ++++.........+++++++@@@+++...$$$$................                     ",
"                  ................$$$$$$.......@@@@@@@@@.............+++                            ",
"                  ................$$$$$$.......@@@@@@@@@.............+++                            ",
"                  ................$$$$$$.......@@@@@@@@@.............+++                            ",
"                              ....$$$$$$.......@@@@@@@@@OOO.......ooo+++                            ",
"                              ....$$$$$$.......@@@@@@@@@OOO.......ooo+++                            ",
"                              ....$$$$$$.......@@@@@@@@@OOo.......ooo+++                            ",
"                              ....$$$$$$.......@@@@@@@@@OOo.......ooo+++                            ",
"                              .................++++++++++@+oooooooXXXXXX                            ",
"                              .................++++++++++++oooooooXXXXXX                            ",
"                              .................++++++++++++oooooooXXXXXX                            ",
"                              oooo.........oooo+++++++++oooooooXXXXXXXXXXXXX                        ",
"                              oooo.........oooo+++++++++oooooooXXXXXXXXXXXXX                        ",
"                              oooo.........oooo++++++++@oooooooXXXXXXXXXXXXX                        ",
"                              ++++ooooooooo++++++++++ooo.......XXXXXXXXXXXXX                        ",
"                              ++++ooooooooo++++++++++ooo.......XXXXXXXXXXXXX                        ",
"                              ++++ooooooooo++++++++++ooo.......XXXXXXXXXXXXX                        ",
"                           ++++++++++++++++ooooooo......$$$#######XXXXXX$$$$                        ",
"                           ++++++++++++++++ooooooo......$$$#######XXXXXX$$$$                        ",
"                           ++++++++++++++++ooooooo......$$$#######XXXXXX$$$$                        ",
"                           ++++++++++++++++ooooooo......$$$#######XXXXXX$$$$                        ",
"                           ++++++++++ooo..........$$$$$$.............   $$$$                        ",
"                           ++++++++++ooo..........$$$$$$.............   $$$$                        ",
"                           ++++++++++ooo..........$$$$$$.............   $$$$                        ",
"                           ++++++++++..........###...................   $$$$                        ",
"                           ++++++++++..........###...................   $$$$                        ",
"                           ++++++++++..........###...................   $$$$                        ",
"                           ++++++++++......$$$$......................   $$$$                        ",
"                           ++++++++++......$$$$......................   $$$$                        ",
"                           ++++++++++......$$$$......................   $$$$                        ",
"                           +++++++ooo...$$$.......................ooo       $$$$$$$$$               ",
"                           +++++++ooo...$$$.......................ooo       $$$$$$$$$               ",
"                           +++++++ooo...$$$.......................ooo       $$$$$$$$$               ",
"                           +++++++......$$$.......................ooo   $$$$$$$$$$$$$$$$            ",
"                           +++++++......$$$.......................ooo   $$$$$$$$$$$$$$$$            ",
"                           +++++++......$$$.......................ooo   $$$$$$$$$$$$$$$$            ",
"                           +++++++......$$$.......................ooo   $$$$$$$$$$$$$$$$            ",
"                           +++++++XXXXXX###.......................ooo   $$$$$$$$$$$$$###            ",
"                           +++++++XXXXXX###.......................ooo   $$$$$$$$$$$$$###            ",
"                           +++++++XXXXXX###.......................ooo   $$$$$$$$$$$$$###            ",
"                           +++XXXXXXXXXX###....................ooo      $$$$$$$#########            ",
"                           +++XXXXXXXXXX###....................ooo      $$$$$$$#########            ",
"                           +++XXXXXXXXXX###....................ooo      $$$$$$$#########            ",
"                        ++++++XXXXXXXXXXXXX................ooooooo          #########               ",
"                        ++++++XXXXXXXXXXXXX................ooooooo          #########               ",
"                        ++++++XXXXXXXXXXXXX................ooooooo          #########               ",
"                        ++++++ooooXXXXXX...ooooooooooooo...ooooooo                                  ",
"                        ++++++ooooXXXXXX...ooooooooooooo...ooooooo                                  ",
"                        ++++++ooooXXXXXX...ooooooooooooo...ooooooo                                  ",
"                        ++++++ooooXXXXXX...ooooooooooooo...ooooooo                                  ",
"                                        ...             ...                                         ",
"                                        ...             ...                                         ",
"                                        ...             ...                                         ",
"                                                                                                    ",
"                                                                                                    ",
"                                                                                                    ",
"                                                                                                    ",
"                                                                                                    ",
"                                                                                                    ",
"                                                                                                    ",
"                                                                                                    ",
"                                                                                                    ",
"                                                                                                    ",
"                                                                                                    ",
"                                                                                                    ",
"                                                                                                    ",
"                                                                                                    "
};
