/* XPM */
static char *Lstill_01663092028[] = {
/* columns rows colors chars-per-pixel */
"100 100 7 1 ",
"  c None",
". c #371515",
"X c #491E1D",
"o c #622020",
"O c #762727",
"+ c #E49696",
"@ c #FFAEAE",
/* pixels */
"                                                                                                    ",
"                                                                                                    ",
"                                                                                                    ",
"                                                                                                    ",
"                                                                                                    ",
"                                                                                                    ",
"                                                                                                    ",
"                                                                                                    ",
"                                                                                                    ",
"           ...                                                          ....                        ",
"           ...                                                          ....                        ",
"           ...                                                          ....                        ",
"           ...    ...                                                   .......                     ",
"           ...    ...                                                   .......                     ",
"           ...    ...                                                   .......                     ",
"           ..........                                                   ....                        ",
"           ..........                                                   ....                        ",
"           ..........                                                   ....                        ",
"                  ......                                                ....                        ",
"                  ......                                                ....                        ",
"                  ......                                                ....                        ",
"                  ......                                                ....                        ",
"                  ...                                      OOOOOOO      .......                     ",
"                  ...                                      OOOOOOO      .......                     ",
"                  ...                                      OOOOOOO      .......                     ",
"                  ...             OOOOOOOOOOOOO      OOOOOO.......OOO       ...                     ",
"                  ...             OOOOOOOOOOOOO      OOOOOO.......OOO       ...                     ",
"                  ...             OOOOOOOOOOOOO      OOOOOO.......OOO       ...                     ",
"                  ...         OOOO.........OOOOOOOOOOOOO...@@@@................                     ",
"                  ...         OOOO.........OOOOOOOOOOOOO...@@@@................                     ",
"                  ...         OOOO.........OOOOOOOOOOOOO...@@@@................                     ",
"                  ................@@@@@@.......OOOOOOOOO.............OOO                            ",
"                  ................@@@@@@.......OOOOOOOOO.............OOO                            ",
"                  ................@@@@@@.......OOOOOOOOO.............OOO                            ",
"                              ....@@@@@@.......OOOOOOOOOooo.......oooOOO                            ",
"                              ....@@@@@@.......OOOOOOOOOooo.......oooOOO                            ",
"                              ....@@@@@@.......OOOOOOOOOooo.......oooOOO                            ",
"                              ....@@@@@@.......OOOOOOOOOooo.......oooOOO                            ",
"                              .................OOOOOOOOOOOOoooooooXXXXXX                            ",
"                              .................OOOOOOOOOOOOoooooooXXXXXX                            ",
"                              .................OOOOOOOOOOOOoooooooXXXXXX                            ",
"                              oooo.........ooooOOOOOOOOOoooooooXXXXXXXXXXXXX                        ",
"                              oooo.........ooooOOOOOOOOOoooooooXXXXXXXXXXXXX                        ",
"                              oooo.........ooooOOOOOOOOOoooooooXXXXXXXXXXXXX                        ",
"                              OOOOoooooooooOOOOOOOOOOooo.......XXXXXXXXXXXXX                        ",
"                              OOOOoooooooooOOOOOOOOOOooo.......XXXXXXXXXXXXX                        ",
"                              OOOOoooooooooOOOOOOOOOOooo.......XXXXXXXXXXXXX                        ",
"                           OOOOOOOOOOOOOOOOooooooo.............+++XXXXXX@@@@                        ",
"                           OOOOOOOOOOOOOOOOooooooo.............+++XXXXXX@@@@                        ",
"                           OOOOOOOOOOOOOOOOooooooo.............+++XXXXXX@@@@                        ",
"                           OOOOOOOOOOOOOOOOooooooo.............+++XXXXXX@@@@                        ",
"                           OOOOOOOOOOooo.......................+++...   @@@@                        ",
"                           OOOOOOOOOOooo.......................+++...   @@@@                        ",
"                           OOOOOOOOOOooo.......................+++...   @@@@                        ",
"                           OOOOOOOOOO..........................@@@...   @@@@                        ",
"                           OOOOOOOOOO..........................@@@...   @@@@                        ",
"                           OOOOOOOOOO..........................@@@...   @@@@                        ",
"                           OOOOOOOOOO......................++++......   @@@@                        ",
"                           OOOOOOOOOO......................++++......   @@@@                        ",
"                           OOOOOOOOOO......................++++......   @@@@                        ",
"                           OOOOOOOooo......................@@@@...ooo   @@@@                        ",
"                           OOOOOOOooo......................@@@@...ooo   @@@@                        ",
"                           OOOOOOOooo......................@@@@...ooo   @@@@                        ",
"                           OOOOOOO......................+++.......ooo@@@@@@@@@@                     ",
"                           OOOOOOO......................+++.......ooo@@@@@@@@@@                     ",
"                           OOOOOOO......................+++.......ooo@@@@@@@@@@                     ",
"                           OOOOOOO......................+++.......ooo@@@@@@@@@@                     ",
"                           OOOOOOOXXXXXX.............@@@..........@@@@@@@@@@@@@@@@                  ",
"                           OOOOOOOXXXXXX.............@@@..........@@@@@@@@@@@@@@@@                  ",
"                           OOOOOOOXXXXXX.............@@@..........@@@@@@@@@@@@@@@@                  ",
"                           OOOXXXXXXXXXX+++++++@@@@@@.............@@@@@@@@@@@@@+++                  ",
"                           OOOXXXXXXXXXX+++++++@@@@@@.............@@@@@@@@@@@@@+++                  ",
"                           OOOXXXXXXXXXX+++++++@@@@@@.............@@@@@@@@@@@@@+++                  ",
"                           OOOXXXXXXXXXXXXX....................ooo@@@@@@@@@@++++++                  ",
"                           OOOXXXXXXXXXXXXX....................ooo@@@@@@@@@@++++++                  ",
"                           OOOXXXXXXXXXXXXX....................ooo@@@@@@@@@@++++++                  ",
"                              ooooXXXXXX...................oooo      ++++++++++                     ",
"                              ooooXXXXXX...................oooo      ++++++++++                     ",
"                              ooooXXXXXX...................oooo      ++++++++++                     ",
"                              ooooXXXXXX...................oooo      ++++++++++                     ",
"                                     ooo...ooooooooooooo...                                         ",
"                                     ooo...ooooooooooooo...                                         ",
"                                     ooo...ooooooooooooo...                                         ",
"                                        ...             ...                                         ",
"                                        ...             ...                                         ",
"                                        ...             ...                                         ",
"                                                                                                    ",
"                                                                                                    ",
"                                                                                                    ",
"                                                                                                    ",
"                                                                                                    ",
"                                                                                                    ",
"                                                                                                    ",
"                                                                                                    ",
"                                                                                                    ",
"                                                                                                    ",
"                                                                                                    ",
"                                                                                                    ",
"                                                                                                    ",
"                                                                                                    "
};
