/* XPM */
static char *Lwalk_51663092094[] = {
/* columns rows colors chars-per-pixel */
"100 100 8 1 ",
"  c None",
". c #371515",
"X c #491E1D",
"o c #622020",
"O c #762727",
"+ c #772828",
"@ c #E49696",
"# c #FFAEAE",
/* pixels */
"                                                                                                    ",
"                                                                                                    ",
"                                                                                                    ",
"                        ...                                  ...                                    ",
"                        ...                                  ...                                    ",
"                        ...                                  ...                                    ",
"                        .......                              .......                                ",
"                        .......                              .......                                ",
"                        .......                              .......                                ",
"                        .......                              .......                                ",
"                        .......                              ...                                    ",
"                        .......                              ...                                    ",
"                        .......                              ...                                    ",
"                           .......                           ...                                    ",
"                           .......                           ...                                    ",
"                           .......                           ...                                    ",
"                           .......                           ...                                    ",
"                           ....                          OOOO.......                                ",
"                           ....                          OOOO.......                                ",
"                           ....                          OOOO.......                                ",
"                           ....   OOOOOOOOOOOOO       .......OOO....OOO                             ",
"                           ....   OOOOOOOOOOOOO       .......OOO....OOO                             ",
"                           ....   OOOOOOOOOOOOO       .......OOO....OOO                             ",
"                           ..........OOOOOOOOOOOOOOOOO###...........OOOOOO                          ",
"                           ..........OOOOOOOOOOOOOOOOO###...........OOOOOO                          ",
"                           ..........OOOOOOOOOOOOOOOOO###...........OOOOOO                          ",
"                           ..........OOOOOOOOOOOOOOOOO###...........OOOOOO                          ",
"                           ....###...ooooOOOOOOOOOO+++...oooooooOOOOOOOOOO                          ",
"                           ....###...ooooOOOOOOOOOO+++...oooooooOOOOOOOOOO                          ",
"                           ....###...ooooOOOOOOOOOO+++...oooooooOOOOOOOOOO                          ",
"                               ###...ooooOOOOOOOOOO+++oooOOOOOOOOOOOOOOooo                          ",
"                               ###...ooooOOOOOOOOOO+++oooOOOOOOOOOOOOOOooo                          ",
"                               ###...ooooOOOOOOOOOO+++oooOOOOOOOOOOOOOOooo                          ",
"                               ...oooOOOOOOOOOOOOOO+++OOOOOOOoooooooooo                             ",
"                               ...oooOOOOOOOOOOOOOO+++OOOOOOOoooooooooo                             ",
"                               ...oooOOOOOOOOOOOOOO+++OOOOOOOoooooooooo                             ",
"                               ...oooOOOOOOOOOOOOOO+++OOOOOOOoooooooooo                             ",
"                               oooOOOOOOOOOOOOOOOOOOOOOOOooooXXXXXXX                                ",
"                               oooOOOOOOOOOOOOOOOOOOOOOOOooooXXXXXXX                                ",
"                               oooOOOOOOOOOOOOOOOOOOOOOOOooooXXXXXXX                                ",
"                               OOOOOOOOOOOOOOOOOOOOooooooXXXXXXXXXXXXXX                             ",
"                               OOOOOOOOOOOOOOOOOOOOooooooXXXXXXXXXXXXXX                             ",
"                               OOOOOOOOOOOOOOOOOOOOooooooXXXXXXXXXXXXXX                             ",
"                               OOOOOOOOOOOOOOOOOOOOooooooXXXXXXXXXXXXXX                             ",
"                               OOOOOOOOOOoooooooooo......XXXXXXXXXXXXXX                             ",
"                               OOOOOOOOOOoooooooooo......XXXXXXXXXXXXXX                             ",
"                               OOOOOOOOOOoooooooooo......XXXXXXXXXXXXXX                             ",
"                                  ooooooo................@@@@XXXXXXX###OOO                          ",
"                                  ooooooo................@@@@XXXXXXX###OOO                          ",
"                                  ooooooo................@@@@XXXXXXX###OOO                          ",
"                                  .......................@@@@.......###OOO                          ",
"                                  .......................@@@@.......###OOO                          ",
"                                  .......................@@@@.......###OOO                          ",
"                                  .......................@@@@.......###OOO                          ",
"                                  .......................####.......###OOO                          ",
"                                  .......................####.......###OOO                          ",
"                                  .......................####.......###OOO                          ",
"                                  ....................###...........###OOOOOOO                      ",
"                                  ....................###...........###OOOOOOO                      ",
"                                  ....................###...........###OOOOOOO                      ",
"                                  ....................###...........###oooOOOO                      ",
"                                  ....................###...........###oooOOOO                      ",
"                                  ....................###...........###oooOOOO                      ",
"                                  ....................###...........###oooOOOO                      ",
"                                  .................@@@..........##########ooooooo                   ",
"                                  .................@@@..........##########ooooooo                   ",
"                                  .................@@@..........##########ooooooo                   ",
"                               XXX.............####..........#################ooo                   ",
"                               XXX.............####..........#################ooo                   ",
"                               XXX.............####..........#################ooo                   ",
"                               XXX.............####..........#################ooo                   ",
"                               XXX@@@@@@@@@@###..............#############@@@@ooo                   ",
"                               XXX@@@@@@@@@@###..............#############@@@@ooo                   ",
"                               XXX@@@@@@@@@@###..............#############@@@@ooo                   ",
"                               XXXXXX........................##########@@@@@@@                      ",
"                               XXXXXX........................##########@@@@@@@                      ",
"                               XXXXXX........................##########@@@@@@@                      ",
"                                     ....                ....   @@@@@@@@@@                          ",
"                                     ....                ....   @@@@@@@@@@                          ",
"                                     ....                ....   @@@@@@@@@@                          ",
"                                     ....                ....   @@@@@@@@@@                          ",
"                                                             ...                                    ",
"                                                             ...                                    ",
"                                                             ...                                    ",
"                                                                                                    ",
"                                                                                                    ",
"                                                                                                    ",
"                                                                                                    ",
"                                                                                                    ",
"                                                                                                    ",
"                                                                                                    ",
"                                                                                                    ",
"                                                                                                    ",
"                                                                                                    ",
"                                                                                                    ",
"                                                                                                    ",
"                                                                                                    ",
"                                                                                                    ",
"                                                                                                    ",
"                                                                                                    "
};
