/* XPM */
static char *Lwalk_11663092093[] = {
/* columns rows colors chars-per-pixel */
"100 100 7 1 ",
"  c None",
". c #371515",
"X c #491E1D",
"o c #622020",
"O c #762727",
"+ c #E49696",
"@ c #FFAEAE",
/* pixels */
"                                                                                                    ",
"                                                                                                    ",
"                                                                                                    ",
"        ....                                                            ....                        ",
"        ....                                                            ....                        ",
"        ....                                                            ....                        ",
"        ....                                                            ....                        ",
"        ....   ...                                                      .......                     ",
"        ....   ...                                                      .......                     ",
"        ....   ...                                                      .......                     ",
"        ..........                                                      ....                        ",
"        ..........                                                      ....                        ",
"        ..........                                                      ....                        ",
"               .......                                                  ....                        ",
"               .......                                                  ....                        ",
"               .......                                                  ....                        ",
"               .......                                                  ....                        ",
"               ...                                         OOOOOOO      .......                     ",
"               ...                                         OOOOOOO      .......                     ",
"               ...                                         OOOOOOO      .......                     ",
"               ...              OOOOOOOOOOOOO       OOOOOOO.......OOO       ...                     ",
"               ...              OOOOOOOOOOOOO       OOOOOOO.......OOO       ...                     ",
"               ...              OOOOOOOOOOOOO       OOOOOOO.......OOO       ...                     ",
"               ...              OOOOOOOOOOOOO       OOOOOOO.......OOO       ...                     ",
"               ...           OOO..........OOOOOOOOOOOOO....@@@.................                     ",
"               ...           OOO..........OOOOOOOOOOOOO....@@@.................                     ",
"               ...           OOO..........OOOOOOOOOOOOO....@@@.................                     ",
"               .................@@@@@@@......OOOOOOOOOO..............OOO                            ",
"               .................@@@@@@@......OOOOOOOOOO..............OOO                            ",
"               .................@@@@@@@......OOOOOOOOOO..............OOO                            ",
"                             ...@@@@@@@......OOOOOOOOOOoooo.......oooOOO                            ",
"                             ...@@@@@@@......OOOOOOOOOOoooo.......oooOOO                            ",
"                             ...@@@@@@@......OOOOOOOOOOoooo.......oooOOO                            ",
"                             ...@@@@@@@......OOOOOOOOOOoooo.......oooOOO                            ",
"                             ................OOOOOOOOOOOOOOoooooooooo                               ",
"                             ................OOOOOOOOOOOOOOoooooooooo                               ",
"                             ................OOOOOOOOOOOOOOoooooooooo                               ",
"                             ooo..........oooOOOOOOOOOOoooooooooooXXXXXX                            ",
"                             ooo..........oooOOOOOOOOOOoooooooooooXXXXXX                            ",
"                             ooo..........oooOOOOOOOOOOoooooooooooXXXXXX                            ",
"                             OOOooooooooooOOOOOOOOOOooo.......XXXXXXXXXXXXXX                        ",
"                             OOOooooooooooOOOOOOOOOOooo.......XXXXXXXXXXXXXX                        ",
"                             OOOooooooooooOOOOOOOOOOooo.......XXXXXXXXXXXXXX                        ",
"                             OOOooooooooooOOOOOOOOOOooo.......XXXXXXXXXXXXXX                        ",
"                             OOOOOOOOOOOOOooooooo.............XXXXXXXXXXXXXX                        ",
"                             OOOOOOOOOOOOOooooooo.............XXXXXXXXXXXXXX                        ",
"                             OOOOOOOOOOOOOooooooo.............XXXXXXXXXXXXXX                        ",
"                             OOOOOOoooo.......................++++XXXXXX@@@@                        ",
"                             OOOOOOoooo.......................++++XXXXXX@@@@                        ",
"                             OOOOOOoooo.......................++++XXXXXX@@@@                        ",
"                             OOOOOOoooo.......................++++XXXXXX@@@@                        ",
"                                ooo...........................@@@@...OOO++++                        ",
"                                ooo...........................@@@@...OOO++++                        ",
"                                ooo...........................@@@@...OOO++++                        ",
"                                ...........................+++.......OOO++++                        ",
"                                ...........................+++.......OOO++++                        ",
"                                ...........................+++.......OOO++++                        ",
"                                ...........................@@@....OOOOOO++++                        ",
"                                ...........................@@@....OOOOOO++++                        ",
"                                ...........................@@@....OOOOOO++++                        ",
"                                ...........................@@@....OOOOOO++++                        ",
"                                .......................@@@@.......OOOOOO@@@@                        ",
"                                .......................@@@@.......OOOOOO@@@@                        ",
"                                .......................@@@@.......OOOOOO@@@@                        ",
"                                ....................+++...........OOO@@@@@@@@@@                     ",
"                                ....................+++...........OOO@@@@@@@@@@                     ",
"                                ....................+++...........OOO@@@@@@@@@@                     ",
"                                XXXXXXX......++++@@@..............@@@@@@@@@@@@@@@@                  ",
"                                XXXXXXX......++++@@@..............@@@@@@@@@@@@@@@@                  ",
"                                XXXXXXX......++++@@@..............@@@@@@@@@@@@@@@@                  ",
"                                XXXXXXX......++++@@@..............@@@@@@@@@@@@@@@@                  ",
"                             XXXXXXXXXX+++@@@.................oooo@@@@@@@@@@@@@+++                  ",
"                             XXXXXXXXXX+++@@@.................oooo@@@@@@@@@@@@@+++                  ",
"                             XXXXXXXXXX+++@@@.................oooo@@@@@@@@@@@@@+++                  ",
"                             XXXXXXXXXXXXX.................ooooooo@@@@@@@@@@++++++                  ",
"                             XXXXXXXXXXXXX.................ooooooo@@@@@@@@@@++++++                  ",
"                             XXXXXXXXXXXXX.................ooooooo@@@@@@@@@@++++++                  ",
"                             XXXXXXXXXXXXX.................ooooooo@@@@@@@@@@++++++                  ",
"                                XXXXXXX                ....   ooooooo++++++++++                     ",
"                                XXXXXXX                ....   ooooooo++++++++++                     ",
"                                XXXXXXX                ....   ooooooo++++++++++                     ",
"                                                           ...                                      ",
"                                                           ...                                      ",
"                                                           ...                                      ",
"                                                                                                    ",
"                                                                                                    ",
"                                                                                                    ",
"                                                                                                    ",
"                                                                                                    ",
"                                                                                                    ",
"                                                                                                    ",
"                                                                                                    ",
"                                                                                                    ",
"                                                                                                    ",
"                                                                                                    ",
"                                                                                                    ",
"                                                                                                    ",
"                                                                                                    ",
"                                                                                                    ",
"                                                                                                    "
};
