/* XPM */
static char *Lwalk_01663092093[] = {
/* columns rows colors chars-per-pixel */
"100 100 7 1 ",
"  c None",
". c #371515",
"X c #491E1D",
"o c #622020",
"O c #762727",
"+ c #E49696",
"@ c #FFAEAE",
/* pixels */
"                                                                                                    ",
"                                                                                                    ",
"                                                                                                    ",
"                                                                                                    ",
"                                                                                                    ",
"                                                                                                    ",
"                                                                                                    ",
"                                                                                                    ",
"                                                                                                    ",
"                                                                                                    ",
"                                                                                                    ",
"        ....                                                            ....                        ",
"        ....                                                            ....                        ",
"        ....                                                            ....                        ",
"        ....   ...                                                      .......                     ",
"        ....   ...                                                      .......                     ",
"        ....   ...                                                      .......                     ",
"        ..........                                                      ....                        ",
"        ..........                                                      ....                        ",
"        ..........                                                      ....                        ",
"        ..........                                                      ....                        ",
"               .......                                                  ....                        ",
"               .......                                                  ....                        ",
"               .......                                                  ....                        ",
"               ...                                         OOOOOOO      .......                     ",
"               ...                                         OOOOOOO      .......                     ",
"               ...                                         OOOOOOO      .......                     ",
"               ...                                         OOOOOOO      .......                     ",
"               ...              OOOOOOOOOOOOO       OOOOOOO.......OOO       ...                     ",
"               ...              OOOOOOOOOOOOO       OOOOOOO.......OOO       ...                     ",
"               ...              OOOOOOOOOOOOO       OOOOOOO.......OOO       ...                     ",
"               ...           OOO..........OOOOOOOOOOOOO....@@@.................                     ",
"               ...           OOO..........OOOOOOOOOOOOO....@@@.................                     ",
"               ...           OOO..........OOOOOOOOOOOOO....@@@.................                     ",
"               .................@@@@@@@......OOOOOOOOOO..............OOO                            ",
"               .................@@@@@@@......OOOOOOOOOO..............OOO                            ",
"               .................@@@@@@@......OOOOOOOOOO..............OOO                            ",
"               .................@@@@@@@......OOOOOOOOOO..............OOO                            ",
"                             ...@@@@@@@......OOOOOOOOOOoooo.......oooOOO                            ",
"                             ...@@@@@@@......OOOOOOOOOOoooo.......oooOOO                            ",
"                             ...@@@@@@@......OOOOOOOOOOoooo.......oooOOO                            ",
"                             ................OOOOOOOOOOOOOOoooooooXXXXXX                            ",
"                             ................OOOOOOOOOOOOOOoooooooXXXXXX                            ",
"                             ................OOOOOOOOOOOOOOoooooooXXXXXX                            ",
"                             ooo..........oooOOOOOOOOOOoooooooXXXXXXXXXXXXXX                        ",
"                             ooo..........oooOOOOOOOOOOoooooooXXXXXXXXXXXXXX                        ",
"                             ooo..........oooOOOOOOOOOOoooooooXXXXXXXXXXXXXX                        ",
"                             ooo..........oooOOOOOOOOOOoooooooXXXXXXXXXXXXXX                        ",
"                             OOOooooooooooOOOOOOOOOOooo.......XXXXXXXXXXXXXX                        ",
"                             OOOooooooooooOOOOOOOOOOooo.......XXXXXXXXXXXXXX                        ",
"                             OOOooooooooooOOOOOOOOOOooo.......XXXXXXXXXXXXXX                        ",
"                             OOOOOOOOOOOOOooooooo.............@@@@XXXXXX@@@@                        ",
"                             OOOOOOOOOOOOOooooooo.............@@@@XXXXXX@@@@                        ",
"                             OOOOOOOOOOOOOooooooo.............@@@@XXXXXX@@@@                        ",
"                             OOOOOOOOOOOOOooooooo.............@@@@XXXXXX@@@@                        ",
"                             OOOOOOoooo.......................++++...OOO++++                        ",
"                             OOOOOOoooo.......................++++...OOO++++                        ",
"                             OOOOOOoooo.......................++++...OOO++++                        ",
"                                ooo...........................@@@@...OOO++++                        ",
"                                ooo...........................@@@@...OOO++++                        ",
"                                ooo...........................@@@@...OOO++++                        ",
"                                ...........................+++.......OOO++++OOOOOO                  ",
"                                ...........................+++.......OOO++++OOOOOO                  ",
"                                ...........................+++.......OOO++++OOOOOO                  ",
"                                ...........................+++.......OOO++++OOOOOO                  ",
"                                ...........................@@@....oooooo@@@@OOO                     ",
"                                ...........................@@@....oooooo@@@@OOO                     ",
"                                ...........................@@@....oooooo@@@@OOO                     ",
"                                .......................++++...@@@@@@@@@@oooo                        ",
"                                .......................++++...@@@@@@@@@@oooo                        ",
"                                .......................++++...@@@@@@@@@@oooo                        ",
"                                XXXXXXX.............@@@....@@@@@@@@@@@@@@@@@                        ",
"                                XXXXXXX.............@@@....@@@@@@@@@@@@@@@@@                        ",
"                                XXXXXXX.............@@@....@@@@@@@@@@@@@@@@@                        ",
"                                XXXXXXX.............@@@....@@@@@@@@@@@@@@@@@                        ",
"                             XXXXXXXXXX@@@+++@@@@+++.......@@@@@@@@@@@@@++++                        ",
"                             XXXXXXXXXX@@@+++@@@@+++.......@@@@@@@@@@@@@++++                        ",
"                             XXXXXXXXXX@@@+++@@@@+++.......@@@@@@@@@@@@@++++                        ",
"                             XXXXXXXXXXXXX.................@@@@@@@@@@+++++++                        ",
"                             XXXXXXXXXXXXX.................@@@@@@@@@@+++++++                        ",
"                             XXXXXXXXXXXXX.................@@@@@@@@@@+++++++                        ",
"                             XXXXXXXXXXXXX.................@@@@@@@@@@+++++++                        ",
"                                XXXXXXX....................   ++++++++++                            ",
"                                XXXXXXX....................   ++++++++++                            ",
"                                XXXXXXX....................   ++++++++++                            ",
"                                                                                                    ",
"                                                                                                    ",
"                                                                                                    ",
"                                                                                                    ",
"                                                                                                    ",
"                                                                                                    ",
"                                                                                                    ",
"                                                                                                    ",
"                                                                                                    ",
"                                                                                                    ",
"                                                                                                    ",
"                                                                                                    ",
"                                                                                                    ",
"                                                                                                    ",
"                                                                                                    "
};
