/* XPM */
static char *Lwalk_41663092094[] = {
/* columns rows colors chars-per-pixel */
"100 100 8 1 ",
"  c None",
". c #371515",
"X c #491E1D",
"o c #622020",
"O c #762727",
"+ c #772828",
"@ c #E49696",
"# c #FFAEAE",
/* pixels */
"                                                                                                    ",
"                                                                                                    ",
"                                                                                                    ",
"                                                                                                    ",
"                                                                                                    ",
"                                                                                                    ",
"                                                                                                    ",
"                                                                                                    ",
"                                                                                                    ",
"                                                                                                    ",
"                                                                                                    ",
"                        ...                                  ...                                    ",
"                        ...                                  ...                                    ",
"                        ...                                  ...                                    ",
"                        .......                              .......                                ",
"                        .......                              .......                                ",
"                        .......                              .......                                ",
"                        .......                              .......                                ",
"                        .......                              ...                                    ",
"                        .......                              ...                                    ",
"                        .......                              ...                                    ",
"                           ....                              ...                                    ",
"                           ....                              ...                                    ",
"                           ....                              ...                                    ",
"                           ....                              ...                                    ",
"                           ....                          OOOO.......                                ",
"                           ....                          OOOO.......                                ",
"                           ....                          OOOO.......                                ",
"                           ....   OOOOOOOOOOOOO       .......OOO....OOO                             ",
"                           ....   OOOOOOOOOOOOO       .......OOO....OOO                             ",
"                           ....   OOOOOOOOOOOOO       .......OOO....OOO                             ",
"                           ..........OOOOOOOOOOOOOOOOO###...........OOOOOO                          ",
"                           ..........OOOOOOOOOOOOOOOOO###...........OOOOOO                          ",
"                           ..........OOOOOOOOOOOOOOOOO###...........OOOOOO                          ",
"                           ..........OOOOOOOOOOOOOOOOO###...........OOOOOO                          ",
"                           ....###...ooooOOOOOOOOOO+++...oooooooOOOOOOOOOO                          ",
"                           ....###...ooooOOOOOOOOOO+++...oooooooOOOOOOOOOO                          ",
"                           ....###...ooooOOOOOOOOOO+++...oooooooOOOOOOOOOO                          ",
"                               ###...ooooOOOOOOOOOO+++oooOOOOOOOOOOOOOOooo                          ",
"                               ###...ooooOOOOOOOOOO+++oooOOOOOOOOOOOOOOooo                          ",
"                               ###...ooooOOOOOOOOOO+++oooOOOOOOOOOOOOOOooo                          ",
"                               ...oooOOOOOOOOOOOOOO+++OOOooooXXXXXXXooo                             ",
"                               ...oooOOOOOOOOOOOOOO+++OOOooooXXXXXXXooo                             ",
"                               ...oooOOOOOOOOOOOOOO+++OOOooooXXXXXXXooo                             ",
"                               ...oooOOOOOOOOOOOOOO+++OOOooooXXXXXXXooo                             ",
"                               oooOOOOOOOOOOOOOOOOOOOOoooXXXXXXXXXXXXXX                             ",
"                               oooOOOOOOOOOOOOOOOOOOOOoooXXXXXXXXXXXXXX                             ",
"                               oooOOOOOOOOOOOOOOOOOOOOoooXXXXXXXXXXXXXX                             ",
"                               OOOOOOOOOOOOOOOOOOOOooooooXXXXXXXXXXXXXX       ###@@@@@@@            ",
"                               OOOOOOOOOOOOOOOOOOOOooooooXXXXXXXXXXXXXX       ###@@@@@@@            ",
"                               OOOOOOOOOOOOOOOOOOOOooooooXXXXXXXXXXXXXX       ###@@@@@@@            ",
"                               OOOOOOOOOOOOOOOOOOOOooooooXXXXXXXXXXXXXX       ###@@@@@@@            ",
"                               OOOOOOOOOOoooooooooo......@@@@XXXXXXX###   ##########@@@@@@@         ",
"                               OOOOOOOOOOoooooooooo......@@@@XXXXXXX###   ##########@@@@@@@         ",
"                               OOOOOOOOOOoooooooooo......@@@@XXXXXXX###   ##########@@@@@@@         ",
"                                  ooooooo.............###...........@@@OOO##############@@@         ",
"                                  ooooooo.............###...........@@@OOO##############@@@         ",
"                                  ooooooo.............###...........@@@OOO##############@@@         ",
"                                  .................###..............@@@OOO##############@@@         ",
"                                  .................###..............@@@OOO##############@@@         ",
"                                  .................###..............@@@OOO##############@@@         ",
"                                  .................###..............@@@OOO##############@@@         ",
"                                  .............@@@@....................###OOOO##########            ",
"                                  .............@@@@....................###OOOO##########            ",
"                                  .............@@@@....................###OOOO##########            ",
"                                  ..........###.....................ooooooooooooo                   ",
"                                  ..........###.....................ooooooooooooo                   ",
"                                  ..........###.....................ooooooooooooo                   ",
"                                  ...####@@@........................oooooooooo                      ",
"                                  ...####@@@........................oooooooooo                      ",
"                                  ...####@@@........................oooooooooo                      ",
"                                  ...####@@@........................oooooooooo                      ",
"                               XXX@@@...............................                                ",
"                               XXX@@@...............................                                ",
"                               XXX@@@...............................                                ",
"                               XXXXXX...............................                                ",
"                               XXXXXX...............................                                ",
"                               XXXXXX...............................                                ",
"                               XXXXXX...............................                                ",
"                                         .......................                                    ",
"                                         .......................                                    ",
"                                         .......................                                    ",
"                                         ....................                                       ",
"                                         ....................                                       ",
"                                         ....................                                       ",
"                                                                                                    ",
"                                                                                                    ",
"                                                                                                    ",
"                                                                                                    ",
"                                                                                                    ",
"                                                                                                    ",
"                                                                                                    ",
"                                                                                                    ",
"                                                                                                    ",
"                                                                                                    ",
"                                                                                                    ",
"                                                                                                    ",
"                                                                                                    ",
"                                                                                                    ",
"                                                                                                    "
};
