/* XPM */
static char *Lwalk_61663092094[] = {
/* columns rows colors chars-per-pixel */
"100 100 9 1 ",
"  c None",
". c #371515",
"X c #381616",
"o c #491E1D",
"O c #622020",
"+ c #762727",
"@ c #772828",
"# c #E49696",
"$ c #FFAEAE",
/* pixels */
"                        ...                                  ...                                    ",
"                        ...                                  ...                                    ",
"                        ...                                  ...                                    ",
"                        .......                              .......                                ",
"                        .......                              .......                                ",
"                        .......                              .......                                ",
"                        .......                              ...                                    ",
"                        .......                              ...                                    ",
"                        .......                              ...                                    ",
"                        .......                              ...                                    ",
"                           .......                           ...                                    ",
"                           .......                           ...                                    ",
"                           .......                           ...                                    ",
"                           ....                          ++++.......                                ",
"                           ....                          ++++.......                                ",
"                           ....                          ++++.......                                ",
"                           ....                          ++++.......                                ",
"                           ....   +++++++++++++       .......+++....+++                             ",
"                           ....   +++++++++++++       .......+++....+++                             ",
"                           ....   +++++++++++++       .......+++....+++                             ",
"                           ..........+++++++++++++++++$$$...........++++++                          ",
"                           ..........+++++++++++++++++$$$...........++++++                          ",
"                           ..........+++++++++++++++++$$$...........++++++                          ",
"                           ....$$$...OOOO++++++++++@@@...OOOOOOO++++++++++                          ",
"                           ....$$$...OOOO++++++++++@@@...OOOOOOO++++++++++                          ",
"                           ....$$$...OOOO++++++++++@@@...OOOOOOO++++++++++                          ",
"                           ....$$$...OOOO++++++++++@@@...OOOOOOO++++++++++                          ",
"                               $$$...OOOO++++++++++@@@OOO++++++++++++++OOO                          ",
"                               $$$...OOOO++++++++++@@@OOO++++++++++++++OOO                          ",
"                               $$$...OOOO++++++++++@@@OOO++++++++++++++OOO                          ",
"                               XXXOOO++++++++++++++@@@+++OOOOoooooooOOO                             ",
"                               XXXOOO++++++++++++++@@@+++OOOOoooooooOOO                             ",
"                               XXXOOO++++++++++++++@@@+++OOOOoooooooOOO                             ",
"                               OOO+++++++++++++++++++++++oooooooooooooo                             ",
"                               OOO+++++++++++++++++++++++oooooooooooooo                             ",
"                               OOO+++++++++++++++++++++++oooooooooooooo                             ",
"                               OOO+++++++++++++++++++++++oooooooooooooo                             ",
"                               ++++++++++++++++++++OOOOOOoooooooooooooo                             ",
"                               ++++++++++++++++++++OOOOOOoooooooooooooo                             ",
"                               ++++++++++++++++++++OOOOOOoooooooooooooo                             ",
"                               ++++++++++OOOOOOOOOO......####ooooooo$$$                             ",
"                               ++++++++++OOOOOOOOOO......####ooooooo$$$                             ",
"                               ++++++++++OOOOOOOOOO......####ooooooo$$$                             ",
"                               ++++++++++OOOOOOOOOO......####ooooooo$$$                             ",
"                                  OOOOOOO.............$$$...........###+++++++                      ",
"                                  OOOOOOO.............$$$...........###+++++++                      ",
"                                  OOOOOOO.............$$$...........###+++++++                      ",
"                                  ....................###...........###++++++++++                   ",
"                                  ....................###...........###++++++++++                   ",
"                                  ....................###...........###++++++++++                   ",
"                                  .............$$$$###..............###+++++++++++++                ",
"                                  .............$$$$###..............###+++++++++++++                ",
"                                  .............$$$$###..............###+++++++++++++                ",
"                                  .............$$$$###..............###+++++++++++++                ",
"                                  ..........$$$.................$$$$++++++++++++++++                ",
"                                  ..........$$$.................$$$$++++++++++++++++                ",
"                                  ..........$$$.................$$$$++++++++++++++++                ",
"                                  .......###..........$$$$$$$$$$....OOOOOO++++++++++                ",
"                                  .......###..........$$$$$$$$$$....OOOOOO++++++++++                ",
"                                  .......###..........$$$$$$$$$$....OOOOOO++++++++++                ",
"                               ooo.......$$$.......$$$$$$$$$$$$$$$$$OOOOOOOOOOOOO                   ",
"                               ooo.......$$$.......$$$$$$$$$$$$$$$$$OOOOOOOOOOOOO                   ",
"                               ooo.......$$$.......$$$$$$$$$$$$$$$$$OOOOOOOOOOOOO                   ",
"                               ooo.......$$$.......$$$$$$$$$$$$$$$$$OOOOOOOOOOOOO                   ",
"                               ooo###$$$$..........###$$$$$$$$$$$$$$OOOOOOOOOO                      ",
"                               ooo###$$$$..........###$$$$$$$$$$$$$$OOOOOOOOOO                      ",
"                               ooo###$$$$..........###$$$$$$$$$$$$$$OOOOOOOOOO                      ",
"                               ooo.................######$$$$$$$$$$$                                ",
"                               ooo.................######$$$$$$$$$$$                                ",
"                               ooo.................######$$$$$$$$$$$                                ",
"                               ooo.................######$$$$$$$$$$$                                ",
"                                     .................##########                                    ",
"                                     .................##########                                    ",
"                                     .................##########                                    ",
"                                  ...                        ...                                    ",
"                                  ...                        ...                                    ",
"                                  ...                        ...                                    ",
"                                                                                                    ",
"                                                                                                    ",
"                                                                                                    ",
"                                                                                                    ",
"                                                                                                    ",
"                                                                                                    ",
"                                                                                                    ",
"                                                                                                    ",
"                                                                                                    ",
"                                                                                                    ",
"                                                                                                    ",
"                                                                                                    ",
"                                                                                                    ",
"                                                                                                    ",
"                                                                                                    ",
"                                                                                                    ",
"                                                                                                    ",
"                                                                                                    ",
"                                                                                                    ",
"                                                                                                    ",
"                                                                                                    ",
"                                                                                                    ",
"                                                                                                    "
};
