/* XPM */
static char *Lwalk_21663092094[] = {
/* columns rows colors chars-per-pixel */
"100 100 7 1 ",
"  c None",
". c #371515",
"X c #491E1D",
"o c #622020",
"O c #762727",
"+ c #E49696",
"@ c #FFAEAE",
/* pixels */
"        ....                                                            ....                        ",
"        ....                                                            ....                        ",
"        ....                                                            ....                        ",
"        ....   ...                                                      .......                     ",
"        ....   ...                                                      .......                     ",
"        ....   ...                                                      .......                     ",
"        ....   ...                                                      .......                     ",
"        ..........                                                      ....                        ",
"        ..........                                                      ....                        ",
"        ..........                                                      ....                        ",
"               .......                                                  ....                        ",
"               .......                                                  ....                        ",
"               .......                                                  ....                        ",
"               ...                                         OOOOOOO      .......                     ",
"               ...                                         OOOOOOO      .......                     ",
"               ...                                         OOOOOOO      .......                     ",
"               ...                                         OOOOOOO      .......                     ",
"               ...              OOOOOOOOOOOOO       OOOOOOO.......OOO       ...                     ",
"               ...              OOOOOOOOOOOOO       OOOOOOO.......OOO       ...                     ",
"               ...              OOOOOOOOOOOOO       OOOOOOO.......OOO       ...                     ",
"               ...           OOO..........OOOOOOOOOOOOO....@@@.................                     ",
"               ...           OOO..........OOOOOOOOOOOOO....@@@.................                     ",
"               ...           OOO..........OOOOOOOOOOOOO....@@@.................                     ",
"               ...           OOO..........OOOOOOOOOOOOO....@@@.................                     ",
"               .................@@@@@@@......OOOOOOOOOO..............OOO                            ",
"               .................@@@@@@@......OOOOOOOOOO..............OOO                            ",
"               .................@@@@@@@......OOOOOOOOOO..............OOO                            ",
"                             ...@@@@@@@......OOOOOOOOOOoooo.......oooOOO                            ",
"                             ...@@@@@@@......OOOOOOOOOOoooo.......oooOOO                            ",
"                             ...@@@@@@@......OOOOOOOOOOoooo.......oooOOO                            ",
"                             ................OOOOOOOOOOOOOOoooooooXXXXXX                            ",
"                             ................OOOOOOOOOOOOOOoooooooXXXXXX                            ",
"                             ................OOOOOOOOOOOOOOoooooooXXXXXX                            ",
"                             ................OOOOOOOOOOOOOOoooooooXXXXXX                            ",
"                             ooo..........oooOOOOOOOOOOoooooooXXXXXXXXXXXXXX                        ",
"                             ooo..........oooOOOOOOOOOOoooooooXXXXXXXXXXXXXX                        ",
"                             ooo..........oooOOOOOOOOOOoooooooXXXXXXXXXXXXXX                        ",
"                             OOOooooooooooOOOOOOOOOOooo.......XXXXXXXXXXXXXX                        ",
"                             OOOooooooooooOOOOOOOOOOooo.......XXXXXXXXXXXXXX                        ",
"                             OOOooooooooooOOOOOOOOOOooo.......XXXXXXXXXXXXXX                        ",
"                             OOOOOOOOOOOOOooooooo..........@@@++++XXXXXX@@@@                        ",
"                             OOOOOOOOOOOOOooooooo..........@@@++++XXXXXX@@@@                        ",
"                             OOOOOOOOOOOOOooooooo..........@@@++++XXXXXX@@@@                        ",
"                             OOOOOOOOOOOOOooooooo..........@@@++++XXXXXX@@@@                        ",
"                             OOOOOOoooo................@@@@..........OOO++++                        ",
"                             OOOOOOoooo................@@@@..........OOO++++                        ",
"                             OOOOOOoooo................@@@@..........OOO++++                        ",
"                                ooo.................+++..............OOO++++OOO                     ",
"                                ooo.................+++..............OOO++++OOO                     ",
"                                ooo.................+++..............OOO++++OOO                     ",
"                                ooo.................+++..............OOO++++OOO                     ",
"                                .................@@@.................OOO++++OOOOOO                  ",
"                                .................@@@.................OOO++++OOOOOO                  ",
"                                .................@@@.................OOO++++OOOOOO                  ",
"                             ooo.............@@@@.................ooooooOOOO@@@OOO                  ",
"                             ooo.............@@@@.................ooooooOOOO@@@OOO                  ",
"                             ooo.............@@@@.................ooooooOOOO@@@OOO                  ",
"                         ooooooo.............++++.................ooooooooooooo@@@@@@@@@@           ",
"                         ooooooo.............++++.................ooooooooooooo@@@@@@@@@@           ",
"                         ooooooo.............++++.................ooooooooooooo@@@@@@@@@@           ",
"                         ooooooo.............++++.................ooooooooooooo@@@@@@@@@@           ",
"                         oooooooXXXXXXX...@@@.....................oooooooooo@@@@@@@@@@@@@@@@@       ",
"                         oooooooXXXXXXX...@@@.....................oooooooooo@@@@@@@@@@@@@@@@@       ",
"                         oooooooXXXXXXX...@@@.....................oooooooooo@@@@@@@@@@@@@@@@@       ",
"                         ooooXXXXXXXXXX+++........................oooooooooo@@@@@@@@@@@@@++++       ",
"                         ooooXXXXXXXXXX+++........................oooooooooo@@@@@@@@@@@@@++++       ",
"                         ooooXXXXXXXXXX+++........................oooooooooo@@@@@@@@@@@@@++++       ",
"                             XXXXXXXXXXXXX....................              @@@@@@@@@@+++++++       ",
"                             XXXXXXXXXXXXX....................              @@@@@@@@@@+++++++       ",
"                             XXXXXXXXXXXXX....................              @@@@@@@@@@+++++++       ",
"                             XXXXXXXXXXXXX....................              @@@@@@@@@@+++++++       ",
"                                XXXXXXX....................                    ++++++++++           ",
"                                XXXXXXX....................                    ++++++++++           ",
"                                XXXXXXX....................                    ++++++++++           ",
"                                ...                        ...                                      ",
"                                ...                        ...                                      ",
"                                ...                        ...                                      ",
"                                ...                        ...                                      ",
"                                                                                                    ",
"                                                                                                    ",
"                                                                                                    ",
"                                                                                                    ",
"                                                                                                    ",
"                                                                                                    ",
"                                                                                                    ",
"                                                                                                    ",
"                                                                                                    ",
"                                                                                                    ",
"                                                                                                    ",
"                                                                                                    ",
"                                                                                                    ",
"                                                                                                    ",
"                                                                                                    ",
"                                                                                                    ",
"                                                                                                    ",
"                                                                                                    ",
"                                                                                                    ",
"                                                                                                    ",
"                                                                                                    ",
"                                                                                                    "
};
