/* XPM */
static char *Lwalk_31663092094[] = {
/* columns rows colors chars-per-pixel */
"100 100 7 1 ",
"  c None",
". c #371515",
"X c #491E1D",
"o c #622020",
"O c #762727",
"+ c #E49696",
"@ c #FFAEAE",
/* pixels */
"                                                                                                    ",
"                                                                                                    ",
"        ....                                                            ....                        ",
"        ....                                                            ....                        ",
"        ....                                                            ....                        ",
"        ....                                                            ....                        ",
"        ....   ...                                                      .......                     ",
"        ....   ...                                                      .......                     ",
"        ....   ...                                                      .......                     ",
"        ..........                                                      ....                        ",
"        ..........                                                      ....                        ",
"        ..........                                                      ....                        ",
"               .......                                                  ....                        ",
"               .......                                                  ....                        ",
"               .......                                                  ....                        ",
"               .......                                                  ....                        ",
"               ...                                         OOOOOOO      .......                     ",
"               ...                                         OOOOOOO      .......                     ",
"               ...                                         OOOOOOO      .......                     ",
"               ...              OOOOOOOOOOOOO       OOOOOOO.......OOO       ...                     ",
"               ...              OOOOOOOOOOOOO       OOOOOOO.......OOO       ...                     ",
"               ...              OOOOOOOOOOOOO       OOOOOOO.......OOO       ...                     ",
"               ...              OOOOOOOOOOOOO       OOOOOOO.......OOO       ...                     ",
"               ...           OOO..........OOOOOOOOOOOOO....@@@.................                     ",
"               ...           OOO..........OOOOOOOOOOOOO....@@@.................                     ",
"               ...           OOO..........OOOOOOOOOOOOO....@@@.................                     ",
"               .................@@@@@@@......OOOOOOOOOO..............OOO                            ",
"               .................@@@@@@@......OOOOOOOOOO..............OOO                            ",
"               .................@@@@@@@......OOOOOOOOOO..............OOO                            ",
"                             ...@@@@@@@......OOOOOOOOOOoooo.......oooOOO                            ",
"                             ...@@@@@@@......OOOOOOOOOOoooo.......oooOOO                            ",
"                             ...@@@@@@@......OOOOOOOOOOoooo.......oooOOO                            ",
"                             ...@@@@@@@......OOOOOOOOOOoooo.......oooOOO                            ",
"                             ................OOOOOOOOOOOOOOoooooooXXXXXX                            ",
"                             ................OOOOOOOOOOOOOOoooooooXXXXXX                            ",
"                             ................OOOOOOOOOOOOOOoooooooXXXXXX                            ",
"                             ooo..........oooOOOOOOOOOOoooooooXXXXXXXXXXXXXX                        ",
"                             ooo..........oooOOOOOOOOOOoooooooXXXXXXXXXXXXXX                        ",
"                             ooo..........oooOOOOOOOOOOoooooooXXXXXXXXXXXXXX                        ",
"                             OOOooooooooooOOOOOOOOOOooo.......XXXXXXXXXXXXXX                        ",
"                             OOOooooooooooOOOOOOOOOOooo.......XXXXXXXXXXXXXX                        ",
"                             OOOooooooooooOOOOOOOOOOooo.......XXXXXXXXXXXXXX                        ",
"                             OOOooooooooooOOOOOOOOOOooo.......XXXXXXXXXXXXXX                        ",
"                             OOOOOOOOOOOOOooooooo..........@@@++++XXXXXX@@@@OOO                     ",
"                             OOOOOOOOOOOOOooooooo..........@@@++++XXXXXX@@@@OOO                     ",
"                             OOOOOOOOOOOOOooooooo..........@@@++++XXXXXX@@@@OOO                     ",
"                             OOOOOOoooo.............+++@@@@..........OOO++++OOOOOO                  ",
"                             OOOOOOoooo.............+++@@@@..........OOO++++OOOOOO                  ",
"                             OOOOOOoooo.............+++@@@@..........OOO++++OOOOOO                  ",
"                             OOOOOOoooo.............+++@@@@..........OOO++++OOOOOO                  ",
"                                ooo..............@@@.................OOO++++OOOOOOOOOO              ",
"                                ooo..............@@@.................OOO++++OOOOOOOOOO              ",
"                                ooo..............@@@.................OOO++++OOOOOOOOOO              ",
"                             ooo.............++++....................OOO++++OOO@@@@@@@@@@           ",
"                             ooo.............++++....................OOO++++OOO@@@@@@@@@@           ",
"                             ooo.............++++....................OOO++++OOO@@@@@@@@@@           ",
"                         ooooooo..........@@@.....................oooooo@@@@@@@@@@@@@@@@@@@@@       ",
"                         ooooooo..........@@@.....................oooooo@@@@@@@@@@@@@@@@@@@@@       ",
"                         ooooooo..........@@@.....................oooooo@@@@@@@@@@@@@@@@@@@@@       ",
"                         ooooooo..........@@@.....................oooooo@@@@@@@@@@@@@@@@@@@@@       ",
"                      oooooooooo..........@@@.....................oooooooooo@@@@@@@@@@@@@++++       ",
"                      oooooooooo..........@@@.....................oooooooooo@@@@@@@@@@@@@++++       ",
"                      oooooooooo..........@@@.....................oooooooooo@@@@@@@@@@@@@++++       ",
"                      ooooooooooXXXXXXX@@@........................oooooooooo@@@@@@@@@@+++++++       ",
"                      ooooooooooXXXXXXX@@@........................oooooooooo@@@@@@@@@@+++++++       ",
"                      ooooooooooXXXXXXX@@@........................oooooooooo@@@@@@@@@@+++++++       ",
"                         ooooXXXXXXXXXX+++........................             ++++++++++           ",
"                         ooooXXXXXXXXXX+++........................             ++++++++++           ",
"                         ooooXXXXXXXXXX+++........................             ++++++++++           ",
"                         ooooXXXXXXXXXX+++........................             ++++++++++           ",
"                             XXXXXXXXXXXXX....................                                      ",
"                             XXXXXXXXXXXXX....................                                      ",
"                             XXXXXXXXXXXXX....................                                      ",
"                                XXXXXXX....................                                         ",
"                                XXXXXXX....................                                         ",
"                                XXXXXXX....................                                         ",
"                                XXXXXXX....................                                         ",
"                                   ....             .......                                         ",
"                                   ....             .......                                         ",
"                                   ....             .......                                         ",
"                                                                                                    ",
"                                                                                                    ",
"                                                                                                    ",
"                                                                                                    ",
"                                                                                                    ",
"                                                                                                    ",
"                                                                                                    ",
"                                                                                                    ",
"                                                                                                    ",
"                                                                                                    ",
"                                                                                                    ",
"                                                                                                    ",
"                                                                                                    ",
"                                                                                                    ",
"                                                                                                    ",
"                                                                                                    ",
"                                                                                                    ",
"                                                                                                    ",
"                                                                                                    ",
"                                                                                                    "
};
