/* XPM */
static char *Lwalk_71663092093[] = {
/* columns rows colors chars-per-pixel */
"100 100 8 1 ",
"  c None",
". c #371515",
"X c #491E1D",
"o c #622020",
"O c #762727",
"+ c #772828",
"@ c #E49696",
"# c #FFAEAE",
/* pixels */
"                                                                                                    ",
"                                                                                                    ",
"                                                                                                    ",
"                        ...                                  ...                                    ",
"                        ...                                  ...                                    ",
"                        ...                                  ...                                    ",
"                        ...                                  ...                                    ",
"                        .......                              .......                                ",
"                        .......                              .......                                ",
"                        .......                              .......                                ",
"                        .......                              ...                                    ",
"                        .......                              ...                                    ",
"                        .......                              ...                                    ",
"                           .......                           ...                                    ",
"                           .......                           ...                                    ",
"                           .......                           ...                                    ",
"                           .......                           ...                                    ",
"                           ....                          OOOO.......                                ",
"                           ....                          OOOO.......                                ",
"                           ....                          OOOO.......                                ",
"                           ....   OOOOOOOOOOOOO       .......+++....OOO                             ",
"                           ....   OOOOOOOOOOOOO       .......+++....OOO                             ",
"                           ....   OOOOOOOOOOOOO       .......+++....OOO                             ",
"                           ....   OOOOOOOOOOOOO       .......+++....OOO                             ",
"                           ..........OOOOOOOOOOOOOOOOO###...........OOOOOO                          ",
"                           ..........OOOOOOOOOOOOOOOOO###...........OOOOOO                          ",
"                           ..........OOOOOOOOOOOOOOOOO###...........OOOOOO                          ",
"                           ....###...ooooOOOOOOOOOO+++...oooooooOOOOOOOOOO                          ",
"                           ....###...ooooOOOOOOOOOO+++...oooooooOOOOOOOOOO                          ",
"                           ....###...ooooOOOOOOOOOO+++...oooooooOOOOOOOOOO                          ",
"                               ###...ooooOOOOOOOOOO+++ooo+++++++OOOOOOOooo                          ",
"                               ###...ooooOOOOOOOOOO+++ooo+++++++OOOOOOOooo                          ",
"                               ###...ooooOOOOOOOOOO+++ooo+++++++OOOOOOOooo                          ",
"                               ###...ooooOOOOOOOOOO+++ooo+++++++OOOOOOOooo                          ",
"                               ...oooOOOOOOOOOOOOOO+++OOOooooXXXXXXXooo                             ",
"                               ...oooOOOOOOOOOOOOOO+++OOOooooXXXXXXXooo                             ",
"                               ...oooOOOOOOOOOOOOOO+++OOOooooXXXXXXXooo                             ",
"                               oooOOOOOOOOOOOOOOOOOOOOOOOXXXXXXXXXXXXXXOOO                          ",
"                               oooOOOOOOOOOOOOOOOOOOOOOOOXXXXXXXXXXXXXXOOO                          ",
"                               oooOOOOOOOOOOOOOOOOOOOOOOOXXXXXXXXXXXXXXOOO                          ",
"                               OOOOOOOOOOOOOOOOOOOOooooooXXXXXXXXXXXXXXOOOOOOO                      ",
"                               OOOOOOOOOOOOOOOOOOOOooooooXXXXXXXXXXXXXXOOOOOOO                      ",
"                               OOOOOOOOOOOOOOOOOOOOooooooXXXXXXXXXXXXXXOOOOOOO                      ",
"                               OOOOOOOOOOOOOOOOOOOOooooooXXXXXXXXXXXXXXOOOOOOO                      ",
"                               OOOOOOOOOOoooooooooo###@@@@@@@XXXXXXX###OOOOOOOOOO                   ",
"                               OOOOOOOOOOoooooooooo###@@@@@@@XXXXXXX###OOOOOOOOOO                   ",
"                               OOOOOOOOOOoooooooooo###@@@@@@@XXXXXXX###OOOOOOOOOO                   ",
"                                  ooooooo...@@@####.................@@@OOOOOOOOOOOOO                ",
"                                  ooooooo...@@@####.................@@@OOOOOOOOOOOOO                ",
"                                  ooooooo...@@@####.................@@@OOOOOOOOOOOOO                ",
"                                  ooooooo...@@@####.................@@@OOOOOOOOOOOOO                ",
"                                  .......###........................@@@OOOOOOOOOOOOOOOOO            ",
"                                  .......###........................@@@OOOOOOOOOOOOOOOOO            ",
"                                  .......###........................@@@OOOOOOOOOOOOOOOOO            ",
"                                  ...@@@@..........##########...####...OOOOOOOOOOOOOOOOO            ",
"                                  ...@@@@..........##########...####...OOOOOOOOOOOOOOOOO            ",
"                                  ...@@@@..........##########...####...OOOOOOOOOOOOOOOOO            ",
"                                  ...####......@@@@#############....ooooooOOOOOOOOOOOOOO            ",
"                                  ...####......@@@@#############....ooooooOOOOOOOOOOOOOO            ",
"                                  ...####......@@@@#############....ooooooOOOOOOOOOOOOOO            ",
"                                  ...####......@@@@#############....ooooooOOOOOOOOOOOOOO            ",
"                                  ...####......@@@@#############....oooOOOoooooooooo                ",
"                                  ...####......@@@@#############....oooOOOoooooooooo                ",
"                                  ...####......@@@@#############....oooOOOoooooooooo                ",
"                               XXX@@@..........@@@@@@@##########....ooooooooooooo                   ",
"                               XXX@@@..........@@@@@@@##########....ooooooooooooo                   ",
"                               XXX@@@..........@@@@@@@##########....ooooooooooooo                   ",
"                               XXX.................@@@@@@@@@@.......                                ",
"                               XXX.................@@@@@@@@@@.......                                ",
"                               XXX.................@@@@@@@@@@.......                                ",
"                               XXX.................@@@@@@@@@@.......                                ",
"                               XXXXXX...........................                                    ",
"                               XXXXXX...........................                                    ",
"                               XXXXXX...........................                                    ",
"                                         ....................                                       ",
"                                         ....................                                       ",
"                                         ....................                                       ",
"                                         ....................                                       ",
"                                     ....             .......                                       ",
"                                     ....             .......                                       ",
"                                     ....             .......                                       ",
"                                                                                                    ",
"                                                                                                    ",
"                                                                                                    ",
"                                                                                                    ",
"                                                                                                    ",
"                                                                                                    ",
"                                                                                                    ",
"                                                                                                    ",
"                                                                                                    ",
"                                                                                                    ",
"                                                                                                    ",
"                                                                                                    ",
"                                                                                                    ",
"                                                                                                    ",
"                                                                                                    ",
"                                                                                                    ",
"                                                                                                    ",
"                                                                                                    ",
"                                                                                                    "
};
