/* XPM */
static char *_1663134693[] = {
/* columns rows colors chars-per-pixel */
"100 100 2 1 ",
"  c None",
". c  #A19480",
/* pixels */
"                                                                                                    ",
"                       ......................................................                       ",
"                       ......................................................                       ",
"                       ......................................................                       ",
"                       ......................................................                       ",
"                       ......................................................                       ",
"                       ......................................................                       ",
"            ............................................................................            ",
"            ............................................................................            ",
"            ............................................................................            ",
"            ............................................................................            ",
"            ............................................................................            ",
"       ......................................................................................       ",
"       ......................................................................................       ",
"       ......................................................................................       ",
"       ......................................................................................       ",
"       ......................................................................................       ",
"       ......................................................................................       ",
"       ................................                      ................................       ",
"       ................................                      ................................       ",
"       ................................                      ................................       ",
"       ................................                      ................................       ",
"       ................................                      ................................       ",
" .................................                                ................................. ",
" .................................                                ................................. ",
" .................................                                ................................. ",
" .................................                                ................................. ",
" .................................                                ................................. ",
" .................................                                ................................. ",
" .................................                                ................................. ",
" .................................                                ................................. ",
" .................................                                ................................. ",
" .................................                                ................................. ",
" .................................                                ................................. ",
" .................................                                ................................. ",
" .................................                                ................................. ",
" .................................                                ................................. ",
" .................................                                ................................. ",
" .................................                                ................................. ",
" .................................                                ................................. ",
" .................................                                ................................. ",
" .................................                                ................................. ",
" .................................                                ................................. ",
" .................................                                ................................. ",
" .................................                                ................................. ",
" ......................................                      ...................................... ",
" ......................................                      ...................................... ",
" ......................................                      ...................................... ",
" ......................................                      ...................................... ",
" ......................................                      ...................................... ",
"       ............................................................................................ ",
"       ............................................................................................ ",
"       ............................................................................................ ",
"       ............................................................................................ ",
"       ............................................................................................ ",
"            ....................................................................................... ",
"            ....................................................................................... ",
"            ....................................................................................... ",
"            ....................................................................................... ",
"            ....................................................................................... ",
"            ....................................................................................... ",
"                            ....................................................................... ",
"                            ....................................................................... ",
"                            ....................................................................... ",
"                            ....................................................................... ",
"                            ....................................................................... ",
"                                                                  ................................. ",
"                                                                  ................................. ",
"                                                                  ................................. ",
"                                                                  ................................. ",
"                                                                  ................................. ",
"                                                                  ................................. ",
"       ................                                           ................................. ",
"       ................                                           ................................. ",
"       ................                                           ................................. ",
"       ................                                           ................................. ",
"       ................                                           ................................. ",
" ...........................                                      ...........................       ",
" ...........................                                      ...........................       ",
" ...........................                                      ...........................       ",
" ...........................                                      ...........................       ",
" ...........................                                      ...........................       ",
" ............................................................................................       ",
" ............................................................................................       ",
" ............................................................................................       ",
" ............................................................................................       ",
" ............................................................................................       ",
" ............................................................................................       ",
"       .................................................................................            ",
"       .................................................................................            ",
"       .................................................................................            ",
"       .................................................................................            ",
"       .................................................................................            ",
"                  ...........................................................                       ",
"                  ...........................................................                       ",
"                  ...........................................................                       ",
"                  ...........................................................                       ",
"                  ...........................................................                       ",
"                  ...........................................................                       ",
"                                                                                                    "
};
