/* XPM */
static char *lingot1663738448[] = {
/* columns rows colors chars-per-pixel */
"100 100 7 1 ",
"  c None",
". c #17111A",
"X c #B05731",
"o c #9E6138",
"O c #F2A633",
"+ c #FFE433",
"@ c #FFFAD6",
/* pixels */
"                                                                                                    ",
"                                                                                                    ",
"                                                                                                    ",
"                                                                                                    ",
"                                                                                                    ",
"                                                                                                    ",
"                                                                                                    ",
"                                                                                                    ",
"                                                                                                    ",
"                                                                                                    ",
"                                                                                                    ",
"                                                                                                    ",
"                                                                                                    ",
"                                                                                                    ",
"                                                                                                    ",
"                                                                                                    ",
"                                                                                                    ",
"                                                                                                    ",
"                                                                                                    ",
"                                                                                                    ",
"                                                                                                    ",
"                                                                                                    ",
"                                                                                                    ",
"                                                                                                    ",
"                                                                                                    ",
"                                                                                                    ",
"                                                                                                    ",
"                                                                                                    ",
"                                                                                                    ",
"                                                                                                    ",
"                                                                                                    ",
"                                                                                                    ",
"                                                                                                    ",
"                                                                                                    ",
"                                                                                                    ",
"                                                                                                    ",
"                                                                                                    ",
"                                                                                                    ",
"                                                                                                    ",
"                                                  ....                                              ",
"                                                 .+++O...                                           ",
"                                                .+++++++O...                                        ",
"                                               .+++++++++++O.                                       ",
"                                              .++++++++++++X.                                       ",
"                                             .++++++++++++Xoo.                                      ",
"                                            .++++++++++++Xooo.                                      ",
"                                           .++++++++++++Xooooo.                                     ",
"                                          .++++++++++++Xoooooo.                                     ",
"                                         .++++++++++++Xoooooo.                                      ",
"                                        .++++++++++++Xoooooo.                                       ",
"                                       .++++++++++++Xoooooo.                                        ",
"                                      .@@@+++++++++Xoooooo.                                         ",
"                                      .OOO@@@+++++Xoooooo.                                          ",
"                                     .OOOOOOO@@@@Xoooooo.                                           ",
"                                     .OOOOOOOOOOXoooooo.                                            ",
"                                     .OOOOOOOOOOXooooo.                                             ",
"                                     .OOOOOOOOOOXoooo.                                              ",
"                                      ...OOOOOOOOXoo.                                               ",
"                                         ...OOOOOXo.                                                ",
"                                            ...OOX.                                                 ",
"                                               ...                                                  ",
"                                                                                                    ",
"                                                                                                    ",
"                                                                                                    ",
"                                                                                                    ",
"                                                                                                    ",
"                                                                                                    ",
"                                                                                                    ",
"                                                                                                    ",
"                                                                                                    ",
"                                                                                                    ",
"                                                                                                    ",
"                                                                                                    ",
"                                                                                                    ",
"                                                                                                    ",
"                                                                                                    ",
"                                                                                                    ",
"                                                                                                    ",
"                                                                                                    ",
"                                                                                                    ",
"                                                                                                    ",
"                                                                                                    ",
"                                                                                                    ",
"                                                                                                    ",
"                                                                                                    ",
"                                                                                                    ",
"                                                                                                    ",
"                                                                                                    ",
"                                                                                                    ",
"                                                                                                    ",
"                                                                                                    ",
"                                                                                                    ",
"                                                                                                    ",
"                                                                                                    ",
"                                                                                                    ",
"                                                                                                    ",
"                                                                                                    ",
"                                                                                                    ",
"                                                                                                    ",
"                                                                                                    "
};
