/* XPM */
static char *coin1663738448[] = {
/* columns rows colors chars-per-pixel */
"100 100 9 1 ",
"  c None",
". c #17111A",
"X c #76403F",
"o c #9E5647",
"O c #9F5B43",
"+ c #CB8C37",
"@ c #FFBF36",
"# c #FFDE5C",
"$ c #FFDE5D",
/* pixels */
"                                                                                                    ",
"                                                                                                    ",
"                                                                                                    ",
"                                                                                                    ",
"                                                                                                    ",
"                                                                                                    ",
"                                                                                                    ",
"                                                                                                    ",
"                                                                                                    ",
"                                                                                                    ",
"                                                                                                    ",
"                                                                                                    ",
"                                                                                                    ",
"                                                                                                    ",
"                                                                                                    ",
"                                                                                                    ",
"                                                                                                    ",
"                                                                                                    ",
"                                                                                                    ",
"                                                                                                    ",
"                                                                                                    ",
"                                                                                                    ",
"                                                                                                    ",
"                                                                                                    ",
"                                                                                                    ",
"                                                                                                    ",
"                                                                                                    ",
"                                                                                                    ",
"                                                                                                    ",
"                                                                                                    ",
"                                                                                                    ",
"                                                                                                    ",
"                                                                                                    ",
"                                                                                                    ",
"                                                                                                    ",
"                                                                                                    ",
"                                                                                                    ",
"                                                                                                    ",
"                                                                                                    ",
"                                                                                                    ",
"                                               .....                                                ",
"                                            ...####@...                                             ",
"                                          ..###ooooo@@@..                                           ",
"                                         .##ooo@@@@@ooo@@.                                          ",
"                                        .#oo@@@@@@@@@@@oo@.                                         ",
"                                       .#o@@@@@@@o@@@@@@@o@.                                        ",
"                                      .#o@@o@@@@o#o@@@@o@@o@.                                       ",
"                                     .#o@@@oo@@o###o@@oo@@@o@.                                      ",
"                                     .#o@@@o$oo$#$$$oo$o@@@o@.                                      ",
"                                     .#o@@@o$$$$$$$$$$$o@@@o+.                                      ",
"                                     .@o@@@@o$$$$$$$$$o@@@@o+.                                      ",
"                                     .@o@@@@o$$$$$$$$$o@@@@o+.                                      ",
"                                     .X@o@@@@ooooooooo@@@@o+X.                                      ",
"                                     .OX@o@@@@@@@@@@@@@@@o+XO.                                      ",
"                                      .+X@oo@@@@@@@@@@@oo+XO.                                       ",
"                                      .O+X@@oo@@@@@@@oo++XO+.                                       ",
"                                       .+OXX@@ooooooo++XX+O.                                        ",
"                                        .O+OXX@@@@@++XX+O+.                                         ",
"                                         ..O+OXXXXXXX+O+..                                          ",
"                                           ...O+O+O+O...                                            ",
"                                              .......                                               ",
"                                                                                                    ",
"                                                                                                    ",
"                                                                                                    ",
"                                                                                                    ",
"                                                                                                    ",
"                                                                                                    ",
"                                                                                                    ",
"                                                                                                    ",
"                                                                                                    ",
"                                                                                                    ",
"                                                                                                    ",
"                                                                                                    ",
"                                                                                                    ",
"                                                                                                    ",
"                                                                                                    ",
"                                                                                                    ",
"                                                                                                    ",
"                                                                                                    ",
"                                                                                                    ",
"                                                                                                    ",
"                                                                                                    ",
"                                                                                                    ",
"                                                                                                    ",
"                                                                                                    ",
"                                                                                                    ",
"                                                                                                    ",
"                                                                                                    ",
"                                                                                                    ",
"                                                                                                    ",
"                                                                                                    ",
"                                                                                                    ",
"                                                                                                    ",
"                                                                                                    ",
"                                                                                                    ",
"                                                                                                    ",
"                                                                                                    ",
"                                                                                                    ",
"                                                                                                    ",
"                                                                                                    "
};
