/* XPM */
static char *pluie_01663091859[] = {
/* columns rows colors chars-per-pixel */
"100 100 2 1 ",
"  c None",
". c #F2EAF1",
/* pixels */
"                                                                                                    ",
"                                                                                                    ",
"                                                                                                    ",
"                                                                                                    ",
"                                                                                                    ",
"                                                                                                    ",
"                                                                                                    ",
"                                                                                                    ",
"                                                                                                    ",
"                                                                                                    ",
"                                                                                                    ",
"                                                                                                    ",
"                                                                                                    ",
"                                                                                                    ",
"                                                                                                    ",
"                                                                                                    ",
"                                                                                                    ",
"                                                                                                    ",
"                                                                                                    ",
"                                                                                                    ",
"                                                                                                    ",
"                                                                                                    ",
"                                                                                                    ",
"                                                                            .....                   ",
"                                                                            .....                   ",
"                                                                            .....                   ",
"                                                                            .....                   ",
"                                                                            .....                   ",
"                                                                            .....                   ",
"                                                                            .....                   ",
"                                                                            .....                   ",
"                                                                            .....                   ",
"                                                                            .....                   ",
"                             .....                                     .....                        ",
"                             .....                                     .....                        ",
"                             .....                                     .....                        ",
"                             .....                                     .....                        ",
"                             .....                                     .....                        ",
"                             .....                                     .....                        ",
"                             .....                                     .....                        ",
"                             .....                                     .....                        ",
"                             .....                                     .....                        ",
"                             .....                                     .....                        ",
"                             .....                                     .....                        ",
"                       ......                                     .....                             ",
"                       ......                                     .....                             ",
"                       ......                                     .....                             ",
"                       ......                                     .....                             ",
"                       ......                                     .....                             ",
"                       ......                                     .....                             ",
"                       ......                                     .....                             ",
"                       ......                                     .....                             ",
"                       ......                                     .....                             ",
"                       ......                                     .....                             ",
"                       ......                                     .....                             ",
"                                                            ......                                  ",
"                                                            ......                                  ",
"                                                            ......                                  ",
"                                                            ......                                  ",
"                                                            ......                                  ",
"                                                            ......                                  ",
"                                                            ......                                  ",
"                                                            ......                                  ",
"                                                            ......                                  ",
"                                                            ......                                  ",
"                                                                                                    ",
"                                                                                                    ",
"                                                                                                    ",
"                                                                                                    ",
"                                                                                                    ",
"                                                                                                    ",
"                                                                                                    ",
"                                                                                                    ",
"                                                                                                    ",
"                                                                                                    ",
"                                                                                                    ",
"                                                                                                    ",
"                                                                                                    ",
"                                                                                                    ",
"                                                                                                    ",
"                                                                                                    ",
"                                                                                                    ",
"                                                                                                    ",
"                                                                                                    ",
"                                                                                                    ",
"                                                                                                    ",
"                                                                                                    ",
"                                                                                                    ",
"                                                                                                    ",
"                                                                                                    ",
"                                                                                                    ",
"                                                                                                    ",
"                                                                                                    ",
"                                                                                                    ",
"                                                                                                    ",
"                                                                                                    ",
"                                                                                                    ",
"                                                                                                    ",
"                                                                                                    ",
"                                                                                                    "
};
