/* XPM */
static char *spike_21663056298[] = {
/* columns rows colors chars-per-pixel */
"100 100 4 1 ",
"  c None",
". c #070707",
"X c #C8C2C2",
"o c #E1DADA",
/* pixels */
"                                                                                                    ",
"                                                                                                    ",
"                                                                                                    ",
"                                                                                                    ",
"                                                                                                    ",
"                                                                                                    ",
"                                                                                                    ",
"                                                                                                    ",
"                                                                                                    ",
"                                                                                                    ",
"                                                                                                    ",
"                                                                                                    ",
"                                                                                                    ",
"                                                                                                    ",
"                                                                                                    ",
"                                                                                                    ",
"                                                                                                    ",
"                                                                                                    ",
"                                                                                                    ",
"                                                                                                    ",
"                                                                                                    ",
"                                                 ......ooooooo............                          ",
"                                                 ......ooooooo............                          ",
"                                                 ......ooooooo............                          ",
"                                                 ......ooooooo............                          ",
"                                                 ......ooooooo............                          ",
"                                                 ......ooooooo............                          ",
"                                                 ......oooooooXXXXXX......                          ",
"                                                 ......oooooooXXXXXX......                          ",
"                                                 ......oooooooXXXXXX......                          ",
"                                                 ......oooooooXXXXXX......                          ",
"                                                 ......oooooooXXXXXX......                          ",
"                                                 ......oooooooXXXXXX......                          ",
"            ......oooooo.............                                                               ",
"            ......oooooo.............                                                               ",
"            ......oooooo.............                                                               ",
"            ......oooooo.............                                                               ",
"            ......oooooo.............                                                               ",
"            ......oooooo.............                                                               ",
"            ......ooooooXXXXXXX......                                                               ",
"            ......ooooooXXXXXXX......                                                               ",
"            ......ooooooXXXXXXX......                                                               ",
"            ......ooooooXXXXXXX......                                                               ",
"            ......ooooooXXXXXXX......                                                               ",
"            ......ooooooXXXXXXX......                                                               ",
"            ......ooooooXXXXXXX......                                                               ",
"                                                                                                    ",
"                                                                                                    ",
"                                                                                                    ",
"                                                                                                    ",
"                                                                                                    ",
"                                                                                                    ",
"                                                                                                    ",
"                                                                                                    ",
"                                                                                                    ",
"                                                                                                    ",
"                                                                                                    ",
"                                                                                                    ",
"                                                                    ......oooooo.............       ",
"                                                                    ......oooooo.............       ",
"                                                                    ......oooooo.............       ",
"                                                                    ......oooooo.............       ",
"                                                                    ......oooooo.............       ",
"                                                                    ......oooooo.............       ",
"                                                                    ......ooooooXXXXXX.......       ",
"                                                                    ......ooooooXXXXXX.......       ",
"                                                                    ......ooooooXXXXXX.......       ",
"                                                                    ......ooooooXXXXXX.......       ",
"                                                                    ......ooooooXXXXXX.......       ",
"                                                                    ......ooooooXXXXXX.......       ",
"                                                                    ......ooooooXXXXXX.......       ",
"                                                                                                    ",
"                                                                                                    ",
"                                                                                                    ",
"                                                                                                    ",
"                                                                                                    ",
"                                                                                                    ",
"                                                                                                    ",
"                                                                                                    ",
"                                                                                                    ",
"                                                                                                    ",
"                                                                                                    ",
"                                                                                                    ",
"                               ......oooooo............                                             ",
"                               ......oooooo............                                             ",
"                               ......oooooo............                                             ",
"                               ......oooooo............                                             ",
"                               ......oooooo............                                             ",
"                               ......oooooo............                                             ",
"                               ......ooooooXXXXXX......                                             ",
"                               ......ooooooXXXXXX......                                             ",
"                               ......ooooooXXXXXX......                                             ",
"                               ......ooooooXXXXXX......                                             ",
"                               ......ooooooXXXXXX......                                             ",
"                               ......ooooooXXXXXX......                                             ",
"                                                                                                    ",
"                                                                                                    ",
"                                                                                                    ",
"                                                                                                    ",
"                                                                                                    "
};
