/* XPM */
static char *spike_11663056297[] = {
/* columns rows colors chars-per-pixel */
"100 100 3 1 ",
"  c None",
". c #070707",
"X c #E1DADA",
/* pixels */
"                                                                                                    ",
"                                                                                                    ",
"                                                                                                    ",
"                                                                                                    ",
"                                                                                                    ",
"                                                                                                    ",
"                                                                                                    ",
"                                                                                                    ",
"                                                                                                    ",
"                                                                                                    ",
"                                                                                                    ",
"                                                                                                    ",
"                                                                                                    ",
"                                                                                                    ",
"                                                                                                    ",
"                                                                                                    ",
"                                                                                                    ",
"                                                                                                    ",
"                                                                                                    ",
"                                                                                                    ",
"                                                                                                    ",
"                                                 .........................                          ",
"                                                 .........................                          ",
"                                                 .........................                          ",
"                                                 .........................                          ",
"                                                 .........................                          ",
"                                                 .........................                          ",
"                                                 ......XXXXXXX............                          ",
"                                                 ......XXXXXXX............                          ",
"                                                 ......XXXXXXX............                          ",
"                                                 ......XXXXXXX............                          ",
"                                                 ......XXXXXXX............                          ",
"                                                 ......XXXXXXX............                          ",
"            .........................                                                               ",
"            .........................                                                               ",
"            .........................                                                               ",
"            .........................                                                               ",
"            .........................                                                               ",
"            .........................                                                               ",
"            ......XXXXXX.............                                                               ",
"            ......XXXXXX.............                                                               ",
"            ......XXXXXX.............                                                               ",
"            ......XXXXXX.............                                                               ",
"            ......XXXXXX.............                                                               ",
"            ......XXXXXX.............                                                               ",
"            ......XXXXXX.............                                                               ",
"                                                                                                    ",
"                                                                                                    ",
"                                                                                                    ",
"                                                                                                    ",
"                                                                                                    ",
"                                                                                                    ",
"                                                                                                    ",
"                                                                                                    ",
"                                                                                                    ",
"                                                                                                    ",
"                                                                                                    ",
"                                                                                                    ",
"                                                                    .........................       ",
"                                                                    .........................       ",
"                                                                    .........................       ",
"                                                                    .........................       ",
"                                                                    .........................       ",
"                                                                    .........................       ",
"                                                                    ......XXXXXX.............       ",
"                                                                    ......XXXXXX.............       ",
"                                                                    ......XXXXXX.............       ",
"                                                                    ......XXXXXX.............       ",
"                                                                    ......XXXXXX.............       ",
"                                                                    ......XXXXXX.............       ",
"                                                                    ......XXXXXX.............       ",
"                                                                                                    ",
"                                                                                                    ",
"                                                                                                    ",
"                                                                                                    ",
"                                                                                                    ",
"                                                                                                    ",
"                                                                                                    ",
"                                                                                                    ",
"                                                                                                    ",
"                                                                                                    ",
"                                                                                                    ",
"                                                                                                    ",
"                               ........................                                             ",
"                               ........................                                             ",
"                               ........................                                             ",
"                               ........................                                             ",
"                               ........................                                             ",
"                               ........................                                             ",
"                               ......XXXXXX............                                             ",
"                               ......XXXXXX............                                             ",
"                               ......XXXXXX............                                             ",
"                               ......XXXXXX............                                             ",
"                               ......XXXXXX............                                             ",
"                               ......XXXXXX............                                             ",
"                                                                                                    ",
"                                                                                                    ",
"                                                                                                    ",
"                                                                                                    ",
"                                                                                                    "
};
