/* XPM */
static char *spike_41663056298[] = {
/* columns rows colors chars-per-pixel */
"100 100 6 1 ",
"  c None",
". c #070707",
"X c #6E6767",
"o c #9C9494",
"O c #C8C2C2",
"+ c #E1DADA",
/* pixels */
"                                                                                                    ",
"                                                                                                    ",
"                                                                                                    ",
"                                                                                                    ",
"                                                                                                    ",
"                                                                                                    ",
"                                                                                                    ",
"                                                                                                    ",
"                                                       +++++++OOOOOO                                ",
"                                                       +++++++OOOOOO                                ",
"                                                       +++++++OOOOOO                                ",
"                                                       +++++++OOOOOO                                ",
"                                                       +++++++OOOOOO                                ",
"                                                       +++++++OOOOOO                                ",
"                                                       +++++++OOOOOO                                ",
"                  ++++++                               +++++++OOOOOO                                ",
"                  ++++++                               +++++++OOOOOO                                ",
"                  ++++++                               +++++++OOOOOO                                ",
"                  ++++++                               +++++++OOOOOO                                ",
"                  ++++++                               +++++++OOOOOO                                ",
"                  ++++++                               +++++++OOOOOO                                ",
"                  ++++++OOOOOOO                  ......oooooooOOOOOO......                          ",
"                  ++++++OOOOOOO                  ......oooooooOOOOOO......                          ",
"                  ++++++OOOOOOO                  ......oooooooOOOOOO......                          ",
"                  ++++++OOOOOOO                  ......oooooooOOOOOO......                          ",
"                  ++++++OOOOOOO                  ......oooooooOOOOOO......                          ",
"                  ++++++OOOOOOO                  ......oooooooOOOOOO......                          ",
"                  ++++++OOOOOOO                  ......XXXXXXXXXXXXX......                          ",
"                  ++++++OOOOOOO                  ......XXXXXXXXXXXXX......                          ",
"                  ++++++OOOOOOO                  ......XXXXXXXXXXXXX......                          ",
"                  ++++++OOOOOOO                  ......XXXXXXXXXXXXX......                          ",
"                  ++++++OOOOOOO                  ......XXXXXXXXXXXXX......                          ",
"                  ++++++OOOOOOO                  ......XXXXXXXXXXXXX......                          ",
"            ......ooooooOOOOOOO......                                                               ",
"            ......ooooooOOOOOOO......                                                               ",
"            ......ooooooOOOOOOO......                                                               ",
"            ......ooooooOOOOOOO......                                                               ",
"            ......ooooooOOOOOOO......                                                               ",
"            ......ooooooOOOOOOO......                                                               ",
"            ......XXXXXXXXXXXXX......                                     ++++++                    ",
"            ......XXXXXXXXXXXXX......                                     ++++++                    ",
"            ......XXXXXXXXXXXXX......                                     ++++++                    ",
"            ......XXXXXXXXXXXXX......                                     ++++++                    ",
"            ......XXXXXXXXXXXXX......                                     ++++++                    ",
"            ......XXXXXXXXXXXXX......                                     ++++++                    ",
"            ......XXXXXXXXXXXXX......                                     ++++++                    ",
"                                                                          ++++++OOOOOO              ",
"                                                                          ++++++OOOOOO              ",
"                                                                          ++++++OOOOOO              ",
"                                                                          ++++++OOOOOO              ",
"                                                                          ++++++OOOOOO              ",
"                                                                          ++++++OOOOOO              ",
"                                                                          ++++++OOOOOO              ",
"                                                                          ++++++OOOOOO              ",
"                                                                          ++++++OOOOOO              ",
"                                                                          ++++++OOOOOO              ",
"                                                                          ++++++OOOOOO              ",
"                                                                          ++++++OOOOOO              ",
"                                                                    ......ooooooOOOOOO.......       ",
"                                                                    ......ooooooOOOOOO.......       ",
"                                                                    ......ooooooOOOOOO.......       ",
"                                                                    ......ooooooOOOOOO.......       ",
"                                                                    ......ooooooOOOOOO.......       ",
"                                                                    ......ooooooOOOOOO.......       ",
"                                     ++++++                         ......XXXXXXXXXXXX.......       ",
"                                     ++++++                         ......XXXXXXXXXXXX.......       ",
"                                     ++++++                         ......XXXXXXXXXXXX.......       ",
"                                     ++++++                         ......XXXXXXXXXXXX.......       ",
"                                     ++++++                         ......XXXXXXXXXXXX.......       ",
"                                     ++++++                         ......XXXXXXXXXXXX.......       ",
"                                     ++++++                         ......XXXXXXXXXXXX.......       ",
"                                     ++++++OOOOOO                                                   ",
"                                     ++++++OOOOOO                                                   ",
"                                     ++++++OOOOOO                                                   ",
"                                     ++++++OOOOOO                                                   ",
"                                     ++++++OOOOOO                                                   ",
"                                     ++++++OOOOOO                                                   ",
"                                     ++++++OOOOOO                                                   ",
"                                     ++++++OOOOOO                                                   ",
"                                     ++++++OOOOOO                                                   ",
"                                     ++++++OOOOOO                                                   ",
"                                     ++++++OOOOOO                                                   ",
"                                     ++++++OOOOOO                                                   ",
"                               ......ooooooOOOOOO......                                             ",
"                               ......ooooooOOOOOO......                                             ",
"                               ......ooooooOOOOOO......                                             ",
"                               ......ooooooOOOOOO......                                             ",
"                               ......ooooooOOOOOO......                                             ",
"                               ......ooooooOOOOOO......                                             ",
"                               ......XXXXXXXXXXXX......                                             ",
"                               ......XXXXXXXXXXXX......                                             ",
"                               ......XXXXXXXXXXXX......                                             ",
"                               ......XXXXXXXXXXXX......                                             ",
"                               ......XXXXXXXXXXXX......                                             ",
"                               ......XXXXXXXXXXXX......                                             ",
"                                                                                                    ",
"                                                                                                    ",
"                                                                                                    ",
"                                                                                                    ",
"                                                                                                    "
};
