/* XPM */
static char *spike_01663056298[] = {
/* columns rows colors chars-per-pixel */
"100 100 2 1 ",
"  c None",
". c #070707",
/* pixels */
"                                                                                                    ",
"                                                                                                    ",
"                                                                                                    ",
"                                                                                                    ",
"                                                                                                    ",
"                                                                                                    ",
"                                                                                                    ",
"                                                                                                    ",
"                                                                                                    ",
"                                                                                                    ",
"                                                                                                    ",
"                                                                                                    ",
"                                                                                                    ",
"                                                                                                    ",
"                                                                                                    ",
"                                                                                                    ",
"                                                                                                    ",
"                                                                                                    ",
"                                                                                                    ",
"                                                                                                    ",
"                                                                                                    ",
"                                                 .........................                          ",
"                                                 .........................                          ",
"                                                 .........................                          ",
"                                                 .........................                          ",
"                                                 .........................                          ",
"                                                 .........................                          ",
"                                                 .........................                          ",
"                                                 .........................                          ",
"                                                 .........................                          ",
"                                                 .........................                          ",
"                                                 .........................                          ",
"                                                 .........................                          ",
"            .........................                                                               ",
"            .........................                                                               ",
"            .........................                                                               ",
"            .........................                                                               ",
"            .........................                                                               ",
"            .........................                                                               ",
"            .........................                                                               ",
"            .........................                                                               ",
"            .........................                                                               ",
"            .........................                                                               ",
"            .........................                                                               ",
"            .........................                                                               ",
"            .........................                                                               ",
"                                                                                                    ",
"                                                                                                    ",
"                                                                                                    ",
"                                                                                                    ",
"                                                                                                    ",
"                                                                                                    ",
"                                                                                                    ",
"                                                                                                    ",
"                                                                                                    ",
"                                                                                                    ",
"                                                                                                    ",
"                                                                                                    ",
"                                                                    .........................       ",
"                                                                    .........................       ",
"                                                                    .........................       ",
"                                                                    .........................       ",
"                                                                    .........................       ",
"                                                                    .........................       ",
"                                                                    .........................       ",
"                                                                    .........................       ",
"                                                                    .........................       ",
"                                                                    .........................       ",
"                                                                    .........................       ",
"                                                                    .........................       ",
"                                                                    .........................       ",
"                                                                                                    ",
"                                                                                                    ",
"                                                                                                    ",
"                                                                                                    ",
"                                                                                                    ",
"                                                                                                    ",
"                                                                                                    ",
"                                                                                                    ",
"                                                                                                    ",
"                                                                                                    ",
"                                                                                                    ",
"                                                                                                    ",
"                               ........................                                             ",
"                               ........................                                             ",
"                               ........................                                             ",
"                               ........................                                             ",
"                               ........................                                             ",
"                               ........................                                             ",
"                               ........................                                             ",
"                               ........................                                             ",
"                               ........................                                             ",
"                               ........................                                             ",
"                               ........................                                             ",
"                               ........................                                             ",
"                                                                                                    ",
"                                                                                                    ",
"                                                                                                    ",
"                                                                                                    ",
"                                                                                                    "
};
