/* XPM */
static char *_87d7b3c39884226913e938ba59fa0c26ALaZOe7iI5PADko[] = {
/* columns rows colors chars-per-pixel */
"100 100 7 1 ",
"  c None",
". c #371515",
"X c #491E1D",
"o c #622020",
"O c #762727",
"+ c #E49696",
"@ c #FFAEAE",
/* pixels */
"                                                                                                    ",
"                                                                                                    ",
"                                                                                                    ",
"                                                                                                    ",
"                                                                                                    ",
"                                                                                                    ",
"                                                                                                    ",
"                                                                                                    ",
"                                                                                                    ",
"                       ....                                                          ...            ",
"                       ....                                                          ...            ",
"                       ....                                                          ...            ",
"                    .......                                                   ...    ...            ",
"                    .......                                                   ...    ...            ",
"                    .......                                                   ...    ...            ",
"                       ....                                                   ..........            ",
"                       ....                                                   ..........            ",
"                       ....                                                   ..........            ",
"                       ....                                                ......                   ",
"                       ....                                                ......                   ",
"                       ....                                                ......                   ",
"                       ....                                                ......                   ",
"                    .......      OOOOOOO                                      ...                   ",
"                    .......      OOOOOOO                                      ...                   ",
"                    .......      OOOOOOO                                      ...                   ",
"                    ...       OOO.......OOOOOO      OOOOOOOOOOOOO             ...                   ",
"                    ...       OOO.......OOOOOO      OOOOOOOOOOOOO             ...                   ",
"                    ...       OOO.......OOOOOO      OOOOOOOOOOOOO             ...                   ",
"                    ................@@@@...OOOOOOOOOOOOO.........OOOO         ...                   ",
"                    ................@@@@...OOOOOOOOOOOOO.........OOOO         ...                   ",
"                    ................@@@@...OOOOOOOOOOOOO.........OOOO         ...                   ",
"                           OOO.............OOOOOOOOO.......@@@@@@................                   ",
"                           OOO.............OOOOOOOOO.......@@@@@@................                   ",
"                           OOO.............OOOOOOOOO.......@@@@@@................                   ",
"                           OOOooo.......oooOOOOOOOOO.......@@@@@@....                               ",
"                           OOOooo.......oooOOOOOOOOO.......@@@@@@....                               ",
"                           OOOooo.......oooOOOOOOOOO.......@@@@@@....                               ",
"                           OOOooo.......oooOOOOOOOOO.......@@@@@@....                               ",
"                           XXXXXXoooooooOOOOOOOOOOOO.................                               ",
"                           XXXXXXoooooooOOOOOOOOOOOO.................                               ",
"                           XXXXXXoooooooOOOOOOOOOOOO.................                               ",
"                       XXXXXXXXXXXXXoooooooOOOOOOOOOoooo.........oooo                               ",
"                       XXXXXXXXXXXXXoooooooOOOOOOOOOoooo.........oooo                               ",
"                       XXXXXXXXXXXXXoooooooOOOOOOOOOoooo.........oooo                               ",
"                       XXXXXXXXXXXXX.......oooOOOOOOOOOOoooooooooOOOO                               ",
"                       XXXXXXXXXXXXX.......oooOOOOOOOOOOoooooooooOOOO                               ",
"                       XXXXXXXXXXXXX.......oooOOOOOOOOOOoooooooooOOOO                               ",
"                       @@@@XXXXXX+++.............oooooooOOOOOOOOOOOOOOOO                            ",
"                       @@@@XXXXXX+++.............oooooooOOOOOOOOOOOOOOOO                            ",
"                       @@@@XXXXXX+++.............oooooooOOOOOOOOOOOOOOOO                            ",
"                       @@@@XXXXXX+++.............oooooooOOOOOOOOOOOOOOOO                            ",
"                       @@@@   ...+++.......................oooOOOOOOOOOO                            ",
"                       @@@@   ...+++.......................oooOOOOOOOOOO                            ",
"                       @@@@   ...+++.......................oooOOOOOOOOOO                            ",
"                       @@@@   ...@@@..........................OOOOOOOOOO                            ",
"                       @@@@   ...@@@..........................OOOOOOOOOO                            ",
"                       @@@@   ...@@@..........................OOOOOOOOOO                            ",
"                       @@@@   ......++++......................OOOOOOOOOO                            ",
"                       @@@@   ......++++......................OOOOOOOOOO                            ",
"                       @@@@   ......++++......................OOOOOOOOOO                            ",
"                       @@@@   ooo...@@@@......................oooOOOOOOO                            ",
"                       @@@@   ooo...@@@@......................oooOOOOOOO                            ",
"                       @@@@   ooo...@@@@......................oooOOOOOOO                            ",
"                    @@@@@@@@@@ooo.......+++......................OOOOOOO                            ",
"                    @@@@@@@@@@ooo.......+++......................OOOOOOO                            ",
"                    @@@@@@@@@@ooo.......+++......................OOOOOOO                            ",
"                    @@@@@@@@@@ooo.......+++......................OOOOOOO                            ",
"                 @@@@@@@@@@@@@@@@..........@@@.............XXXXXXOOOOOOO                            ",
"                 @@@@@@@@@@@@@@@@..........@@@.............XXXXXXOOOOOOO                            ",
"                 @@@@@@@@@@@@@@@@..........@@@.............XXXXXXOOOOOOO                            ",
"                 +++@@@@@@@@@@@@@.............@@@@@@+++++++XXXXXXXXXXOOO                            ",
"                 +++@@@@@@@@@@@@@.............@@@@@@+++++++XXXXXXXXXXOOO                            ",
"                 +++@@@@@@@@@@@@@.............@@@@@@+++++++XXXXXXXXXXOOO                            ",
"                 ++++++@@@@@@@@@@ooo....................XXXXXXXXXXXXXOOO                            ",
"                 ++++++@@@@@@@@@@ooo....................XXXXXXXXXXXXXOOO                            ",
"                 ++++++@@@@@@@@@@ooo....................XXXXXXXXXXXXXOOO                            ",
"                    ++++++++++      oooo...................XXXXXXoooo                               ",
"                    ++++++++++      oooo...................XXXXXXoooo                               ",
"                    ++++++++++      oooo...................XXXXXXoooo                               ",
"                    ++++++++++      oooo...................XXXXXXoooo                               ",
"                                        ...ooooooooooooo...ooo                                      ",
"                                        ...ooooooooooooo...ooo                                      ",
"                                        ...ooooooooooooo...ooo                                      ",
"                                        ...             ...                                         ",
"                                        ...             ...                                         ",
"                                        ...             ...                                         ",
"                                                                                                    ",
"                                                                                                    ",
"                                                                                                    ",
"                                                                                                    ",
"                                                                                                    ",
"                                                                                                    ",
"                                                                                                    ",
"                                                                                                    ",
"                                                                                                    ",
"                                                                                                    ",
"                                                                                                    ",
"                                                                                                    ",
"                                                                                                    ",
"                                                                                                    "
};
