/* XPM */
static char *_a147228a308462cfaab7daa13bcfaebvQnMsz3Uk3JuZVjD[] = {
/* columns rows colors chars-per-pixel */
"100 100 9 1 ",
"  c None",
". c #371515",
"X c #491E1D",
"o c #622020",
"O c #632121",
"+ c #762727",
"@ c #772828",
"# c #E49696",
"$ c #FFAEAE",
/* pixels */
"                                                                                                    ",
"                                                                                                    ",
"                                                                                                    ",
"                                                                                                    ",
"                                                                                                    ",
"                                                                                                    ",
"                                                                                                    ",
"                                                                                                    ",
"                                                                                                    ",
"                                                                                                    ",
"                                                                                                    ",
"                                                                                                    ",
"                       ....                                                          ...            ",
"                       ....                                                          ...            ",
"                       ....                                                          ...            ",
"                    .......                                                   ...    ...            ",
"                    .......                                                   ...    ...            ",
"                    .......                                                   ...    ...            ",
"                       ....                                                   ..........            ",
"                       ....                                                   ..........            ",
"                       ....                                                   ..........            ",
"                       ....                                                ......                   ",
"                       ....                                                ......                   ",
"                       ....                                                ......                   ",
"                       ....                                                ......                   ",
"                    .......      +++++++                                      ...                   ",
"                    .......      +++++++                                      ...                   ",
"                    .......      +++++++                                      ...                   ",
"                    ...       +++.......++++++      +++++++++++++             ...                   ",
"                    ...       +++.......++++++      +++++++++++++             ...                   ",
"                    ...       +++.......++++++      +++++++++++++             ...                   ",
"                    ................$$$$...+++@@@+++++++.........++++         ...                   ",
"                    ................$$$$...+++@@@+++++++.........++++         ...                   ",
"                    ................$$$$...@++@@@+++++++.........++++         ...                   ",
"                           +++.............@@@@@@@@@.......$$$$$$................                   ",
"                           +++.............@@@@@@@@@.......$$$$$$................                   ",
"                           +++.............@@@@@@@@@.......$$$$$$................                   ",
"                           +++ooo.......OOO@@@@@@@@@.......$$$$$$....                               ",
"                           +++ooo.......OOo@@@@@@@@@.......$$$$$$....                               ",
"                           +++ooo.......OOO@@@@@@@@@.......$$$$$$....                               ",
"                           +++ooo.......ooO@@@@@@@@@.......$$$$$$....                               ",
"                           XXXXXXooooooo@++@++++++++.................                               ",
"                           XXXXXXooooooo++++++++++++.................                               ",
"                           XXXXXXooooooo++++++++++++.................                               ",
"                       XXXXXXXXXXXXXooooooo+++++++++oooo.........oooo                               ",
"                       XXXXXXXXXXXXXooooooo+++++++++oooo.........oooo                               ",
"                       XXXXXXXXXXXXXooooooo+++++++++oooo.........oooo                               ",
"                       XXXXXXXXXXXXX.......ooo++++++++++ooooooooo++++                               ",
"                       XXXXXXXXXXXXX.......ooo++++++++++ooooooooo++++                               ",
"                       XXXXXXXXXXXXX.......ooo++++++++++ooooooooo++++                               ",
"                       $$$$XXXXXX#######$$$......ooooooo++++++++++++++++                            ",
"                       $$$$XXXXXX#######$$$......ooooooo++++++++++++++++                            ",
"                       $$$$XXXXXX#######$$$......ooooooo++++++++++++++++                            ",
"                       $$$$XXXXXX#######$$$......ooooooo++++++++++++++++                            ",
"                       $$$$   .............$$$$$$..........ooo++++++++++                            ",
"                       $$$$   .............$$$$$$..........ooo++++++++++                            ",
"                       $$$$   .............$$$$$$..........ooo++++++++++                            ",
"                       $$$$   ...................###..........++++++++++                            ",
"                       $$$$   ...................###..........++++++++++                            ",
"                       $$$$   ...................###..........++++++++++                            ",
"                       $$$$   ......................$$$$......++++++++++                            ",
"                       $$$$   ......................$$$$......++++++++++                            ",
"                       $$$$   ......................$$$$......++++++++++                            ",
"              $$$$$$$$$       ooo.......................$$$...ooo+++++++                            ",
"              $$$$$$$$$       ooo.......................$$$...ooo+++++++                            ",
"              $$$$$$$$$       ooo.......................$$$...ooo+++++++                            ",
"           $$$$$$$$$$$$$$$$   ooo.......................$$$......+++++++                            ",
"           $$$$$$$$$$$$$$$$   ooo.......................$$$......+++++++                            ",
"           $$$$$$$$$$$$$$$$   ooo.......................$$$......+++++++                            ",
"           $$$$$$$$$$$$$$$$   ooo.......................$$$......+++++++                            ",
"           ###$$$$$$$$$$$$$   ooo.......................###XXXXXX+++++++                            ",
"           ###$$$$$$$$$$$$$   ooo.......................###XXXXXX+++++++                            ",
"           ###$$$$$$$$$$$$$   ooo.......................###XXXXXX+++++++                            ",
"           #########$$$$$$$      ooo....................###XXXXXXXXXX+++                            ",
"           #########$$$$$$$      ooo....................###XXXXXXXXXX+++                            ",
"           #########$$$$$$$      ooo....................###XXXXXXXXXX+++                            ",
"              #########          ooooooo................XXXXXXXXXXXXX++++++                         ",
"              #########          ooooooo................XXXXXXXXXXXXX++++++                         ",
"              #########          ooooooo................XXXXXXXXXXXXX++++++                         ",
"                                 ooooooo...ooooooooooooo...XXXXXXoooo++++++                         ",
"                                 ooooooo...ooooooooooooo...XXXXXXoooo++++++                         ",
"                                 ooooooo...ooooooooooooo...XXXXXXoooo++++++                         ",
"                                 ooooooo...ooooooooooooo...XXXXXXoooo++++++                         ",
"                                        ...             ...                                         ",
"                                        ...             ...                                         ",
"                                        ...             ...                                         ",
"                                                                                                    ",
"                                                                                                    ",
"                                                                                                    ",
"                                                                                                    ",
"                                                                                                    ",
"                                                                                                    ",
"                                                                                                    ",
"                                                                                                    ",
"                                                                                                    ",
"                                                                                                    ",
"                                                                                                    ",
"                                                                                                    ",
"                                                                                                    ",
"                                                                                                    "
};
