/* XPM */
static char *_4261134291e482ee708a85a2055a099SICyv5RtiMt135Be[] = {
/* columns rows colors chars-per-pixel */
"100 100 9 1 ",
"  c None",
". c #371515",
"X c #491E1D",
"o c #622020",
"O c #632121",
"+ c #762727",
"@ c #772828",
"# c #E49696",
"$ c #FFAEAE",
/* pixels */
"                                                                                                    ",
"                                                                                                    ",
"                                                                                                    ",
"                                                                                                    ",
"                                                                                                    ",
"                                                                                                    ",
"                       ....                                                          ...            ",
"                       ....                                                          ...            ",
"                       ....                                                          ...            ",
"                    .......                                                   ...    ...            ",
"                    .......                                                   ...    ...            ",
"                    .......                                                   ...    ...            ",
"                       ....                                                   ..........            ",
"                       ....                                                   ..........            ",
"                       ....                                                   ..........            ",
"                       ....                                                ......                   ",
"                       ....                                                ......                   ",
"                       ....                                                ......                   ",
"                       ....                                                ......                   ",
"                    .......      +++++++                                      ...                   ",
"                    .......      +++++++                                      ...                   ",
"                    .......      +++++++                                      ...                   ",
"                    ...       +++.......++++++      +++++++++++++             ...                   ",
"                    ...       +++.......++++++      +++++++++++++             ...                   ",
"                    ...       +++.......++++++      +++++++++++++             ...                   ",
"                    ................$$$$...+++@@@+++++++.........++++         ...                   ",
"                    ................$$$$...+++@@@+++++++.........++++         ...                   ",
"                    ................$$$$...@++@@@+++++++.........++++         ...                   ",
"                           +++.............@@@@@@@@@.......$$$$$$................                   ",
"                           +++.............@@@@@@@@@.......$$$$$$................                   ",
"                           +++.............@@@@@@@@@.......$$$$$$................                   ",
"                           +++ooo.......OOo@@@@@@@@@.................                               ",
"                           +++ooo.......OOO@@@@@@@@@.................                               ",
"                           +++ooo.......OOO@@@@@@@@@.................                               ",
"                           +++ooo.......oOo@@@@@@@@@.................                               ",
"                              +++ooooooo++@+@+++++++.................                               ",
"                              +++ooooooo++++++++++++.................                               ",
"                              +++ooooooo++++++++++++.................                               ",
"                           XXXXXXoooooooooo+++++++++oooo.........oooo                               ",
"                           XXXXXXoooooooooo+++++++++oooo.........oooo                               ",
"                           XXXXXXoooooooooo+++++++++oooo.........oooo                               ",
"                       XXXXXXXXXXXXX.......ooo++++++++++ooooooooo++++                               ",
"                       XXXXXXXXXXXXX.......ooo++++++++++ooooooooo++++                               ",
"                       XXXXXXXXXXXXX.......ooo++++++++++ooooooooo++++                               ",
"                       XXXXXXXXXXXXX.............ooooooo++++++++++++++++                            ",
"                       XXXXXXXXXXXXX.............ooooooo++++++++++++++++                            ",
"                       XXXXXXXXXXXXX.............ooooooo++++++++++++++++                            ",
"                       XXXXXXXXXXXXX.............ooooooo++++++++++++++++                            ",
"                       $$$$XXXXXX###.......................ooo++++++++++                            ",
"                       $$$$XXXXXX###.......................ooo++++++++++                            ",
"                       $$$$XXXXXX###.......................ooo++++++++++                            ",
"                       $$$$   ...$$$..........................++++++++++                            ",
"                       $$$$   ...$$$..........................++++++++++                            ",
"                       $$$$   ...$$$..........................++++++++++                            ",
"                       $$$$   ......$$$$......................++++++++++                            ",
"                       $$$$   ......$$$$......................++++++++++                            ",
"                       $$$$   ......$$$$......................++++++++++                            ",
"                       $$$$   ooo.......###...................ooo+++++++                            ",
"                       $$$$   ooo.......###...................ooo+++++++                            ",
"                       $$$$   ooo.......###...................ooo+++++++                            ",
"                           $$$ooo..........$$$...................+++++++                            ",
"                           $$$ooo..........$$$...................+++++++                            ",
"                           $$$ooo..........$$$...................+++++++                            ",
"                           $$$ooo..........$$$...................+++++++                            ",
"                           $$$$$$$$$..........$$$................+++++++                            ",
"                           $$$$$$$$$..........$$$................+++++++                            ",
"                           $$$$$$$$$..........$$$................+++++++                            ",
"                       $$$$$$$$$$$$$$$$$.........$$$.......XXXXXX+++++++                            ",
"                       $$$$$$$$$$$$$$$$$.........$$$.......XXXXXX+++++++                            ",
"                       $$$$$$$$$$$$$$$$$.........$$$.......XXXXXX+++++++                            ",
"                       ####$$$$$$$$$$$$$............$$$$###XXXXXXXXXX+++                            ",
"                       ####$$$$$$$$$$$$$............$$$$###XXXXXXXXXX+++                            ",
"                       ####$$$$$$$$$$$$$............$$$$###XXXXXXXXXX+++                            ",
"                       ##########$$$####................XXXXXXXXXXXXX                               ",
"                       ##########$$$####................XXXXXXXXXXXXX                               ",
"                       ##########$$$####................XXXXXXXXXXXXX                               ",
"                       ##########$$$####................XXXXXXXXXXXXX                               ",
"                           #########    ...................XXXXXX                                   ",
"                           #########    ...................XXXXXX                                   ",
"                           #########    ...................XXXXXX                                   ",
"                                        ...             ...                                         ",
"                                        ...             ...                                         ",
"                                        ...             ...                                         ",
"                                        ...             ...                                         ",
"                                        ...             ...                                         ",
"                                        ...             ...                                         ",
"                                                                                                    ",
"                                                                                                    ",
"                                                                                                    ",
"                                                                                                    ",
"                                                                                                    ",
"                                                                                                    ",
"                                                                                                    ",
"                                                                                                    ",
"                                                                                                    ",
"                                                                                                    ",
"                                                                                                    ",
"                                                                                                    ",
"                                                                                                    ",
"                                                                                                    "
};
