/* XPM */
static char *_23bb724efb048bfd037df07b0ef58d5l85faEVbtNJKCdoL[] = {
/* columns rows colors chars-per-pixel */
"100 100 9 1 ",
"  c None",
". c #371515",
"X c #491E1D",
"o c #622020",
"O c #632121",
"+ c #762727",
"@ c #772828",
"# c #E49696",
"$ c #FFAEAE",
/* pixels */
"                                                                                                    ",
"                                                                                                    ",
"                                                                                                    ",
"                                                                                                    ",
"                                                                                                    ",
"                                                                                                    ",
"                       ....                                                          ...            ",
"                       ....                                                          ...            ",
"                       ....                                                          ...            ",
"                    .......                                                   ...    ...            ",
"                    .......                                                   ...    ...            ",
"                    .......                                                   ...    ...            ",
"                       ....                                                   ..........            ",
"                       ....                                                   ..........            ",
"                       ....                                                   ..........            ",
"                       ....                                                ......                   ",
"                       ....                                                ......                   ",
"                       ....                                                ......                   ",
"                       ....                                                ......                   ",
"                    .......      +++++++                                      ...                   ",
"                    .......      +++++++                                      ...                   ",
"                    .......      +++++++                                      ...                   ",
"                    ...       +++.......++++++      +++++++++++++             ...                   ",
"                    ...       +++.......++++++      +++++++++++++             ...                   ",
"                    ...       +++.......++++++      +++++++++++++             ...                   ",
"                    ................$$$$...+++@@@+++++++.........++++         ...                   ",
"                    ................$$$$...+++@@@+++++++.........++++         ...                   ",
"                    ................$$$$...@++@@@+++++++.........++++         ...                   ",
"                           +++.............@@@@@@@@@.......$$$$$$................                   ",
"                           +++.............@@@@@@@@@.......$$$$$$................                   ",
"                           +++.............@@@@@@@@@.......$$$$$$................                   ",
"                           +++ooo.......OOo@@@@@@@@@.................                               ",
"                           +++ooo.......OOO@@@@@@@@@.................                               ",
"                           +++ooo.......OOO@@@@@@@@@.................                               ",
"                           +++ooo.......oOo@@@@@@@@@.................                               ",
"                           XXXXXXooooooo++@+@+++++++.................                               ",
"                           XXXXXXooooooo++++++++++++.................                               ",
"                           XXXXXXooooooo++++++++++++.................                               ",
"                       XXXXXXXXXXXXXooooooo+++++++++oooo.........oooo                               ",
"                       XXXXXXXXXXXXXooooooo+++++++++oooo.........oooo                               ",
"                       XXXXXXXXXXXXXooooooo+++++++++oooo.........oooo                               ",
"                       XXXXXXXXXXXXX.......ooo++++++++++ooooooooo++++                               ",
"                       XXXXXXXXXXXXX.......ooo++++++++++ooooooooo++++                               ",
"                       XXXXXXXXXXXXX.......ooo++++++++++ooooooooo++++                               ",
"                       $$$$XXXXXX###.............ooooooo++++++++++++++++                            ",
"                       $$$$XXXXXX###.............ooooooo++++++++++++++++                            ",
"                       $$$$XXXXXX###.............ooooooo++++++++++++++++                            ",
"                       $$$$XXXXXX###.............ooooooo++++++++++++++++                            ",
"                       $$$$   ...###.......................ooo++++++++++                            ",
"                       $$$$   ...###.......................ooo++++++++++                            ",
"                       $$$$   ...###.......................ooo++++++++++                            ",
"                       $$$$   ...$$$..........................++++++++++                            ",
"                       $$$$   ...$$$..........................++++++++++                            ",
"                       $$$$   ...$$$..........................++++++++++                            ",
"                    $$$       ...$$$..........................++++++++++                            ",
"                    $$$       ...$$$..........................++++++++++                            ",
"                    $$$       ...$$$..........................++++++++++                            ",
"                    $$$       ooo...####......................ooo+++++++                            ",
"                    $$$       ooo...####......................ooo+++++++                            ",
"                    $$$       ooo...####......................ooo+++++++                            ",
"                 $$$$$$$$$$   ooo.......$$$......................+++++++                            ",
"                 $$$$$$$$$$   ooo.......$$$......................+++++++                            ",
"                 $$$$$$$$$$   ooo.......$$$......................+++++++                            ",
"                 $$$$$$$$$$   ooo.......$$$......................+++++++                            ",
"              $$$$$$$$$$$$$$$$ooo..........$$$.............XXXXXX+++++++                            ",
"              $$$$$$$$$$$$$$$$ooo..........$$$.............XXXXXX+++++++                            ",
"              $$$$$$$$$$$$$$$$ooo..........$$$.............XXXXXX+++++++                            ",
"              ###$$$$$$$$$$$$$   .............$$$$$$#######XXXXXXXXXX+++                            ",
"              ###$$$$$$$$$$$$$   .............$$$$$$#######XXXXXXXXXX+++                            ",
"              ###$$$$$$$$$$$$$   .............$$$$$$#######XXXXXXXXXX+++                            ",
"              ################   .......................XXXXXXXXXXXXX+++                            ",
"              ################   .......................XXXXXXXXXXXXX+++                            ",
"              ################   .......................XXXXXXXXXXXXX+++                            ",
"                 ##########         .......................XXXXXXoooo                               ",
"                 ##########         .......................XXXXXXoooo                               ",
"                 ##########         .......................XXXXXXoooo                               ",
"                 ##########         .......................XXXXXXoooo                               ",
"                                        ...................ooo                                      ",
"                                        ...................ooo                                      ",
"                                        ...................ooo                                      ",
"                                        ...             ...                                         ",
"                                        ...             ...                                         ",
"                                        ...             ...                                         ",
"                                        ...             ...                                         ",
"                                        ...             ...                                         ",
"                                        ...             ...                                         ",
"                                                                                                    ",
"                                                                                                    ",
"                                                                                                    ",
"                                                                                                    ",
"                                                                                                    ",
"                                                                                                    ",
"                                                                                                    ",
"                                                                                                    ",
"                                                                                                    ",
"                                                                                                    ",
"                                                                                                    ",
"                                                                                                    ",
"                                                                                                    ",
"                                                                                                    "
};
