/* XPM */
static char *_652a742a35b440cae0183ab153b18dbsHyoB7FMdD8PED8E[] = {
/* columns rows colors chars-per-pixel */
"100 100 9 1 ",
"  c None",
". c #371515",
"X c #491E1D",
"o c #622020",
"O c #632121",
"+ c #762727",
"@ c #772828",
"# c #E49696",
"$ c #FFAEAE",
/* pixels */
"                                                                                                    ",
"                                                                                                    ",
"                                                                                                    ",
"                                                                                                    ",
"                                                                                                    ",
"                                                                                                    ",
"                                                                                                    ",
"                                                                                                    ",
"                                                                                                    ",
"                                                                                                    ",
"                                                                                                    ",
"                                                                                                    ",
"                       ....                                                          ...            ",
"                       ....                                                          ...            ",
"                       ....                                                          ...            ",
"                    .......                                                   ...    ...            ",
"                    .......                                                   ...    ...            ",
"                    .......                                                   ...    ...            ",
"                       ....                                                   ..........            ",
"                       ....                                                   ..........            ",
"                       ....                                                   ..........            ",
"                       ....                                                ......                   ",
"                       ....                                                ......                   ",
"                       ....                                                ......                   ",
"                       ....                                                ......                   ",
"                    .......      +++++++                                      ...                   ",
"                    .......      +++++++                                      ...                   ",
"                    .......      +++++++                                      ...                   ",
"                    ...       +++.......++++++      +++++++++++++             ...                   ",
"                    ...       +++.......++++++      +++++++++++++             ...                   ",
"                    ...       +++.......++++++      +++++++++++++             ...                   ",
"                    ................$$$$...+++@@@+++++++.........++++         ...                   ",
"                    ................$$$$...+++@@@+++++++.........++++         ...                   ",
"                    ................$$$$...@++@@@+++++++.........++++         ...                   ",
"                           +++.............@@@@@@@@@.......$$$$$$................                   ",
"                           +++.............@@@@@@@@@.......$$$$$$................                   ",
"                           +++.............@@@@@@@@@.......$$$$$$................                   ",
"                           XXXXXX.......OOO@@@@@@@@@.................                               ",
"                           XXXXXX.......OOo@@@@@@@@@.................                               ",
"                           XXXXXX.......OOO@@@@@@@@@.................                               ",
"                           XXXXXX.......ooO@@@@@@@@@.................                               ",
"                       XXXXXXXXXXXXXoooo@++@++++++++.................                               ",
"                       XXXXXXXXXXXXXoooo++++++++++++.................                               ",
"                       XXXXXXXXXXXXXoooo++++++++++++.................                               ",
"                       XXXXXXXXXXXXXooooooo+++++++++oooo.........oooo                               ",
"                       XXXXXXXXXXXXXooooooo+++++++++oooo.........oooo                               ",
"                       XXXXXXXXXXXXXooooooo+++++++++oooo.........oooo                               ",
"                       $$$$XXXXXX###.......ooo++++++++++ooooooooo+++++++                            ",
"                       $$$$XXXXXX###.......ooo++++++++++ooooooooo+++++++                            ",
"                       $$$$XXXXXX###.......ooo++++++++++ooooooooo+++++++                            ",
"                       $$$$      ...####$$$......ooooooo++++++++++++++++                            ",
"                       $$$$      ...####$$$......ooooooo++++++++++++++++                            ",
"                       $$$$      ...####$$$......ooooooo++++++++++++++++                            ",
"                       $$$$      ...####$$$......ooooooo++++++++++++++++                            ",
"                    $$$       .............$$$.............ooo+++++++++++++                         ",
"                    $$$       .............$$$.............ooo+++++++++++++                         ",
"                    $$$       .............$$$.............ooo+++++++++++++                         ",
"              $$$$$$$$$       ................###.............+++++++++++++                         ",
"              $$$$$$$$$       ................###.............+++++++++++++                         ",
"              $$$$$$$$$       ................###.............+++++++++++++                         ",
"           $$$$$$$$$$$$$$$$   ...................$$$..........+++++++++++++                         ",
"           $$$$$$$$$$$$$$$$   ...................$$$..........+++++++++++++                         ",
"           $$$$$$$$$$$$$$$$   ...................$$$..........+++++++++++++                         ",
"           ###$$$$$$$$$$$$$   ooo...................$$$$......+++++++++++++                         ",
"           ###$$$$$$$$$$$$$   ooo...................$$$$......+++++++++++++                         ",
"           ###$$$$$$$$$$$$$   ooo...................$$$$......+++++++++++++                         ",
"           #########$$$$$$$   ooo...................####...XXXXXX++++++++++                         ",
"           #########$$$$$$$   ooo...................####...XXXXXX++++++++++                         ",
"           #########$$$$$$$   ooo...................####...XXXXXX++++++++++                         ",
"           #########$$$$$$$   ooo...................####...XXXXXX++++++++++                         ",
"              #########    oooooo.......................###XXXXXXXXXX++++++                         ",
"              #########    oooooo.......................###XXXXXXXXXX++++++                         ",
"              #########    oooooo.......................###XXXXXXXXXX++++++                         ",
"                                 ooo....................XXXXXXXXXXXXX+++                            ",
"                                 ooo....................XXXXXXXXXXXXX+++                            ",
"                                 ooo....................XXXXXXXXXXXXX+++                            ",
"                                    oooo...................XXXXXXoooo                               ",
"                                    oooo...................XXXXXXoooo                               ",
"                                    oooo...................XXXXXXoooo                               ",
"                                        ...             ...oooooo                                   ",
"                                        ...             ...oooooo                                   ",
"                                        ...             ...oooooo                                   ",
"                                        ...             ...oooooo                                   ",
"                                        ...             ...                                         ",
"                                        ...             ...                                         ",
"                                        ...             ...                                         ",
"                                                                                                    ",
"                                                                                                    ",
"                                                                                                    ",
"                                                                                                    ",
"                                                                                                    ",
"                                                                                                    ",
"                                                                                                    ",
"                                                                                                    ",
"                                                                                                    ",
"                                                                                                    ",
"                                                                                                    ",
"                                                                                                    ",
"                                                                                                    ",
"                                                                                                    "
};
