/* XPM */
static char *Tile31663100809[] = {
/* columns rows colors chars-per-pixel */
"100 100 4 1 ",
"  c #202020",
". c #282828",
"X c #2F2F2F",
"o c gray22",
/* pixels */
"                       ..........................................XXXXXXXXXXXXXXXXXXXXXXX   XXXXXXXXX",
"                       ..........................................XXXXXXXXXXXXXXXXXXXXXXX   XXXXXXXXX",
"                       ..........................................XXXXXXXXXXXXXXXXXXXXXXX   XXXXXXXXX",
"                       ...XXXXXXXXXXXXXXXXXXXXXXXXXXXXXXXXXXXX...XXXXXXXXXXXXXXXXXXXXXXX   XXXXXXXXX",
"                       ...XXXXXXXXXXXXXXXXXXXXXXXXXXXXXXXXXXXX...XXXXXXXXXXXXXXXXXXXXXXX   XXXXXXXXX",
"                       ...XXXXXXXXXXXXXXXXXXXXXXXXXXXXXXXXXXXX...XXXXXXXXXXXXXXXXXXXXXXX   XXXXXXXXX",
"                       ...XXXXXXXXXXXXXXXXXXXXXXXXXXXXXXXXXXXX...XXXXXXXXXXXXXXXXXXXXXXX   XXXXXXXXX",
"                          XXXXXXXXXXXXXXXXXXXXXXXXXXXXXXXXXXXX...ooooooooooooooooooooooo...XXXXXXXXX",
"                          XXXXXXXXXXXXXXXXXXXXXXXXXXXXXXXXXXXX...ooooooooooooooooooooooo...XXXXXXXXX",
"                          XXXXXXXXXXXXXXXXXXXXXXXXXXXXXXXXXXXX...ooooooooooooooooooooooo...XXXXXXXXX",
"                          oooooooooooooXXXXXXXXXXXXXXXXXXXXXXX             ................XXXXXXXXX",
"                          oooooooooooooXXXXXXXXXXXXXXXXXXXXXXX             ................XXXXXXXXX",
"                          oooooooooooooXXXXXXXXXXXXXXXXXXXXXXX             ................XXXXXXXXX",
"       XXXXXXXXXXXXXXXX          ..........................                             ...XXXXXXXXX",
"       XXXXXXXXXXXXXXXX          ..........................                             ...XXXXXXXXX",
"       XXXXXXXXXXXXXXXX          ..........................                             ...XXXXXXXXX",
".......                   .......XXXXXXXXXXXXXXXXXXXXXXXXXXXXX...                       ............",
".......                   .......XXXXXXXXXXXXXXXXXXXXXXXXXXXXX...                       ............",
".......                   .......XXXXXXXXXXXXXXXXXXXXXXXXXXXXX...                       ............",
".......                   .......XXXXXXXXXXXXXXXXXXXXXXXXXXXXX...                       ............",
"XXXXXXXXXXXXX   XXXXXXXXXXXXX....XXXXXXXXXXXXXXXXXXXXXXXXXXXXX...                    ......XXXXXXX..",
"XXXXXXXXXXXXX   XXXXXXXXXXXXX....XXXXXXXXXXXXXXXXXXXXXXXXXXXXX...                    ......XXXXXXX..",
"XXXXXXXXXXXXX   XXXXXXXXXXXXX....XXXXXXXXXXXXXXXXXXXXXXXXXXXXX...                    ......XXXXXXX..",
"XXXXXXXXXXXXX...XXXXXXXXXXXXX....oooXXXXXXXXXXXXXXXXXXXXXXXooo...                    ...XXXXXXXXXX..",
"XXXXXXXXXXXXX...XXXXXXXXXXXXX....oooXXXXXXXXXXXXXXXXXXXXXXXooo...                    ...XXXXXXXXXX..",
"XXXXXXXXXXXXX...XXXXXXXXXXXXX....oooXXXXXXXXXXXXXXXXXXXXXXXooo...                    ...XXXXXXXXXX..",
"       .........XXXXXXXXXXXXX    ooooooooooooooooXXXXXXooooooo   XXX                 ...XXXXXXXXXX..",
"       .........XXXXXXXXXXXXX    ooooooooooooooooXXXXXXooooooo   XXX                 ...XXXXXXXXXX..",
"       .........XXXXXXXXXXXXX    ooooooooooooooooXXXXXXooooooo   XXX                 ...XXXXXXXXXX..",
"   XXXXXXXXXX.......XXXXXXXXX    ......................             XXXXXXXXXX   .............      ",
"   XXXXXXXXXX.......XXXXXXXXX    ......................             XXXXXXXXXX   .............      ",
"   XXXXXXXXXX.......XXXXXXXXX    ......................             XXXXXXXXXX   .............      ",
"   XXXXXXXXXX.......XXXXXXXXX    ......................             XXXXXXXXXX   .............      ",
"   XXXXXXXXXXXXX..........          ..........                             ................XXXXXXXXX",
"   XXXXXXXXXXXXX..........          ..........                             ................XXXXXXXXX",
"   XXXXXXXXXXXXX..........          ..........                             ................XXXXXXXXX",
"...XXXXXXXXXXXXX....XXXXXXXXXXXXXXXXXXXXXX....                      XXXXXXXXXXXXXXXXXXXXXXXXXXXXXXXX",
"...XXXXXXXXXXXXX....XXXXXXXXXXXXXXXXXXXXXX....                      XXXXXXXXXXXXXXXXXXXXXXXXXXXXXXXX",
"...XXXXXXXXXXXXX....XXXXXXXXXXXXXXXXXXXXXX....                      XXXXXXXXXXXXXXXXXXXXXXXXXXXXXXXX",
"...XXXXXXXXXXXXX....XXXXXXXXXXXXXXXXXXXXXX....                      XXXXXXXXXXXXXXXXXXXXXXXXXXXXXXXX",
"...XXXXXXXXXXXXX....XXXXXXXXXXXXXXXXXXXXXX....                      XXXXXXXXXXXXXXXXXXXXXXXXXXXXXXXX",
"...XXXXXXXXXXXXX....XXXXXXXXXXXXXXXXXXXXXX....                      XXXXXXXXXXXXXXXXXXXXXXXXXXXXXXXX",
"...ooooXXXXXXXXX....XXXXXXXXXXXXXXXXXXXXXX....                XXX...XXXXXXXXXXXXXXXXXXXXXXXXXXXXXXXX",
"...ooooXXXXXXXXX....XXXXXXXXXXXXXXXXXXXXXX....                XXX...XXXXXXXXXXXXXXXXXXXXXXXXXXXXXXXX",
"...ooooXXXXXXXXX....XXXXXXXXXXXXXXXXXXXXXX....                XXX...XXXXXXXXXXXXXXXXXXXXXXXXXXXXXXXX",
"...ooooXXXXXXXXX....XXXXXXXXXXXXXXXXXXXXXX....                XXX...XXXXXXXXXXXXXXXXXXXXXXXXXXXXXXXX",
"...ooooooooooXXX....oooooooooooooXXXXXXXXX....             XXXXXX...XXXXXXXXXXXXXXXXXXXXXXXXXXXXXXXX",
"...ooooooooooXXX....oooooooooooooXXXXXXXXX....             XXXXXX...XXXXXXXXXXXXXXXXXXXXXXXXXXXXXXXX",
"...ooooooooooXXX....oooooooooooooXXXXXXXXX....             XXXXXX...XXXXXXXXXXXXXXXXXXXXXXXXXXXXXXXX",
"....................................................................ooooooooooooooooooooooooooXXXXXX",
"....................................................................ooooooooooooooooooooooooooXXXXXX",
"....................................................................ooooooooooooooooooooooooooXXXXXX",
"..........................XXXXXXXXXXXXXXXXXXXXXXXXXX...       ......................................",
"..........................XXXXXXXXXXXXXXXXXXXXXXXXXX...       ......................................",
"..........................XXXXXXXXXXXXXXXXXXXXXXXXXX...       ......................................",
"XXXXXXX......XXXXXXXXXX...XXXXXXXXXXXXXXXXXXXXXXXXXXXXX    XXXXXXXXXXXXXXXX..........               ",
"XXXXXXX......XXXXXXXXXX...XXXXXXXXXXXXXXXXXXXXXXXXXXXXX    XXXXXXXXXXXXXXXX..........               ",
"XXXXXXX......XXXXXXXXXX...XXXXXXXXXXXXXXXXXXXXXXXXXXXXX    XXXXXXXXXXXXXXXX..........               ",
"XXXXXXX......XXXXXXXXXX...XXXXXXXXXXXXXXXXXXXXXXXXXXXXX    XXXXXXXXXXXXXXXX..........               ",
"XXXXXXXXXX...XXXXXXXXXX   ooooooooooooooooXXXXXXXXXXXXX    XXXXXXXXXXXXXXXX...                      ",
"XXXXXXXXXX...XXXXXXXXXX   ooooooooooooooooXXXXXXXXXXXXX    XXXXXXXXXXXXXXXX...                      ",
"XXXXXXXXXX...XXXXXXXXXX   ooooooooooooooooXXXXXXXXXXXXX    XXXXXXXXXXXXXXXX...                      ",
"XXXXXXXXXX...XXXXXXXXXX             .......................oooXXXXXXXXXXXXX                         ",
"XXXXXXXXXX...XXXXXXXXXX             .......................oooXXXXXXXXXXXXX                         ",
"XXXXXXXXXX...XXXXXXXXXX             .......................oooXXXXXXXXXXXXX                         ",
"XXXXXXXooo...XXXXXXXXXX                          ..........oooooooooXXXXXXX                XXX      ",
"XXXXXXXooo...XXXXXXXXXX                          ..........oooooooooXXXXXXX                XXX      ",
"XXXXXXXooo...XXXXXXXXXX                          ..........oooooooooXXXXXXX                XXX      ",
"XXXooooooo...oooXXXXXXX                          .............                       XXXXXX         ",
"XXXooooooo...oooXXXXXXX                          .............                       XXXXXX         ",
"XXXooooooo...oooXXXXXXX                          .............                       XXXXXX         ",
"XXXooooooo...oooXXXXXXX                          .............                       XXXXXX         ",
"................                                 ...XXXXXXXXXXXXXXXX    XXXXXXXXX...................",
"................                                 ...XXXXXXXXXXXXXXXX    XXXXXXXXX...................",
"................                                 ...XXXXXXXXXXXXXXXX    XXXXXXXXX...................",
"XXXXXXXXXXXXXXXXXXXX                             ...XXXXXXXXXXXXXXXX    XXXXXXXXXXXXXXXXXXXXXXXXXX..",
"XXXXXXXXXXXXXXXXXXXX                             ...XXXXXXXXXXXXXXXX    XXXXXXXXXXXXXXXXXXXXXXXXXX..",
"XXXXXXXXXXXXXXXXXXXX                             ...XXXXXXXXXXXXXXXX    XXXXXXXXXXXXXXXXXXXXXXXXXX..",
"XXXXXXXXXXXXXXXXXXXX                             ...XXXXXXXXXXXXXXXX....XXXXXXXXXXXXXXXXXXXXXXXXXX..",
"XXXXXXXXXXXXXXXXXXXX                             ...XXXXXXXXXXXXXXXX....XXXXXXXXXXXXXXXXXXXXXXXXXX..",
"XXXXXXXXXXXXXXXXXXXX                             ...XXXXXXXXXXXXXXXX....XXXXXXXXXXXXXXXXXXXXXXXXXX..",
"XXXXXXXXXXXXXXXXXXXX   XXXXXXXXXXXXXXXXXXX       ...XXXXXXXXXXXXXXXX....XXXXXXXXXXXXXXXXXXXXXXXXXX..",
"XXXXXXXXXXXXXXXXXXXX   XXXXXXXXXXXXXXXXXXX       ...XXXXXXXXXXXXXXXX....XXXXXXXXXXXXXXXXXXXXXXXXXX..",
"XXXXXXXXXXXXXXXXXXXX   XXXXXXXXXXXXXXXXXXX       ...XXXXXXXXXXXXXXXX....XXXXXXXXXXXXXXXXXXXXXXXXXX..",
"XXXXXXXXXXXXXXXXXXXX   XXXXXXXXXXXXXXXXXXX       ...XXXXXXXXXXXXXXXX....XXXXXXXXXXXXXXXXXXXXXXXXXX..",
"XXXXXXXXXXXXXXXXoooo         .......................oooooooooooooooo....XXXXXXXXXXXXXXXXXXXXXX    ..",
"XXXXXXXXXXXXXXXXoooo         .......................oooooooooooooooo....XXXXXXXXXXXXXXXXXXXXXX    ..",
"XXXXXXXXXXXXXXXXoooo         .......................oooooooooooooooo....XXXXXXXXXXXXXXXXXXXXXX    ..",
"XXXooooooooooooooooo   ...XXXXXXXXXXXXXXXXXXXXXXX................................             ......",
"XXXooooooooooooooooo   ...XXXXXXXXXXXXXXXXXXXXXXX................................             ......",
"XXXooooooooooooooooo   ...XXXXXXXXXXXXXXXXXXXXXXX................................             ......",
".............          ...XXXXXXXXXXXXXXXXXXXXXXXXXXXXXXXXXXXX...XXXXXXXXXXXXXXXXXXXXXXX   .........",
".............          ...XXXXXXXXXXXXXXXXXXXXXXXXXXXXXXXXXXXX...XXXXXXXXXXXXXXXXXXXXXXX   .........",
".............          ...XXXXXXXXXXXXXXXXXXXXXXXXXXXXXXXXXXXX...XXXXXXXXXXXXXXXXXXXXXXX   .........",
"XXXXXXXXXXXXXXXXXXXXXXX...XXXXXXXXXXXXXXXXXXXXXXXXXXXXXXXXXXXX...ooooooooooXXXXXXXXXXXXX   ...      ",
"XXXXXXXXXXXXXXXXXXXXXXX...XXXXXXXXXXXXXXXXXXXXXXXXXXXXXXXXXXXX...ooooooooooXXXXXXXXXXXXX   ...      ",
"XXXXXXXXXXXXXXXXXXXXXXX...XXXXXXXXXXXXXXXXXXXXXXXXXXXXXXXXXXXX...ooooooooooXXXXXXXXXXXXX   ...      ",
"XXXXXXXXXXXXXXXXXXXXXXX...XXXXXXXXXXXXXXXXXXXXXXXXXXXXXXXXXXXX...ooooooooooXXXXXXXXXXXXX   ...      ",
"XXXXXXXXXXXXXXXXXXXXXXX...XXXXXXXXXXXXXXXXXXXXXXXXXXXXXXXXXXXX..........................            ",
"XXXXXXXXXXXXXXXXXXXXXXX...XXXXXXXXXXXXXXXXXXXXXXXXXXXXXXXXXXXX..........................            "
};
