/* XPM */
static char *Tile11663100809[] = {
/* columns rows colors chars-per-pixel */
"100 100 4 1 ",
"  c #202020",
". c #282828",
"X c #2F2F2F",
"o c gray22",
/* pixels */
"XX......XXXXXXXXXXXXX..........XXXXXXXXXXXXXXXX    ......XXXXXXXXXXXXX...XXXX......XXXXXXXXXXXXXXXX.",
"XX......XXXXXXXXXXXXX..........XXXXXXXXXXXXXXXX    ......XXXXXXXXXXXXX...XXXX......XXXXXXXXXXXXXXXX.",
"XXXXXXXX....XXXXXXXXX.......XXXXXXXXXXXXXXXXXXX    XXXXXX...XXXXXXXXXX...XXXXXXXXXX...XXXXXXXXXXXXX.",
"XXXXXXXX....XXXXXXXXX.......XXXXXXXXXXXXXXXXXXX    XXXXXX...XXXXXXXXXX...XXXXXXXXXX...XXXXXXXXXXXXX.",
"XXXXXXXX....XXXXXXXXX.......XXXXXXXXXXXXXXXXXXX    XXXXXX...XXXXXXXXXX...XXXXXXXXXX...XXXXXXXXXXXXX.",
"XXXXXXXX....XXXXXXXXX.......XXXXXXXXXXXXXXXXXXX    XXXXXX...XXXXXXXXXX...XXXXXXXXXX...XXXXXXXXXXXXX.",
"XXXXXXXXXXXXXXXXXXXXX....XXXXXXXXXXXXXXXXXXXXXX    XXXXXXXXXXXXXXXXXXX...XXXXXXXXXXXXXXXXXXXXXXXXXX.",
"XXXXXXXXXXXXXXXXXXXXX....XXXXXXXXXXXXXXXXXXXXXX    XXXXXXXXXXXXXXXXXXX...XXXXXXXXXXXXXXXXXXXXXXXXXX.",
"XXXXXXXXXXXXXXXXXXXXX....XXXXXXXXXXXXXXXXXXXXXX    XXXXXXXXXXXXXXXXXXX...XXXXXXXXXXXXXXXXXXXXXXXXXX.",
"XXXXXXXXXXXXXXXXXXXXX....XXXXXXXXXXXXXXXXXXXXXX....XXXXXXXXXXXXXXXXXXX...XXXXXXXXXXXXXXXXXXXXXXXXXX.",
"XXXXXXXXXXXXXXXXXXXXX....XXXXXXXXXXXXXXXXXXXXXX....XXXXXXXXXXXXXXXXXXX...XXXXXXXXXXXXXXXXXXXXXXXXXX.",
"XXXXXXXXXXXXXXXXXXXXX....XXXXXXXXXXXXXXXXXXXXXX....XXXXXXXXXXXXXXXXXXX...XXXXXXXXXXXXXXXXXXXXXXXXXX.",
"XXXXXXXXXXXXXXXXXXXXX    XXXXXXXXXXXXXXXXXXXXXX....XXXXXXXXXXXXXXXXooo   XXXXXXXXXXXXXXXXXXXXXXXXXX.",
"XXXXXXXXXXXXXXXXXXXXX    XXXXXXXXXXXXXXXXXXXXXX....XXXXXXXXXXXXXXXXooo   XXXXXXXXXXXXXXXXXXXXXXXXXX.",
"XXXXXXXXXXXXXXXXXXXXX    XXXXXXXXXXXXXXXXXXXXXX....XXXXXXXXXXXXXXXXooo   XXXXXXXXXXXXXXXXXXXXXXXXXX.",
"XXXXXoooooooooooooXXX    oooXXXXXXXXXXXXXXXXXXX....XXXXXXXXXXXXXXXXooo   oooooooooooooooooooooooooo ",
"XXXXXoooooooooooooXXX    oooXXXXXXXXXXXXXXXXXXX....XXXXXXXXXXXXXXXXooo   oooooooooooooooooooooooooo ",
"XXXXXoooooooooooooXXX    oooXXXXXXXXXXXXXXXXXXX....XXXXXXXXXXXXXXXXooo   oooooooooooooooooooooooooo ",
"XXXXXoooooooooooooXXX    oooXXXXXXXXXXXXXXXXXXX....XXXXXXXXXXXXXXXXooo   oooooooooooooooooooooooooo ",
".....................    ooooooooooooooooXXXXXX....XXXoooooooooooooooo   .......................... ",
".....................    ooooooooooooooooXXXXXX....XXXoooooooooooooooo   .......................... ",
".....................    ooooooooooooooooXXXXXX....XXXoooooooooooooooo   .......................... ",
"XXXXX..........          ..........................................          XXXXXXXXXXXXXXXX...XXXX",
"XXXXX..........          ..........................................          XXXXXXXXXXXXXXXX...XXXX",
"XXXXX..........          ..........................................          XXXXXXXXXXXXXXXX...XXXX",
"XXXXXXXX....XXX   XXXXXXXXXXXXX..........XXXXXXXXXXXXXXXX...XXXXXXX...XXX....XXXXXXXXXXXXX...XXX...X",
"XXXXXXXX....XXX   XXXXXXXXXXXXX..........XXXXXXXXXXXXXXXX...XXXXXXX...XXX....XXXXXXXXXXXXX...XXX...X",
"XXXXXXXX....XXX   XXXXXXXXXXXXX..........XXXXXXXXXXXXXXXX...XXXXXXX...XXX....XXXXXXXXXXXXX...XXX...X",
"XXXXXXXXXXXXXXX   XXXXXXXXXXXXXXXXXXXX...XXXXXXXXXXXXXXXX...XXXXXXX...XXX....XXXXXXXXXXXXX...XXXXXXX",
"XXXXXXXXXXXXXXX   XXXXXXXXXXXXXXXXXXXX...XXXXXXXXXXXXXXXX...XXXXXXX...XXX....XXXXXXXXXXXXX...XXXXXXX",
"XXXXXXXXXXXXXXX   XXXXXXXXXXXXXXXXXXXX...XXXXXXXXXXXXXXXX...XXXXXXX...XXX....XXXXXXXXXXXXX...XXXXXXX",
"XXXXXXXXXXXXXXX   XXXXXXXXXXXXXXXXXXXX...XXXXXXXXXXXXXXXX...XXXXXXX...XXX....XXXXXXXXXXXXX...XXXXXXX",
"XXXXXXXXXXXXXXX   XXXXXXXXXXXXXXXXXXXXXXXXXXXXXXXXXXXXXXX...XXXX...XXXXXX....XXXXXXXXXXXXXXXX...XXXX",
"XXXXXXXXXXXXXXX   XXXXXXXXXXXXXXXXXXXXXXXXXXXXXXXXXXXXXXX...XXXX...XXXXXX....XXXXXXXXXXXXXXXX...XXXX",
"XXXXXXXXXXXXXXX   XXXXXXXXXXXXXXXXXXXXXXXXXXXXXXXXXXXXXXX...XXXX...XXXXXX....XXXXXXXXXXXXXXXX...XXXX",
"XXXXXXXXXXXXXXX...XXXXXXXXXXXXXXXXXXXXXXXXXXXXXXXXXXXXXXX...XXXXXXXXXXXXX....XXXXXXXXXXXXXXXXXXXXXXX",
"XXXXXXXXXXXXXXX...XXXXXXXXXXXXXXXXXXXXXXXXXXXXXXXXXXXXXXX...XXXXXXXXXXXXX....XXXXXXXXXXXXXXXXXXXXXXX",
"XXXXXXXXXXXXXXX...XXXXXXXXXXXXXXXXXXXXXXXXXXXXXXXXXXXXXXX...XXXXXXXXXXXXX....XXXXXXXXXXXXXXXXXXXXXXX",
"XXXXXXXXXXXXXXX...XXXXXXXXXXXXXXXXXXXXXXXXXXXXXXXXXXXXXXX...XXXXXXXXXXXXX....XXXXXXXXXXXXXXXXXXXXXXX",
"XXXXXXXXXXXXXXX...XXXXXXXXXXXXXXXXXXXXXXXXXXXXXXXXXXXXXXX...XXXXXXXXXXXXX....XXXXXXXXXXXXXXXXXXXXXXX",
"XXXXXXXXXXXXXXX...XXXXXXXXXXXXXXXXXXXXXXXXXXXXXXXXXXXXXXX...XXXXXXXXXXXXX....XXXXXXXXXXXXXXXXXXXXXXX",
"XXXXXXXXXXXXXXX...oooXXXXXXXXXXXXXXXXXXXXXXXXXXXXXXXXXXXX   XXXXXXXXXXXXX....XXXXXXXXXXXXXXXXXXXXXXX",
"XXXXXXXXXXXXXXX...oooXXXXXXXXXXXXXXXXXXXXXXXXXXXXXXXXXXXX   XXXXXXXXXXXXX....XXXXXXXXXXXXXXXXXXXXXXX",
"XXXXXXXXXXXXXXX...oooXXXXXXXXXXXXXXXXXXXXXXXXXXXXXXXXXXXX   XXXXXXXXXXXXX....XXXXXXXXXXXXXXXXXXXXXXX",
"XXXXXXXXXXXXXXX...oooXXXXXXXXXXXXXXXXXXXXXXXXXXXXXXXXXXXX   XXXXXXXXXXXXX....XXXXXXXXXXXXXXXXXXXXXXX",
"XXXXXoooooooooo...ooooooooooooooooooooXXXXXXXXXXXXXXXX...   ooooooooooooo....oooooooooooooooooooXXXX",
"XXXXXoooooooooo...ooooooooooooooooooooXXXXXXXXXXXXXXXX...   ooooooooooooo....oooooooooooooooooooXXXX",
"XXXXXoooooooooo...ooooooooooooooooooooXXXXXXXXXXXXXXXX...   ooooooooooooo....oooooooooooooooooooXXXX",
"........             ..............................                .................................",
"........             ..............................                .................................",
"........             ..............................                .................................",
"XXXXX.......XXXXXXXXXXXXXXXX......XXXXXXXXXXXXX.......XXXXXXXXXXXXXXXXXXXXXXXXXXXXX...XXXXXXXXXXXXX.",
"XXXXX.......XXXXXXXXXXXXXXXX......XXXXXXXXXXXXX.......XXXXXXXXXXXXXXXXXXXXXXXXXXXXX...XXXXXXXXXXXXX.",
"XXXXX.......XXXXXXXXXXXXXXXX......XXXXXXXXXXXXX.......XXXXXXXXXXXXXXXXXXXXXXXXXXXXX...XXXXXXXXXXXXX.",
"XXXXXXXX....XXXXXXXXXXXXXXXX...XXXXXXXXXXXXXXXX....XXXXXXXXXXXXXXXXXXXXXXXXXXXXXXXX...XXXXXXXXXXXXX.",
"XXXXXXXX....XXXXXXXXXXXXXXXX...XXXXXXXXXXXXXXXX....XXXXXXXXXXXXXXXXXXXXXXXXXXXXXXXX...XXXXXXXXXXXXX.",
"XXXXXXXX....XXXXXXXXXXXXXXXX...XXXXXXXXXXXXXXXX....XXXXXXXXXXXXXXXXXXXXXXXXXXXXXXXX...XXXXXXXXXXXXX.",
"XXXXXXXX....XXXXXXXXXXXXXXXX...XXXXXXXXXXXXXXXX....XXXXXXXXXXXXXXXXXXXXXXXXXXXXXXXX...XXXXXXXXXXXXX.",
"XXXXXXXXXXXX...XXXXXXXXXXXXX...XXXXXXXXXXXXXXXX....XXXXXXXXX....XXXXXXXXXXXXXXXXXXX...XXXXXXXXXXXXX.",
"XXXXXXXXXXXX...XXXXXXXXXXXXX...XXXXXXXXXXXXXXXX....XXXXXXXXX....XXXXXXXXXXXXXXXXXXX...XXXXXXXXXXXXX.",
"XXXXXXXXXXXX...XXXXXXXXXXXXX...XXXXXXXXXXXXXXXX....XXXXXXXXX....XXXXXXXXXXXXXXXXXXX...XXXXXXXXXXXXX.",
"XXXXXXXXXXXXXXXXXXXXXXXXXooo...XXXXXXXXXXXXXXXX....XXXXXXXXX....XXXXXXXXXXXXXXXXXXX...XXXXXXXXXXXXX.",
"XXXXXXXXXXXXXXXXXXXXXXXXXooo...XXXXXXXXXXXXXXXX....XXXXXXXXX....XXXXXXXXXXXXXXXXXXX...XXXXXXXXXXXXX.",
"XXXXXXXXXXXXXXXXXXXXXXXXXooo...XXXXXXXXXXXXXXXX....XXXXXXXXX....XXXXXXXXXXXXXXXXXXX...XXXXXXXXXXXXX.",
"XXXXXXXXXXXXXXXXXXXXXXXXXooo   XXXXXXXXXXXXXXXX....XXXXXXXXXXXXX...XXXXXXXXXXXXXooo...XXXXXXXXXXXXX.",
"XXXXXXXXXXXXXXXXXXXXXXXXXooo   XXXXXXXXXXXXXXXX....XXXXXXXXXXXXX...XXXXXXXXXXXXXooo...XXXXXXXXXXXXX.",
"XXXXXXXXXXXXXXXXXXXXXXXXXooo   XXXXXXXXXXXXXXXX....XXXXXXXXXXXXX...XXXXXXXXXXXXXooo...XXXXXXXXXXXXX.",
"XXXXXXXXXXXXXXXXXXoooooooooo   XXXXXXXXXXXXXXXX    oooXXXXXXXXXXXXXXXXXXXXXXXXXXooo   XXXXXXXXXXooo.",
"XXXXXXXXXXXXXXXXXXoooooooooo   XXXXXXXXXXXXXXXX    oooXXXXXXXXXXXXXXXXXXXXXXXXXXooo   XXXXXXXXXXooo.",
"XXXXXXXXXXXXXXXXXXoooooooooo   XXXXXXXXXXXXXXXX    oooXXXXXXXXXXXXXXXXXXXXXXXXXXooo   XXXXXXXXXXooo.",
"XXXXXXXXXXXXXXXXXXoooooooooo   XXXXXXXXXXXXXXXX    oooXXXXXXXXXXXXXXXXXXXXXXXXXXooo   XXXXXXXXXXooo.",
".....                       ................       ooooooXXXXXXXXXXoooooooooooooooo   XXXXooooooooo.",
".....                       ................       ooooooXXXXXXXXXXoooooooooooooooo   XXXXooooooooo.",
".....                       ................       ooooooXXXXXXXXXXoooooooooooooooo   XXXXooooooooo.",
"XXXXXXXXXXXX......   ....XXXXXXXXXXXXX......XXX    ..........................                .......",
"XXXXXXXXXXXX......   ....XXXXXXXXXXXXX......XXX    ..........................                .......",
"XXXXXXXXXXXX......   ....XXXXXXXXXXXXX......XXX    ..........................                .......",
"XXXXXXXXXXXXXXX..........XXXXXXXXX....XXXXXXXXXXXXXXXXXXXXXXXXXXXXX...XXXXXXX......XXXXXXXXXXXXXXXXX",
"XXXXXXXXXXXXXXX..........XXXXXXXXX....XXXXXXXXXXXXXXXXXXXXXXXXXXXXX...XXXXXXX......XXXXXXXXXXXXXXXXX",
"XXXXXXXXXXXXXXX..........XXXXXXXXX....XXXXXXXXXXXXXXXXXXXXXXXXXXXXX...XXXXXXX......XXXXXXXXXXXXXXXXX",
"XXXXXXXXXXXX...XXXXXX....XXXXXXXXXXXXXXXXXXXXXXXXXXXXXXXXXXXXXXXXXX...XXXXXXXXXXXXX...XXXXXXXXXXXXXX",
"XXXXXXXXXXXX...XXXXXX....XXXXXXXXXXXXXXXXXXXXXXXXXXXXXXXXXXXXXXXXXX...XXXXXXXXXXXXX...XXXXXXXXXXXXXX",
"XXXXXXXXXXXX...XXXXXX....XXXXXXXXXXXXXXXXXXXXXXXXXXXXXXXXXXXXXXXXXX...XXXXXXXXXXXXX...XXXXXXXXXXXXXX",
"XXXXXXXXXXXX...XXXXXX....XXXXXXXXXXXXXXXXXXXXXXXXXXXXXXXXXXXXXXXXXX...XXXXXXXXXXXXX...XXXXXXXXXXXXXX",
"XXXXXXXXXXXXXXXXXXXXX....XXXXXXXXXXXXXXXXXXXXXXXXXXXXXXXXXXXXXXXXXX...XXXXXXXXXXXXXXXXXXXXXXXXXXXXXX",
"XXXXXXXXXXXXXXXXXXXXX....XXXXXXXXXXXXXXXXXXXXXXXXXXXXXXXXXXXXXXXXXX...XXXXXXXXXXXXXXXXXXXXXXXXXXXXXX",
"XXXXXXXXXXXXXXXXXXXXX....XXXXXXXXXXXXXXXXXXXXXXXXXXXXXXXXXXXXXXXXXX...XXXXXXXXXXXXXXXXXXXXXXXXXXXXXX",
"XXXXXXXXXXXXXXXXXXXXX....XXXXXXXXXXXXXXXXXXXXXXXXXXXXXXXXXXXXXXXXXX...XXXXXXXXXXXXXXXXXXXXXXXXXXXXXX",
"XXXXXXXXXXXXXXXXXXXXX....XXXXXXXXXXXXXXXXXXXXXXXXXXXXXXXXXXXXXXXXXX...XXXXXXXXXXXXXXXXXXXXXXXXXXXXXX",
"XXXXXXXXXXXXXXXXXXXXX....XXXXXXXXXXXXXXXXXXXXXXXXXXXXXXXXXXXXXXXXXX...XXXXXXXXXXXXXXXXXXXXXXXXXXXXXX",
"XXXXXXXXXXXXXXXXXXXXX....XXXXXXXXXXXXXXXXXXXXXXXXXXXXXXXXXXXXXXXXXX...XXXXXXXXXXXXXXXXXXXXXXXXXXXXXX",
"XXXXXXXXXXXXXXXXXXXXX....XXXXXXXXXXXXXXXXXXXXXXXXXXXXXXXXXXXXXXXXXX...XXXXXXXXXXXXXXXXXXXXXXXXXXXXXX",
"XXXXXXXXXXXXXXXXXXXXX....XXXXXXXXXXXXXXXXXXXXXXXXXXXXXXXXXXXXXXXXXX...XXXXXXXXXXXXXXXXXXXXXXXXXXXXXX",
"XXXXXXXXXXXXXXXXXXXXX....XXXXXXXXXXXXXXXXXXXXXXXXXXXXXXXXXXXXXXXXXX...XXXXXXXXXXXXXXXXXXXXXXXXXXXXXX",
"XXXXXXXXXXXXXXXXXXooo    XXXXXXXXXXXXXXXXXXXXXXXXXXXXXXXXXXXXXXXXXX   oooXXXXXXXXXXXXXXXXXXXXXXXXXXX",
"XXXXXXXXXXXXXXXXXXooo    XXXXXXXXXXXXXXXXXXXXXXXXXXXXXXXXXXXXXXXXXX   oooXXXXXXXXXXXXXXXXXXXXXXXXXXX",
"XXXXXXXXXXXXXXXXXXooo    XXXXXXXXXXXXXXXXXXXXXXXXXXXXXXXXXXXXXXXXXX   oooXXXXXXXXXXXXXXXXXXXXXXXXXXX",
"XXXXXXXXooooooooooooo    ooooooooooooooooXXXXXXXXXXXXXXXXXXXooooooo   ooooooooooooooooXXXXXXXXXXXXXX",
"XXXXXXXXooooooooooooo    ooooooooooooooooXXXXXXXXXXXXXXXXXXXooooooo   ooooooooooooooooXXXXXXXXXXXXXX",
"XXXXXXXXooooooooooooo    ooooooooooooooooXXXXXXXXXXXXXXXXXXXooooooo   ooooooooooooooooXXXXXXXXXXXXXX"
};
