/* XPM */
static char *Tile81663100809[] = {
/* columns rows colors chars-per-pixel */
"100 100 4 1 ",
"  c #202020",
". c #282828",
"X c #2F2F2F",
"o c gray22",
/* pixels */
"XX..XXX..XXXX....XXXXXXXXXXX...   XXXXX..XXXXX.XXXXXXX.XXXX.XXXXX...XXXXXXXXXXXX...   XXXXX.XXXXX..X",
"XX..XXX..XXXX....XXXXXXXXXXX...   XXXXX..XXXXX.XXXXXXX.XXXX.XXXXX...XXXXXXXXXXXX...   XXXXX.XXXXX..X",
"....XXX..oXXXXXXXX...    XXX          .XXXXXXX              ooXXXXXXXX......XXXX         ..XXXXXX  X",
"XX..XXX..ooooXXXXX          XX         ...        XXXX.XXXX   oooXXX        XXXXX  X....X..XXXXXX   ",
"XX..XXX..ooooXXXXX          XX         ...        XXXX.XXXX   oooXXX        XXXXX  X....X..XXXXXX   ",
"XX.............XX...     o  .....      ..        .XXXX......   ....   X..       o  .....   XooooX   ",
"XX  XXX...XXXXX...       .........  ...          XXXXX     ...        ...   ..     .....   .....    ",
"XX  XXX...XXXXX...       .........  ...          XXXXX     ...        ...   ..     .....   .....    ",
"Xo  XXXXX.XXX  ..        ...     .....           XXX        ..         ..   ....   ......   XX   ooX",
"Xo  XXXXX.XXX  ..        ...     .....           XXX        ..         ..   ....   ......   XX   ooX",
"oo  XXXXXX........       ...                        .....     .....           ...   ..        XXooo.",
"..   ..XXXXX .....                                     .... ...                 ......      oooooXX.",
"..   ..XXXXX .....                                     .... ...                 ......      oooooXX.",
"XXXX      .. ....                                              ....              ...        ..XXXXXX",
"XXXX      .. ....                                              ....              ...        ..XXXXXX",
"XXXX     ... ....                                                ...               .....      XXXXXX",
"Xooo     .   ....                     ....                                              ....    .XXX",
"Xooo     .   ....                     ....                                              ....    .XXX",
"ooXX...........                     ...                                                  ...     XXX",
"..XX........                      ....                                                             X",
"..XX........                      ....                                                             X",
"..XX...                                                                                             ",
"..XX...                                                                                             ",
".                                                                                                  X",
".                           ..                                                                  XXX.",
".                           ..                                                                  XXX.",
".   .                                                    ..                                     XXX.",
"XX          .                                          ..                                       ... ",
"XX          .                                          ..                                       ... ",
"XX       .                          ...                                                 ........... ",
"XX       .                          ...                                                 ........... ",
"XX..   ...                            ...                                               .     .....X",
".XXX.  ...                        .....                                                          ..X",
".XXX.  ...                        .....                                                          ..X",
".XXX.  ..                                             .                                     .....XXX",
"..XX         ..                                       .            .                        .....ooo",
"..XX         ..                                       .            .                        .....ooo",
".XXX......  ...                             ..                 ....XXX                      .... XX.",
".XXX......  ...                             ..                 ....XXX                      .... XX.",
".........   .                               ..                ......XX             .       ..... ...",
".... ..                                                                     ....XXX.     .....   XXX",
".... ..                                                                     ....XXX.     .....   XXX",
"..  ...                          XXXXX        ...                           .......      .....  X...",
"..  ...                          XXXXX        ...                           .......      .....  X...",
".X  ...                     .. XXX....         ..                           ....         ..     X...",
".X  .                       ........                                          ..                X...",
".X  .                       ........                                          ..                X...",
"XX..                   ..                                                                       .XXX",
"XX..                   ...                                                                      .XXX",
"XX..                   ...                                                                      .XXX",
"XX..                     .                                                               ...    X..X",
"XX..                     .                                                               ...    X..X",
"XX..                     ...                                                             .....  X..X",
"....                      ....                                           ..                 ..XXX  X",
"....                      ....                                           ..                 ..XXX  X",
"XX..                        ..                                         ....                   ..X   ",
"XX..                          .                                       ...                     ...   ",
"XX..                          .                                       ...                     ...   ",
"XX               X..                                                                          ...   ",
"XX               X..                                                                          ...   ",
"Xo  .          XXX...                                                                       .... ooX",
"oo  ...        .....                                     ...                          ........XXooo.",
"oo  ...        .....                                     ...                          ........XXooo.",
"..   .....     ...                                         .                            ....  oooXX.",
"..   .....     ...                                         .                            ....  oooXX.",
"XXXX         ....                                          .                                ....XXXX",
"XXXX.                                                      ....                             ....XXXX",
"XXXX.                                                      ....                             ....XXXX",
"XoooX                                                       ..X                             .....XXX",
"ooXXX                                       XX ..           ..XXX                               .XXX",
"ooXXX                                       XX ..           ..XXX                               .XXX",
"..XXX                         X...        XXXX...           ...XX..                             ...X",
"..XXX                         X...        XXXX...           ...XX..                             ...X",
"..XX                          .           .....                  ..                             .XXX",
".                                           ........                                  .....     .XXX",
".                                           ........                                  .....     .XXX",
".                                                                                                XX.",
". XX                                                                                             XX.",
". XX                                                                                             XX.",
"XXXX           ..                                                                     ..            ",
"XXXX           ..                                                                     ..            ",
"XXXXX            ...                                                                  .....         ",
"XX...                                                            ...                    ........ ..X",
"XX...                                                            ...                    ........ ..X",
".XXX.                         .                            .     ..                     ........XXXX",
".XXX.     .....             ...        ..                ..        .XXX                       ..XXXX",
".XXX.     .....             ...        ..                ..        .XXX                       ..XXXX",
"..XX ..   .......           ..        ...              ..   ..      .....                     XXoooo",
"..XX ..   .......           ..        ...              ..   ..      .....                     XXoooo",
".XXXXXXXX......      XXXX   ...                       ...   ..                             .  XXXXX.",
"..  XXX.....XXXXX    XXXX     ...                   ...     ..                             ...   ...",
"..  XXX.....XXXXX    XXXX     ...                   ...     ..                             ...   ...",
"..  oXX..XXXXXXXXX     XX.............   .....XXX .... ooXXX   XXXX                     .........XXX",
"..  oXX..XXXXXXXXX     XX.............   .....XXX .... ooXXX   XXXX                     .........XXX",
"....oooXX.XXX.......X    X     XX.....X       .........oooo   XXX...                  ...XXX..XXX...",
".XXXX....XXXXXX...XXXXXXX   ..XXXX........XX                XXXXXXX...             XXX........XXX...",
".XXXX....XXXXXX...XXXXXXX   ..XXXX........XX                XXXXXXX...             XXX........XXX...",
".XXXX....XXXXXX...ooXXXXX...XXXXXXXXXXX...XXXX....    XXX...XXXXXXX...oXXXXX     XXXXXXXXXX...XXX...",
"XX...    ooooXX...XXoooXX.XXXXXXXXXXXXXXX.....XXXXXXXX...   oooooXX...XooooX..XXXXXXXXXXXXXX.....XXX",
"XX...    ooooXX...XXoooXX.XXXXXXXXXXXXXXX.....XXXXXXXX...   oooooXX...XooooX..XXXXXXXXXXXXXX.....XXX"
};
