/* XPM */
static char *Tile41663100809[] = {
/* columns rows colors chars-per-pixel */
"100 100 3 1 ",
"  c #202020",
". c #282828",
"X c #2F2F2F",
/* pixels */
"          .......................                             .......................               ",
"XXXXXXXXXXXXXXXX....                      .......   .......XXXXXXXXX................................",
"XXXXXXXXXXXXXXXX....                      .......   .......XXXXXXXXX................................",
"XXXXXXXXXXXXXXXX....                      .......   .......XXXXXXXXX................................",
"XXXXXXX.............................XXXXXXXXXX...   ...XXXXXXXXXXXXX.......................XXXXXXX..",
"XXXXXXX.............................XXXXXXXXXX...   ...XXXXXXXXXXXXX.......................XXXXXXX..",
"XXXXXXX.............................XXXXXXXXXX...   ...XXXXXXXXXXXXX.......................XXXXXXX..",
"XXXXXXX..........................XXXXXXXXXXXXX..........................................XXXXXXXXXXXX",
"XXXXXXX..........................XXXXXXXXXXXXX..........................................XXXXXXXXXXXX",
"XXXXXXX..........................XXXXXXXXXXXXX..........................................XXXXXXXXXXXX",
"XXXXXXX..........................XXXXXXXXXXXXX..........................................XXXXXXXXXXXX",
"XXX..............................XXXXXXXXX....XXX.............................................XXXXXX",
"XXX..............................XXXXXXXXX....XXX.............................................XXXXXX",
"XXX..............................XXXXXXXXX....XXX.............................................XXXXXX",
".................................XXX..........XXX...................................................",
".................................XXX..........XXX...................................................",
".................................XXX..........XXX...................................................",
"..............................................XXX..........XXXXXXXXX................................",
"..............................................XXX..........XXXXXXXXX................................",
"..............................................XXX..........XXXXXXXXX................................",
"..............................................XXX   ...XXXXXXXXXX...................................",
"..............................................XXX   ...XXXXXXXXXX...................................",
"..............................................XXX   ...XXXXXXXXXX...................................",
"..............................................XXX   ...XXXXXXXXXX...................................",
".......XXX....................................XXX   ...XXXXXXX......................................",
".......XXX....................................XXX   ...XXXXXXX......................................",
".......XXX....................................XXX   ...XXXXXXX......................................",
"XXX.......XXX.................................XXX   .......................................XXXXXXX..",
"XXX.......XXX.................................XXX   .......................................XXXXXXX..",
"XXX.......XXX.................................XXX   .......................................XXXXXXX..",
"XXX..........................XXXXXXXXXX.......XXX   .......................................XXX......",
"XXX..........................XXXXXXXXXX.......XXX   .......................................XXX......",
"XXX..........................XXXXXXXXXX.......XXX   .......................................XXX......",
"XXX..........................XXXXXXXXXX.......XXX   XXX.............XXXXXXX.............XXXXXX......",
"XXX..........................XXXXXXXXXX.......XXX   XXX.............XXXXXXX.............XXXXXX......",
"XXX..........................XXXXXXXXXX.......XXX   XXX.............XXXXXXX.............XXXXXX......",
"XXX..........................XXXXXXXXXX.......XXX   XXX.............XXXXXXX.............XXXXXX......",
"XXX..............................XXXXXXXXX....XXX   XXX..........XXX....XXX.........................",
"XXX..............................XXXXXXXXX....XXX   XXX..........XXX....XXX.........................",
"XXX..............................XXXXXXXXX....XXX   XXX..........XXX....XXX.........................",
"XXX...........................................XXX...XXX.......XXXXXXXXXX..........................XX",
"XXX...........................................XXX...XXX.......XXXXXXXXXX..........................XX",
"XXX...........................................XXX...XXX.......XXXXXXXXXX..........................XX",
"XXX....................XXXXXXXXXXXXXXXXXXXXXXX   ...XXX...........................................XX",
"XXX....................XXXXXXXXXXXXXXXXXXXXXXX   ...XXX...........................................XX",
"XXX....................XXXXXXXXXXXXXXXXXXXXXXX   ...XXX...........................................XX",
"XXXXXXXXXXXXXXXXXXXXXXXXXXXXXXXXXXXXXXXXXXXXXX   ......XXXXXXXXXXXXXXXXXXXXXXXXXXXXXXXXXXXXXXXXXXX..",
"XXXXXXXXXXXXXXXXXXXXXXXXXXXXXXXXXXXXXXXXXXXXXX   ......XXXXXXXXXXXXXXXXXXXXXXXXXXXXXXXXXXXXXXXXXXX..",
"XXXXXXXXXXXXXXXXXXXXXXXXXXXXXXXXXXXXXXXXXXXXXX   ......XXXXXXXXXXXXXXXXXXXXXXXXXXXXXXXXXXXXXXXXXXX..",
"XXXXXXXXXXXXXXXXXXXXXXXXXXXXXXXXXXXXXXXXXXXXXX   ......XXXXXXXXXXXXXXXXXXXXXXXXXXXXXXXXXXXXXXXXXXX..",
"                                    ..........   ................                                   ",
"                                    ..........   ................                                   ",
"                                    ..........   ................                                   ",
".................................XXXXXXXXXXXXXXXX      ....XXXXXXXXXXXXXXXXXXXXXXXXXX......       ..",
".................................XXXXXXXXXXXXXXXX      ....XXXXXXXXXXXXXXXXXXXXXXXXXX......       ..",
".................................XXXXXXXXXXXXXXXX      ....XXXXXXXXXXXXXXXXXXXXXXXXXX......       ..",
"XXX....XXX...................XXXXXXXXXXXXXXXXXXXX   ................XXXXXXXXXX.............         ",
"XXX....XXX...................XXXXXXXXXXXXXXXXXXXX   ................XXXXXXXXXX.............         ",
"XXX....XXX...................XXXXXXXXXXXXXXXXXXXX   ................XXXXXXXXXX.............         ",
".......XXXXXX.................................XXX   ................XXXXXXXXXX................      ",
".......XXXXXX.................................XXX   ................XXXXXXXXXX................      ",
".......XXXXXX.................................XXX   ................XXXXXXXXXX................      ",
".......XXXXXX.................................XXX   ................XXXXXXXXXX................      ",
"..........XXXXXX..............................XXX   ....................XXXXXXXXX.................  ",
"..........XXXXXX..............................XXX   ....................XXXXXXXXX.................  ",
"..........XXXXXX..............................XXX   ....................XXXXXXXXX.................  ",
".......XXXXXX.............................XXXXXXX   ..........................XXX.................  ",
".......XXXXXX.............................XXXXXXX   ..........................XXX.................  ",
".......XXXXXX.............................XXXXXXX   ..........................XXX.................  ",
".................................................   ................................................",
".................................................   ................................................",
".................................................   ................................................",
".................................................   XXX....XXX......................................",
".................................................   XXX....XXX......................................",
".................................................   XXX....XXX......................................",
".................................................   XXX....XXX......................................",
".......................XXX.......................   XXX....XXXXXX...................................",
".......................XXX.......................   XXX....XXXXXX...................................",
".......................XXX.......................   XXX....XXXXXX...................................",
"....................XXXXXX.......................   XXX....XXXXXXXXX..............................XX",
"....................XXXXXX.......................   XXX....XXXXXXXXX..............................XX",
"....................XXXXXX.......................   XXX....XXXXXXXXX..............................XX",
"XXX.............XXXXXXX..........................   XXX.......XXX................XXXX.............XX",
"XXX.............XXXXXXX..........................   XXX.......XXX................XXXX.............XX",
"XXX.............XXXXXXX..........................   XXX.......XXX................XXXX.............XX",
"XXX..........XXXXXXX.........XXXXXXXXXX..........   XXX.......................XXXXXXXXXX..........XX",
"XXX..........XXXXXXX.........XXXXXXXXXX..........   XXX.......................XXXXXXXXXX..........XX",
"XXX..........XXXXXXX.........XXXXXXXXXX..........   XXX.......................XXXXXXXXXX..........XX",
"XXX..........XXXXXXX.........XXXXXXXXXX..........   XXX.......................XXXXXXXXXX..........XX",
"XXX..............................XXXXXXXXX.......   XXX....................XXXXXXXXXX.............XX",
"XXX..............................XXXXXXXXX.......   XXX....................XXXXXXXXXX.............XX",
"XXX..............................XXXXXXXXX.......   XXX....................XXXXXXXXXX.............XX",
"XXX.................................XXXXXX....XXX   XXX...........................................XX",
"XXX.................................XXXXXX....XXX   XXX...........................................XX",
"XXX.................................XXXXXX....XXX   XXX...........................................XX",
"XXXXXXX.......................................XXX   XXXXXXXXXXXXX.................................XX",
"XXXXXXX.......................................XXX   XXXXXXXXXXXXX.................................XX",
"XXXXXXX.......................................XXX   XXXXXXXXXXXXX.................................XX",
".......XXXXXXXXXXXXXXXXXXXXXXXXXXXXXXXX                    XXXXXXXXXXXXXXXXXXXXXXXXXXXXXXXXXXXXXXXXX",
".......XXXXXXXXXXXXXXXXXXXXXXXXXXXXXXXX                    XXXXXXXXXXXXXXXXXXXXXXXXXXXXXXXXXXXXXXXXX"
};
