/* XPM */
static char *Tile21663100808[] = {
/* columns rows colors chars-per-pixel */
"100 100 4 1 ",
"  c #202020",
". c #282828",
"X c #2F2F2F",
"o c gray22",
/* pixels */
"XXXXXXXXXXXXXXXXXXXXXXXXX..........................................XXXXXXXXXXXXXXXXXXXXXXX   XXXXXXX",
"XXXXXXXXXXXXXXXXXXXXXXXXX..........................................XXXXXXXXXXXXXXXXXXXXXXX   XXXXXXX",
"XXXXXXXXXXXXXXXXXXXXXXXXX..........................................XXXXXXXXXXXXXXXXXXXXXXX   XXXXXXX",
"XXXXXXXXXXXXXXXXXXXXXXXXX...XXXXXXXXXXXXXXXXXXXXXXXXXXXXXXXXXXXX...XXXXXXXXXXXXXXXXXXXXXXX   XXXXXXX",
"XXXXXXXXXXXXXXXXXXXXXXXXX...XXXXXXXXXXXXXXXXXXXXXXXXXXXXXXXXXXXX...XXXXXXXXXXXXXXXXXXXXXXX   XXXXXXX",
"XXXXXXXXXXXXXXXXXXXXXXXXX...XXXXXXXXXXXXXXXXXXXXXXXXXXXXXXXXXXXX...XXXXXXXXXXXXXXXXXXXXXXX   XXXXXXX",
"XXXXXXXXXXXXXXXXXXXXXXXXX...XXXXXXXXXXXXXXXXXXXXXXXXXXXXXXXXXXXX...XXXXXXXXXXXXXXXXXXXXXXX   XXXXXXX",
"XXXXXXXXXXXXXXXXXXXXXXXXX   XXXXXXXXXXXXXXXXXXXXXXXXXXXXXXXXXXXX...ooooooooooooooooooooooo...XXXXXXX",
"XXXXXXXXXXXXXXXXXXXXXXXXX   XXXXXXXXXXXXXXXXXXXXXXXXXXXXXXXXXXXX...ooooooooooooooooooooooo...XXXXXXX",
"XXXXXXXXXXXXXXXXXXXXXXXXX   XXXXXXXXXXXXXXXXXXXXXXXXXXXXXXXXXXXX...ooooooooooooooooooooooo...XXXXXXX",
"XXXXXXXXXXXXXXXXXXXXXXXXX   oooooooooooooXXXXXXXXXXXXXXXXXXXXXXX             ................XXXXXXX",
"XXXXXXXXXXXXXXXXXXXXXXXXX   oooooooooooooXXXXXXXXXXXXXXXXXXXXXXX             ................XXXXXXX",
"XXXXXXXXXXXXXXXXXXXXXXXXX   oooooooooooooXXXXXXXXXXXXXXXXXXXXXXX             ................XXXXXXX",
"XXXXXXXXooooooooooooooooo         ..........................       XXXXXXXXXXXXXXXXXXXXXXX...XXXXXXX",
"XXXXXXXXooooooooooooooooo         ..........................       XXXXXXXXXXXXXXXXXXXXXXX...XXXXXXX",
"XXXXXXXXooooooooooooooooo         ..........................       XXXXXXXXXXXXXXXXXXXXXXX...XXXXXXX",
"........                    ......XXXXXXXXXXXXXXXXXXXXXXXXXXXXXX...XXXXXXXXXXXXXXXXXXXXXXX..........",
"........                    ......XXXXXXXXXXXXXXXXXXXXXXXXXXXXXX...XXXXXXXXXXXXXXXXXXXXXXX..........",
"........                    ......XXXXXXXXXXXXXXXXXXXXXXXXXXXXXX...XXXXXXXXXXXXXXXXXXXXXXX..........",
"........                    ......XXXXXXXXXXXXXXXXXXXXXXXXXXXXXX...XXXXXXXXXXXXXXXXXXXXXXX..........",
"XXXXXXXXXXXXXXX   XXXXXXXXXXXXX...XXXXXXXXXXXXXXXXXXXXXXXXXXXXXX...XXXXXXXXXXXXXXXXXXX.......XXXXXX.",
"XXXXXXXXXXXXXXX   XXXXXXXXXXXXX...XXXXXXXXXXXXXXXXXXXXXXXXXXXXXX...XXXXXXXXXXXXXXXXXXX.......XXXXXX.",
"XXXXXXXXXXXXXXX   XXXXXXXXXXXXX...XXXXXXXXXXXXXXXXXXXXXXXXXXXXXX...XXXXXXXXXXXXXXXXXXX.......XXXXXX.",
"XXXXXXXXXXXXXXX...XXXXXXXXXXXXX...ooooXXXXXXXXXXXXXXXXXXXXXXoooo...XXXXXXXXXXXXXXXXXXX....XXXXXXXXX.",
"XXXXXXXXXXXXXXX...XXXXXXXXXXXXX...ooooXXXXXXXXXXXXXXXXXXXXXXoooo...XXXXXXXXXXXXXXXXXXX....XXXXXXXXX.",
"XXXXXXXXXXXXXXX...XXXXXXXXXXXXX...ooooXXXXXXXXXXXXXXXXXXXXXXoooo...XXXXXXXXXXXXXXXXXXX....XXXXXXXXX.",
"..      ..........XXXXXXXXXXXXX   oooooooooooooooooXXXXXXooooooo   oooXXXXXXXXXXXXXXXX....XXXXXXXXX.",
"..      ..........XXXXXXXXXXXXX   oooooooooooooooooXXXXXXooooooo   oooXXXXXXXXXXXXXXXX....XXXXXXXXX.",
"..      ..........XXXXXXXXXXXXX   oooooooooooooooooXXXXXXooooooo   oooXXXXXXXXXXXXXXXX....XXXXXXXXX.",
"     XXXXXXXXXX......XXXXXXXXXX   .......................             ooooooooooXXX.............    ",
"     XXXXXXXXXX......XXXXXXXXXX   .......................             ooooooooooXXX.............    ",
"     XXXXXXXXXX......XXXXXXXXXX   .......................             ooooooooooXXX.............    ",
"     XXXXXXXXXX......XXXXXXXXXX   .......................             ooooooooooXXX.............    ",
"XX   XXXXXXXXXXXXX..........          .........XXXXXXXXXXXXXXXXXXXX          ................XXXXXXX",
"XX   XXXXXXXXXXXXX..........          .........XXXXXXXXXXXXXXXXXXXX          ................XXXXXXX",
"XX   XXXXXXXXXXXXX..........          .........XXXXXXXXXXXXXXXXXXXX          ................XXXXXXX",
"XX...XXXXXXXXXXXXX...XXXXXXXXXXXXXXXXXXXXXXX...XXXXXXXXXXXXXXXXXXXX   XXXXXXXXXXXXXXXXXXXXXXXXXXXXXX",
"XX...XXXXXXXXXXXXX...XXXXXXXXXXXXXXXXXXXXXXX...XXXXXXXXXXXXXXXXXXXX   XXXXXXXXXXXXXXXXXXXXXXXXXXXXXX",
"XX...XXXXXXXXXXXXX...XXXXXXXXXXXXXXXXXXXXXXX...XXXXXXXXXXXXXXXXXXXX   XXXXXXXXXXXXXXXXXXXXXXXXXXXXXX",
"XX...XXXXXXXXXXXXX...XXXXXXXXXXXXXXXXXXXXXXX...XXXXXXXXXXXXXXXXXXXX   XXXXXXXXXXXXXXXXXXXXXXXXXXXXXX",
"XX...XXXXXXXXXXXXX...XXXXXXXXXXXXXXXXXXXXXXX...XXXXXXXXXXXXXXXXXXXX   XXXXXXXXXXXXXXXXXXXXXXXXXXXXXX",
"XX...XXXXXXXXXXXXX...XXXXXXXXXXXXXXXXXXXXXXX...XXXXXXXXXXXXXXXXXXXX   XXXXXXXXXXXXXXXXXXXXXXXXXXXXXX",
"XX...oooXXXXXXXXXX...XXXXXXXXXXXXXXXXXXXXXXX...XXXXXXXXXXXXXXXXXooo...XXXXXXXXXXXXXXXXXXXXXXXXXXXXXX",
"XX...oooXXXXXXXXXX...XXXXXXXXXXXXXXXXXXXXXXX...XXXXXXXXXXXXXXXXXooo...XXXXXXXXXXXXXXXXXXXXXXXXXXXXXX",
"XX...oooXXXXXXXXXX...XXXXXXXXXXXXXXXXXXXXXXX...XXXXXXXXXXXXXXXXXooo...XXXXXXXXXXXXXXXXXXXXXXXXXXXXXX",
"XX...oooXXXXXXXXXX...XXXXXXXXXXXXXXXXXXXXXXX...XXXXXXXXXXXXXXXXXooo...XXXXXXXXXXXXXXXXXXXXXXXXXXXXXX",
"XX...ooooooooooXXX...oooooooooooooXXXXXXXXXX...XXXXXXXXXXXXXooooooo...XXXXXXXXXXXXXXXXXXXXXXXXXXXXXX",
"XX...ooooooooooXXX...oooooooooooooXXXXXXXXXX...XXXXXXXXXXXXXooooooo...XXXXXXXXXXXXXXXXXXXXXXXXXXXXXX",
"XX...ooooooooooXXX...oooooooooooooXXXXXXXXXX...XXXXXXXXXXXXXooooooo...XXXXXXXXXXXXXXXXXXXXXXXXXXXXXX",
"XX....................................................................ooooooooooooooooooooooooooXXXX",
"XX....................................................................ooooooooooooooooooooooooooXXXX",
"XX....................................................................ooooooooooooooooooooooooooXXXX",
"............................XXXXXXXXXXXXXXXXXXXXXXXXXX...       ....................................",
"............................XXXXXXXXXXXXXXXXXXXXXXXXXX...       ....................................",
"............................XXXXXXXXXXXXXXXXXXXXXXXXXX...       ....................................",
"XXXXXXXX.......XXXXXXXXXX...XXXXXXXXXXXXXXXXXXXXXXXXXXXXX   XXXXXXXXXXXXXXXXX.........XXXXXXXXXXXXXX",
"XXXXXXXX.......XXXXXXXXXX...XXXXXXXXXXXXXXXXXXXXXXXXXXXXX   XXXXXXXXXXXXXXXXX.........XXXXXXXXXXXXXX",
"XXXXXXXX.......XXXXXXXXXX...XXXXXXXXXXXXXXXXXXXXXXXXXXXXX   XXXXXXXXXXXXXXXXX.........XXXXXXXXXXXXXX",
"XXXXXXXX.......XXXXXXXXXX...XXXXXXXXXXXXXXXXXXXXXXXXXXXXX   XXXXXXXXXXXXXXXXX.........XXXXXXXXXXXXXX",
"XXXXXXXXXXXX...XXXXXXXXXX   ooooooooooooooooXXXXXXXXXXXXX   XXXXXXXXXXXXXXXXX...XXXXXXXXXXXXXXXXXXXX",
"XXXXXXXXXXXX...XXXXXXXXXX   ooooooooooooooooXXXXXXXXXXXXX   XXXXXXXXXXXXXXXXX...XXXXXXXXXXXXXXXXXXXX",
"XXXXXXXXXXXX...XXXXXXXXXX   ooooooooooooooooXXXXXXXXXXXXX   XXXXXXXXXXXXXXXXX...XXXXXXXXXXXXXXXXXXXX",
"XXXXXXXXXXXX...XXXXXXXXXX             ......................ooooXXXXXXXXXXXXX   XXXXXXXXXXXXXXXXXXXX",
"XXXXXXXXXXXX...XXXXXXXXXX             ......................ooooXXXXXXXXXXXXX   XXXXXXXXXXXXXXXXXXXX",
"XXXXXXXXXXXX...XXXXXXXXXX             ......................ooooXXXXXXXXXXXXX   XXXXXXXXXXXXXXXXXXXX",
"XXXXXXXXoooo...XXXXXXXXXX   XXXXXXXXXXXXXXXXXXXXXXX.........ooooooooooXXXXXXX   XXXXXXXXXXXXXoooXXXX",
"XXXXXXXXoooo...XXXXXXXXXX   XXXXXXXXXXXXXXXXXXXXXXX.........ooooooooooXXXXXXX   XXXXXXXXXXXXXoooXXXX",
"XXXXXXXXoooo...XXXXXXXXXX   XXXXXXXXXXXXXXXXXXXXXXX.........ooooooooooXXXXXXX   XXXXXXXXXXXXXoooXXXX",
"XXXXXooooooo...oooXXXXXXX   XXXXXXXXXXXXXXXXXXXXXXX.............                      oooooooXXXXXXX",
"XXXXXooooooo...oooXXXXXXX   XXXXXXXXXXXXXXXXXXXXXXX.............                      oooooooXXXXXXX",
"XXXXXooooooo...oooXXXXXXX   XXXXXXXXXXXXXXXXXXXXXXX.............                      oooooooXXXXXXX",
"XXXXXooooooo...oooXXXXXXX   XXXXXXXXXXXXXXXXXXXXXXX.............                      oooooooXXXXXXX",
"..................       XXXXXXXXXXXXXXXXXXXXXXXXXX...XXXXXXXXXXXXXXXX   XXXXXXXXXX.................",
"..................       XXXXXXXXXXXXXXXXXXXXXXXXXX...XXXXXXXXXXXXXXXX   XXXXXXXXXX.................",
"..................       XXXXXXXXXXXXXXXXXXXXXXXXXX...XXXXXXXXXXXXXXXX   XXXXXXXXXX.................",
"XXXXXXXXXXXXXXXXXXXXX    XXXXXXXXXXXXXXXXXXXXXXXXXX...XXXXXXXXXXXXXXXX   XXXXXXXXXXXXXXXXXXXXXXXXXX.",
"XXXXXXXXXXXXXXXXXXXXX    XXXXXXXXXXXXXXXXXXXXXXXXXX...XXXXXXXXXXXXXXXX   XXXXXXXXXXXXXXXXXXXXXXXXXX.",
"XXXXXXXXXXXXXXXXXXXXX    XXXXXXXXXXXXXXXXXXXXXXXXXX...XXXXXXXXXXXXXXXX   XXXXXXXXXXXXXXXXXXXXXXXXXX.",
"XXXXXXXXXXXXXXXXXXXXX    XXXXXXXXXXXXXXXXXXXXXXXXXX...XXXXXXXXXXXXXXXX...XXXXXXXXXXXXXXXXXXXXXXXXXX.",
"XXXXXXXXXXXXXXXXXXXXX    XXXXXXXXXXXXXXXXXXXXXXXXXX...XXXXXXXXXXXXXXXX...XXXXXXXXXXXXXXXXXXXXXXXXXX.",
"XXXXXXXXXXXXXXXXXXXXX    XXXXXXXXXXXXXXXXXXXXXXXXXX...XXXXXXXXXXXXXXXX...XXXXXXXXXXXXXXXXXXXXXXXXXX.",
"XXXXXXXXXXXXXXXXXXXXX    oooooooooooooooooooXXXXXXX...XXXXXXXXXXXXXXXX...XXXXXXXXXXXXXXXXXXXXXXXXXX.",
"XXXXXXXXXXXXXXXXXXXXX    oooooooooooooooooooXXXXXXX...XXXXXXXXXXXXXXXX...XXXXXXXXXXXXXXXXXXXXXXXXXX.",
"XXXXXXXXXXXXXXXXXXXXX    oooooooooooooooooooXXXXXXX...XXXXXXXXXXXXXXXX...XXXXXXXXXXXXXXXXXXXXXXXXXX.",
"XXXXXXXXXXXXXXXXXXXXX    oooooooooooooooooooXXXXXXX...XXXXXXXXXXXXXXXX...XXXXXXXXXXXXXXXXXXXXXXXXXX.",
"XXXXXXXXXXXXXXXXXXooo          .......................oooooooooooooooo...XXXXXXXXXXXXXXXXXXXXXXX   .",
"XXXXXXXXXXXXXXXXXXooo          .......................oooooooooooooooo...XXXXXXXXXXXXXXXXXXXXXXX   .",
"XXXXXXXXXXXXXXXXXXooo          .......................oooooooooooooooo...XXXXXXXXXXXXXXXXXXXXXXX   .",
"XXXXXoooooooooooooooo    ...XXXXXXXXXXXXXXXXXXXXXXX................................             ....",
"XXXXXoooooooooooooooo    ...XXXXXXXXXXXXXXXXXXXXXXX................................             ....",
"XXXXXoooooooooooooooo    ...XXXXXXXXXXXXXXXXXXXXXXX................................             ....",
"...............          ...XXXXXXXXXXXXXXXXXXXXXXXXXXXXXXXXXXXX...XXXXXXXXXXXXXXXXXXXXXXX   .......",
"...............          ...XXXXXXXXXXXXXXXXXXXXXXXXXXXXXXXXXXXX...XXXXXXXXXXXXXXXXXXXXXXX   .......",
"...............          ...XXXXXXXXXXXXXXXXXXXXXXXXXXXXXXXXXXXX...XXXXXXXXXXXXXXXXXXXXXXX   .......",
"XXXXXXXXXXXXXXXXXXXXXXXXX...XXXXXXXXXXXXXXXXXXXXXXXXXXXXXXXXXXXX...ooooooooooXXXXXXXXXXXXX   ...XXXX",
"XXXXXXXXXXXXXXXXXXXXXXXXX...XXXXXXXXXXXXXXXXXXXXXXXXXXXXXXXXXXXX...ooooooooooXXXXXXXXXXXXX   ...XXXX",
"XXXXXXXXXXXXXXXXXXXXXXXXX...XXXXXXXXXXXXXXXXXXXXXXXXXXXXXXXXXXXX...ooooooooooXXXXXXXXXXXXX   ...XXXX",
"XXXXXXXXXXXXXXXXXXXXXXXXX...XXXXXXXXXXXXXXXXXXXXXXXXXXXXXXXXXXXX...ooooooooooXXXXXXXXXXXXX   ...XXXX",
"XXXXXXXXXXXXXXXXXXXXXXXXX...XXXXXXXXXXXXXXXXXXXXXXXXXXXXXXXXXXXX..........................   XXXXXXX",
"XXXXXXXXXXXXXXXXXXXXXXXXX...XXXXXXXXXXXXXXXXXXXXXXXXXXXXXXXXXXXX..........................   XXXXXXX"
};
