/* XPM */
static char *Tile01663100808[] = {
/* columns rows colors chars-per-pixel */
"100 100 4 1 ",
"  c #202020",
". c #282828",
"X c #2F2F2F",
"o c gray22",
/* pixels */
"XX.......XXXXXXXXXXXXX.........XXXXXXXXXXXXXXXXX   ......XXXXXXXXXXXXX             .................",
"XX.......XXXXXXXXXXXXX.........XXXXXXXXXXXXXXXXX   ......XXXXXXXXXXXXX             .................",
"XXXXXXXXX...XXXXXXXXXX......XXXXXXXXXXXXXXXXXXXX   XXXXXX....XXXXXXXXX    ..........................",
"XXXXXXXXX...XXXXXXXXXX......XXXXXXXXXXXXXXXXXXXX   XXXXXX....XXXXXXXXX    ..........................",
"XXXXXXXXX...XXXXXXXXXX......XXXXXXXXXXXXXXXXXXXX   XXXXXX....XXXXXXXXX    ..........................",
"XXXXXXXXX...XXXXXXXXXX......XXXXXXXXXXXXXXXXXXXX   XXXXXX....XXXXXXXXX    ..........................",
"XXXXXXXXXXXXXXXXXXXXXX...XXXXXXXXXXXXXXXXXXXXXXX   XXXXXXXXXXXXXXXXXXX    ..........................",
"XXXXXXXXXXXXXXXXXXXXXX...XXXXXXXXXXXXXXXXXXXXXXX   XXXXXXXXXXXXXXXXXXX    ..........................",
"XXXXXXXXXXXXXXXXXXXXXX...XXXXXXXXXXXXXXXXXXXXXXX   XXXXXXXXXXXXXXXXXXX    ..........................",
"XXXXXXXXXXXXXXXXXXXXXX...XXXXXXXXXXXXXXXXXXXXXXX...XXXXXXXXXXXXXXXXXXX..............................",
"XXXXXXXXXXXXXXXXXXXXXX...XXXXXXXXXXXXXXXXXXXXXXX...XXXXXXXXXXXXXXXXXXX..............................",
"XXXXXXXXXXXXXXXXXXXXXX...XXXXXXXXXXXXXXXXXXXXXXX...XXXXXXXXXXXXXXXXXXX..............................",
"XXXXXXXXXXXXXXXXXXXXXX...XXXXXXXXXXXXXXXXXXXXXXX...XXXXXXXXXXXXXXXXooo..............................",
"XXXXXXXXXXXXXXXXXXXXXX...XXXXXXXXXXXXXXXXXXXXXXX...XXXXXXXXXXXXXXXXooo..............................",
"XXXXXXXXXXXXXXXXXXXXXX...XXXXXXXXXXXXXXXXXXXXXXX...XXXXXXXXXXXXXXXXooo..............................",
"XXXXXoooooooooooooXXXX...oooXXXXXXXXXXXXXXXXXXXX...XXXXXXXXXXXXXXXXooo....XXXXXXXXXXXXXXXXXXXXXXXXXX",
"XXXXXoooooooooooooXXXX...oooXXXXXXXXXXXXXXXXXXXX...XXXXXXXXXXXXXXXXooo....XXXXXXXXXXXXXXXXXXXXXXXXXX",
"XXXXXoooooooooooooXXXX...oooXXXXXXXXXXXXXXXXXXXX...XXXXXXXXXXXXXXXXooo....XXXXXXXXXXXXXXXXXXXXXXXXXX",
"XXXXXoooooooooooooXXXX...oooXXXXXXXXXXXXXXXXXXXX...XXXXXXXXXXXXXXXXooo....XXXXXXXXXXXXXXXXXXXXXXXXXX",
".........................ooooooooooooooooXXXXXXX...XXXoooooooooooooooo..............................",
".........................ooooooooooooooooXXXXXXX...XXXoooooooooooooooo..............................",
".........................ooooooooooooooooXXXXXXX...XXXoooooooooooooooo..............................",
"XXXXX..............................         .................................XXXXXXXXXXXXXXXX...XXXX",
"XXXXX..............................         .................................XXXXXXXXXXXXXXXX...XXXX",
"XXXXX..............................         .................................XXXXXXXXXXXXXXXX...XXXX",
"XXXXXXXXX...XXX................       .......................XXXXXX...XXXX...XXXXXXXXXXXXX...XXX....",
"XXXXXXXXX...XXX................       .......................XXXXXX...XXXX...XXXXXXXXXXXXX...XXX....",
"XXXXXXXXX...XXX................       .......................XXXXXX...XXXX...XXXXXXXXXXXXX...XXX....",
"XXXXXXXXXXXXXXX.............       ..........................XXXXXX...XXXX...XXXXXXXXXXXXX...XXXXXXX",
"XXXXXXXXXXXXXXX.............       ..........................XXXXXX...XXXX...XXXXXXXXXXXXX...XXXXXXX",
"XXXXXXXXXXXXXXX.............       ..........................XXXXXX...XXXX...XXXXXXXXXXXXX...XXXXXXX",
"XXXXXXXXXXXXXXX.............       ..........................XXXXXX...XXXX...XXXXXXXXXXXXX...XXXXXXX",
"XXXXXXXXXXXXXXX..........   .................................XXX...XXXXXXX...XXXXXXXXXXXXXXXX...XXXX",
"XXXXXXXXXXXXXXX..........   .................................XXX...XXXXXXX...XXXXXXXXXXXXXXXX...XXXX",
"XXXXXXXXXXXXXXX..........   .................................XXX...XXXXXXX...XXXXXXXXXXXXXXXX...XXXX",
"XXXXXXXXXXXXXXX..............................................XXXXXXXXXXXXX...XXXXXXXXXXXXXXXXXXXXXXX",
"XXXXXXXXXXXXXXX..............................................XXXXXXXXXXXXX...XXXXXXXXXXXXXXXXXXXXXXX",
"XXXXXXXXXXXXXXX..............................................XXXXXXXXXXXXX...XXXXXXXXXXXXXXXXXXXXXXX",
"XXXXXXXXXXXXXXX.......................................XXX....XXXXXXXXXXXXX...XXXXXXXXXXXXXXXXXXXXXXX",
"XXXXXXXXXXXXXXX.......................................XXX....XXXXXXXXXXXXX...XXXXXXXXXXXXXXXXXXXXXXX",
"XXXXXXXXXXXXXXX.......................................XXX....XXXXXXXXXXXXX...XXXXXXXXXXXXXXXXXXXXXXX",
"XXXXXXXXXXXXXXX.............XXXXXXXXXX................XXX....XXXXXXXXXXXXX...XXXXXXXXXXXXXXXXXXXXXXX",
"XXXXXXXXXXXXXXX.............XXXXXXXXXX................XXX....XXXXXXXXXXXXX...XXXXXXXXXXXXXXXXXXXXXXX",
"XXXXXXXXXXXXXXX.............XXXXXXXXXX................XXX....XXXXXXXXXXXXX...XXXXXXXXXXXXXXXXXXXXXXX",
"XXXXXXXXXXXXXXX.............XXXXXXXXXX................XXX....XXXXXXXXXXXXX...XXXXXXXXXXXXXXXXXXXXXXX",
"XXXXXoooooooooo.......................XXXXXXXXXXXXXXXX.......ooooooooooooo...oooooooooooooooooooXXXX",
"XXXXXoooooooooo.......................XXXXXXXXXXXXXXXX.......ooooooooooooo...oooooooooooooooooooXXXX",
"XXXXXoooooooooo.......................XXXXXXXXXXXXXXXX.......ooooooooooooo...oooooooooooooooooooXXXX",
"....................................................................................................",
"....................................................................................................",
"....................................................................................................",
"XXXXX.......XXXXXXXXXXXXXXXX...                 ......XXXXXXXXXXXXXXXXXXXXXXXXXXXXX....XXXXXXXXXXXXX",
"XXXXX.......XXXXXXXXXXXXXXXX...                 ......XXXXXXXXXXXXXXXXXXXXXXXXXXXXX....XXXXXXXXXXXXX",
"XXXXX.......XXXXXXXXXXXXXXXX...                 ......XXXXXXXXXXXXXXXXXXXXXXXXXXXXX....XXXXXXXXXXXXX",
"XXXXXXXXX...XXXXXXXXXXXXXXXX...       .............XXXXXXXXXXXXXXXXXXXXXXXXXXXXXXXX....XXXXXXXXXXXXX",
"XXXXXXXXX...XXXXXXXXXXXXXXXX...       .............XXXXXXXXXXXXXXXXXXXXXXXXXXXXXXXX....XXXXXXXXXXXXX",
"XXXXXXXXX...XXXXXXXXXXXXXXXX...       .............XXXXXXXXXXXXXXXXXXXXXXXXXXXXXXXX....XXXXXXXXXXXXX",
"XXXXXXXXX...XXXXXXXXXXXXXXXX...       .............XXXXXXXXXXXXXXXXXXXXXXXXXXXXXXXX....XXXXXXXXXXXXX",
"XXXXXXXXXXXX...XXXXXXXXXXXXX   ....................XXXXXXXXXX...XXXXXXXXXXXXXXXXXXX....XXXXXXXXXXXXX",
"XXXXXXXXXXXX...XXXXXXXXXXXXX   ....................XXXXXXXXXX...XXXXXXXXXXXXXXXXXXX....XXXXXXXXXXXXX",
"XXXXXXXXXXXX...XXXXXXXXXXXXX   ....................XXXXXXXXXX...XXXXXXXXXXXXXXXXXXX....XXXXXXXXXXXXX",
"XXXXXXXXXXXXXXXXXXXXXXXXXooo   ....................XXXXXXXXXX...XXXXXXXXXXXXXXXXXXX....XXXXXXXXXXXXX",
"XXXXXXXXXXXXXXXXXXXXXXXXXooo   ....................XXXXXXXXXX...XXXXXXXXXXXXXXXXXXX....XXXXXXXXXXXXX",
"XXXXXXXXXXXXXXXXXXXXXXXXXooo   ....................XXXXXXXXXX...XXXXXXXXXXXXXXXXXXX....XXXXXXXXXXXXX",
"XXXXXXXXXXXXXXXXXXXXXXXXXooo   ....................XXXXXXXXXXXXX...XXXXXXXXXXXXXooo....XXXXXXXXXXXXX",
"XXXXXXXXXXXXXXXXXXXXXXXXXooo   ....................XXXXXXXXXXXXX...XXXXXXXXXXXXXooo....XXXXXXXXXXXXX",
"XXXXXXXXXXXXXXXXXXXXXXXXXooo   ....................XXXXXXXXXXXXX...XXXXXXXXXXXXXooo....XXXXXXXXXXXXX",
"XXXXXXXXXXXXXXXXXXoooooooooo.......................oooXXXXXXXXXXXXXXXXXXXXXXXXXXooo    XXXXXXXXXoooo",
"XXXXXXXXXXXXXXXXXXoooooooooo.......................oooXXXXXXXXXXXXXXXXXXXXXXXXXXooo    XXXXXXXXXoooo",
"XXXXXXXXXXXXXXXXXXoooooooooo.......................oooXXXXXXXXXXXXXXXXXXXXXXXXXXooo    XXXXXXXXXoooo",
"XXXXXXXXXXXXXXXXXXoooooooooo.......................oooXXXXXXXXXXXXXXXXXXXXXXXXXXooo    XXXXXXXXXoooo",
".....                       .......................ooooooXXXXXXXXXXoooooooooooooooo    XXXoooooooooo",
".....                       .......................ooooooXXXXXXXXXXoooooooooooooooo    XXXoooooooooo",
".....                       .......................ooooooXXXXXXXXXXoooooooooooooooo    XXXoooooooooo",
"XXXXXXXXXXXX......    ...XXXXXXXXXXXXX......XXXX.............................                .......",
"XXXXXXXXXXXX......    ...XXXXXXXXXXXXX......XXXX.............................                .......",
"XXXXXXXXXXXX......    ...XXXXXXXXXXXXX......XXXX.............................                .......",
"XXXXXXXXXXXXXXX..........XXXXXXXXXX...XXXXXXXXXXXXXXXXXXXXXXXXXXXXX...          ....................",
"XXXXXXXXXXXXXXX..........XXXXXXXXXX...XXXXXXXXXXXXXXXXXXXXXXXXXXXXX...          ....................",
"XXXXXXXXXXXXXXX..........XXXXXXXXXX...XXXXXXXXXXXXXXXXXXXXXXXXXXXXX...          ....................",
"XXXXXXXXXXXX...XXXXXXX...XXXXXXXXXXXXXXXXXXXXXXXXXXXXXXXXXXXXXXXXXX       ..........................",
"XXXXXXXXXXXX...XXXXXXX...XXXXXXXXXXXXXXXXXXXXXXXXXXXXXXXXXXXXXXXXXX       ..........................",
"XXXXXXXXXXXX...XXXXXXX...XXXXXXXXXXXXXXXXXXXXXXXXXXXXXXXXXXXXXXXXXX       ..........................",
"XXXXXXXXXXXX...XXXXXXX...XXXXXXXXXXXXXXXXXXXXXXXXXXXXXXXXXXXXXXXXXX       ..........................",
"XXXXXXXXXXXXXXXXXXXXXX...XXXXXXXXXXXXXXXXXXXXXXXXXXXXXXXXXXXXXXXXXX   ..............................",
"XXXXXXXXXXXXXXXXXXXXXX...XXXXXXXXXXXXXXXXXXXXXXXXXXXXXXXXXXXXXXXXXX   ..............................",
"XXXXXXXXXXXXXXXXXXXXXX...XXXXXXXXXXXXXXXXXXXXXXXXXXXXXXXXXXXXXXXXXX   ..............................",
"XXXXXXXXXXXXXXXXXXXXXX...XXXXXXXXXXXXXXXXXXXXXXXXXXXXXXXXXXXXXXXXXX.................................",
"XXXXXXXXXXXXXXXXXXXXXX...XXXXXXXXXXXXXXXXXXXXXXXXXXXXXXXXXXXXXXXXXX.................................",
"XXXXXXXXXXXXXXXXXXXXXX...XXXXXXXXXXXXXXXXXXXXXXXXXXXXXXXXXXXXXXXXXX.................................",
"XXXXXXXXXXXXXXXXXXXXXX...XXXXXXXXXXXXXXXXXXXXXXXXXXXXXXXXXXXXXXXXXX.................................",
"XXXXXXXXXXXXXXXXXXXXXX...XXXXXXXXXXXXXXXXXXXXXXXXXXXXXXXXXXXXXXXXXX.................................",
"XXXXXXXXXXXXXXXXXXXXXX...XXXXXXXXXXXXXXXXXXXXXXXXXXXXXXXXXXXXXXXXXX.................................",
"XXXXXXXXXXXXXXXXXXXXXX...XXXXXXXXXXXXXXXXXXXXXXXXXXXXXXXXXXXXXXXXXX.................................",
"XXXXXXXXXXXXXXXXXXoooo   XXXXXXXXXXXXXXXXXXXXXXXXXXXXXXXXXXXXXXXXXX   XXXX..........................",
"XXXXXXXXXXXXXXXXXXoooo   XXXXXXXXXXXXXXXXXXXXXXXXXXXXXXXXXXXXXXXXXX   XXXX..........................",
"XXXXXXXXXXXXXXXXXXoooo   XXXXXXXXXXXXXXXXXXXXXXXXXXXXXXXXXXXXXXXXXX   XXXX..........................",
"XXXXXXXXXooooooooooooo   ooooooooooooooooXXXXXXXXXXXXXXXXXXXXoooooo   XXXXXXXXXXXXXXXXX.............",
"XXXXXXXXXooooooooooooo   ooooooooooooooooXXXXXXXXXXXXXXXXXXXXoooooo   XXXXXXXXXXXXXXXXX.............",
"XXXXXXXXXooooooooooooo   ooooooooooooooooXXXXXXXXXXXXXXXXXXXXoooooo   XXXXXXXXXXXXXXXXX............."
};
