/* XPM */
static char *Tile61663100809[] = {
/* columns rows colors chars-per-pixel */
"100 100 4 1 ",
"  c #202020",
". c #282828",
"X c #2F2F2F",
"o c gray22",
/* pixels */
"XXXXXX.............XXXXXXXXXXXXX...XXXXXXXXXXXXXXXXXXXXXXX.............XXXXXXXXXXXXXXXXXXXXXXX...XXX",
"XXXXXX...XXXXXXX...XXXXXXXXXX......XXXXXXXXXXXXXXXXXXXXXXX.......      XXXXXXXXXX...XXXXXXXXXX...XXX",
"XXXXXX...XXXXXXX...XXXXXXXXXX......XXXXXXXXXXXXXXXXXXXXXXX.......      XXXXXXXXXX...XXXXXXXXXX...XXX",
"XXXXXX...XXXXXXX...XXXXXXXXXX......XXXXXXXXXXXXXXXXXXXXXXX.......      XXXXXXXXXX...XXXXXXXXXX...XXX",
".........XXXXXXX...oooXXXXXXXXXXXXXXXXX.............XXXXXX                    ...XXXXXXXXXXXXX   XXX",
".........XXXXXXX...oooXXXXXXXXXXXXXXXXX.............XXXXXX                    ...XXXXXXXXXXXXX   XXX",
".........XXXXXXX...oooXXXXXXXXXXXXXXXXX.............XXXXXX                    ...XXXXXXXXXXXXX   XXX",
"XXXXXX...XXXXXXX...ooooooooooXXXXXXXXXXXXX...XXXXXXXXXXXXXXXX    XXXXXX   XXXX...XXXXXXXXXXXXX      ",
"XXXXXX...XXXXXXX...ooooooooooXXXXXXXXXXXXX...XXXXXXXXXXXXXXXX    XXXXXX   XXXX...XXXXXXXXXXXXX      ",
"XXXXXX...XXXXXXX...ooooooooooXXXXXXXXXXXXX...XXXXXXXXXXXXXXXX    XXXXXX   XXXX...XXXXXXXXXXXXX      ",
"XXXXXX..........................XXXXXXXXXX...XXXXXXXooooooooo    XXXXXXXXXXXXX...XXXoooooooXXX      ",
"XXXXXX..........................XXXXXXXXXX...XXXXXXXooooooooo    XXXXXXXXXXXXX...XXXoooooooXXX      ",
"XXXXXX..........................XXXXXXXXXX...XXXXXXXooooooooo    XXXXXXXXXXXXX...XXXoooooooXXX      ",
"XXXXXX..........................XXXXXXXXXX...XXXXXXXooooooooo    XXXXXXXXXXXXX...XXXoooooooXXX      ",
"XXXXXX   XXXXXXX......XXXXXXXXXXXXXXXXX......XXXXXXX.........    XXX...XXXXXXX.............         ",
"XXXXXX   XXXXXXX......XXXXXXXXXXXXXXXXX......XXXXXXX.........    XXX...XXXXXXX.............         ",
"XXXXXX   XXXXXXX......XXXXXXXXXXXXXXXXX......XXXXXXX.........    XXX...XXXXXXX.............         ",
"XXXooo   XXXXXXXXXX...XXXXXXXXXXXXXXXXXXXX...XXXXXXX......XXXXXXX...XXXXXXXXXXXXXXXXXXX       oooXXX",
"XXXooo   XXXXXXXXXX...XXXXXXXXXXXXXXXXXXXX...XXXXXXX......XXXXXXX...XXXXXXXXXXXXXXXXXXX       oooXXX",
"XXXooo   XXXXXXXXXX...XXXXXXXXXXXXXXXXXXXX...XXXXXXX......XXXXXXX...XXXXXXXXXXXXXXXXXXX       oooXXX",
"oooooo   XXXXXXXXXXXXX.......XXX...XXXXXXX...XXXXXXX......XXXXXXXXXXXXXXXXXXXXXXXXXX   XXXXoooooo...",
"oooooo   XXXXXXXXXXXXX.......XXX...XXXXXXX...XXXXXXX......XXXXXXXXXXXXXXXXXXXXXXXXXX   XXXXoooooo...",
"oooooo   XXXXXXXXXXXXX.......XXX...XXXXXXX...XXXXXXX......XXXXXXXXXXXXXXXXXXXXXXXXXX   XXXXoooooo...",
"......       ...XXXXXXXXXXXXXXXX...XXXXXXX................XXXXXXXXXXXXX.......XXXXXXooooooooooXXX...",
"......       ...XXXXXXXXXXXXXXXX...XXXXXXX................XXXXXXXXXXXXX.......XXXXXXooooooooooXXX...",
"......       ...XXXXXXXXXXXXXXXX...XXXXXXX................XXXXXXXXXXXXX.......XXXXXXooooooooooXXX...",
"......       ...XXXXXXXXXXXXXXXX...XXXXXXX................XXXXXXXXXXXXX.......XXXXXXooooooooooXXX...",
"XXXXXXXXX.......XXXXXXXXXXXXXooo...XXXXXXX....................................XXXXXX...XXXXXXXXXXXXX",
"XXXXXXXXX.......XXXXXXXXXXXXXooo...XXXXXXX....................................XXXXXX...XXXXXXXXXXXXX",
"XXXXXXXXX.......XXXXXXXXXXXXXooo...XXXXXXX....................................XXXXXX...XXXXXXXXXXXXX",
"XXXXXXXXX.......XXXXXXXXXXXXXooo   ..........XXXXXXXXXXXXXXXXXXXX...   ...XXXXXXX......XXXXXXXXXXXXX",
"XXXXXXXXX.......XXXXXXXXXXXXXooo   ..........XXXXXXXXXXXXXXXXXXXX...   ...XXXXXXX......XXXXXXXXXXXXX",
"XXXXXXXXX.......XXXXXXXXXXXXXooo   ..........XXXXXXXXXXXXXXXXXXXX...   ...XXXXXXX......XXXXXXXXXXXXX",
"XXXooooooXXXXXXXXXXXXXoooooooooo       XXXXXXXXXXXXXXXXXXXXXXXXXX      oooXXXXXXX...XXXXXXX...XXXXXX",
"XXXooooooXXXXXXXXXXXXXoooooooooo       XXXXXXXXXXXXXXXXXXXXXXXXXX      oooXXXXXXX...XXXXXXX...XXXXXX",
"XXXooooooXXXXXXXXXXXXXoooooooooo       XXXXXXXXXXXXXXXXXXXXXXXXXX      oooXXXXXXX...XXXXXXX...XXXXXX",
"ooooooXXXXXXXXXX......             ooooXXXXXX...XXXXXXXXXXXXXXXXX      XXXooooooo...XXXXXXX...XXXXXX",
"ooooooXXXXXXXXXX......             ooooXXXXXX...XXXXXXXXXXXXXXXXX      XXXooooooo...XXXXXXX...XXXXXX",
"ooooooXXXXXXXXXX......             ooooXXXXXX...XXXXXXXXXXXXXXXXX      XXXooooooo...XXXXXXX...XXXXXX",
"ooooooXXXXXXXXXX......             ooooXXXXXX...XXXXXXXXXXXXXXXXX      XXXooooooo...XXXXXXX...XXXXXX",
"......XXXXXXX......XXXXXXXXXX      oooooooXXXXXXXXXX                   ...XXXX...XXXXXXXXXX......XXX",
"......XXXXXXX......XXXXXXXXXX      oooooooXXXXXXXXXX                   ...XXXX...XXXXXXXXXX......XXX",
"......XXXXXXX......XXXXXXXXXX      oooooooXXXXXXXXXX                   ...XXXX...XXXXXXXXXX......XXX",
"......XXXXXXXXXX...XXXXXXXXXX...XXXXXXXXXXoooXXX....   XXXXXXXXXXXXXXXXXXXXXXX...XXXXXX.......XXXXXX",
"......XXXXXXXXXX...XXXXXXXXXX...XXXXXXXXXXoooXXX....   XXXXXXXXXXXXXXXXXXXXXXX...XXXXXX.......XXXXXX",
"......XXXXXXXXXX...XXXXXXXXXX...XXXXXXXXXXoooXXX....   XXXXXXXXXXXXXXXXXXXXXXX...XXXXXX.......XXXXXX",
"...          ......XXXXXXXXXX...XXXXXXXXXXXXXXXX.......XXXXXXXXXXXXX......XXXXXXXXXX..........XXXXXX",
"...          ......XXXXXXXXXX...XXXXXXXXXXXXXXXX.......XXXXXXXXXXXXX......XXXXXXXXXX..........XXXXXX",
"...          ......XXXXXXXXXX...XXXXXXXXXXXXXXXX.......XXXXXXXXXXXXX......XXXXXXXXXX..........XXXXXX",
"...   XXXXXXXXXXXXX...XXXXXXX..........oooooooooXXXX...XXXXXXXXXXXXX...................XXXXXXXXXX...",
"...   XXXXXXXXXXXXX...XXXXXXX..........oooooooooXXXX...XXXXXXXXXXXXX...................XXXXXXXXXX...",
"...   XXXXXXXXXXXXX...XXXXXXX..........oooooooooXXXX...XXXXXXXXXXXXX...................XXXXXXXXXX...",
"...   XXXXXXXXXXXXX...XXXXXXX..........oooooooooXXXX...XXXXXXXXXXXXX...................XXXXXXXXXX...",
"...   XXXXXXXXXXXXXXXX....XXXXXXXXXXXXX...XXXoooXXXX.........XXXXXXXXXX...          XXXXXXXXXXXXX...",
"...   XXXXXXXXXXXXXXXX....XXXXXXXXXXXXX...XXXoooXXXX.........XXXXXXXXXX...          XXXXXXXXXXXXX...",
"...   XXXXXXXXXXXXXXXX....XXXXXXXXXXXXX...XXXoooXXXX.........XXXXXXXXXX...          XXXXXXXXXXXXX...",
"XXXXXXXXXXXXXXXXXXXXXXXXXXXXXXXXXXXXXXX...XXXXXXXXXXXXXXXXXXXXXXX...                XXXXXXX...XXX   ",
"XXXXXXXXXXXXXXXXXXXXXXXXXXXXXXXXXXXXXXX...XXXXXXXXXXXXXXXXXXXXXXX...                XXXXXXX...XXX   ",
"XXXXXXXXXXXXXXXXXXXXXXXXXXXXXXXXXXXXXXX...XXXXXXXXXXXXXXXXXXXXXXX...                XXXXXXX...XXX   ",
"XXXXXXXXXXXXXoooooooooXXXXXXXXXXXXXXXXX.............XXXXXXXXXXXXX      XXXXXXXXXXXXXXXX....         ",
"XXXXXXXXXXXXXoooooooooXXXXXXXXXXXXXXXXX.............XXXXXXXXXXXXX      XXXXXXXXXXXXXXXX....         ",
"XXXXXXXXXXXXXoooooooooXXXXXXXXXXXXXXXXX.............XXXXXXXXXXXXX      XXXXXXXXXXXXXXXX....         ",
"XXXXXX....................oooXXXXXXXXXX...XXXXXX.......XXXXXXXXXXXXXXXX...XXXXXXXXXXXXX..........XXX",
"XXXXXX....................oooXXXXXXXXXX...XXXXXX.......XXXXXXXXXXXXXXXX...XXXXXXXXXXXXX..........XXX",
"XXXXXX....................oooXXXXXXXXXX...XXXXXX.......XXXXXXXXXXXXXXXX...XXXXXXXXXXXXX..........XXX",
"XXXXXX....................oooXXXXXXXXXX...XXXXXX.......XXXXXXXXXXXXXXXX...XXXXXXXXXXXXX..........XXX",
"...XXXXXX.......XXXXXX....oooooooooXXXX   XXXXXX.............XXXXXXXXXXXXX....XXXXXXXXXXXXXXXXXXXXXX",
"...XXXXXX.......XXXXXX....oooooooooXXXX   XXXXXX.............XXXXXXXXXXXXX....XXXXXXXXXXXXXXXXXXXXXX",
"...XXXXXX.......XXXXXX....oooooooooXXXX   XXXXXX.............XXXXXXXXXXXXX....XXXXXXXXXXXXXXXXXXXXXX",
"...XXXXXX.......XXXXXX....                XXXXXX....XXXXXXXXXXXXXXXXXXXXXXXXXXXXX......XXXXXXXXXXXXX",
"...XXXXXX.......XXXXXX....                XXXXXX....XXXXXXXXXXXXXXXXXXXXXXXXXXXXX......XXXXXXXXXXXXX",
"...XXXXXX.......XXXXXX....                XXXXXX....XXXXXXXXXXXXXXXXXXXXXXXXXXXXX......XXXXXXXXXXXXX",
"......XXX          ..........XXXXXXXXXX      .......XXXXXXXXXoooo...XXXXXXXXXXooo...   XXXXooooooooo",
"......XXX          ..........XXXXXXXXXX      .......XXXXXXXXXoooo...XXXXXXXXXXooo...   XXXXooooooooo",
"......XXX          ..........XXXXXXXXXX      .......XXXXXXXXXoooo...XXXXXXXXXXooo...   XXXXooooooooo",
"...XXXXXXXXXXXXXXXXXXXXXXXXXXXXXXXXXXXX      XXXXXXXXXXoooooo.......XXXXXXXXXXooo...   XXXXXXXXXX...",
"...XXXXXXXXXXXXXXXXXXXXXXXXXXXXXXXXXXXX      XXXXXXXXXXoooooo.......XXXXXXXXXXooo...   XXXXXXXXXX...",
"...XXXXXXXXXXXXXXXXXXXXXXXXXXXXXXXXXXXX      XXXXXXXXXXoooooo.......XXXXXXXXXXooo...   XXXXXXXXXX...",
"...XXXXXXXXXXXXXXXXXXXXXXXXXXXXXXXXXXXX      XXXXXXXXXXoooooo.......XXXXXXXXXXooo...   XXXXXXXXXX...",
"......   XXXXXXXXXXXXXXXXXXXXXXXXXX....      XXXXXXX................XXXooooooooooXXX          ......",
"......   XXXXXXXXXXXXXXXXXXXXXXXXXX....      XXXXXXX................XXXooooooooooXXX          ......",
"......   XXXXXXXXXXXXXXXXXXXXXXXXXX....      XXXXXXX................XXXooooooooooXXX          ......",
"......   ooooXXXXXXXXXXXXXXXXXXXXXXXXXX   XXXXXXXXXX.............         XXXXXXXXXX..........XXXXXX",
"......   ooooXXXXXXXXXXXXXXXXXXXXXXXXXX   XXXXXXXXXX.............         XXXXXXXXXX..........XXXXXX",
"......   ooooXXXXXXXXXXXXXXXXXXXXXXXXXX   XXXXXXXXXX.............         XXXXXXXXXX..........XXXXXX",
".........oooooooXXX...XXXXXXX.............XXXXXXXXXXXXXXXXXXXXXXXXXX..........XXXXXX...XXXXXXX......",
".........oooooooXXX...XXXXXXX.............XXXXXXXXXXXXXXXXXXXXXXXXXX..........XXXXXX...XXXXXXX......",
".........oooooooXXX...XXXXXXX.............XXXXXXXXXXXXXXXXXXXXXXXXXX..........XXXXXX...XXXXXXX......",
"...XXXXXXXXXX......XXXXXXXXXXXXX.......XXXXXXXXXXXXXXXXXXX...XXXXXXXXXX................XXXXXXX......",
"...XXXXXXXXXX......XXXXXXXXXXXXX.......XXXXXXXXXXXXXXXXXXX...XXXXXXXXXX................XXXXXXX......",
"...XXXXXXXXXX......XXXXXXXXXXXXX.......XXXXXXXXXXXXXXXXXXX...XXXXXXXXXX................XXXXXXX......",
"...XXXXXXXXXX......XXXXXXXXXXXXX.......XXXXXXXXXXXXXXXXXXX...XXXXXXXXXX................XXXXXXX......",
"...XXXXXXXXXX......XXXXXXXXXXXXX.......oooXXXXXXXXXX......XXXXXXXXXXXXXXXXXXXXXXX......XXXXXXX......",
"...XXXXXXXXXX......XXXXXXXXXXXXX.......oooXXXXXXXXXX......XXXXXXXXXXXXXXXXXXXXXXX......XXXXXXX......",
"...XXXXXXXXXX......XXXXXXXXXXXXX.......oooXXXXXXXXXX......XXXXXXXXXXXXXXXXXXXXXXX......XXXXXXX......",
"XXXXXX.......      ooooooooooXXX.......XXXooooooXXXX...XXXXXXXXXXXXXXXXXXXXXXXXXXXXX..........XXXXXX",
"XXXXXX.......      ooooooooooXXX.......XXXooooooXXXX...XXXXXXXXXXXXXXXXXXXXXXXXXXXXX..........XXXXXX",
"XXXXXX.......      ooooooooooXXX.......XXXooooooXXXX...XXXXXXXXXXXXXXXXXXXXXXXXXXXXX..........XXXXXX",
"XXXXXX.......             ..........................XXXXXX..........ooooooooooXXX.............XXXXXX",
"XXXXXX.......             ..........................XXXXXX..........ooooooooooXXX.............XXXXXX"
};
