/* XPM */
static char *Tile51663100809[] = {
/* columns rows colors chars-per-pixel */
"100 100 5 1 ",
"  c #202020",
". c #282828",
"X c gray17",
"o c #2F2F2F",
"O c gray22",
/* pixels */
"         X.....................                              ......................                 ",
"XXXXXXXXXXXXXXXooooooooooooooooooooooooooooo....   ...oooXXXXXXXXXXooooooooooooooooooooooooooooooooo",
"XXXXXXXXXXXXXXXooooooooooooooooooooooooooooo....   ...oooXXXXXXXXXXooooooooooooooooooooooooooooooooo",
"XXXXXXXXXXXXXXXooooooooooooooooooooooooooooo....   ...oooXXXXXXXXXXooooooooooooooooooooooooooooooooo",
"XXXXXooooooooooooooooooooooooooooooXXXXXXXXXoooo   oooXXXXXXXXXXXXXoooooooooooooooooooooooXXXXXXoooo",
"XXXXXooooooooooooooooooooooooooooooXXXXXXXXXoooo   oooXXXXXXXXXXXXXoooooooooooooooooooooooXXXXXXoooo",
"XXXXXooooooooooooooooooooooooooooooXXXXXXXXXoooo   oooXXXXXXXXXXXXXoooooooooooooooooooooooXXXXXXoooo",
"XXXXXooooooooooooooooooooooooooXXXXXXXXXXXXXoooo...ooooooooooooooooooooooooooooooooooooXXXXXXXXXXXXX",
"XXXXXooooooooooooooooooooooooooXXXXXXXXXXXXXoooo...ooooooooooooooooooooooooooooooooooooXXXXXXXXXXXXX",
"XXXXXooooooooooooooooooooooooooXXXXXXXXXXXXXoooo...ooooooooooooooooooooooooooooooooooooXXXXXXXXXXXXX",
"XXXXXooooooooooooooooooooooooooXXXXXXXXXXXXXoooo...ooooooooooooooooooooooooooooooooooooXXXXXXXXXXXXX",
"XXoooooooooooooooooooooooooooooXXXXXXXXXXoooOOOO...ooooooooooooooooooooooooooooooooooooooooooXXXXXXX",
"XXoooooooooooooooooooooooooooooXXXXXXXXXXoooOOOO...ooooooooooooooooooooooooooooooooooooooooooXXXXXXX",
"XXoooooooooooooooooooooooooooooXXXXXXXXXXoooOOOO...ooooooooooooooooooooooooooooooooooooooooooXXXXXXX",
"oooooooooooooooooooooooooooooooXXXXoooooooooOOOO...ooooooooooooooooooooooooooooooooooooooooooooooooo",
"oooooooooooooooooooooooooooooooXXXXoooooooooOOOO...ooooooooooooooooooooooooooooooooooooooooooooooooo",
"oooooooooooooooooooooooooooooooXXXXoooooooooOOOO...ooooooooooooooooooooooooooooooooooooooooooooooooo",
"ooooooooooooooooooooooooooooooooooooooooooooOOOO...ooooooXXXXXXXXXXooooooooooooooooooooooooooooooooo",
"ooooooooooooooooooooooooooooooooooooooooooooOOOO...ooooooXXXXXXXXXXooooooooooooooooooooooooooooooooo",
"ooooooooooooooooooooooooooooooooooooooooooooOOOO...ooooooXXXXXXXXXXooooooooooooooooooooooooooooooooo",
"ooooooooooooooooooooooooooooooooooooooooooooOOOO   oooXXXXXXXXXXoooooooooooooooooooooooooooooooooooo",
"ooooooooooooooooooooooooooooooooooooooooooooOOOO   oooXXXXXXXXXXoooooooooooooooooooooooooooooooooooo",
"ooooooooooooooooooooooooooooooooooooooooooooOOOO   oooXXXXXXXXXXoooooooooooooooooooooooooooooooooooo",
"ooooooooooooooooooooooooooooooooooooooooooooOOOO   oooXXXXXXXXXXoooooooooooooooooooooooooooooooooooo",
"oooooXXXXoooooooooooooooooooooooooooooooooooOOOO   oooXXXXXXXooooooooooooooooooooooooooooooooooooooo",
"oooooXXXXoooooooooooooooooooooooooooooooooooOOOO   oooXXXXXXXooooooooooooooooooooooooooooooooooooooo",
"oooooXXXXoooooooooooooooooooooooooooooooooooOOOO   oooXXXXXXXooooooooooooooooooooooooooooooooooooooo",
"OOoooooooXXXooooooooooooooooooooooooooooooooOOOO   oooooooooooooooooooooooooooooooooooooooXXXXXXoooo",
"OOoooooooXXXooooooooooooooooooooooooooooooooOOOO   oooooooooooooooooooooooooooooooooooooooXXXXXXoooo",
"OOoooooooXXXooooooooooooooooooooooooooooooooOOOO   oooooooooooooooooooooooooooooooooooooooXXXXXXoooo",
"OOooooooooooooooooooooooooooXXXXXXXXXXooooooOOOO   oooooooooooooooooooooooooooooooooooooooXXXooooooo",
"OOooooooooooooooooooooooooooXXXXXXXXXXooooooOOOO   oooooooooooooooooooooooooooooooooooooooXXXooooooo",
"OOooooooooooooooooooooooooooXXXXXXXXXXooooooOOOO   oooooooooooooooooooooooooooooooooooooooXXXooooooo",
"OOooooooooooooooooooooooooooXXXXXXXXXXooooooOOOO   OOOoooooooooooooXXXXXXXoooooooooooooXXXXXXooooooo",
"OOooooooooooooooooooooooooooXXXXXXXXXXooooooOOOO   OOOoooooooooooooXXXXXXXoooooooooooooXXXXXXooooooo",
"OOooooooooooooooooooooooooooXXXXXXXXXXooooooOOOO   OOOoooooooooooooXXXXXXXoooooooooooooXXXXXXooooooo",
"OOooooooooooooooooooooooooooXXXXXXXXXXooooooOOOO   OOOoooooooooooooXXXXXXXoooooooooooooXXXXXXooooooo",
"OOoooooooooooooooooooooooooooooXXXXXXXXXXoooOOOO   OOOooooooooooXXXoooXXXXoooooooooooooooooooooooooo",
"OOoooooooooooooooooooooooooooooXXXXXXXXXXoooOOOO   OOOooooooooooXXXoooXXXXoooooooooooooooooooooooooo",
"OOoooooooooooooooooooooooooooooXXXXXXXXXXoooOOOO   OOOooooooooooXXXoooXXXXoooooooooooooooooooooooooo",
"OOooooooooooooooooooooooooooooooooooooooooooOOOO...OOOoooooooXXXXXXXXXooooooooooooooooooooooooooOOOO",
"OOooooooooooooooooooooooooooooooooooooooooooOOOO...OOOoooooooXXXXXXXXXooooooooooooooooooooooooooOOOO",
"OOooooooooooooooooooooooooooooooooooooooooooOOOO...OOOoooooooXXXXXXXXXooooooooooooooooooooooooooOOOO",
"OOooooooooooooooooooooOOOOOOOOOOOOOOOOOOOOOOOOOO...OOOooooooooooooooooooooooooooooooooooooooooooOOOO",
"OOooooooooooooooooooooOOOOOOOOOOOOOOOOOOOOOOOOOO...OOOooooooooooooooooooooooooooooooooooooooooooOOOO",
"OOooooooooooooooooooooOOOOOOOOOOOOOOOOOOOOOOOOOO...OOOooooooooooooooooooooooooooooooooooooooooooOOOO",
"OOOOOOOOOOOOOOOOOOOOOOXXXXXXXXXXXXXXXXXXXXXXXXXX......OOOOOOOOOOOOOOOOOOOOOOOOOOOOOOOOOOOOOOOOOOoooo",
"OOOOOOOOOOOOOOOOOOOOOOXXXXXXXXXXXXXXXXXXXXXXXXXX......OOOOOOOOOOOOOOOOOOOOOOOOOOOOOOOOOOOOOOOOOOoooo",
"OOOOOOOOOOOOOOOOOOOOOOXXXXXXXXXXXXXXXXXXXXXXXXXX......OOOOOOOOOOOOOOOOOOOOOOOOOOOOOOOOOOOOOOOOOOoooo",
"OOOOOOOOOOOOOOOOOOOOOOXXXXXXXXXXXXXXXXXXXXXXXXXX......OOOOOOOOOOOOOOOOOOOOOOOOOOOOOOOOOOOOOOOOOOoooo",
"                                   .............................                                    ",
"                                   .............................                                    ",
"                                   .............................                                    ",
"..oooooooooooooooooooooooooooooXXXXXXXXXXXXXXXXX......oooXXXXXXXXXXXXXXXXXXXXXXXXXXooooooooooooo....",
"..oooooooooooooooooooooooooooooXXXXXXXXXXXXXXXXX......oooXXXXXXXXXXXXXXXXXXXXXXXXXXooooooooooooo....",
"..oooooooooooooooooooooooooooooXXXXXXXXXXXXXXXXX......oooXXXXXXXXXXXXXXXXXXXXXXXXXXooooooooooooo....",
"XXoooXXXXoooooooooooooooooooXXXXXXXXXXXXXXXXXXXX...ooooooooooooooooXXXXXXXXXXooooooooooooooooooooooo",
"XXoooXXXXoooooooooooooooooooXXXXXXXXXXXXXXXXXXXX...ooooooooooooooooXXXXXXXXXXooooooooooooooooooooooo",
"XXoooXXXXoooooooooooooooooooXXXXXXXXXXXXXXXXXXXX...ooooooooooooooooXXXXXXXXXXooooooooooooooooooooooo",
"oooooXXXXXXXooooooooooooooooooooooooooooooooXXXX...ooooooooooooooooXXXXXXXXXXooooooooooooooooooooooo",
"oooooXXXXXXXooooooooooooooooooooooooooooooooXXXX...ooooooooooooooooXXXXXXXXXXooooooooooooooooooooooo",
"oooooXXXXXXXooooooooooooooooooooooooooooooooXXXX...ooooooooooooooooXXXXXXXXXXooooooooooooooooooooooo",
"oooooXXXXXXXooooooooooooooooooooooooooooooooXXXX...ooooooooooooooooXXXXXXXXXXooooooooooooooooooooooo",
"oooooooooXXXXXXoooooooooooooooooooooooooooooXXXX...oooooooooooooooooooXXXXXXXXXXoooooooooooooooooooo",
"oooooooooXXXXXXoooooooooooooooooooooooooooooXXXX...oooooooooooooooooooXXXXXXXXXXoooooooooooooooooooo",
"oooooooooXXXXXXoooooooooooooooooooooooooooooXXXX...oooooooooooooooooooXXXXXXXXXXoooooooooooooooooooo",
"oooooXXXXXXXoooooooooooooooooooooooooooooXXXXXXX...ooooooooooooooooooooooooooXXXoooooooooooooooooooo",
"oooooXXXXXXXoooooooooooooooooooooooooooooXXXXXXX...ooooooooooooooooooooooooooXXXoooooooooooooooooooo",
"oooooXXXXXXXoooooooooooooooooooooooooooooXXXXXXX...ooooooooooooooooooooooooooXXXoooooooooooooooooooo",
"oooooooooooooooooooooooooooooooooooooooooooooooo...ooooooooooooooooooooooooooooooooooooooooooooooooo",
"oooooooooooooooooooooooooooooooooooooooooooooooo...ooooooooooooooooooooooooooooooooooooooooooooooooo",
"oooooooooooooooooooooooooooooooooooooooooooooooo...ooooooooooooooooooooooooooooooooooooooooooooooooo",
"oooooooooooooooooooooooooooooooooooooooooooooooo   OOOoooXXXXooooooooooooooooooooooooooooooooooooooo",
"oooooooooooooooooooooooooooooooooooooooooooooooo   OOOoooXXXXooooooooooooooooooooooooooooooooooooooo",
"oooooooooooooooooooooooooooooooooooooooooooooooo   OOOoooXXXXooooooooooooooooooooooooooooooooooooooo",
"oooooooooooooooooooooooooooooooooooooooooooooooo   OOOoooXXXXooooooooooooooooooooooooooooooooooooooo",
"ooooooooooooooooooooooXXXooooooooooooooooooooooo   OOOoooXXXXXXXoooooooooooooooooooooooooooooooooooo",
"ooooooooooooooooooooooXXXooooooooooooooooooooooo   OOOoooXXXXXXXoooooooooooooooooooooooooooooooooooo",
"ooooooooooooooooooooooXXXooooooooooooooooooooooo   OOOoooXXXXXXXoooooooooooooooooooooooooooooooooooo",
"ooooooooooooooooooXXXXXXXooooooooooooooooooooooo   OOOoooXXXXXXXXXXoooooooooooooooooooooooooooooOOOO",
"ooooooooooooooooooXXXXXXXooooooooooooooooooooooo   OOOoooXXXXXXXXXXoooooooooooooooooooooooooooooOOOO",
"ooooooooooooooooooXXXXXXXooooooooooooooooooooooo   OOOoooXXXXXXXXXXoooooooooooooooooooooooooooooOOOO",
"OOoooooooooooooXXXXXXXoooooooooooooooooooooooooo   OOOoooooooXXXooooooooooooooooXXXoooooooooooooOOOO",
"OOoooooooooooooXXXXXXXoooooooooooooooooooooooooo   OOOoooooooXXXooooooooooooooooXXXoooooooooooooOOOO",
"OOoooooooooooooXXXXXXXoooooooooooooooooooooooooo   OOOoooooooXXXooooooooooooooooXXXoooooooooooooOOOO",
"OOooooooooooXXXXXXooooooooooXXXXXXXXXXoooooooooo   OOOoooooooooooooooooooooooXXXXXXXXXXoooooooooOOOO",
"OOooooooooooXXXXXXooooooooooXXXXXXXXXXoooooooooo   OOOoooooooooooooooooooooooXXXXXXXXXXoooooooooOOOO",
"OOooooooooooXXXXXXooooooooooXXXXXXXXXXoooooooooo   OOOoooooooooooooooooooooooXXXXXXXXXXoooooooooOOOO",
"OOooooooooooXXXXXXooooooooooXXXXXXXXXXoooooooooo   OOOoooooooooooooooooooooooXXXXXXXXXXoooooooooOOOO",
"OOoooooooooooooooooooooooooooooXXXXXXXXXXooooooo   OOOooooooooooooooooooooXXXXXXXXXoooooooooooooOOOO",
"OOoooooooooooooooooooooooooooooXXXXXXXXXXooooooo   OOOooooooooooooooooooooXXXXXXXXXoooooooooooooOOOO",
"OOoooooooooooooooooooooooooooooXXXXXXXXXXooooooo   OOOooooooooooooooooooooXXXXXXXXXoooooooooooooOOOO",
"OOoooooooooooooooooooooooooooooooooXXXXXXoooOOOO   OOOooooooooooooooooooooooooooooooooooooooooooOOOO",
"OOoooooooooooooooooooooooooooooooooXXXXXXoooOOOO   OOOooooooooooooooooooooooooooooooooooooooooooOOOO",
"OOoooooooooooooooooooooooooooooooooXXXXXXoooOOOO   OOOooooooooooooooooooooooooooooooooooooooooooOOOO",
"OOOOOoooooooooooooooooooooooooooooooooooooooOOOO   OOOOOOOOOOOOOooooooooooooooooooooooooooooooooOOOO",
"OOOOOoooooooooooooooooooooooooooooooooooooooOOOO   OOOOOOOOOOOOOooooooooooooooooooooooooooooooooOOOO",
"OOOOOoooooooooooooooooooooooooooooooooooooooOOOO   OOOOOOOOOOOOOooooooooooooooooooooooooooooooooOOOO",
".....OOOOOOOOOOOOOOOOOOOOOOOOOOOOOOOOOOOOOOOOOOO   XXXXXXXXXXXXXOOOOOOOOOOOOOOOOOOOOOOOOOOOOOOOOOOOO",
".....OOOOOOOOOOOOOOOOOOOOOOOOOOOOOOOOOOOOOOOOOOO   XXXXXXXXXXXXXOOOOOOOOOOOOOOOOOOOOOOOOOOOOOOOOOOOO"
};
