/* XPM */
static char *Tile91663100808[] = {
/* columns rows colors chars-per-pixel */
"100 100 3 1 ",
"  c #202020",
". c #282828",
"X c #2F2F2F",
/* pixels */
"..XXX   ..          ....      ......              XXX          ...           ..    .....   ........ ",
"XX..........        ....                             ......       ......             ....    ..     ",
"XXXX .......                                             ..... ....                     .......     ",
"XXXX .......                                             ..... ....                     .......     ",
"  .. .....                                                         .....                 ....       ",
"  .. .....                                                         .....                 ....       ",
"  .. .....                                                         .....                 ....       ",
".... .....                                                           ....                  .......  ",
"..   .....                          .....                                                         ..",
"..   .....                          .....                                                         ..",
"..   .....                          .....                                                         ..",
"........                          ...                                                              .",
"....                           .....                                                                ",
"....                           .....                                                                ",
"                                                                                                    ",
"                                                                                                    ",
"                                                                                                    ",
"                                                                                                    ",
"                        ..                                                                          ",
"                        ..                                                                          ",
"                                                           ...                                      ",
"                                                           ...                                      ",
"    .                                                    ..                                         ",
"    .                                                    ..                                         ",
"..                                ...                                                             ..",
"..                                ...                                                             ..",
"..                                ...                                                             ..",
"..                                  ....                                                          . ",
"..                             ......                                                               ",
"..                             ......                                                               ",
"                                                        .                                           ",
"                                                        .                                           ",
"     ...                                                .               .                           ",
"     ...                                                .               .                           ",
"..  ....                                    ..                     .....XXX                         ",
"..  ....                                    ..                     .....XXX                         ",
"    .                                       ..                    .......XX                ..       ",
"    .                                       ..                    .......XX                ..       ",
"                                                                                   .....XXX..      .",
"                                                                                   .....XXX..      .",
"                              XXXXXX          ....                                 ........        .",
"                              XXXXXX          ....                                 ........        .",
"                              XXXXXX          ....                                 ........        .",
"                        ..  XXX.....           ...                                 .....           .",
"                        ..........                                                   ...            ",
"                        ..........                                                   ...            ",
"                  ..                                                                                ",
"                  ..                                                                                ",
"                  ...                                                                               ",
"                  ...                                                                               ",
"                    .                                                                              .",
"                    .                                                                              .",
"                    ....                                                                           .",
"                    ....                                                                           .",
"                     .....                                                     ...                  ",
"                     .....                                                     ...                  ",
"                        ..                                                   .....                  ",
"                          ..                                               ....                     ",
"                          ..                                               ....                     ",
"                          ..                                               ....                     ",
"          XX..                                                                                      ",
"          XX..                                                                                      ",
"        XXXX...                                                                                     ",
"        XXXX...                                                                                     ",
"        ......                                             ....                                .....",
"        ......                                             ....                                .....",
"..      ....                                                  .                                   ..",
"..      ....                                                  .                                   ..",
"     .....                                                    .                                     ",
"     .....                                                    .                                     ",
"                                                              .....                                 ",
"                                                              .....                                 ",
"                                                               ...X                                 ",
"                                            XX ...             ...XXX                               ",
"                                            XX ...             ...XXX                               ",
"                                            XX ...             ...XXX                               ",
"                          XX...          XXXXX....             ....XX...                            ",
"                          XX...          XXXXX....             ....XX...                            ",
"                          ..             ......                      ...                            ",
"                          ..             ......                      ...                            ",
"                                            .........                                          .....",
"                                            .........                                          .....",
"                                                                                                    ",
"                                                                                                    ",
"                                                                                                    ",
"                                                                                                    ",
"        ..                                                                                     ...  ",
"        ..                                                                                     ...  ",
"          ....                                                                                 .....",
"                                                                     ....                         ..",
"                                                                     ....                         ..",
"                                                                     ....                         ..",
"                          ..                                  .      ...                          ..",
"  ......                ....         ...                   ...          .XXXX                       ",
"  ......                ....         ...                   ...          .XXXX                       ",
"  ......                ....         ...                   ...          .XXXX                       ",
"  ........              ..          ....                 ..    ...       ......                     ",
"  ........              ..          ....                 ..    ...       ......                     ",
"........       XXXXX    ....                            ...    ...                                  ",
"....XXXXXX     XXXXX      ....                       ....      ...                                  "
};
