/* XPM */
static char *Tile71663100809[] = {
/* columns rows colors chars-per-pixel */
"100 100 4 1 ",
"  c #202020",
". c #282828",
"X c #2F2F2F",
"o c gray22",
/* pixels */
"XXXX.............XXXXXXXXXXXXX....XXXXXXXXXXXXXXXXXXXXXX.............                       ...XXXXX",
"XXXX....      ..........XXX.......XXXXXXXXXXXXXXXXXXXXXX.......                ...          ...XXXXX",
"XXXX....      ..........XXX.......XXXXXXXXXXXXXXXXXXXXXX.......                ...          ...XXXXX",
"XXXX....      ..........XXX.......XXXXXXXXXXXXXXXXXXXXXX.......                ...          ...XXXXX",
"........      .......XXXXXXXXXXXXXXXX             XXXXXX                    ...                XXXXX",
"........      .......XXXXXXXXXXXXXXXX             XXXXXX                    ...                XXXXX",
"........      .......XXXXXXXXXXXXXXXX             XXXXXX                    ...                XXXXX",
"XXXX....      ...ooooooooooXXXXXXXXXXXXX   XXXXXXXXXXXXXXXXX   XXXXXX    XXX...                     ",
"XXXX....      ...ooooooooooXXXXXXXXXXXXX   XXXXXXXXXXXXXXXXX   XXXXXX    XXX...                     ",
"XXXX....      ...ooooooooooXXXXXXXXXXXXX   XXXXXXXXXXXXXXXXX   XXXXXX    XXX...                     ",
"XXXX             .............XXXXXXXXXX   XXXXXXXoooooooooo   XXXXXXXXXXXXX...   XXXXXXX          .",
"XXXX             .............XXXXXXXXXX   XXXXXXXoooooooooo   XXXXXXXXXXXXX...   XXXXXXX          .",
"XXXX             .............XXXXXXXXXX   XXXXXXXoooooooooo   XXXXXXXXXXXXX...   XXXXXXX          .",
"XXXX             .............XXXXXXXXXX   XXXXXXXoooooooooo   XXXXXXXXXXXXX...   XXXXXXX          .",
"XXXX    XXXXXX       XXXXXX   XXXXXXX      XXXXXXX             XXX...XXXXXXX.............          X",
"XXXX    XXXXXX       XXXXXX   XXXXXXX      XXXXXXX             XXX...XXXXXXX.............          X",
"XXXX    XXXXXX       XXXXXX   XXXXXXX      XXXXXXX             XXX...XXXXXXX.............          X",
"Xooo    XXXXXXXXX    XXX      XXXXXXXXXX   XXXXXXX      XXXXXXX...XXXXXXXXXXXXXXXXXXXX      oooXXXXX",
"Xooo    XXXXXXXXX    XXX      XXXXXXXXXX   XXXXXXX      XXXXXXX...XXXXXXXXXXXXXXXXXXXX      oooXXXXX",
"Xooo    XXXXXXXXX    XXX      XXXXXXXXXX   XXXXXXX      XXXXXXX...XXXXXXXXXXXXXXXXXXXX      oooXXXXX",
"oooo    XXXXXXXXXXXXX...   XXX....XXXXXX   XXXXXXX      XXXXXXXXXXXXXXXXXXXXXXXXXX    XXXoooooo.....",
"oooo    XXXXXXXXXXXXX...   XXX....XXXXXX   XXXXXXX      XXXXXXXXXXXXXXXXXXXXXXXXXX    XXXoooooo.....",
"oooo    XXXXXXXXXXXXX...   XXX....XXXXXX   XXXXXXX      XXXXXXXXXXXXXXXXXXXXXXXXXX    XXXoooooo.....",
"....       ...XXXXXXX   XXXXXX....XXXXXX                XXXXXXXXXXXXX       XXXXXXooooooooooXXX.....",
"....       ...XXXXXXX   XXXXXX....XXXXXX                XXXXXXXXXXXXX       XXXXXXooooooooooXXX.....",
"....       ...XXXXXXX   XXXXXX....XXXXXX                XXXXXXXXXXXXX       XXXXXXooooooooooXXX.....",
"....       ...XXXXXXX   XXXXXX....XXXXXX                XXXXXXXXXXXXX       XXXXXXooooooooooXXX.....",
"XXXXXXXX...   XXXXXXX   XXXooo....XXXXXX                                    XXXXXX....XXXXXXXXXXXXX.",
"XXXXXXXX...   XXXXXXX   XXXooo....XXXXXX                                    XXXXXX....XXXXXXXXXXXXX.",
"XXXXXXXX...   XXXXXXX   XXXooo....XXXXXX                                    XXXXXX....XXXXXXXXXXXXX.",
"XXXXXXXX......XXXXXXXXXXXXXooo             ....................          XXXXXX...    XXXXXXXXXXXXXX",
"XXXXXXXX......XXXXXXXXXXXXXooo             ....................          XXXXXX...    XXXXXXXXXXXXXX",
"XXXXXXXX......XXXXXXXXXXXXXooo             ....................          XXXXXX...    XXXXXXXXXXXXXX",
"XoooooooXXXXXXXXXXXXXooooooooo       ..........................      ooooXXXXXX...XXXX   ...XXXXXXX.",
"XoooooooXXXXXXXXXXXXXooooooooo       ..........................      ooooXXXXXX...XXXX   ...XXXXXXX.",
"XoooooooXXXXXXXXXXXXXooooooooo       ..........................      ooooXXXXXX...XXXX   ...XXXXXXX.",
"ooooXXXXXXXXXX.......             ooo..........................             ooo...XXXX      XXXXXXX.",
"ooooXXXXXXXXXX.......             ooo..........................             ooo...XXXX      XXXXXXX.",
"ooooXXXXXXXXXX.......             ooo..........................             ooo...XXXX      XXXXXXX.",
"ooooXXXXXXXXXX.......             ooo..........................             ooo...XXXX      XXXXXXX.",
"....XXXXXXX......                 oooooo..........                   ....      XXXXXXXXXX      XXXX.",
"....XXXXXXX......                 oooooo..........                   ....      XXXXXXXXXX      XXXX.",
"....XXXXXXX......                 oooooo..........                   ....      XXXXXXXXXX      XXXX.",
"....XXXXXXXXXX...          .............ooo.......   XXXXXXXXXXXXXXXXXXXXXXX      XXXX......   XXXX.",
"....XXXXXXXXXX...          .............ooo.......   XXXXXXXXXXXXXXXXXXXXXXX      XXXX......   XXXX.",
"....XXXXXXXXXX...          .............ooo.......   XXXXXXXXXXXXXXXXXXXXXXX      XXXX......   XXXX.",
".          ......          ..........................XXXXXXXXXXXXX.......XXXXXX       ......   XXXX.",
".          ......          ..........................XXXXXXXXXXXXX.......XXXXXX       ......   XXXX.",
".          ......          ..........................XXXXXXXXXXXXX.......XXXXXX       ......   XXXX.",
".                ....      ..........ooooooooooXXX...XXXXXXXXXXXXX................    XXXXXXXXX.....",
".                ....      ..........ooooooooooXXX...XXXXXXXXXXXXX................    XXXXXXXXX.....",
".                ....      ..........ooooooooooXXX...XXXXXXXXXXXXX................    XXXXXXXXX.....",
".                ....      ..........ooooooooooXXX...XXXXXXXXXXXXX................    XXXXXXXXX.....",
".                    ...             ...XXXooooXXX..........XXXXXXXXX....         XXXXXXXXXXXXX.....",
".                    ...             ...XXXooooXXX..........XXXXXXXXX....         XXXXXXXXXXXXX.....",
".                    ...             ...XXXooooXXX..........XXXXXXXXX....         XXXXXXXXXXXXX.....",
"                                     ...XXXXXXXXXXXXXXXXXXXXXXX...                XXXXXXX...XXX    .",
"                                     ...XXXXXXXXXXXXXXXXXXXXXXX...                XXXXXXX...XXX    .",
"                                     ...XXXXXXXXXXXXXXXXXXXXXXX...                XXXXXXX...XXX    .",
"           XXXXXXXXXX                .............XXXXXXXXXXXXX          XXXXXXXXXXXXX...          .",
"           XXXXXXXXXX                .............XXXXXXXXXXXXX          XXXXXXXXXXXXX...          .",
"           XXXXXXXXXX                .............XXXXXXXXXXXXX          XXXXXXXXXXXXX...          .",
"    ....................XXX          ...XXXXXXX......XXX       XXXXXX       XXXXXXXXXX.........XXXX.",
"    ....................XXX          ...XXXXXXX......XXX       XXXXXX       XXXXXXXXXX.........XXXX.",
"    ....................XXX          ...XXXXXXX......XXX       XXXXXX       XXXXXXXXXX.........XXXX.",
"    ....................XXX          ...XXXXXXX......XXX       XXXXXX       XXXXXXXXXX.........XXXX.",
".       ......XXXXXXX...XXXXXXXXXX      XXXXXXX......       XXXXXXXXXXXXX      XXXXXXXXXXXXXXXXXXXXX",
".       ......XXXXXXX...XXXXXXXXXX      XXXXXXX......       XXXXXXXXXXXXX      XXXXXXXXXXXXXXXXXXXXX",
".       ......XXXXXXX...XXXXXXXXXX      XXXXXXX......       XXXXXXXXXXXXX      XXXXXXXXXXXXXXXXXXXXX",
".       ......XXXXXXX...                XXXXXXX...      XXXXXXXXXXXXXXXXXXXX   .......XXXXXXXXXXXXXX",
".       ......XXXXXXX...                XXXXXXX...      XXXXXXXXXXXXXXXXXXXX   .......XXXXXXXXXXXXXX",
".       ......XXXXXXX...                XXXXXXX...      XXXXXXXXXXXXXXXXXXXX   .......XXXXXXXXXXXXXX",
"....             ..........                .......   XXXXXXXooo...XXXXXXXXXXooo...    XXXooooooooooX",
"....             ..........                .......   XXXXXXXooo...XXXXXXXXXXooo...    XXXooooooooooX",
"....             ..........                .......   XXXXXXXooo...XXXXXXXXXXooo...    XXXooooooooooX",
".                                          XXXXXXX   ooooooo......XXXXXXXXXXooo...    XXXXXXXXX.....",
".                                          XXXXXXX   ooooooo......XXXXXXXXXXooo...    XXXXXXXXX.....",
".                                          XXXXXXX   ooooooo......XXXXXXXXXXooo...    XXXXXXXXX.....",
".                                          XXXXXXX   ooooooo......XXXXXXXXXXooo...    XXXXXXXXX.....",
"....                              ...      XXXXXXX................XXXoooooooooo             ........",
"....                              ...      XXXXXXX................XXXoooooooooo             ........",
"....                              ...      XXXXXXX................XXXoooooooooo             ........",
"....    XXX                             XXXXXXXXXX   ..........                   ..........XXXXXXX.",
"....    XXX                             XXXXXXXXXX   ..........                   ..........XXXXXXX.",
"....    XXX                             XXXXXXXXXX   ..........                   ..........XXXXXXX.",
"........XXXXXX   ....      .............XXX          XXXXXXXXXXXXX..........             XXX........",
"........XXXXXX   ....      .............XXX          XXXXXXXXXXXXX..........             XXX........",
"........XXXXXX   ....      .............XXX          XXXXXXXXXXXXX..........             XXX........",
".XXXXXXXXXX......             .......      XXXXXXXXXXXXX....XXXXXXXXX..........       XXXXXX........",
".XXXXXXXXXX......             .......      XXXXXXXXXXXXX....XXXXXXXXX..........       XXXXXX........",
".XXXXXXXXXX......             .......      XXXXXXXXXXXXX....XXXXXXXXX..........       XXXXXX........",
".XXXXXXXXXX......             .......      XXXXXXXXXXXXX....XXXXXXXXX..........       XXXXXX........",
".XXXXXXXXXX......                    oooXXXXXXXXXX......XXXXXXXXXXXXXXXXXXXXXXX.......XXXXXX........",
".XXXXXXXXXX......                    oooXXXXXXXXXX......XXXXXXXXXXXXXXXXXXXXXXX.......XXXXXX........",
".XXXXXXXXXX......                    oooXXXXXXXXXX......XXXXXXXXXXXXXXXXXXXXXXX.......XXXXXX........",
"XXXX.......      oooooooooo   .......XXXoooooooXXX...XXXXXXXXXXXXXXXXXXXXXXXXXXXXX..........XXXXXXXX",
"XXXX.......      oooooooooo   .......XXXoooooooXXX...XXXXXXXXXXXXXXXXXXXXXXXXXXXXX..........XXXXXXXX",
"XXXX.......      oooooooooo   .......XXXoooooooXXX...XXXXXXXXXXXXXXXXXXXXXXXXXXXXX..........XXXXXXXX",
"XXXX.......             ..........................XXXXXX..........ooooooooooXXX.............XXXXXXXX",
"XXXX.......             ..........................XXXXXX..........ooooooooooXXX.............XXXXXXXX"
};
