/* XPM */
static char *b9340395c4bc4080fccd2073cbe68b1bnuk9zn8mJDSViEzn[] = {
/* columns rows colors chars-per-pixel */
"100 100 8 1 ",
"  c None",
". c #371515",
"X c #491E1D",
"o c #622020",
"O c #762727",
"+ c #772828",
"@ c #E49696",
"# c #FFAEAE",
/* pixels */
"                                                                                                    ",
"                                                                                                    ",
"                                                                                                    ",
"                                   ...                                  ...                         ",
"                                   ...                                  ...                         ",
"                                   ...                                  ...                         ",
"                                   ...                                  ...                         ",
"                               .......                              .......                         ",
"                               .......                              .......                         ",
"                               .......                              .......                         ",
"                                   ...                              .......                         ",
"                                   ...                              .......                         ",
"                                   ...                              .......                         ",
"                                   ...                           .......                            ",
"                                   ...                           .......                            ",
"                                   ...                           .......                            ",
"                                   ...                           .......                            ",
"                               .......OOOO                          ....                            ",
"                               .......OOOO                          ....                            ",
"                               .......OOOO                          ....                            ",
"                            OOO....+++.......       OOOOOOOOOOOOO   ....                            ",
"                            OOO....+++.......       OOOOOOOOOOOOO   ....                            ",
"                            OOO....+++.......       OOOOOOOOOOOOO   ....                            ",
"                            OOO....+++.......       OOOOOOOOOOOOO   ....                            ",
"                         OOOOOO...........###OOOOOOOOOOOOOOOOO..........                            ",
"                         OOOOOO...........###OOOOOOOOOOOOOOOOO..........                            ",
"                         OOOOOO...........###OOOOOOOOOOOOOOOOO..........                            ",
"                         OOOOOOOOOOooooooo...+++OOOOOOOOOOoooo...###....                            ",
"                         OOOOOOOOOOooooooo...+++OOOOOOOOOOoooo...###....                            ",
"                         OOOOOOOOOOooooooo...+++OOOOOOOOOOoooo...###....                            ",
"                         oooOOOOOOO+++++++ooo+++OOOOOOOOOOoooo...###                                ",
"                         oooOOOOOOO+++++++ooo+++OOOOOOOOOOoooo...###                                ",
"                         oooOOOOOOO+++++++ooo+++OOOOOOOOOOoooo...###                                ",
"                         oooOOOOOOO+++++++ooo+++OOOOOOOOOOoooo...###                                ",
"                            oooXXXXXXXooooOOO+++OOOOOOOOOOOOOOooo...                                ",
"                            oooXXXXXXXooooOOO+++OOOOOOOOOOOOOOooo...                                ",
"                            oooXXXXXXXooooOOO+++OOOOOOOOOOOOOOooo...                                ",
"                         OOOXXXXXXXXXXXXXXOOOOOOOOOOOOOOOOOOOOOOOooo                                ",
"                         OOOXXXXXXXXXXXXXXOOOOOOOOOOOOOOOOOOOOOOOooo                                ",
"                         OOOXXXXXXXXXXXXXXOOOOOOOOOOOOOOOOOOOOOOOooo                                ",
"                     OOOOOOOXXXXXXXXXXXXXXooooooOOOOOOOOOOOOOOOOOOOO                                ",
"                     OOOOOOOXXXXXXXXXXXXXXooooooOOOOOOOOOOOOOOOOOOOO                                ",
"                     OOOOOOOXXXXXXXXXXXXXXooooooOOOOOOOOOOOOOOOOOOOO                                ",
"                     OOOOOOOXXXXXXXXXXXXXXooooooOOOOOOOOOOOOOOOOOOOO                                ",
"                  OOOOOOOOOO###XXXXXXX@@@@@@@###ooooooooooOOOOOOOOOO                                ",
"                  OOOOOOOOOO###XXXXXXX@@@@@@@###ooooooooooOOOOOOOOOO                                ",
"                  OOOOOOOOOO###XXXXXXX@@@@@@@###ooooooooooOOOOOOOOOO                                ",
"               OOOOOOOOOOOOO@@@.................####@@@...ooooooo                                   ",
"               OOOOOOOOOOOOO@@@.................####@@@...ooooooo                                   ",
"               OOOOOOOOOOOOO@@@.................####@@@...ooooooo                                   ",
"               OOOOOOOOOOOOO@@@.................####@@@...ooooooo                                   ",
"           OOOOOOOOOOOOOOOOO@@@........................###.......                                   ",
"           OOOOOOOOOOOOOOOOO@@@........................###.......                                   ",
"           OOOOOOOOOOOOOOOOO@@@........................###.......                                   ",
"           OOOOOOOOOOOOOOOOO...####...##########..........@@@@...                                   ",
"           OOOOOOOOOOOOOOOOO...####...##########..........@@@@...                                   ",
"           OOOOOOOOOOOOOOOOO...####...##########..........@@@@...                                   ",
"           OOOOOOOOOOOOOOoooooo....#############@@@@......####...                                   ",
"           OOOOOOOOOOOOOOoooooo....#############@@@@......####...                                   ",
"           OOOOOOOOOOOOOOoooooo....#############@@@@......####...                                   ",
"           OOOOOOOOOOOOOOoooooo....#############@@@@......####...                                   ",
"               ooooooooooOOOooo....#############@@@@......####...                                   ",
"               ooooooooooOOOooo....#############@@@@......####...                                   ",
"               ooooooooooOOOooo....#############@@@@......####...                                   ",
"                  ooooooooooooo....##########@@@@@@@..........@@@XXX                                ",
"                  ooooooooooooo....##########@@@@@@@..........@@@XXX                                ",
"                  ooooooooooooo....##########@@@@@@@..........@@@XXX                                ",
"                               .......@@@@@@@@@@.................XXX                                ",
"                               .......@@@@@@@@@@.................XXX                                ",
"                               .......@@@@@@@@@@.................XXX                                ",
"                               .......@@@@@@@@@@.................XXX                                ",
"                                   ...........................XXXXXX                                ",
"                                   ...........................XXXXXX                                ",
"                                   ...........................XXXXXX                                ",
"                                      ....................                                          ",
"                                      ....................                                          ",
"                                      ....................                                          ",
"                                      ....................                                          ",
"                                      .......             ....                                      ",
"                                      .......             ....                                      ",
"                                      .......             ....                                      ",
"                                                                                                    ",
"                                                                                                    ",
"                                                                                                    ",
"                                                                                                    ",
"                                                                                                    ",
"                                                                                                    ",
"                                                                                                    ",
"                                                                                                    ",
"                                                                                                    ",
"                                                                                                    ",
"                                                                                                    ",
"                                                                                                    ",
"                                                                                                    ",
"                                                                                                    ",
"                                                                                                    ",
"                                                                                                    ",
"                                                                                                    ",
"                                                                                                    ",
"                                                                                                    "
};
