/* XPM */
static char *_92d5fd0c7594c86a37bc134832c162erdJ8ortDdsoWbL4s[] = {
/* columns rows colors chars-per-pixel */
"100 100 8 1 ",
"  c None",
". c #371515",
"X c #491E1D",
"o c #622020",
"O c #762727",
"+ c #772828",
"@ c #E49696",
"# c #FFAEAE",
/* pixels */
"                                                                                                    ",
"                                                                                                    ",
"                                                                                                    ",
"                                                                                                    ",
"                                                                                                    ",
"                                                                                                    ",
"                                                                                                    ",
"                                                                                                    ",
"                                                                                                    ",
"                                                                                                    ",
"                                                                                                    ",
"                                   ...                                  ...                         ",
"                                   ...                                  ...                         ",
"                                   ...                                  ...                         ",
"                               .......                              .......                         ",
"                               .......                              .......                         ",
"                               .......                              .......                         ",
"                               .......                              .......                         ",
"                                   ...                              .......                         ",
"                                   ...                              .......                         ",
"                                   ...                              .......                         ",
"                                   ...                              ....                            ",
"                                   ...                              ....                            ",
"                                   ...                              ....                            ",
"                                   ...                              ....                            ",
"                               .......OOOO                          ....                            ",
"                               .......OOOO                          ....                            ",
"                               .......OOOO                          ....                            ",
"                            OOO....OOO.......       OOOOOOOOOOOOO   ....                            ",
"                            OOO....OOO.......       OOOOOOOOOOOOO   ....                            ",
"                            OOO....OOO.......       OOOOOOOOOOOOO   ....                            ",
"                         OOOOOO...........###OOOOOOOOOOOOOOOOO..........                            ",
"                         OOOOOO...........###OOOOOOOOOOOOOOOOO..........                            ",
"                         OOOOOO...........###OOOOOOOOOOOOOOOOO..........                            ",
"                         OOOOOO...........###OOOOOOOOOOOOOOOOO..........                            ",
"                         OOOOOOOOOOooooooo...+++OOOOOOOOOOoooo...###....                            ",
"                         OOOOOOOOOOooooooo...+++OOOOOOOOOOoooo...###....                            ",
"                         OOOOOOOOOOooooooo...+++OOOOOOOOOOoooo...###....                            ",
"                         oooOOOOOOOOOOOOOOooo+++OOOOOOOOOOoooo...###                                ",
"                         oooOOOOOOOOOOOOOOooo+++OOOOOOOOOOoooo...###                                ",
"                         oooOOOOOOOOOOOOOOooo+++OOOOOOOOOOoooo...###                                ",
"                            oooXXXXXXXooooOOO+++OOOOOOOOOOOOOOooo...                                ",
"                            oooXXXXXXXooooOOO+++OOOOOOOOOOOOOOooo...                                ",
"                            oooXXXXXXXooooOOO+++OOOOOOOOOOOOOOooo...                                ",
"                            oooXXXXXXXooooOOO+++OOOOOOOOOOOOOOooo...                                ",
"                            XXXXXXXXXXXXXXoooOOOOOOOOOOOOOOOOOOOOooo                                ",
"                            XXXXXXXXXXXXXXoooOOOOOOOOOOOOOOOOOOOOooo                                ",
"                            XXXXXXXXXXXXXXoooOOOOOOOOOOOOOOOOOOOOooo                                ",
"           @@@@@@@###       XXXXXXXXXXXXXXooooooOOOOOOOOOOOOOOOOOOOO                                ",
"           @@@@@@@###       XXXXXXXXXXXXXXooooooOOOOOOOOOOOOOOOOOOOO                                ",
"           @@@@@@@###       XXXXXXXXXXXXXXooooooOOOOOOOOOOOOOOOOOOOO                                ",
"           @@@@@@@###       XXXXXXXXXXXXXXooooooOOOOOOOOOOOOOOOOOOOO                                ",
"        @@@@@@@##########   ###XXXXXXX@@@@......ooooooooooOOOOOOOOOO                                ",
"        @@@@@@@##########   ###XXXXXXX@@@@......ooooooooooOOOOOOOOOO                                ",
"        @@@@@@@##########   ###XXXXXXX@@@@......ooooooooooOOOOOOOOOO                                ",
"        @@@##############OOO@@@...........###.............ooooooo                                   ",
"        @@@##############OOO@@@...........###.............ooooooo                                   ",
"        @@@##############OOO@@@...........###.............ooooooo                                   ",
"        @@@##############OOO@@@..............###.................                                   ",
"        @@@##############OOO@@@..............###.................                                   ",
"        @@@##############OOO@@@..............###.................                                   ",
"        @@@##############OOO@@@..............###.................                                   ",
"           ##########OOOO###....................@@@@.............                                   ",
"           ##########OOOO###....................@@@@.............                                   ",
"           ##########OOOO###....................@@@@.............                                   ",
"                  ooooooooooooo.....................###..........                                   ",
"                  ooooooooooooo.....................###..........                                   ",
"                  ooooooooooooo.....................###..........                                   ",
"                     oooooooooo........................@@@####...                                   ",
"                     oooooooooo........................@@@####...                                   ",
"                     oooooooooo........................@@@####...                                   ",
"                     oooooooooo........................@@@####...                                   ",
"                               ...............................@@@XXX                                ",
"                               ...............................@@@XXX                                ",
"                               ...............................@@@XXX                                ",
"                               ...............................XXXXXX                                ",
"                               ...............................XXXXXX                                ",
"                               ...............................XXXXXX                                ",
"                               ...............................XXXXXX                                ",
"                                   .......................                                          ",
"                                   .......................                                          ",
"                                   .......................                                          ",
"                                      ....................                                          ",
"                                      ....................                                          ",
"                                      ....................                                          ",
"                                                                                                    ",
"                                                                                                    ",
"                                                                                                    ",
"                                                                                                    ",
"                                                                                                    ",
"                                                                                                    ",
"                                                                                                    ",
"                                                                                                    ",
"                                                                                                    ",
"                                                                                                    ",
"                                                                                                    ",
"                                                                                                    ",
"                                                                                                    ",
"                                                                                                    ",
"                                                                                                    "
};
