/* XPM */
static char *walk_21662996757[] = {
/* columns rows colors chars-per-pixel */
"100 100 7 1 ",
"  c None",
". c #371515",
"X c #491E1D",
"o c #622020",
"O c #762727",
"+ c #E49696",
"@ c #FFAEAE",
/* pixels */
"                       ....                                                            ....         ",
"                       ....                                                            ....         ",
"                       ....                                                            ....         ",
"                    .......                                                      ...   ....         ",
"                    .......                                                      ...   ....         ",
"                    .......                                                      ...   ....         ",
"                    .......                                                      ...   ....         ",
"                       ....                                                      ..........         ",
"                       ....                                                      ..........         ",
"                       ....                                                      ..........         ",
"                       ....                                                  .......                ",
"                       ....                                                  .......                ",
"                       ....                                                  .......                ",
"                    .......      OOOOOOO                                         ...                ",
"                    .......      OOOOOOO                                         ...                ",
"                    .......      OOOOOOO                                         ...                ",
"                    .......      OOOOOOO                                         ...                ",
"                    ...       OOO.......OOOOOOO       OOOOOOOOOOOOO              ...                ",
"                    ...       OOO.......OOOOOOO       OOOOOOOOOOOOO              ...                ",
"                    ...       OOO.......OOOOOOO       OOOOOOOOOOOOO              ...                ",
"                    .................@@@....OOOOOOOOOOOOO..........OOO           ...                ",
"                    .................@@@....OOOOOOOOOOOOO..........OOO           ...                ",
"                    .................@@@....OOOOOOOOOOOOO..........OOO           ...                ",
"                    .................@@@....OOOOOOOOOOOOO..........OOO           ...                ",
"                           OOO..............OOOOOOOOOO......@@@@@@@.................                ",
"                           OOO..............OOOOOOOOOO......@@@@@@@.................                ",
"                           OOO..............OOOOOOOOOO......@@@@@@@.................                ",
"                           OOOooo.......ooooOOOOOOOOOO......@@@@@@@...                              ",
"                           OOOooo.......ooooOOOOOOOOOO......@@@@@@@...                              ",
"                           OOOooo.......ooooOOOOOOOOOO......@@@@@@@...                              ",
"                           XXXXXXoooooooOOOOOOOOOOOOOO................                              ",
"                           XXXXXXoooooooOOOOOOOOOOOOOO................                              ",
"                           XXXXXXoooooooOOOOOOOOOOOOOO................                              ",
"                           XXXXXXoooooooOOOOOOOOOOOOOO................                              ",
"                       XXXXXXXXXXXXXXoooooooOOOOOOOOOOooo..........ooo                              ",
"                       XXXXXXXXXXXXXXoooooooOOOOOOOOOOooo..........ooo                              ",
"                       XXXXXXXXXXXXXXoooooooOOOOOOOOOOooo..........ooo                              ",
"                       XXXXXXXXXXXXXX.......oooOOOOOOOOOOooooooooooOOO                              ",
"                       XXXXXXXXXXXXXX.......oooOOOOOOOOOOooooooooooOOO                              ",
"                       XXXXXXXXXXXXXX.......oooOOOOOOOOOOooooooooooOOO                              ",
"                       @@@@XXXXXX++++@@@..........oooooooOOOOOOOOOOOOO                              ",
"                       @@@@XXXXXX++++@@@..........oooooooOOOOOOOOOOOOO                              ",
"                       @@@@XXXXXX++++@@@..........oooooooOOOOOOOOOOOOO                              ",
"                       @@@@XXXXXX++++@@@..........oooooooOOOOOOOOOOOOO                              ",
"                       ++++OOO..........@@@@................ooooOOOOOO                              ",
"                       ++++OOO..........@@@@................ooooOOOOOO                              ",
"                       ++++OOO..........@@@@................ooooOOOOOO                              ",
"                    OOO++++OOO..............+++.................ooo                                 ",
"                    OOO++++OOO..............+++.................ooo                                 ",
"                    OOO++++OOO..............+++.................ooo                                 ",
"                    OOO++++OOO..............+++.................ooo                                 ",
"                 OOOOOO++++OOO.................@@@.................                                 ",
"                 OOOOOO++++OOO.................@@@.................                                 ",
"                 OOOOOO++++OOO.................@@@.................                                 ",
"                 OOO@@@OOOOoooooo.................@@@@.............ooo                              ",
"                 OOO@@@OOOOoooooo.................@@@@.............ooo                              ",
"                 OOO@@@OOOOoooooo.................@@@@.............ooo                              ",
"          @@@@@@@@@@ooooooooooooo.................++++.............ooooooo                          ",
"          @@@@@@@@@@ooooooooooooo.................++++.............ooooooo                          ",
"          @@@@@@@@@@ooooooooooooo.................++++.............ooooooo                          ",
"          @@@@@@@@@@ooooooooooooo.................++++.............ooooooo                          ",
"      @@@@@@@@@@@@@@@@@oooooooooo.....................@@@...XXXXXXXooooooo                          ",
"      @@@@@@@@@@@@@@@@@oooooooooo.....................@@@...XXXXXXXooooooo                          ",
"      @@@@@@@@@@@@@@@@@oooooooooo.....................@@@...XXXXXXXooooooo                          ",
"      ++++@@@@@@@@@@@@@oooooooooo........................+++XXXXXXXXXXoooo                          ",
"      ++++@@@@@@@@@@@@@oooooooooo........................+++XXXXXXXXXXoooo                          ",
"      ++++@@@@@@@@@@@@@oooooooooo........................+++XXXXXXXXXXoooo                          ",
"      +++++++@@@@@@@@@@              ....................XXXXXXXXXXXXX                              ",
"      +++++++@@@@@@@@@@              ....................XXXXXXXXXXXXX                              ",
"      +++++++@@@@@@@@@@              ....................XXXXXXXXXXXXX                              ",
"      +++++++@@@@@@@@@@              ....................XXXXXXXXXXXXX                              ",
"          ++++++++++                    ....................XXXXXXX                                 ",
"          ++++++++++                    ....................XXXXXXX                                 ",
"          ++++++++++                    ....................XXXXXXX                                 ",
"                                     ...                        ...                                 ",
"                                     ...                        ...                                 ",
"                                     ...                        ...                                 ",
"                                     ...                        ...                                 ",
"                                                                                                    ",
"                                                                                                    ",
"                                                                                                    ",
"                                                                                                    ",
"                                                                                                    ",
"                                                                                                    ",
"                                                                                                    ",
"                                                                                                    ",
"                                                                                                    ",
"                                                                                                    ",
"                                                                                                    ",
"                                                                                                    ",
"                                                                                                    ",
"                                                                                                    ",
"                                                                                                    ",
"                                                                                                    ",
"                                                                                                    ",
"                                                                                                    ",
"                                                                                                    ",
"                                                                                                    ",
"                                                                                                    ",
"                                                                                                    "
};
