/* XPM */
static char *_20e5536d7a34ea980ddc3c0f80a80c1vqc3Yj8fnWbfE3QU[] = {
/* columns rows colors chars-per-pixel */
"100 100 9 1 ",
"  c None",
". c #371515",
"X c #381616",
"o c #491E1D",
"O c #622020",
"+ c #762727",
"@ c #772828",
"# c #E49696",
"$ c #FFAEAE",
/* pixels */
"                                   ...                                  ...                         ",
"                                   ...                                  ...                         ",
"                                   ...                                  ...                         ",
"                               .......                              .......                         ",
"                               .......                              .......                         ",
"                               .......                              .......                         ",
"                                   ...                              .......                         ",
"                                   ...                              .......                         ",
"                                   ...                              .......                         ",
"                                   ...                              .......                         ",
"                                   ...                           .......                            ",
"                                   ...                           .......                            ",
"                                   ...                           .......                            ",
"                               .......++++                          ....                            ",
"                               .......++++                          ....                            ",
"                               .......++++                          ....                            ",
"                               .......++++                          ....                            ",
"                            +++....+++.......       +++++++++++++   ....                            ",
"                            +++....+++.......       +++++++++++++   ....                            ",
"                            +++....+++.......       +++++++++++++   ....                            ",
"                         ++++++...........$$$+++++++++++++++++..........                            ",
"                         ++++++...........$$$+++++++++++++++++..........                            ",
"                         ++++++...........$$$+++++++++++++++++..........                            ",
"                         ++++++++++OOOOOOO...@@@++++++++++OOOO...$$$....                            ",
"                         ++++++++++OOOOOOO...@@@++++++++++OOOO...$$$....                            ",
"                         ++++++++++OOOOOOO...@@@++++++++++OOOO...$$$....                            ",
"                         ++++++++++OOOOOOO...@@@++++++++++OOOO...$$$....                            ",
"                         OOO++++++++++++++OOO@@@++++++++++OOOO...$$$                                ",
"                         OOO++++++++++++++OOO@@@++++++++++OOOO...$$$                                ",
"                         OOO++++++++++++++OOO@@@++++++++++OOOO...$$$                                ",
"                            OOOoooooooOOOO+++@@@++++++++++++++OOOXXX                                ",
"                            OOOoooooooOOOO+++@@@++++++++++++++OOOXXX                                ",
"                            OOOoooooooOOOO+++@@@++++++++++++++OOOXXX                                ",
"                            oooooooooooooo+++++++++++++++++++++++OOO                                ",
"                            oooooooooooooo+++++++++++++++++++++++OOO                                ",
"                            oooooooooooooo+++++++++++++++++++++++OOO                                ",
"                            oooooooooooooo+++++++++++++++++++++++OOO                                ",
"                            ooooooooooooooOOOOOO++++++++++++++++++++                                ",
"                            ooooooooooooooOOOOOO++++++++++++++++++++                                ",
"                            ooooooooooooooOOOOOO++++++++++++++++++++                                ",
"                            $$$ooooooo####......OOOOOOOOOO++++++++++                                ",
"                            $$$ooooooo####......OOOOOOOOOO++++++++++                                ",
"                            $$$ooooooo####......OOOOOOOOOO++++++++++                                ",
"                            $$$ooooooo####......OOOOOOOOOO++++++++++                                ",
"                     +++++++###...........$$$.............OOOOOOO                                   ",
"                     +++++++###...........$$$.............OOOOOOO                                   ",
"                     +++++++###...........$$$.............OOOOOOO                                   ",
"                  ++++++++++###...........###....................                                   ",
"                  ++++++++++###...........###....................                                   ",
"                  ++++++++++###...........###....................                                   ",
"               +++++++++++++###..............###$$$$.............                                   ",
"               +++++++++++++###..............###$$$$.............                                   ",
"               +++++++++++++###..............###$$$$.............                                   ",
"               +++++++++++++###..............###$$$$.............                                   ",
"               ++++++++++++++++$$$$.................$$$..........                                   ",
"               ++++++++++++++++$$$$.................$$$..........                                   ",
"               ++++++++++++++++$$$$.................$$$..........                                   ",
"               ++++++++++OOOOOO....$$$$$$$$$$..........###.......                                   ",
"               ++++++++++OOOOOO....$$$$$$$$$$..........###.......                                   ",
"               ++++++++++OOOOOO....$$$$$$$$$$..........###.......                                   ",
"                  OOOOOOOOOOOOO$$$$$$$$$$$$$$$$$.......$$$.......ooo                                ",
"                  OOOOOOOOOOOOO$$$$$$$$$$$$$$$$$.......$$$.......ooo                                ",
"                  OOOOOOOOOOOOO$$$$$$$$$$$$$$$$$.......$$$.......ooo                                ",
"                  OOOOOOOOOOOOO$$$$$$$$$$$$$$$$$.......$$$.......ooo                                ",
"                     OOOOOOOOOO$$$$$$$$$$$$$$###..........$$$$###ooo                                ",
"                     OOOOOOOOOO$$$$$$$$$$$$$$###..........$$$$###ooo                                ",
"                     OOOOOOOOOO$$$$$$$$$$$$$$###..........$$$$###ooo                                ",
"                               $$$$$$$$$$$######.................ooo                                ",
"                               $$$$$$$$$$$######.................ooo                                ",
"                               $$$$$$$$$$$######.................ooo                                ",
"                               $$$$$$$$$$$######.................ooo                                ",
"                                   ##########.................                                      ",
"                                   ##########.................                                      ",
"                                   ##########.................                                      ",
"                                   ...                        ...                                   ",
"                                   ...                        ...                                   ",
"                                   ...                        ...                                   ",
"                                                                                                    ",
"                                                                                                    ",
"                                                                                                    ",
"                                                                                                    ",
"                                                                                                    ",
"                                                                                                    ",
"                                                                                                    ",
"                                                                                                    ",
"                                                                                                    ",
"                                                                                                    ",
"                                                                                                    ",
"                                                                                                    ",
"                                                                                                    ",
"                                                                                                    ",
"                                                                                                    ",
"                                                                                                    ",
"                                                                                                    ",
"                                                                                                    ",
"                                                                                                    ",
"                                                                                                    ",
"                                                                                                    ",
"                                                                                                    ",
"                                                                                                    "
};
