/* XPM */
static char *walk_11662996757[] = {
/* columns rows colors chars-per-pixel */
"100 100 7 1 ",
"  c None",
". c #371515",
"X c #491E1D",
"o c #622020",
"O c #762727",
"+ c #E49696",
"@ c #FFAEAE",
/* pixels */
"                                                                                                    ",
"                                                                                                    ",
"                                                                                                    ",
"                       ....                                                            ....         ",
"                       ....                                                            ....         ",
"                       ....                                                            ....         ",
"                       ....                                                            ....         ",
"                    .......                                                      ...   ....         ",
"                    .......                                                      ...   ....         ",
"                    .......                                                      ...   ....         ",
"                       ....                                                      ..........         ",
"                       ....                                                      ..........         ",
"                       ....                                                      ..........         ",
"                       ....                                                  .......                ",
"                       ....                                                  .......                ",
"                       ....                                                  .......                ",
"                       ....                                                  .......                ",
"                    .......      OOOOOOO                                         ...                ",
"                    .......      OOOOOOO                                         ...                ",
"                    .......      OOOOOOO                                         ...                ",
"                    ...       OOO.......OOOOOOO       OOOOOOOOOOOOO              ...                ",
"                    ...       OOO.......OOOOOOO       OOOOOOOOOOOOO              ...                ",
"                    ...       OOO.......OOOOOOO       OOOOOOOOOOOOO              ...                ",
"                    ...       OOO.......OOOOOOO       OOOOOOOOOOOOO              ...                ",
"                    .................@@@....OOOOOOOOOOOOO..........OOO           ...                ",
"                    .................@@@....OOOOOOOOOOOOO..........OOO           ...                ",
"                    .................@@@....OOOOOOOOOOOOO..........OOO           ...                ",
"                           OOO..............OOOOOOOOOO......@@@@@@@.................                ",
"                           OOO..............OOOOOOOOOO......@@@@@@@.................                ",
"                           OOO..............OOOOOOOOOO......@@@@@@@.................                ",
"                           OOOooo.......ooooOOOOOOOOOO......@@@@@@@...                              ",
"                           OOOooo.......ooooOOOOOOOOOO......@@@@@@@...                              ",
"                           OOOooo.......ooooOOOOOOOOOO......@@@@@@@...                              ",
"                           OOOooo.......ooooOOOOOOOOOO......@@@@@@@...                              ",
"                              ooooooooooOOOOOOOOOOOOOO................                              ",
"                              ooooooooooOOOOOOOOOOOOOO................                              ",
"                              ooooooooooOOOOOOOOOOOOOO................                              ",
"                           XXXXXXoooooooooooOOOOOOOOOOooo..........ooo                              ",
"                           XXXXXXoooooooooooOOOOOOOOOOooo..........ooo                              ",
"                           XXXXXXoooooooooooOOOOOOOOOOooo..........ooo                              ",
"                       XXXXXXXXXXXXXX.......oooOOOOOOOOOOooooooooooOOO                              ",
"                       XXXXXXXXXXXXXX.......oooOOOOOOOOOOooooooooooOOO                              ",
"                       XXXXXXXXXXXXXX.......oooOOOOOOOOOOooooooooooOOO                              ",
"                       XXXXXXXXXXXXXX.......oooOOOOOOOOOOooooooooooOOO                              ",
"                       XXXXXXXXXXXXXX.............oooooooOOOOOOOOOOOOO                              ",
"                       XXXXXXXXXXXXXX.............oooooooOOOOOOOOOOOOO                              ",
"                       XXXXXXXXXXXXXX.............oooooooOOOOOOOOOOOOO                              ",
"                       @@@@XXXXXX++++.......................ooooOOOOOO                              ",
"                       @@@@XXXXXX++++.......................ooooOOOOOO                              ",
"                       @@@@XXXXXX++++.......................ooooOOOOOO                              ",
"                       @@@@XXXXXX++++.......................ooooOOOOOO                              ",
"                       ++++OOO...@@@@...........................ooo                                 ",
"                       ++++OOO...@@@@...........................ooo                                 ",
"                       ++++OOO...@@@@...........................ooo                                 ",
"                       ++++OOO.......+++...........................                                 ",
"                       ++++OOO.......+++...........................                                 ",
"                       ++++OOO.......+++...........................                                 ",
"                       ++++OOOOOO....@@@...........................                                 ",
"                       ++++OOOOOO....@@@...........................                                 ",
"                       ++++OOOOOO....@@@...........................                                 ",
"                       ++++OOOOOO....@@@...........................                                 ",
"                       @@@@OOOOOO.......@@@@.......................                                 ",
"                       @@@@OOOOOO.......@@@@.......................                                 ",
"                       @@@@OOOOOO.......@@@@.......................                                 ",
"                    @@@@@@@@@@OOO...........+++....................                                 ",
"                    @@@@@@@@@@OOO...........+++....................                                 ",
"                    @@@@@@@@@@OOO...........+++....................                                 ",
"                 @@@@@@@@@@@@@@@@..............@@@++++......XXXXXXX                                 ",
"                 @@@@@@@@@@@@@@@@..............@@@++++......XXXXXXX                                 ",
"                 @@@@@@@@@@@@@@@@..............@@@++++......XXXXXXX                                 ",
"                 @@@@@@@@@@@@@@@@..............@@@++++......XXXXXXX                                 ",
"                 +++@@@@@@@@@@@@@oooo.................@@@+++XXXXXXXXXX                              ",
"                 +++@@@@@@@@@@@@@oooo.................@@@+++XXXXXXXXXX                              ",
"                 +++@@@@@@@@@@@@@oooo.................@@@+++XXXXXXXXXX                              ",
"                 ++++++@@@@@@@@@@ooooooo.................XXXXXXXXXXXXX                              ",
"                 ++++++@@@@@@@@@@ooooooo.................XXXXXXXXXXXXX                              ",
"                 ++++++@@@@@@@@@@ooooooo.................XXXXXXXXXXXXX                              ",
"                 ++++++@@@@@@@@@@ooooooo.................XXXXXXXXXXXXX                              ",
"                    ++++++++++ooooooo   ....                XXXXXXX                                 ",
"                    ++++++++++ooooooo   ....                XXXXXXX                                 ",
"                    ++++++++++ooooooo   ....                XXXXXXX                                 ",
"                                     ...                                                            ",
"                                     ...                                                            ",
"                                     ...                                                            ",
"                                                                                                    ",
"                                                                                                    ",
"                                                                                                    ",
"                                                                                                    ",
"                                                                                                    ",
"                                                                                                    ",
"                                                                                                    ",
"                                                                                                    ",
"                                                                                                    ",
"                                                                                                    ",
"                                                                                                    ",
"                                                                                                    ",
"                                                                                                    ",
"                                                                                                    ",
"                                                                                                    ",
"                                                                                                    "
};
