/* XPM */
static char *walk_31662996758[] = {
/* columns rows colors chars-per-pixel */
"100 100 7 1 ",
"  c None",
". c #371515",
"X c #491E1D",
"o c #622020",
"O c #762727",
"+ c #E49696",
"@ c #FFAEAE",
/* pixels */
"                                                                                                    ",
"                                                                                                    ",
"                       ....                                                            ....         ",
"                       ....                                                            ....         ",
"                       ....                                                            ....         ",
"                       ....                                                            ....         ",
"                    .......                                                      ...   ....         ",
"                    .......                                                      ...   ....         ",
"                    .......                                                      ...   ....         ",
"                       ....                                                      ..........         ",
"                       ....                                                      ..........         ",
"                       ....                                                      ..........         ",
"                       ....                                                  .......                ",
"                       ....                                                  .......                ",
"                       ....                                                  .......                ",
"                       ....                                                  .......                ",
"                    .......      OOOOOOO                                         ...                ",
"                    .......      OOOOOOO                                         ...                ",
"                    .......      OOOOOOO                                         ...                ",
"                    ...       OOO.......OOOOOOO       OOOOOOOOOOOOO              ...                ",
"                    ...       OOO.......OOOOOOO       OOOOOOOOOOOOO              ...                ",
"                    ...       OOO.......OOOOOOO       OOOOOOOOOOOOO              ...                ",
"                    ...       OOO.......OOOOOOO       OOOOOOOOOOOOO              ...                ",
"                    .................@@@....OOOOOOOOOOOOO..........OOO           ...                ",
"                    .................@@@....OOOOOOOOOOOOO..........OOO           ...                ",
"                    .................@@@....OOOOOOOOOOOOO..........OOO           ...                ",
"                           OOO..............OOOOOOOOOO......@@@@@@@.................                ",
"                           OOO..............OOOOOOOOOO......@@@@@@@.................                ",
"                           OOO..............OOOOOOOOOO......@@@@@@@.................                ",
"                           OOOooo.......ooooOOOOOOOOOO......@@@@@@@...                              ",
"                           OOOooo.......ooooOOOOOOOOOO......@@@@@@@...                              ",
"                           OOOooo.......ooooOOOOOOOOOO......@@@@@@@...                              ",
"                           OOOooo.......ooooOOOOOOOOOO......@@@@@@@...                              ",
"                           XXXXXXoooooooOOOOOOOOOOOOOO................                              ",
"                           XXXXXXoooooooOOOOOOOOOOOOOO................                              ",
"                           XXXXXXoooooooOOOOOOOOOOOOOO................                              ",
"                       XXXXXXXXXXXXXXoooooooOOOOOOOOOOooo..........ooo                              ",
"                       XXXXXXXXXXXXXXoooooooOOOOOOOOOOooo..........ooo                              ",
"                       XXXXXXXXXXXXXXoooooooOOOOOOOOOOooo..........ooo                              ",
"                       XXXXXXXXXXXXXX.......oooOOOOOOOOOOooooooooooOOO                              ",
"                       XXXXXXXXXXXXXX.......oooOOOOOOOOOOooooooooooOOO                              ",
"                       XXXXXXXXXXXXXX.......oooOOOOOOOOOOooooooooooOOO                              ",
"                       XXXXXXXXXXXXXX.......oooOOOOOOOOOOooooooooooOOO                              ",
"                    OOO@@@@XXXXXX++++@@@..........oooooooOOOOOOOOOOOOO                              ",
"                    OOO@@@@XXXXXX++++@@@..........oooooooOOOOOOOOOOOOO                              ",
"                    OOO@@@@XXXXXX++++@@@..........oooooooOOOOOOOOOOOOO                              ",
"                 OOOOOO++++OOO..........@@@@+++.............ooooOOOOOO                              ",
"                 OOOOOO++++OOO..........@@@@+++.............ooooOOOOOO                              ",
"                 OOOOOO++++OOO..........@@@@+++.............ooooOOOOOO                              ",
"                 OOOOOO++++OOO..........@@@@+++.............ooooOOOOOO                              ",
"             OOOOOOOOOO++++OOO.................@@@..............ooo                                 ",
"             OOOOOOOOOO++++OOO.................@@@..............ooo                                 ",
"             OOOOOOOOOO++++OOO.................@@@..............ooo                                 ",
"          @@@@@@@@@@OOO++++OOO....................++++.............ooo                              ",
"          @@@@@@@@@@OOO++++OOO....................++++.............ooo                              ",
"          @@@@@@@@@@OOO++++OOO....................++++.............ooo                              ",
"      @@@@@@@@@@@@@@@@@@@@@oooooo.....................@@@..........ooooooo                          ",
"      @@@@@@@@@@@@@@@@@@@@@oooooo.....................@@@..........ooooooo                          ",
"      @@@@@@@@@@@@@@@@@@@@@oooooo.....................@@@..........ooooooo                          ",
"      @@@@@@@@@@@@@@@@@@@@@oooooo.....................@@@..........ooooooo                          ",
"      ++++@@@@@@@@@@@@@oooooooooo.....................@@@..........oooooooooo                       ",
"      ++++@@@@@@@@@@@@@oooooooooo.....................@@@..........oooooooooo                       ",
"      ++++@@@@@@@@@@@@@oooooooooo.....................@@@..........oooooooooo                       ",
"      +++++++@@@@@@@@@@oooooooooo........................@@@XXXXXXXoooooooooo                       ",
"      +++++++@@@@@@@@@@oooooooooo........................@@@XXXXXXXoooooooooo                       ",
"      +++++++@@@@@@@@@@oooooooooo........................@@@XXXXXXXoooooooooo                       ",
"          ++++++++++             ........................+++XXXXXXXXXXoooo                          ",
"          ++++++++++             ........................+++XXXXXXXXXXoooo                          ",
"          ++++++++++             ........................+++XXXXXXXXXXoooo                          ",
"          ++++++++++             ........................+++XXXXXXXXXXoooo                          ",
"                                     ....................XXXXXXXXXXXXX                              ",
"                                     ....................XXXXXXXXXXXXX                              ",
"                                     ....................XXXXXXXXXXXXX                              ",
"                                        ....................XXXXXXX                                 ",
"                                        ....................XXXXXXX                                 ",
"                                        ....................XXXXXXX                                 ",
"                                        ....................XXXXXXX                                 ",
"                                        .......             ....                                    ",
"                                        .......             ....                                    ",
"                                        .......             ....                                    ",
"                                                                                                    ",
"                                                                                                    ",
"                                                                                                    ",
"                                                                                                    ",
"                                                                                                    ",
"                                                                                                    ",
"                                                                                                    ",
"                                                                                                    ",
"                                                                                                    ",
"                                                                                                    ",
"                                                                                                    ",
"                                                                                                    ",
"                                                                                                    ",
"                                                                                                    ",
"                                                                                                    ",
"                                                                                                    ",
"                                                                                                    ",
"                                                                                                    ",
"                                                                                                    ",
"                                                                                                    "
};
