/* XPM */
static char *_c07b40bf4754ed9bc39a7930a75b4d1HuBTTZx6QBZhcTbL[] = {
/* columns rows colors chars-per-pixel */
"100 100 8 1 ",
"  c None",
". c #371515",
"X c #491E1D",
"o c #622020",
"O c #762727",
"+ c #772828",
"@ c #E49696",
"# c #FFAEAE",
/* pixels */
"                                                                                                    ",
"                                                                                                    ",
"                                                                                                    ",
"                                   ...                                  ...                         ",
"                                   ...                                  ...                         ",
"                                   ...                                  ...                         ",
"                               .......                              .......                         ",
"                               .......                              .......                         ",
"                               .......                              .......                         ",
"                               .......                              .......                         ",
"                                   ...                              .......                         ",
"                                   ...                              .......                         ",
"                                   ...                              .......                         ",
"                                   ...                           .......                            ",
"                                   ...                           .......                            ",
"                                   ...                           .......                            ",
"                                   ...                           .......                            ",
"                               .......OOOO                          ....                            ",
"                               .......OOOO                          ....                            ",
"                               .......OOOO                          ....                            ",
"                            OOO....OOO.......       OOOOOOOOOOOOO   ....                            ",
"                            OOO....OOO.......       OOOOOOOOOOOOO   ....                            ",
"                            OOO....OOO.......       OOOOOOOOOOOOO   ....                            ",
"                         OOOOOO...........###OOOOOOOOOOOOOOOOO..........                            ",
"                         OOOOOO...........###OOOOOOOOOOOOOOOOO..........                            ",
"                         OOOOOO...........###OOOOOOOOOOOOOOOOO..........                            ",
"                         OOOOOO...........###OOOOOOOOOOOOOOOOO..........                            ",
"                         OOOOOOOOOOooooooo...+++OOOOOOOOOOoooo...###....                            ",
"                         OOOOOOOOOOooooooo...+++OOOOOOOOOOoooo...###....                            ",
"                         OOOOOOOOOOooooooo...+++OOOOOOOOOOoooo...###....                            ",
"                         oooOOOOOOOOOOOOOOooo+++OOOOOOOOOOoooo...###                                ",
"                         oooOOOOOOOOOOOOOOooo+++OOOOOOOOOOoooo...###                                ",
"                         oooOOOOOOOOOOOOOOooo+++OOOOOOOOOOoooo...###                                ",
"                            ooooooooooOOOOOOO+++OOOOOOOOOOOOOOooo...                                ",
"                            ooooooooooOOOOOOO+++OOOOOOOOOOOOOOooo...                                ",
"                            ooooooooooOOOOOOO+++OOOOOOOOOOOOOOooo...                                ",
"                            ooooooooooOOOOOOO+++OOOOOOOOOOOOOOooo...                                ",
"                               XXXXXXXooooOOOOOOOOOOOOOOOOOOOOOOOooo                                ",
"                               XXXXXXXooooOOOOOOOOOOOOOOOOOOOOOOOooo                                ",
"                               XXXXXXXooooOOOOOOOOOOOOOOOOOOOOOOOooo                                ",
"                            XXXXXXXXXXXXXXooooooOOOOOOOOOOOOOOOOOOOO                                ",
"                            XXXXXXXXXXXXXXooooooOOOOOOOOOOOOOOOOOOOO                                ",
"                            XXXXXXXXXXXXXXooooooOOOOOOOOOOOOOOOOOOOO                                ",
"                            XXXXXXXXXXXXXXooooooOOOOOOOOOOOOOOOOOOOO                                ",
"                            XXXXXXXXXXXXXX......ooooooooooOOOOOOOOOO                                ",
"                            XXXXXXXXXXXXXX......ooooooooooOOOOOOOOOO                                ",
"                            XXXXXXXXXXXXXX......ooooooooooOOOOOOOOOO                                ",
"                         OOO###XXXXXXX@@@@................ooooooo                                   ",
"                         OOO###XXXXXXX@@@@................ooooooo                                   ",
"                         OOO###XXXXXXX@@@@................ooooooo                                   ",
"                         OOO###.......@@@@.......................                                   ",
"                         OOO###.......@@@@.......................                                   ",
"                         OOO###.......@@@@.......................                                   ",
"                         OOO###.......@@@@.......................                                   ",
"                         OOO###.......####.......................                                   ",
"                         OOO###.......####.......................                                   ",
"                         OOO###.......####.......................                                   ",
"                     OOOOOOO###...........###....................                                   ",
"                     OOOOOOO###...........###....................                                   ",
"                     OOOOOOO###...........###....................                                   ",
"                     OOOOooo###...........###....................                                   ",
"                     OOOOooo###...........###....................                                   ",
"                     OOOOooo###...........###....................                                   ",
"                     OOOOooo###...........###....................                                   ",
"                  ooooooo##########..........@@@.................                                   ",
"                  ooooooo##########..........@@@.................                                   ",
"                  ooooooo##########..........@@@.................                                   ",
"                  ooo#################..........####.............XXX                                ",
"                  ooo#################..........####.............XXX                                ",
"                  ooo#################..........####.............XXX                                ",
"                  ooo#################..........####.............XXX                                ",
"                  ooo@@@@#############..............###@@@@@@@@@@XXX                                ",
"                  ooo@@@@#############..............###@@@@@@@@@@XXX                                ",
"                  ooo@@@@#############..............###@@@@@@@@@@XXX                                ",
"                     @@@@@@@##########........................XXXXXX                                ",
"                     @@@@@@@##########........................XXXXXX                                ",
"                     @@@@@@@##########........................XXXXXX                                ",
"                         @@@@@@@@@@   ....                ....                                      ",
"                         @@@@@@@@@@   ....                ....                                      ",
"                         @@@@@@@@@@   ....                ....                                      ",
"                         @@@@@@@@@@   ....                ....                                      ",
"                                   ...                                                              ",
"                                   ...                                                              ",
"                                   ...                                                              ",
"                                                                                                    ",
"                                                                                                    ",
"                                                                                                    ",
"                                                                                                    ",
"                                                                                                    ",
"                                                                                                    ",
"                                                                                                    ",
"                                                                                                    ",
"                                                                                                    ",
"                                                                                                    ",
"                                                                                                    ",
"                                                                                                    ",
"                                                                                                    ",
"                                                                                                    ",
"                                                                                                    ",
"                                                                                                    "
};
